<svg xmlns="http://www.w3.org/2000/svg" xmlns:xlink="http://www.w3.org/1999/xlink" width="2000" zoomAndPan="magnify" viewBox="0 0 1500 1499.999933" height="2000" preserveAspectRatio="xMidYMid meet" version="1.0"><defs><clipPath id="8dc0b839d8"><path d="M 54.347656 0 L 1445.597656 0 L 1445.597656 1498 L 54.347656 1498 Z M 54.347656 0 " clip-rule="nonzero"/></clipPath></defs><g clip-path="url(#8dc0b839d8)"><path fill="#231C14" d="M 1348.039062 1212.621094 C 1337.542969 1290.578125 1285.089844 1358.035156 1211.640625 1388.011719 C 1175.65625 1402.988281 1136.695312 1407.496094 1097.71875 1402.988281 C 1060.253906 1398.496094 1022.773438 1386.5 983.808594 1364.039062 C 929.84375 1334.03125 875.875 1287.582031 812.925781 1218.625 C 911.859375 1097.214844 971.800781 986.289062 994.292969 887.382812 C 1004.789062 840.90625 1006.285156 798.933594 1001.792969 759.953125 C 995.804688 722.488281 982.3125 688.003906 961.320312 658.027344 C 914.855469 590.582031 836.914062 551.605469 749.972656 551.605469 C 663.035156 551.605469 585.09375 592.078125 538.628906 658.027344 C 517.636719 688.003906 504.160156 722.488281 498.15625 759.953125 C 492.164062 798.933594 493.664062 842.402344 505.65625 887.382812 C 528.132812 986.289062 589.585938 1098.714844 687.023438 1220.109375 C 625.570312 1289.078125 570.105469 1335.542969 516.136719 1365.523438 C 477.175781 1388.011719 439.695312 1400.007812 402.230469 1404.484375 C 361.753906 1408.992188 322.777344 1402.988281 288.308594 1389.511719 C 214.859375 1359.53125 162.40625 1292.058594 151.910156 1214.117188 C 147.417969 1176.652344 150.410156 1139.1875 165.398438 1097.214844 C 169.890625 1082.210938 177.394531 1067.253906 184.882812 1049.253906 C 195.378906 1025.28125 207.371094 999.78125 219.351562 974.292969 L 220.863281 971.3125 C 324.273438 747.960938 435.203125 520.128906 550.625 298.304688 L 555.117188 289.289062 C 567.109375 266.828125 579.089844 242.855469 591.097656 220.363281 C 603.078125 196.375 616.570312 173.882812 633.054688 154.386719 C 664.53125 118.402344 706.503906 98.921875 752.96875 98.921875 C 799.433594 98.921875 841.40625 118.402344 872.882812 154.386719 C 889.367188 173.882812 902.859375 196.375 914.855469 220.363281 C 926.847656 242.855469 938.828125 266.828125 950.820312 289.289062 L 955.328125 298.304688 C 1069.238281 521.625 1180.164062 749.457031 1283.589844 972.8125 L 1283.589844 974.292969 C 1295.585938 998.28125 1306.066406 1025.28125 1318.0625 1049.253906 C 1325.5625 1067.253906 1333.050781 1082.210938 1337.542969 1097.214844 C 1349.535156 1136.179688 1354.027344 1173.671875 1348.039062 1212.621094 Z M 749.972656 1142.167969 C 669.039062 1040.253906 616.570312 944.316406 598.585938 863.394531 C 591.097656 828.910156 589.585938 798.933594 594.09375 771.949219 C 597.089844 747.960938 606.085938 726.964844 618.066406 708.96875 C 646.546875 668.539062 694.511719 643.007812 749.972656 643.007812 C 805.4375 643.007812 854.898438 667.011719 881.878906 708.96875 C 893.859375 726.964844 902.859375 747.960938 905.855469 771.949219 C 910.347656 798.933594 908.847656 830.40625 901.363281 863.394531 C 883.378906 942.832031 830.910156 1038.757812 749.972656 1142.167969 Z M 1425.980469 1064.226562 C 1418.492188 1046.246094 1410.992188 1026.761719 1403.503906 1010.277344 C 1391.507812 983.308594 1379.515625 957.808594 1369.019531 933.820312 L 1367.519531 932.335938 C 1264.109375 707.484375 1153.179688 479.652344 1036.261719 254.847656 L 1031.769531 245.832031 C 1019.777344 223.34375 1007.78125 199.355469 995.804688 175.378906 C 980.800781 148.382812 965.8125 119.929688 941.835938 92.933594 C 893.859375 32.976562 824.917969 0.00390625 751.472656 0.00390625 C 676.527344 0.00390625 609.082031 32.976562 559.609375 89.953125 C 537.132812 116.921875 520.644531 145.402344 505.65625 172.402344 C 493.664062 196.375 481.667969 220.363281 469.671875 242.855469 L 465.179688 251.824219 C 349.777344 476.660156 237.351562 704.503906 133.925781 929.339844 L 132.425781 932.335938 C 121.929688 956.308594 109.9375 981.78125 97.941406 1008.777344 C 90.453125 1025.28125 82.953125 1043.265625 75.464844 1062.746094 C 55.96875 1118.195312 49.980469 1170.664062 57.46875 1224.617188 C 73.96875 1337.042969 148.914062 1431.484375 252.339844 1473.441406 C 291.300781 1489.941406 331.777344 1497.429688 373.75 1497.429688 C 385.742188 1497.429688 400.734375 1495.929688 412.726562 1494.417969 C 462.1875 1488.414062 513.144531 1471.957031 562.601562 1443.460938 C 624.070312 1408.992188 682.53125 1359.53125 748.476562 1287.582031 C 814.421875 1359.53125 874.378906 1408.992188 934.335938 1443.460938 C 983.808594 1471.957031 1034.765625 1488.414062 1084.226562 1494.417969 C 1096.21875 1495.929688 1111.210938 1497.429688 1123.203125 1497.429688 C 1165.175781 1497.429688 1207.132812 1489.941406 1244.613281 1473.441406 C 1349.535156 1431.484375 1422.984375 1335.542969 1439.472656 1224.617188 C 1451.464844 1172.144531 1445.460938 1119.707031 1425.980469 1064.226562 Z M 1425.980469 1064.226562 " fill-opacity="1" fill-rule="nonzero"/></g></svg>