<svg xmlns="http://www.w3.org/2000/svg" xmlns:xlink="http://www.w3.org/1999/xlink" width="2000" zoomAndPan="magnify" viewBox="0 0 1500 404.99999" height="540" preserveAspectRatio="xMidYMid meet" version="1.0"><defs><g/><clipPath id="a7758b5676"><rect x="0" width="1124" y="0" height="266"/></clipPath></defs><path fill="#a84a26" d="M 168.082031 7.027344 C 211.710938 6.941406 252.625 26.03125 281.589844 57.289062 C 296.832031 73.742188 308.664062 93.039062 317.082031 115.1875 C 327.160156 141.691406 332.445312 168.824219 332.9375 196.585938 C 333.199219 211.421875 333.136719 227.773438 330.929688 242.976562 C 328.660156 258.613281 325.484375 272.648438 321.398438 285.089844 C 316.867188 298.851562 310.183594 312.859375 301.347656 327.113281 C 272.121094 374.269531 224.410156 398.917969 168.820312 399.03125 C 113.21875 399.128906 65.410156 374.664062 36.011719 327.621094 C 27.125 313.390625 20.386719 299.40625 15.800781 285.667969 C 11.671875 273.238281 8.445312 259.210938 6.121094 243.582031 C 3.851562 228.390625 3.726562 212.039062 3.9375 197.203125 C 4.324219 169.441406 9.507812 142.285156 19.488281 115.742188 C 27.824219 93.5625 39.578125 74.222656 54.753906 57.722656 C 83.597656 26.351562 124.453125 7.101562 168.082031 7.027344 Z M 104.734375 65.171875 C 104.726562 65.019531 104.785156 64.90625 104.917969 64.832031 C 105.046875 64.753906 105.175781 64.757812 105.300781 64.835938 C 107.101562 66.011719 108.378906 67.003906 109.136719 67.808594 C 120.269531 79.65625 125.3125 93.824219 124.265625 110.316406 C 124.160156 111.992188 123.925781 114.34375 123.5625 117.371094 C 123.496094 117.980469 123.605469 118.554688 123.898438 119.09375 C 124.679688 120.527344 125.617188 121.765625 126.707031 122.820312 C 131.550781 127.472656 142.253906 138.09375 158.820312 154.683594 C 159.097656 154.964844 159.394531 155.121094 159.707031 155.152344 C 159.964844 155.179688 160.21875 155.15625 160.464844 155.074219 C 160.710938 154.996094 160.929688 154.871094 161.121094 154.695312 C 161.3125 154.523438 161.457031 154.316406 161.558594 154.082031 C 161.664062 153.84375 161.710938 153.597656 161.707031 153.339844 C 161.171875 109.554688 161.132812 66.09375 161.59375 22.960938 C 161.597656 22.675781 161.539062 22.398438 161.421875 22.140625 C 161.304688 21.878906 161.140625 21.652344 160.921875 21.464844 C 160.707031 21.277344 160.460938 21.144531 160.1875 21.066406 C 159.910156 20.984375 159.632812 20.96875 159.351562 21.011719 C 149.125 22.566406 142.996094 23.542969 140.964844 23.945312 C 134.066406 25.3125 125.539062 28.007812 115.375 32.035156 C 97.359375 39.210938 83.5625 49.992188 69.453125 62.605469 C 69.285156 62.757812 69.152344 62.933594 69.054688 63.136719 C 68.957031 63.339844 68.902344 63.554688 68.886719 63.78125 C 68.875 64.007812 68.902344 64.226562 68.976562 64.441406 C 69.046875 64.65625 69.15625 64.851562 69.304688 65.023438 C 70.828125 66.773438 72.519531 68.59375 74.386719 70.484375 C 94.4375 90.542969 107.589844 103.730469 113.847656 110.042969 C 115.039062 111.246094 116.078125 111.902344 116.96875 112.015625 C 117.074219 112.03125 117.175781 112.019531 117.277344 111.980469 C 117.378906 111.941406 117.464844 111.886719 117.535156 111.804688 C 117.605469 111.726562 117.65625 111.636719 117.679688 111.535156 C 117.707031 111.433594 117.707031 111.332031 117.683594 111.226562 C 117.648438 111.097656 115.792969 107.996094 112.109375 101.929688 C 110.546875 99.347656 109.160156 95.46875 107.953125 90.289062 C 106.195312 82.71875 105.121094 74.34375 104.734375 65.171875 Z M 232.105469 65.15625 C 231.734375 74.324219 230.679688 82.6875 228.9375 90.253906 C 227.734375 95.421875 226.355469 99.300781 224.792969 101.882812 C 221.125 107.941406 219.277344 111.035156 219.242188 111.167969 C 219.21875 111.269531 219.21875 111.371094 219.246094 111.472656 C 219.269531 111.574219 219.320312 111.664062 219.390625 111.746094 C 219.460938 111.824219 219.546875 111.882812 219.648438 111.917969 C 219.75 111.957031 219.851562 111.96875 219.957031 111.957031 C 220.847656 111.839844 221.882812 111.183594 223.066406 109.984375 C 229.304688 103.667969 242.421875 90.484375 262.414062 70.421875 C 264.28125 68.542969 265.972656 66.722656 267.484375 64.972656 C 267.632812 64.800781 267.742188 64.609375 267.816406 64.394531 C 267.890625 64.179688 267.917969 63.960938 267.90625 63.734375 C 267.890625 63.507812 267.835938 63.292969 267.738281 63.089844 C 267.636719 62.886719 267.503906 62.707031 267.335938 62.554688 C 253.230469 49.976562 239.441406 39.238281 221.4375 32.097656 C 211.285156 28.085938 202.765625 25.402344 195.875 24.046875 C 193.851562 23.652344 187.734375 22.683594 177.515625 21.148438 C 177.230469 21.105469 176.953125 21.125 176.679688 21.207031 C 176.40625 21.285156 176.164062 21.417969 175.949219 21.605469 C 175.734375 21.792969 175.570312 22.019531 175.453125 22.277344 C 175.335938 22.539062 175.277344 22.8125 175.28125 23.09375 C 175.800781 66.164062 175.820312 109.558594 175.34375 153.277344 C 175.339844 153.535156 175.390625 153.78125 175.492188 154.019531 C 175.597656 154.253906 175.742188 154.457031 175.933594 154.632812 C 176.125 154.804688 176.34375 154.929688 176.589844 155.007812 C 176.835938 155.085938 177.085938 155.109375 177.339844 155.078125 C 177.652344 155.046875 177.949219 154.890625 178.230469 154.609375 C 194.746094 138.027344 205.414062 127.410156 210.242188 122.757812 C 211.335938 121.707031 212.273438 120.464844 213.054688 119.035156 C 213.339844 118.492188 213.449219 117.914062 213.375 117.308594 C 213.011719 114.289062 212.777344 111.945312 212.671875 110.265625 C 211.601562 93.800781 216.617188 79.648438 227.714844 67.808594 C 228.472656 67.003906 229.746094 66.011719 231.539062 64.835938 C 231.664062 64.757812 231.789062 64.753906 231.917969 64.828125 C 232.046875 64.902344 232.109375 65.011719 232.105469 65.15625 Z M 113.28125 215.8125 C 113.40625 215.738281 113.511719 215.644531 113.59375 215.527344 C 113.679688 215.410156 113.738281 215.28125 113.765625 215.140625 C 113.796875 215 113.792969 214.859375 113.765625 214.714844 C 113.734375 214.574219 113.675781 214.445312 113.589844 214.332031 C 108.195312 206.941406 104.863281 198.949219 103.585938 190.359375 C 102.625 183.929688 101.722656 177.21875 100.875 170.222656 C 100.863281 170.117188 100.863281 170.015625 100.875 169.914062 C 100.890625 169.808594 100.917969 169.710938 100.957031 169.613281 C 100.996094 169.519531 101.050781 169.429688 101.113281 169.347656 C 101.175781 169.265625 101.25 169.191406 101.332031 169.128906 C 101.414062 169.066406 101.5 169.015625 101.597656 168.972656 C 101.691406 168.933594 101.792969 168.90625 101.894531 168.890625 C 101.996094 168.878906 102.101562 168.875 102.203125 168.886719 C 102.304688 168.902344 102.40625 168.925781 102.503906 168.964844 C 103.078125 169.203125 103.804688 169.773438 104.683594 170.679688 C 115.160156 181.488281 120.421875 194.367188 120.480469 209.3125 C 120.496094 212.878906 120.347656 216.753906 120.023438 220.929688 C 119.96875 221.644531 120.0625 222.335938 120.304688 223.007812 C 120.542969 223.679688 120.914062 224.273438 121.40625 224.789062 C 130.875 234.613281 141.296875 244.992188 152.667969 255.925781 C 154.738281 257.910156 156.5625 260.449219 158.425781 262.164062 C 158.597656 262.324219 158.789062 262.453125 159 262.554688 C 159.207031 262.652344 159.421875 262.71875 159.636719 262.742188 C 159.855469 262.769531 160.066406 262.761719 160.269531 262.710938 C 160.472656 262.664062 160.65625 262.578125 160.816406 262.460938 C 161.1875 262.199219 161.371094 261.710938 161.371094 261.003906 C 161.363281 223.113281 161.3125 202.890625 161.210938 200.335938 C 160.851562 190.699219 158.238281 181.328125 153.382812 172.21875 C 150.0625 166.003906 143.972656 159.519531 138.792969 154.140625 C 136.707031 151.980469 134.902344 150.96875 133.378906 151.109375 C 130.847656 151.347656 127.351562 151.386719 122.886719 151.230469 C 107.09375 150.695312 93.898438 144.789062 83.300781 133.511719 C 83.1875 133.390625 83.117188 133.25 83.09375 133.089844 C 83.066406 132.925781 83.089844 132.769531 83.160156 132.621094 C 83.234375 132.476562 83.339844 132.359375 83.484375 132.277344 C 83.625 132.199219 83.78125 132.164062 83.945312 132.179688 C 92.113281 132.863281 100.527344 133.949219 109.1875 135.445312 C 113.464844 136.199219 116.105469 137.433594 120.628906 139.207031 C 120.953125 139.335938 121.238281 139.28125 121.484375 139.035156 C 121.734375 138.792969 121.796875 138.511719 121.675781 138.183594 C 121.421875 137.503906 120.820312 136.679688 119.863281 135.71875 C 107.8125 123.558594 97.632812 113.359375 89.320312 105.113281 C 78.234375 94.113281 69.566406 84.628906 59.6875 75.9375 C 59.558594 75.824219 59.410156 75.738281 59.246094 75.6875 C 59.082031 75.632812 58.914062 75.613281 58.742188 75.625 C 58.574219 75.640625 58.410156 75.6875 58.257812 75.765625 C 58.105469 75.84375 57.972656 75.953125 57.863281 76.082031 C 48.441406 87.515625 40.746094 102.214844 40.140625 116.875 C 39.476562 132.980469 44.773438 147.171875 56.039062 159.445312 C 60.699219 164.515625 74.828125 178.644531 98.421875 201.828125 C 100.992188 204.351562 103.804688 207.207031 106.855469 210.398438 C 109.519531 213.175781 111.359375 215.027344 112.378906 215.945312 C 112.554688 216.101562 112.738281 216.121094 112.933594 216.007812 Z M 223.523438 215.796875 L 223.867188 215.996094 C 224.0625 216.109375 224.25 216.089844 224.421875 215.933594 C 225.433594 215.011719 227.269531 213.167969 229.933594 210.398438 C 232.976562 207.207031 235.785156 204.351562 238.355469 201.828125 C 261.910156 178.652344 276.015625 164.527344 280.679688 159.457031 C 291.917969 147.191406 297.199219 133.015625 296.523438 116.925781 C 295.921875 102.277344 288.226562 87.589844 278.804688 76.183594 C 278.691406 76.050781 278.5625 75.941406 278.40625 75.863281 C 278.253906 75.78125 278.089844 75.734375 277.917969 75.722656 C 277.746094 75.707031 277.578125 75.726562 277.417969 75.78125 C 277.253906 75.835938 277.109375 75.921875 276.980469 76.035156 C 267.113281 84.726562 258.457031 94.199219 247.394531 105.199219 C 239.09375 113.445312 228.921875 123.640625 216.886719 135.792969 C 215.941406 136.753906 215.34375 137.578125 215.085938 138.257812 C 214.96875 138.585938 215.03125 138.867188 215.28125 139.109375 C 215.527344 139.355469 215.8125 139.410156 216.136719 139.28125 C 220.648438 137.507812 223.289062 136.273438 227.566406 135.519531 C 236.207031 134.015625 244.609375 132.921875 252.773438 132.242188 C 253.132812 132.207031 253.390625 132.351562 253.550781 132.675781 C 253.710938 133 253.671875 133.292969 253.425781 133.558594 C 242.847656 144.839844 229.664062 150.75 213.878906 151.292969 C 209.421875 151.449219 205.929688 151.40625 203.398438 151.167969 C 201.875 151.039062 200.078125 152.050781 197.996094 154.203125 C 192.816406 159.578125 186.738281 166.066406 183.433594 172.28125 C 178.582031 181.382812 175.980469 190.746094 175.628906 200.371094 C 175.527344 202.929688 175.484375 223.132812 175.492188 260.980469 C 175.492188 261.6875 175.675781 262.171875 176.046875 262.4375 C 176.210938 262.554688 176.390625 262.636719 176.59375 262.6875 C 176.796875 262.734375 177.007812 262.746094 177.226562 262.71875 C 177.445312 262.691406 177.65625 262.628906 177.867188 262.53125 C 178.074219 262.429688 178.265625 262.300781 178.4375 262.140625 C 180.300781 260.425781 182.125 257.886719 184.183594 255.898438 C 195.539062 244.976562 205.945312 234.601562 215.410156 224.777344 C 215.902344 224.261719 216.265625 223.667969 216.503906 222.996094 C 216.742188 222.320312 216.835938 221.628906 216.777344 220.917969 C 216.457031 216.746094 216.304688 212.878906 216.320312 209.3125 C 216.371094 194.382812 221.625 181.515625 232.082031 170.714844 C 232.960938 169.8125 233.6875 169.238281 234.261719 169 C 234.359375 168.964844 234.457031 168.9375 234.5625 168.925781 C 234.664062 168.914062 234.765625 168.914062 234.867188 168.929688 C 234.96875 168.941406 235.066406 168.96875 235.164062 169.011719 C 235.257812 169.050781 235.347656 169.101562 235.429688 169.164062 C 235.511719 169.226562 235.582031 169.296875 235.648438 169.378906 C 235.710938 169.460938 235.761719 169.550781 235.800781 169.644531 C 235.84375 169.738281 235.871094 169.835938 235.886719 169.941406 C 235.902344 170.042969 235.902344 170.144531 235.890625 170.246094 C 235.042969 177.242188 234.144531 183.949219 233.191406 190.371094 C 231.917969 198.953125 228.589844 206.941406 223.214844 214.332031 C 223.128906 214.445312 223.074219 214.574219 223.042969 214.714844 C 223.015625 214.855469 223.011719 214.992188 223.042969 215.132812 C 223.070312 215.273438 223.128906 215.402344 223.210938 215.515625 C 223.296875 215.632812 223.398438 215.726562 223.523438 215.796875 Z M 219.230469 328.222656 C 220.457031 327.617188 221.945312 326.398438 223.695312 324.574219 C 227.707031 320.390625 232.636719 315.449219 238.480469 309.75 C 256.753906 291.933594 274.117188 274.238281 301.914062 246.21875 C 312.742188 235.300781 318.265625 222.039062 318.488281 206.425781 C 318.574219 199.605469 318.808594 194.144531 318.09375 188.507812 C 317.167969 181.246094 316.796875 169.800781 315.070312 160.355469 C 313.9375 154.167969 313.3125 150.796875 313.195312 150.246094 C 313.171875 150.144531 313.136719 150.046875 313.089844 149.953125 C 313.042969 149.859375 312.984375 149.777344 312.914062 149.699219 C 312.847656 149.621094 312.769531 149.554688 312.679688 149.496094 C 312.59375 149.4375 312.503906 149.394531 312.40625 149.359375 C 312.308594 149.328125 312.207031 149.304688 312.101562 149.296875 C 312 149.292969 311.898438 149.296875 311.796875 149.316406 C 311.695312 149.335938 311.597656 149.367188 311.503906 149.410156 C 311.414062 149.457031 311.328125 149.511719 311.25 149.578125 C 309.992188 150.640625 308.675781 151.855469 307.300781 153.230469 C 304.546875 156 287.78125 172.695312 257.003906 203.320312 C 254.425781 205.882812 252.585938 208.238281 249.75 211.359375 C 249.640625 211.480469 249.582031 211.625 249.578125 211.789062 C 249.570312 211.949219 249.617188 212.097656 249.71875 212.230469 C 249.816406 212.359375 249.949219 212.445312 250.109375 212.488281 C 250.269531 212.527344 250.425781 212.511719 250.578125 212.445312 C 263.191406 206.339844 277.066406 204.269531 291.59375 202.9375 C 291.722656 202.925781 291.847656 202.945312 291.96875 202.996094 C 292.089844 203.050781 292.1875 203.128906 292.269531 203.230469 C 292.347656 203.335938 292.398438 203.453125 292.417969 203.582031 C 292.4375 203.710938 292.425781 203.835938 292.382812 203.960938 C 292.234375 204.394531 292 204.777344 291.679688 205.105469 C 277.582031 219.660156 260.601562 223.875 240.441406 221.667969 C 239.863281 221.605469 239.300781 221.671875 238.753906 221.863281 C 238.207031 222.054688 237.730469 222.355469 237.320312 222.765625 C 224.25 235.9375 211.832031 248.761719 199.058594 261.289062 C 194.328125 265.925781 191.25 269.144531 189.820312 270.945312 C 180.828125 282.257812 176.171875 295.1875 175.847656 309.738281 C 175.40625 330.503906 175.292969 350.375 175.515625 369.347656 C 175.519531 369.558594 175.5625 369.757812 175.648438 369.949219 C 175.738281 370.140625 175.859375 370.304688 176.015625 370.445312 C 176.171875 370.582031 176.347656 370.683594 176.546875 370.746094 C 176.746094 370.808594 176.949219 370.828125 177.15625 370.804688 C 177.699219 370.730469 178.109375 370.523438 178.390625 370.1875 C 181.25 366.757812 184.269531 363.621094 187.441406 360.765625 C 193.925781 354.957031 199.980469 347.929688 207.183594 341.34375 C 208.625 340.039062 210.144531 337.917969 210.070312 336.238281 C 209.683594 327.523438 209.738281 321.289062 210.242188 317.53125 C 212.089844 303.859375 218.191406 292.558594 228.542969 283.621094 C 228.773438 283.421875 229.027344 283.394531 229.300781 283.535156 C 229.574219 283.671875 229.699219 283.894531 229.675781 284.199219 C 228.976562 291.945312 227.851562 300.121094 226.296875 308.726562 C 225.101562 315.335938 221.699219 322.402344 218.699219 327.65625 C 218.601562 327.828125 218.621094 327.988281 218.757812 328.136719 C 218.894531 328.28125 219.050781 328.308594 219.230469 328.222656 Z M 108.542969 284.089844 C 110.058594 285.085938 111.464844 286.320312 112.761719 287.800781 C 124.550781 301.15625 128.667969 316.84375 126.941406 334.402344 C 126.4375 339.53125 129.851562 341.0625 132.863281 344.105469 C 146.632812 358.015625 155.121094 366.644531 158.328125 369.992188 C 158.515625 370.191406 158.738281 370.339844 158.996094 370.445312 C 159.25 370.546875 159.515625 370.59375 159.789062 370.582031 C 160.066406 370.570312 160.328125 370.5 160.574219 370.375 C 160.816406 370.25 161.027344 370.082031 161.199219 369.867188 C 161.339844 369.703125 161.414062 369.410156 161.421875 368.992188 C 161.578125 361.125 161.585938 344.890625 161.445312 320.292969 C 161.378906 309.039062 160.832031 301.359375 159.804688 297.246094 C 157.933594 289.71875 154.957031 282.589844 150.878906 275.863281 C 149.152344 273.019531 141.914062 265.191406 129.164062 252.375 C 119.890625 243.050781 109.871094 233.035156 99.109375 222.320312 C 98.792969 222.003906 98.421875 221.773438 97.996094 221.628906 C 97.570312 221.488281 97.136719 221.445312 96.695312 221.507812 C 79.058594 223.914062 61.734375 219.867188 48.378906 208.042969 C 46.792969 206.636719 45.703125 205.296875 45.113281 204.023438 C 45.070312 203.9375 45.054688 203.84375 45.058594 203.75 C 45.066406 203.652344 45.097656 203.566406 45.148438 203.484375 C 45.203125 203.40625 45.273438 203.34375 45.359375 203.300781 C 45.441406 203.257812 45.535156 203.238281 45.628906 203.246094 C 55.421875 203.804688 65.09375 205.3125 74.644531 207.769531 C 78.976562 208.890625 83.105469 210.734375 87.027344 213.308594 C 87.171875 213.398438 87.328125 213.4375 87.496094 213.421875 C 87.667969 213.402344 87.816406 213.335938 87.9375 213.214844 C 88.0625 213.097656 88.132812 212.953125 88.15625 212.785156 C 88.179688 212.613281 88.148438 212.457031 88.0625 212.308594 C 86.984375 210.492188 85.597656 208.777344 83.894531 207.167969 C 80.253906 203.722656 68.800781 192.226562 49.539062 172.675781 C 43.210938 166.25 36.085938 159.886719 29.648438 153.511719 C 28.285156 152.15625 26.929688 151.078125 25.589844 150.28125 C 25.449219 150.195312 25.292969 150.144531 25.125 150.132812 C 24.960938 150.121094 24.796875 150.144531 24.640625 150.207031 C 24.484375 150.269531 24.351562 150.363281 24.238281 150.488281 C 24.125 150.617188 24.046875 150.761719 24 150.921875 C 21.398438 160.222656 20.71875 166.964844 19.4375 179.027344 C 18.804688 184.886719 18.421875 192.023438 18.292969 200.433594 C 18.136719 209.8125 18.832031 216.902344 20.386719 221.707031 C 23.683594 231.882812 28.390625 240.054688 34.507812 246.21875 C 64.449219 276.394531 85.867188 297.027344 114.757812 326.128906 C 115.179688 326.546875 115.675781 326.949219 116.25 327.335938 C 116.511719 327.503906 116.761719 327.492188 117.003906 327.296875 C 117.246094 327.105469 117.3125 326.863281 117.203125 326.570312 C 116.191406 324.046875 114.78125 320.800781 112.972656 316.828125 C 111.613281 313.84375 110.40625 308.59375 109.347656 301.070312 C 108.144531 292.667969 107.449219 287.257812 107.261719 284.84375 C 107.234375 284.5 107.371094 284.238281 107.667969 284.0625 C 107.964844 283.890625 108.257812 283.898438 108.542969 284.089844 Z M 49.675781 315.042969 C 59.152344 316.101562 65.96875 316.890625 70.121094 317.410156 C 76.320312 318.164062 82.359375 319.953125 88.246094 322.773438 C 88.597656 322.933594 88.929688 322.898438 89.242188 322.675781 C 89.554688 322.449219 89.691406 322.144531 89.652344 321.761719 C 89.578125 321.113281 89.179688 320.429688 88.457031 319.714844 C 68.023438 299.503906 48.550781 279.417969 25.851562 257.539062 C 25.25 256.964844 24.742188 256.679688 24.320312 256.691406 C 24.171875 256.695312 24.03125 256.734375 23.898438 256.804688 C 23.765625 256.878906 23.652344 256.976562 23.5625 257.105469 C 23.46875 257.230469 23.40625 257.371094 23.375 257.527344 C 23.339844 257.683594 23.339844 257.839844 23.371094 257.996094 C 29.710938 290.601562 46.429688 324.882812 70.613281 347.621094 C 90.953125 366.757812 115.816406 378.652344 145.207031 383.296875 C 147.054688 383.582031 148.453125 383.5625 149.398438 383.234375 C 149.507812 383.195312 149.613281 383.144531 149.707031 383.082031 C 149.804688 383.019531 149.890625 382.941406 149.96875 382.855469 C 150.046875 382.769531 150.113281 382.675781 150.164062 382.570312 C 150.21875 382.46875 150.257812 382.359375 150.28125 382.246094 C 150.308594 382.132812 150.320312 382.019531 150.316406 381.902344 C 150.3125 381.789062 150.292969 381.675781 150.257812 381.5625 C 150.226562 381.453125 150.179688 381.347656 150.117188 381.246094 C 150.058594 381.148438 149.988281 381.058594 149.902344 380.976562 C 135.820312 367.273438 121.347656 352.765625 106.484375 337.460938 C 103.5 334.378906 102.167969 333.722656 97.902344 334.105469 C 79.652344 335.722656 61.722656 329.640625 49.21875 315.917969 C 49.058594 315.734375 49.035156 315.539062 49.148438 315.324219 C 49.257812 315.109375 49.433594 315.015625 49.675781 315.042969 Z M 287.226562 314.992188 C 287.464844 314.964844 287.640625 315.0625 287.753906 315.273438 C 287.863281 315.488281 287.839844 315.6875 287.683594 315.867188 C 275.191406 329.605469 257.261719 335.695312 239 334.09375 C 234.730469 333.722656 233.398438 334.378906 230.414062 337.460938 C 215.5625 352.785156 201.089844 367.304688 187.007812 381.027344 C 186.925781 381.109375 186.855469 381.199219 186.792969 381.296875 C 186.734375 381.394531 186.6875 381.5 186.652344 381.613281 C 186.621094 381.722656 186.601562 381.835938 186.597656 381.953125 C 186.59375 382.070312 186.605469 382.183594 186.628906 382.296875 C 186.65625 382.410156 186.695312 382.519531 186.75 382.621094 C 186.800781 382.722656 186.867188 382.820312 186.945312 382.90625 C 187.019531 382.992188 187.109375 383.066406 187.207031 383.132812 C 187.300781 383.195312 187.40625 383.246094 187.515625 383.285156 C 188.460938 383.613281 189.859375 383.632812 191.707031 383.34375 C 221.105469 378.675781 245.972656 366.757812 266.3125 347.597656 C 290.480469 324.832031 307.179688 290.527344 313.503906 257.910156 C 313.535156 257.75 313.535156 257.59375 313.5 257.4375 C 313.46875 257.28125 313.402344 257.136719 313.3125 257.011719 C 313.21875 256.886719 313.105469 256.789062 312.972656 256.714844 C 312.835938 256.644531 312.695312 256.605469 312.542969 256.601562 C 312.125 256.59375 311.613281 256.878906 311.015625 257.453125 C 288.324219 279.355469 268.863281 299.46875 248.433594 319.691406 C 247.707031 320.414062 247.308594 321.101562 247.234375 321.75 C 247.199219 322.132812 247.339844 322.4375 247.65625 322.660156 C 247.972656 322.882812 248.304688 322.914062 248.652344 322.75 C 254.539062 319.929688 260.582031 318.136719 266.78125 317.371094 C 270.933594 316.855469 277.746094 316.0625 287.226562 314.992188 Z M 287.226562 314.992188 " fill-opacity="1" fill-rule="nonzero"/><path fill="#a84a26" d="M 206.625 46.617188 C 207.136719 46.960938 207.59375 47.367188 208.007812 47.835938 C 208.417969 48.300781 208.773438 48.820312 209.074219 49.394531 C 209.371094 49.964844 209.609375 50.578125 209.78125 51.230469 C 209.957031 51.882812 210.066406 52.566406 210.109375 53.277344 C 210.152344 53.988281 210.128906 54.714844 210.039062 55.457031 C 209.949219 56.195312 209.796875 56.9375 209.578125 57.679688 C 209.359375 58.425781 209.082031 59.152344 208.742188 59.867188 C 208.402344 60.585938 208.007812 61.273438 207.558594 61.933594 C 207.113281 62.59375 206.617188 63.214844 206.082031 63.796875 C 205.542969 64.378906 204.96875 64.910156 204.359375 65.386719 C 203.753906 65.867188 203.121094 66.285156 202.464844 66.644531 C 201.8125 67 201.144531 67.292969 200.46875 67.515625 C 199.792969 67.738281 199.117188 67.890625 198.445312 67.972656 C 197.777344 68.054688 197.117188 68.0625 196.476562 67.996094 C 195.835938 67.929688 195.222656 67.792969 194.636719 67.585938 C 194.050781 67.375 193.5 67.097656 192.992188 66.753906 C 192.484375 66.410156 192.023438 66.003906 191.613281 65.539062 C 191.199219 65.070312 190.84375 64.550781 190.546875 63.980469 C 190.246094 63.410156 190.011719 62.796875 189.835938 62.140625 C 189.660156 61.488281 189.550781 60.804688 189.507812 60.09375 C 189.464844 59.382812 189.488281 58.65625 189.578125 57.917969 C 189.667969 57.175781 189.820312 56.433594 190.039062 55.691406 C 190.257812 54.949219 190.539062 54.21875 190.878906 53.503906 C 191.21875 52.789062 191.613281 52.101562 192.058594 51.4375 C 192.507812 50.777344 193 50.15625 193.539062 49.574219 C 194.074219 48.996094 194.648438 48.464844 195.257812 47.984375 C 195.867188 47.507812 196.496094 47.089844 197.152344 46.730469 C 197.808594 46.371094 198.472656 46.082031 199.148438 45.855469 C 199.824219 45.632812 200.5 45.480469 201.171875 45.398438 C 201.84375 45.320312 202.5 45.3125 203.140625 45.375 C 203.78125 45.441406 204.398438 45.578125 204.984375 45.789062 C 205.570312 45.996094 206.117188 46.273438 206.625 46.617188 Z M 206.625 46.617188 " fill-opacity="1" fill-rule="nonzero"/><path fill="#a84a26" d="M 129.921875 47.152344 C 130.410156 46.789062 130.941406 46.488281 131.511719 46.253906 C 132.085938 46.019531 132.6875 45.855469 133.320312 45.757812 C 133.953125 45.664062 134.601562 45.640625 135.269531 45.6875 C 135.941406 45.734375 136.613281 45.851562 137.292969 46.042969 C 137.972656 46.230469 138.644531 46.484375 139.304688 46.808594 C 139.96875 47.128906 140.613281 47.515625 141.234375 47.957031 C 141.855469 48.402344 142.445312 48.898438 143.003906 49.445312 C 143.5625 49.996094 144.074219 50.585938 144.546875 51.214844 C 145.015625 51.847656 145.4375 52.507812 145.800781 53.199219 C 146.167969 53.890625 146.476562 54.597656 146.722656 55.320312 C 146.972656 56.042969 147.15625 56.769531 147.273438 57.496094 C 147.394531 58.226562 147.445312 58.941406 147.433594 59.644531 C 147.421875 60.351562 147.339844 61.03125 147.195312 61.683594 C 147.050781 62.339844 146.839844 62.957031 146.570312 63.535156 C 146.296875 64.113281 145.96875 64.644531 145.578125 65.125 C 145.191406 65.605469 144.75 66.027344 144.261719 66.394531 C 143.773438 66.757812 143.242188 67.058594 142.671875 67.292969 C 142.097656 67.527344 141.496094 67.691406 140.863281 67.785156 C 140.230469 67.882812 139.582031 67.90625 138.914062 67.859375 C 138.242188 67.8125 137.570312 67.691406 136.890625 67.503906 C 136.210938 67.316406 135.539062 67.058594 134.878906 66.738281 C 134.214844 66.414062 133.570312 66.03125 132.949219 65.585938 C 132.324219 65.144531 131.738281 64.648438 131.179688 64.097656 C 130.621094 63.550781 130.109375 62.960938 129.636719 62.328125 C 129.167969 61.699219 128.746094 61.035156 128.382812 60.347656 C 128.015625 59.65625 127.707031 58.949219 127.460938 58.226562 C 127.210938 57.5 127.027344 56.777344 126.910156 56.046875 C 126.789062 55.320312 126.738281 54.605469 126.75 53.898438 C 126.761719 53.195312 126.84375 52.515625 126.988281 51.859375 C 127.132812 51.207031 127.34375 50.589844 127.613281 50.011719 C 127.886719 49.433594 128.214844 48.902344 128.605469 48.421875 C 128.992188 47.941406 129.433594 47.515625 129.921875 47.152344 Z M 129.921875 47.152344 " fill-opacity="1" fill-rule="nonzero"/><path fill="#a84a26" d="M 54.160156 107.589844 C 54.640625 107.226562 55.164062 106.925781 55.730469 106.691406 C 56.296875 106.457031 56.890625 106.292969 57.519531 106.195312 C 58.148438 106.101562 58.796875 106.078125 59.464844 106.128906 C 60.132812 106.175781 60.804688 106.296875 61.488281 106.484375 C 62.167969 106.675781 62.839844 106.933594 63.507812 107.257812 C 64.175781 107.582031 64.824219 107.964844 65.453125 108.414062 C 66.082031 108.859375 66.679688 109.355469 67.246094 109.90625 C 67.8125 110.457031 68.335938 111.050781 68.816406 111.683594 C 69.296875 112.316406 69.726562 112.980469 70.105469 113.675781 C 70.484375 114.367188 70.800781 115.078125 71.0625 115.800781 C 71.324219 116.527344 71.519531 117.253906 71.652344 117.984375 C 71.785156 118.714844 71.851562 119.433594 71.851562 120.140625 C 71.851562 120.847656 71.785156 121.527344 71.652344 122.183594 C 71.519531 122.839844 71.324219 123.457031 71.0625 124.039062 C 70.800781 124.617188 70.484375 125.148438 70.105469 125.628906 C 69.726562 126.113281 69.296875 126.535156 68.816406 126.902344 C 68.335938 127.265625 67.8125 127.566406 67.246094 127.800781 C 66.679688 128.035156 66.082031 128.199219 65.453125 128.292969 C 64.824219 128.390625 64.179688 128.414062 63.511719 128.363281 C 62.84375 128.316406 62.167969 128.195312 61.488281 128.007812 C 60.808594 127.816406 60.132812 127.558594 59.46875 127.234375 C 58.800781 126.910156 58.152344 126.523438 57.523438 126.078125 C 56.894531 125.632812 56.296875 125.136719 55.730469 124.585938 C 55.164062 124.035156 54.640625 123.441406 54.160156 122.808594 C 53.679688 122.171875 53.25 121.511719 52.871094 120.816406 C 52.492188 120.125 52.175781 119.414062 51.914062 118.691406 C 51.652344 117.964844 51.457031 117.234375 51.324219 116.507812 C 51.191406 115.777344 51.125 115.058594 51.125 114.351562 C 51.125 113.644531 51.191406 112.964844 51.324219 112.308594 C 51.457031 111.652344 51.652344 111.035156 51.914062 110.453125 C 52.171875 109.875 52.492188 109.34375 52.871094 108.859375 C 53.25 108.378906 53.679688 107.957031 54.160156 107.589844 Z M 54.160156 107.589844 " fill-opacity="1" fill-rule="nonzero"/><path fill="#a84a26" d="M 282.742188 107.488281 C 283.234375 107.855469 283.675781 108.285156 284.066406 108.773438 C 284.457031 109.261719 284.785156 109.796875 285.058594 110.382812 C 285.332031 110.972656 285.539062 111.597656 285.679688 112.261719 C 285.824219 112.925781 285.898438 113.617188 285.90625 114.332031 C 285.917969 115.046875 285.859375 115.773438 285.730469 116.515625 C 285.605469 117.253906 285.414062 117.992188 285.160156 118.726562 C 284.902344 119.464844 284.589844 120.183594 284.210938 120.886719 C 283.835938 121.589844 283.410156 122.261719 282.925781 122.90625 C 282.445312 123.546875 281.921875 124.148438 281.351562 124.707031 C 280.785156 125.265625 280.183594 125.773438 279.550781 126.226562 C 278.917969 126.679688 278.265625 127.070312 277.589844 127.398438 C 276.914062 127.730469 276.234375 127.992188 275.546875 128.183594 C 274.855469 128.378906 274.171875 128.5 273.496094 128.550781 C 272.816406 128.601562 272.160156 128.578125 271.519531 128.484375 C 270.878906 128.390625 270.269531 128.222656 269.691406 127.988281 C 269.113281 127.75 268.578125 127.445312 268.085938 127.078125 C 267.59375 126.710938 267.148438 126.28125 266.761719 125.792969 C 266.371094 125.304688 266.039062 124.769531 265.769531 124.179688 C 265.496094 123.59375 265.289062 122.96875 265.144531 122.304688 C 265.003906 121.640625 264.925781 120.949219 264.917969 120.234375 C 264.910156 119.519531 264.96875 118.789062 265.09375 118.050781 C 265.21875 117.3125 265.410156 116.574219 265.667969 115.839844 C 265.921875 115.101562 266.238281 114.382812 266.613281 113.679688 C 266.988281 112.976562 267.417969 112.304688 267.898438 111.660156 C 268.378906 111.019531 268.90625 110.417969 269.472656 109.859375 C 270.039062 109.300781 270.640625 108.792969 271.273438 108.339844 C 271.910156 107.886719 272.5625 107.496094 273.234375 107.167969 C 273.910156 106.835938 274.59375 106.574219 275.28125 106.382812 C 275.96875 106.1875 276.652344 106.066406 277.332031 106.015625 C 278.007812 105.964844 278.667969 105.988281 279.308594 106.082031 C 279.949219 106.175781 280.554688 106.34375 281.132812 106.578125 C 281.710938 106.816406 282.246094 107.117188 282.742188 107.488281 Z M 282.742188 107.488281 " fill-opacity="1" fill-rule="nonzero"/><path fill="#a84a26" d="M 132.339844 190.957031 C 132.847656 190.609375 133.394531 190.324219 133.980469 190.109375 C 134.566406 189.894531 135.179688 189.75 135.824219 189.679688 C 136.46875 189.609375 137.125 189.613281 137.800781 189.6875 C 138.476562 189.761719 139.15625 189.910156 139.835938 190.128906 C 140.519531 190.347656 141.191406 190.636719 141.855469 190.992188 C 142.515625 191.34375 143.15625 191.761719 143.773438 192.238281 C 144.386719 192.714844 144.96875 193.242188 145.519531 193.820312 C 146.066406 194.402344 146.570312 195.023438 147.027344 195.683594 C 147.484375 196.34375 147.886719 197.03125 148.238281 197.75 C 148.589844 198.464844 148.878906 199.199219 149.105469 199.941406 C 149.335938 200.6875 149.5 201.433594 149.597656 202.175781 C 149.699219 202.921875 149.730469 203.652344 149.695312 204.367188 C 149.660156 205.082031 149.5625 205.769531 149.394531 206.429688 C 149.226562 207.085938 148.996094 207.703125 148.703125 208.28125 C 148.410156 208.859375 148.0625 209.382812 147.652344 209.855469 C 147.246094 210.328125 146.789062 210.742188 146.28125 211.09375 C 145.777344 211.445312 145.230469 211.726562 144.644531 211.941406 C 144.058594 212.15625 143.441406 212.300781 142.800781 212.371094 C 142.15625 212.441406 141.496094 212.441406 140.820312 212.363281 C 140.144531 212.289062 139.46875 212.140625 138.785156 211.921875 C 138.101562 211.703125 137.429688 211.414062 136.769531 211.058594 C 136.105469 210.707031 135.46875 210.289062 134.851562 209.8125 C 134.234375 209.335938 133.652344 208.808594 133.105469 208.230469 C 132.558594 207.648438 132.054688 207.027344 131.597656 206.367188 C 131.136719 205.707031 130.734375 205.019531 130.382812 204.300781 C 130.035156 203.585938 129.746094 202.851562 129.515625 202.109375 C 129.285156 201.363281 129.121094 200.617188 129.023438 199.875 C 128.925781 199.128906 128.890625 198.398438 128.925781 197.683594 C 128.960938 196.96875 129.0625 196.28125 129.230469 195.621094 C 129.394531 194.964844 129.625 194.347656 129.917969 193.769531 C 130.210938 193.191406 130.5625 192.667969 130.96875 192.195312 C 131.375 191.722656 131.832031 191.308594 132.339844 190.957031 Z M 132.339844 190.957031 " fill-opacity="1" fill-rule="nonzero"/><path fill="#a84a26" d="M 204.859375 191.480469 C 205.351562 191.847656 205.789062 192.277344 206.171875 192.761719 C 206.558594 193.25 206.886719 193.785156 207.15625 194.371094 C 207.421875 194.957031 207.625 195.578125 207.765625 196.242188 C 207.90625 196.902344 207.976562 197.589844 207.984375 198.300781 C 207.988281 199.015625 207.929688 199.738281 207.800781 200.476562 C 207.671875 201.210938 207.480469 201.945312 207.222656 202.675781 C 206.964844 203.410156 206.648438 204.125 206.269531 204.820312 C 205.894531 205.519531 205.464844 206.1875 204.984375 206.828125 C 204.5 207.46875 203.976562 208.0625 203.410156 208.617188 C 202.839844 209.171875 202.242188 209.675781 201.609375 210.125 C 200.976562 210.574219 200.324219 210.960938 199.652344 211.289062 C 198.980469 211.613281 198.300781 211.871094 197.613281 212.0625 C 196.929688 212.253906 196.246094 212.375 195.574219 212.421875 C 194.898438 212.46875 194.242188 212.445312 193.605469 212.351562 C 192.96875 212.253906 192.363281 212.085938 191.792969 211.851562 C 191.21875 211.613281 190.683594 211.308594 190.195312 210.941406 C 189.707031 210.570312 189.269531 210.144531 188.882812 209.65625 C 188.496094 209.171875 188.167969 208.636719 187.902344 208.050781 C 187.632812 207.464844 187.429688 206.839844 187.289062 206.179688 C 187.148438 205.519531 187.078125 204.832031 187.070312 204.117188 C 187.066406 203.40625 187.128906 202.679688 187.253906 201.945312 C 187.382812 201.210938 187.578125 200.476562 187.835938 199.742188 C 188.09375 199.011719 188.410156 198.296875 188.785156 197.597656 C 189.164062 196.898438 189.589844 196.230469 190.074219 195.59375 C 190.554688 194.953125 191.078125 194.355469 191.648438 193.800781 C 192.214844 193.246094 192.8125 192.746094 193.445312 192.296875 C 194.078125 191.847656 194.730469 191.460938 195.402344 191.132812 C 196.074219 190.808594 196.753906 190.546875 197.441406 190.359375 C 198.128906 190.167969 198.808594 190.046875 199.484375 190 C 200.15625 189.949219 200.8125 189.976562 201.449219 190.070312 C 202.085938 190.167969 202.691406 190.335938 203.265625 190.570312 C 203.839844 190.808594 204.371094 191.113281 204.859375 191.480469 Z M 204.859375 191.480469 " fill-opacity="1" fill-rule="nonzero"/><path fill="#a84a26" d="M 74.953125 245.074219 C 75.445312 244.699219 75.980469 244.386719 76.558594 244.140625 C 77.132812 243.894531 77.742188 243.71875 78.382812 243.613281 C 79.019531 243.507812 79.679688 243.476562 80.359375 243.515625 C 81.035156 243.550781 81.71875 243.664062 82.410156 243.84375 C 83.097656 244.023438 83.78125 244.273438 84.457031 244.589844 C 85.132812 244.90625 85.785156 245.285156 86.421875 245.726562 C 87.058594 246.164062 87.660156 246.660156 88.230469 247.207031 C 88.800781 247.753906 89.328125 248.34375 89.808594 248.972656 C 90.292969 249.605469 90.722656 250.269531 91.101562 250.964844 C 91.480469 251.65625 91.796875 252.367188 92.058594 253.09375 C 92.316406 253.824219 92.507812 254.554688 92.636719 255.289062 C 92.765625 256.023438 92.828125 256.75 92.820312 257.460938 C 92.816406 258.175781 92.742188 258.863281 92.601562 259.527344 C 92.460938 260.191406 92.253906 260.820312 91.984375 261.40625 C 91.714844 261.996094 91.386719 262.539062 91 263.03125 C 90.609375 263.523438 90.171875 263.957031 89.679688 264.332031 C 89.1875 264.710938 88.652344 265.019531 88.074219 265.265625 C 87.496094 265.511719 86.890625 265.6875 86.25 265.792969 C 85.609375 265.898438 84.953125 265.933594 84.273438 265.894531 C 83.597656 265.855469 82.914062 265.746094 82.222656 265.566406 C 81.53125 265.382812 80.851562 265.136719 80.175781 264.816406 C 79.5 264.5 78.84375 264.121094 78.210938 263.683594 C 77.574219 263.242188 76.972656 262.75 76.402344 262.203125 C 75.832031 261.65625 75.304688 261.066406 74.820312 260.433594 C 74.339844 259.800781 73.90625 259.136719 73.527344 258.445312 C 73.152344 257.75 72.832031 257.039062 72.574219 256.3125 C 72.316406 255.585938 72.121094 254.851562 71.996094 254.117188 C 71.867188 253.382812 71.804688 252.660156 71.808594 251.945312 C 71.816406 251.234375 71.890625 250.542969 72.03125 249.878906 C 72.171875 249.214844 72.375 248.589844 72.644531 248 C 72.914062 247.410156 73.246094 246.871094 73.632812 246.378906 C 74.019531 245.886719 74.460938 245.449219 74.953125 245.074219 Z M 74.953125 245.074219 " fill-opacity="1" fill-rule="nonzero"/><path fill="#a84a26" d="M 261.644531 244.984375 C 262.152344 245.34375 262.609375 245.765625 263.019531 246.246094 C 263.429688 246.730469 263.777344 247.261719 264.070312 247.847656 C 264.363281 248.429688 264.59375 249.054688 264.757812 249.714844 C 264.925781 250.378906 265.023438 251.070312 265.054688 251.785156 C 265.089844 252.503906 265.050781 253.234375 264.949219 253.976562 C 264.847656 254.71875 264.679688 255.460938 264.445312 256.203125 C 264.210938 256.941406 263.917969 257.667969 263.5625 258.378906 C 263.207031 259.089844 262.796875 259.769531 262.335938 260.421875 C 261.871094 261.074219 261.363281 261.683594 260.808594 262.253906 C 260.253906 262.820312 259.667969 263.339844 259.042969 263.800781 C 258.421875 264.265625 257.777344 264.667969 257.109375 265.011719 C 256.441406 265.351562 255.761719 265.625 255.074219 265.832031 C 254.386719 266.035156 253.703125 266.167969 253.023438 266.230469 C 252.34375 266.292969 251.679688 266.28125 251.03125 266.195312 C 250.382812 266.113281 249.765625 265.957031 249.175781 265.726562 C 248.585938 265.5 248.035156 265.207031 247.527344 264.84375 C 247.019531 264.484375 246.558594 264.0625 246.152344 263.578125 C 245.742188 263.097656 245.390625 262.566406 245.097656 261.980469 C 244.804688 261.398438 244.578125 260.773438 244.410156 260.109375 C 244.246094 259.449219 244.148438 258.757812 244.113281 258.042969 C 244.082031 257.324219 244.117188 256.59375 244.21875 255.851562 C 244.324219 255.109375 244.492188 254.367188 244.722656 253.625 C 244.957031 252.886719 245.253906 252.160156 245.609375 251.449219 C 245.960938 250.738281 246.371094 250.058594 246.835938 249.40625 C 247.300781 248.753906 247.808594 248.144531 248.359375 247.574219 C 248.914062 247.003906 249.503906 246.488281 250.125 246.023438 C 250.75 245.5625 251.394531 245.160156 252.0625 244.816406 C 252.730469 244.476562 253.410156 244.203125 254.097656 243.996094 C 254.785156 243.792969 255.46875 243.65625 256.148438 243.597656 C 256.828125 243.535156 257.492188 243.546875 258.140625 243.632812 C 258.789062 243.714844 259.40625 243.871094 259.996094 244.097656 C 260.585938 244.328125 261.132812 244.621094 261.644531 244.984375 Z M 261.644531 244.984375 " fill-opacity="1" fill-rule="nonzero"/><g transform="matrix(1, 0, 0, 1, 376, 31)"><g clip-path="url(#a7758b5676)"><g fill="#f5efe0" fill-opacity="1"><g transform="translate(0.900013, 212.702324)"><g><path d="M 19.6875 0.53125 C 20.394531 -7.351562 20.894531 -25.671875 21.1875 -54.421875 L 21.40625 -81.625 L 21.296875 -108.40625 C 21.296875 -119.59375 21.296875 -126.007812 21.296875 -127.65625 C 20.285156 -142.632812 19.75 -150.84375 19.6875 -152.28125 C 35.09375 -151.132812 48.960938 -150.5625 61.296875 -150.5625 C 69.828125 -150.5625 83.304688 -151.132812 101.734375 -152.28125 C 101.378906 -149.050781 101.203125 -146.6875 101.203125 -145.1875 C 101.203125 -143.53125 101.378906 -141.09375 101.734375 -137.875 C 85.671875 -138.945312 67.460938 -139.484375 47.109375 -139.484375 L 40.859375 -139.59375 C 40.429688 -122.09375 40.21875 -106.925781 40.21875 -94.09375 L 40.21875 -85.28125 C 47.25 -85.0625 51.984375 -84.953125 54.421875 -84.953125 C 72.335938 -84.953125 86.390625 -85.53125 96.578125 -86.6875 C 96.210938 -83.53125 96.03125 -81.125 96.03125 -79.46875 C 96.03125 -77.894531 96.210938 -75.53125 96.578125 -72.375 C 80.660156 -73.445312 65.925781 -73.984375 52.375 -73.984375 C 48.789062 -73.984375 44.738281 -73.984375 40.21875 -73.984375 L 40.21875 -64.640625 C 40.363281 -32.660156 40.898438 -10.9375 41.828125 0.53125 C 36.953125 0.175781 33.257812 0 30.75 0 C 28.3125 0 24.625 0.175781 19.6875 0.53125 Z M 19.6875 0.53125 "/></g></g></g><g fill="#f5efe0" fill-opacity="1"><g transform="translate(88.505636, 212.702324)"><g><path d="M 2.796875 0.53125 C 13.546875 -19.394531 33.40625 -62.550781 62.375 -128.9375 L 71.625 -150.5625 L 75.71875 -150.5625 C 79.65625 -141.03125 85.78125 -126.796875 94.09375 -107.859375 C 98.757812 -97.035156 106.003906 -80.117188 115.828125 -57.109375 C 126.503906 -32.160156 135.359375 -12.945312 142.390625 0.53125 C 137.085938 0.175781 133.109375 0 130.453125 0 C 127.796875 0 123.78125 0.175781 118.40625 0.53125 C 116.46875 -4.269531 112.847656 -13.625 107.546875 -27.53125 C 105.253906 -33.40625 101.164062 -43.046875 95.28125 -56.453125 C 85.53125 -57.609375 75.890625 -58.1875 66.359375 -58.1875 C 58.398438 -58.1875 50.007812 -57.609375 41.1875 -56.453125 C 32.726562 -36.304688 25.5625 -17.3125 19.6875 0.53125 C 15.957031 0.175781 13.160156 0 11.296875 0 C 9.429688 0 6.597656 0.175781 2.796875 0.53125 Z M 47.421875 -70.765625 C 57.816406 -69.691406 65.5625 -69.15625 70.65625 -69.15625 C 75.882812 -69.15625 81.976562 -69.65625 88.9375 -70.65625 C 86.425781 -77.46875 79.722656 -93.238281 68.828125 -117.96875 L 63.78125 -106.90625 C 55.03125 -87.757812 49.578125 -75.710938 47.421875 -70.765625 Z M 47.421875 -70.765625 "/></g></g></g><g fill="#f5efe0" fill-opacity="1"><g transform="translate(228.377652, 212.702324)"><g><path d="M 19.03125 0.53125 C 19.53125 -9 19.925781 -25.414062 20.21875 -48.71875 L 20.75 -82.0625 L 20.65625 -106.359375 C 20.65625 -120.335938 20.4375 -130.304688 20 -136.265625 C 19.851562 -139.203125 19.53125 -144.144531 19.03125 -151.09375 C 22.976562 -151.019531 25.597656 -150.953125 26.890625 -150.890625 C 31.617188 -150.671875 34.703125 -150.5625 36.140625 -150.5625 C 36.992188 -150.5625 41.757812 -150.738281 50.4375 -151.09375 C 53.738281 -151.238281 57.429688 -151.3125 61.515625 -151.3125 C 70.910156 -151.3125 78.472656 -150.988281 84.203125 -150.34375 C 94.890625 -149.195312 103.097656 -144.894531 108.828125 -137.4375 C 113.273438 -131.632812 115.5 -124.679688 115.5 -116.578125 C 115.5 -102.597656 109.441406 -91.769531 97.328125 -84.09375 C 90.585938 -79.863281 81.695312 -76.960938 70.65625 -75.390625 C 81.84375 -60.398438 94.566406 -44.160156 108.828125 -26.671875 C 117.359375 -16.347656 125.101562 -7.28125 132.0625 0.53125 C 125.820312 0.175781 121.125 0 117.96875 0 C 114.820312 0 110.128906 0.175781 103.890625 0.53125 C 96.578125 -9.570312 90.300781 -18.140625 85.0625 -25.171875 C 76.601562 -36.421875 66.066406 -49.789062 53.453125 -65.28125 L 47.109375 -73.125 L 39.578125 -73.125 C 39.648438 -66.75 39.757812 -51.726562 39.90625 -28.0625 C 39.90625 -23.625 40.332031 -14.09375 41.1875 0.53125 C 36.3125 0.175781 32.617188 0 30.109375 0 C 27.671875 0 23.976562 0.175781 19.03125 0.53125 Z M 39.578125 -82.0625 L 46.34375 -82.0625 C 57.675781 -82.707031 65.851562 -83.890625 70.875 -85.609375 C 79.113281 -88.472656 85.097656 -93.097656 88.828125 -99.484375 C 91.554688 -104.140625 92.921875 -109.15625 92.921875 -114.53125 C 92.921875 -123.5625 89.691406 -130.515625 83.234375 -135.390625 C 77.640625 -139.554688 69.003906 -141.640625 57.328125 -141.640625 C 53.453125 -141.640625 47.75 -141.421875 40.21875 -140.984375 L 40.109375 -133.78125 L 39.90625 -111.515625 L 39.6875 -91.734375 Z M 39.578125 -82.0625 "/></g></g></g><g fill="#f5efe0" fill-opacity="1"><g transform="translate(355.98968, 212.702324)"><g><path d="M 8.171875 0.53125 C 11.109375 -11.21875 15.269531 -38.28125 20.65625 -80.65625 C 22.300781 -93.269531 24.664062 -110.941406 27.75 -133.671875 L 30 -150.5625 L 34.09375 -150.5625 L 38.9375 -141.09375 C 59.007812 -102.238281 71.804688 -77.753906 77.328125 -67.640625 C 82.273438 -58.535156 89.226562 -46.347656 98.1875 -31.078125 L 102.375 -38.71875 L 112.390625 -57.421875 C 134.253906 -97.210938 151.066406 -128.257812 162.828125 -150.5625 L 166.90625 -150.5625 C 170.78125 -112.132812 174.039062 -82.304688 176.6875 -61.078125 C 181.0625 -26.378906 183.894531 -5.84375 185.1875 0.53125 C 180.382812 0.175781 176.800781 0 174.4375 0 C 172 0 168.378906 0.175781 163.578125 0.53125 C 162.929688 -4.695312 162 -13.941406 160.78125 -27.203125 C 157.050781 -67.492188 154.21875 -95.171875 152.28125 -110.234375 C 143.101562 -93.171875 136.003906 -80.050781 130.984375 -70.875 C 125.535156 -60.625 116.070312 -41.910156 102.59375 -14.734375 L 95.171875 0 L 91.09375 0 C 86.425781 -10.101562 76.78125 -29.316406 62.15625 -57.640625 L 43.5625 -93.453125 L 35.59375 -108.40625 C 28.78125 -57.925781 25.234375 -21.613281 24.953125 0.53125 C 21.222656 0.175781 18.425781 0 16.5625 0 C 14.695312 0 11.898438 0.175781 8.171875 0.53125 Z M 8.171875 0.53125 "/></g></g></g><g fill="#f5efe0" fill-opacity="1"><g transform="translate(544.578975, 212.702324)"><g/></g></g><g fill="#f5efe0" fill-opacity="1"><g transform="translate(599.061345, 212.702324)"><g><path d="M 18.0625 1.71875 C 19.207031 -15.414062 19.78125 -40.148438 19.78125 -72.484375 L 19.78125 -79.46875 L 19.578125 -107.859375 C 19.503906 -125.640625 19.394531 -136.289062 19.25 -139.8125 C 19.175781 -143.25 18.78125 -147.40625 18.0625 -152.28125 C 27.738281 -151.132812 41.113281 -150.5625 58.1875 -150.5625 C 70.300781 -150.5625 83.488281 -151.132812 97.75 -152.28125 C 97.394531 -149.050781 97.21875 -146.648438 97.21875 -145.078125 C 97.21875 -143.492188 97.394531 -141.09375 97.75 -137.875 C 85.925781 -139.019531 71.625 -139.59375 54.84375 -139.59375 C 49.25 -139.59375 44.050781 -139.378906 39.25 -138.953125 C 38.894531 -125.472656 38.679688 -109.300781 38.609375 -90.4375 L 38.609375 -84.09375 C 44.703125 -84.019531 49.613281 -83.984375 53.34375 -83.984375 C 68.832031 -83.984375 81.738281 -84.523438 92.0625 -85.609375 C 91.625 -82.453125 91.40625 -80.050781 91.40625 -78.40625 C 91.40625 -76.820312 91.625 -74.453125 92.0625 -71.296875 C 82.519531 -72.378906 64.703125 -72.988281 38.609375 -73.125 L 38.609375 -65.0625 C 38.609375 -44.414062 38.820312 -26.421875 39.25 -11.078125 C 44.414062 -11.003906 48.21875 -10.96875 50.65625 -10.96875 C 65.28125 -10.96875 81.015625 -11.539062 97.859375 -12.6875 C 97.503906 -9.457031 97.328125 -7.019531 97.328125 -5.375 C 97.328125 -3.875 97.503906 -1.507812 97.859375 1.71875 C 77.210938 0.570312 62.335938 0 53.234375 0 C 43.128906 0 31.40625 0.570312 18.0625 1.71875 Z M 18.0625 1.71875 "/></g></g></g><g fill="#f5efe0" fill-opacity="1"><g transform="translate(702.368548, 212.702324)"><g><path d="M 21.515625 -151.09375 C 28.828125 -150.738281 35.492188 -150.5625 41.515625 -150.5625 C 47.035156 -150.5625 54.488281 -150.632812 63.875 -150.78125 C 74.414062 -150.988281 81.515625 -151.09375 85.171875 -151.09375 C 99.585938 -151.09375 111.128906 -149.484375 119.796875 -146.265625 C 132.273438 -141.523438 142.132812 -133.3125 149.375 -121.625 C 156.550781 -109.945312 160.140625 -96.4375 160.140625 -81.09375 C 160.140625 -63.3125 155.765625 -47.460938 147.015625 -33.546875 C 140.347656 -23.015625 131.566406 -14.769531 120.671875 -8.8125 C 113.140625 -4.65625 103.640625 -1.929688 92.171875 -0.640625 C 84.921875 0.210938 76.53125 0.640625 67 0.640625 C 63.914062 0.640625 58.144531 0.5 49.6875 0.21875 C 44.882812 0.0703125 41.046875 0 38.171875 0 C 34.378906 0 28.828125 0.175781 21.515625 0.53125 C 22.660156 -17.382812 23.234375 -40.539062 23.234375 -68.9375 C 23.234375 -110.300781 22.660156 -137.6875 21.515625 -151.09375 Z M 42.6875 -138.953125 L 42.484375 -128.625 C 42.191406 -100.726562 42.046875 -82.625 42.046875 -74.3125 L 42.046875 -54.203125 C 42.117188 -33.910156 42.332031 -19.710938 42.6875 -11.609375 C 53.445312 -11.179688 61.910156 -10.96875 68.078125 -10.96875 C 84.492188 -10.96875 96.859375 -12.832031 105.171875 -16.5625 C 116.648438 -21.65625 125.1875 -30.4375 130.78125 -42.90625 C 135.289062 -52.875 137.546875 -64.847656 137.546875 -78.828125 C 137.546875 -103.773438 130.160156 -120.945312 115.390625 -130.34375 C 108.941406 -134.5 100.734375 -137.1875 90.765625 -138.40625 C 85.171875 -139.125 77.320312 -139.484375 67.21875 -139.484375 C 58.613281 -139.484375 50.4375 -139.304688 42.6875 -138.953125 Z M 42.6875 -138.953125 "/></g></g></g><g fill="#f5efe0" fill-opacity="1"><g transform="translate(866.545438, 212.702324)"><g><path d="M 18.0625 1.71875 C 19.207031 -15.414062 19.78125 -40.148438 19.78125 -72.484375 L 19.78125 -79.46875 L 19.578125 -107.859375 C 19.503906 -125.640625 19.394531 -136.289062 19.25 -139.8125 C 19.175781 -143.25 18.78125 -147.40625 18.0625 -152.28125 C 27.738281 -151.132812 41.113281 -150.5625 58.1875 -150.5625 C 70.300781 -150.5625 83.488281 -151.132812 97.75 -152.28125 C 97.394531 -149.050781 97.21875 -146.648438 97.21875 -145.078125 C 97.21875 -143.492188 97.394531 -141.09375 97.75 -137.875 C 85.925781 -139.019531 71.625 -139.59375 54.84375 -139.59375 C 49.25 -139.59375 44.050781 -139.378906 39.25 -138.953125 C 38.894531 -125.472656 38.679688 -109.300781 38.609375 -90.4375 L 38.609375 -84.09375 C 44.703125 -84.019531 49.613281 -83.984375 53.34375 -83.984375 C 68.832031 -83.984375 81.738281 -84.523438 92.0625 -85.609375 C 91.625 -82.453125 91.40625 -80.050781 91.40625 -78.40625 C 91.40625 -76.820312 91.625 -74.453125 92.0625 -71.296875 C 82.519531 -72.378906 64.703125 -72.988281 38.609375 -73.125 L 38.609375 -65.0625 C 38.609375 -44.414062 38.820312 -26.421875 39.25 -11.078125 C 44.414062 -11.003906 48.21875 -10.96875 50.65625 -10.96875 C 65.28125 -10.96875 81.015625 -11.539062 97.859375 -12.6875 C 97.503906 -9.457031 97.328125 -7.019531 97.328125 -5.375 C 97.328125 -3.875 97.503906 -1.507812 97.859375 1.71875 C 77.210938 0.570312 62.335938 0 53.234375 0 C 43.128906 0 31.40625 0.570312 18.0625 1.71875 Z M 18.0625 1.71875 "/></g></g></g><g fill="#f5efe0" fill-opacity="1"><g transform="translate(969.852575, 212.702324)"><g><path d="M 21.40625 0.53125 C 22.550781 -20.539062 23.125 -47.492188 23.125 -80.328125 C 23.125 -92.804688 22.800781 -108.222656 22.15625 -126.578125 L 21.609375 -145.71875 L 21.40625 -150.5625 L 27.203125 -150.5625 L 34.84375 -142.28125 L 59.6875 -115.9375 C 92.09375 -81.445312 117.507812 -54.664062 135.9375 -35.59375 L 135.9375 -79.265625 C 135.9375 -105.710938 135.363281 -129.65625 134.21875 -151.09375 C 137.507812 -150.738281 139.984375 -150.5625 141.640625 -150.5625 C 143.210938 -150.5625 145.648438 -150.738281 148.953125 -151.09375 C 147.867188 -130.375 147.328125 -102.019531 147.328125 -66.03125 C 147.328125 -50.757812 147.867188 -27.707031 148.953125 3.125 L 143.140625 3.125 C 117.898438 -26.0625 85.492188 -60.726562 45.921875 -100.875 L 34.203125 -112.8125 C 34.347656 -93.3125 34.453125 -72.378906 34.515625 -50.015625 C 35.160156 -25.128906 35.703125 -8.28125 36.140625 0.53125 C 32.910156 0.175781 30.472656 0 28.828125 0 C 27.171875 0 24.695312 0.175781 21.40625 0.53125 Z M 21.40625 0.53125 "/></g></g></g></g></g><g fill="#d4b78a" fill-opacity="1"><g transform="translate(392.417247, 358.407281)"><g><path d="M 5.03125 0 L 5.03125 -47.453125 L 35.375 -47.453125 L 35.375 -41.203125 L 12.296875 -41.203125 L 12.296875 -27.09375 L 33.71875 -27.09375 L 33.71875 -20.921875 L 12.296875 -20.921875 L 12.296875 -6.234375 L 35.546875 -6.234375 L 35.546875 0 Z M 5.03125 0 "/></g></g></g><g fill="#d4b78a" fill-opacity="1"><g transform="translate(432.270002, 358.407281)"><g><path d="M 21.078125 0.765625 C 17.492188 0.765625 14.378906 0.1875 11.734375 -0.96875 C 9.085938 -2.125 7.023438 -3.785156 5.546875 -5.953125 C 4.078125 -8.117188 3.28125 -10.6875 3.15625 -13.65625 L 10.375 -13.65625 C 10.507812 -11.875 11.050781 -10.378906 12 -9.171875 C 12.957031 -7.960938 14.222656 -7.050781 15.796875 -6.4375 C 17.367188 -5.820312 19.117188 -5.515625 21.046875 -5.515625 C 23.085938 -5.515625 24.898438 -5.832031 26.484375 -6.46875 C 28.066406 -7.101562 29.304688 -7.992188 30.203125 -9.140625 C 31.109375 -10.285156 31.5625 -11.625 31.5625 -13.15625 C 31.5625 -14.507812 31.179688 -15.625 30.421875 -16.5 C 29.671875 -17.382812 28.617188 -18.128906 27.265625 -18.734375 C 25.921875 -19.335938 24.347656 -19.875 22.546875 -20.34375 L 17.03125 -21.78125 C 12.957031 -22.863281 9.832031 -24.421875 7.65625 -26.453125 C 5.476562 -28.492188 4.390625 -31.148438 4.390625 -34.421875 C 4.390625 -37.160156 5.113281 -39.554688 6.5625 -41.609375 C 8.019531 -43.671875 10.019531 -45.269531 12.5625 -46.40625 C 15.101562 -47.550781 17.984375 -48.125 21.203125 -48.125 C 24.492188 -48.125 27.378906 -47.539062 29.859375 -46.375 C 32.347656 -45.21875 34.289062 -43.625 35.6875 -41.59375 C 37.09375 -39.570312 37.835938 -37.234375 37.921875 -34.578125 L 30.890625 -34.578125 C 30.679688 -36.867188 29.679688 -38.648438 27.890625 -39.921875 C 26.109375 -41.203125 23.835938 -41.84375 21.078125 -41.84375 C 19.171875 -41.84375 17.503906 -41.539062 16.078125 -40.9375 C 14.660156 -40.332031 13.554688 -39.5 12.765625 -38.4375 C 11.984375 -37.375 11.59375 -36.164062 11.59375 -34.8125 C 11.59375 -33.382812 12.015625 -32.210938 12.859375 -31.296875 C 13.710938 -30.390625 14.800781 -29.660156 16.125 -29.109375 C 17.457031 -28.554688 18.832031 -28.085938 20.25 -27.703125 L 24.96875 -26.5 C 26.664062 -26.070312 28.332031 -25.515625 29.96875 -24.828125 C 31.601562 -24.148438 33.078125 -23.289062 34.390625 -22.25 C 35.703125 -21.21875 36.742188 -19.957031 37.515625 -18.46875 C 38.296875 -16.976562 38.6875 -15.21875 38.6875 -13.1875 C 38.6875 -10.46875 37.988281 -8.054688 36.59375 -5.953125 C 35.207031 -3.847656 33.195312 -2.203125 30.5625 -1.015625 C 27.9375 0.171875 24.773438 0.765625 21.078125 0.765625 Z M 21.078125 0.765625 "/></g></g></g><g fill="#d4b78a" fill-opacity="1"><g transform="translate(474.82942, 358.407281)"><g><path d="M 24.90625 0.671875 C 20.738281 0.671875 17.03125 -0.3125 13.78125 -2.28125 C 10.539062 -4.257812 7.992188 -7.066406 6.140625 -10.703125 C 4.296875 -14.347656 3.375 -18.675781 3.375 -23.6875 C 3.375 -28.71875 4.300781 -33.054688 6.15625 -36.703125 C 8.019531 -40.359375 10.570312 -43.175781 13.8125 -45.15625 C 17.0625 -47.132812 20.757812 -48.125 24.90625 -48.125 C 27.425781 -48.125 29.789062 -47.753906 32 -47.015625 C 34.207031 -46.285156 36.179688 -45.222656 37.921875 -43.828125 C 39.660156 -42.441406 41.101562 -40.75 42.25 -38.75 C 43.40625 -36.757812 44.179688 -34.5 44.578125 -31.96875 L 37.296875 -31.96875 C 36.972656 -33.519531 36.4375 -34.882812 35.6875 -36.0625 C 34.945312 -37.238281 34.03125 -38.234375 32.9375 -39.046875 C 31.84375 -39.867188 30.625 -40.488281 29.28125 -40.90625 C 27.9375 -41.320312 26.5 -41.53125 24.96875 -41.53125 C 22.164062 -41.53125 19.675781 -40.828125 17.5 -39.421875 C 15.320312 -38.023438 13.617188 -36 12.390625 -33.34375 C 11.160156 -30.6875 10.546875 -27.46875 10.546875 -23.6875 C 10.546875 -19.914062 11.164062 -16.703125 12.40625 -14.046875 C 13.644531 -11.390625 15.351562 -9.367188 17.53125 -7.984375 C 19.707031 -6.609375 22.1875 -5.921875 24.96875 -5.921875 C 26.476562 -5.921875 27.90625 -6.128906 29.25 -6.546875 C 30.59375 -6.960938 31.8125 -7.570312 32.90625 -8.375 C 34 -9.175781 34.921875 -10.171875 35.671875 -11.359375 C 36.429688 -12.554688 36.972656 -13.914062 37.296875 -15.4375 L 44.578125 -15.4375 C 44.222656 -13.0625 43.484375 -10.890625 42.359375 -8.921875 C 41.234375 -6.960938 39.804688 -5.257812 38.078125 -3.8125 C 36.359375 -2.375 34.382812 -1.265625 32.15625 -0.484375 C 29.925781 0.285156 27.507812 0.671875 24.90625 0.671875 Z M 24.90625 0.671875 "/></g></g></g><g fill="#d4b78a" fill-opacity="1"><g transform="translate(521.84677, 358.407281)"><g><path d="M 1.375 0 L 18.34375 -47.453125 L 27.15625 -47.453125 L 44.328125 0 L 36.53125 0 L 27.296875 -26.46875 C 26.566406 -28.65625 25.769531 -31.175781 24.90625 -34.03125 C 24.050781 -36.882812 23.050781 -40.335938 21.90625 -44.390625 L 23.5 -44.390625 C 22.375 -40.316406 21.382812 -36.832031 20.53125 -33.9375 C 19.6875 -31.050781 18.914062 -28.5625 18.21875 -26.46875 L 9.171875 0 Z M 10.640625 -12.453125 L 10.640625 -18.5 L 35.09375 -18.5 L 35.09375 -12.453125 Z M 10.640625 -12.453125 "/></g></g></g><g fill="#d4b78a" fill-opacity="1"><g transform="translate(568.291057, 358.407281)"><g><path d="M 5.03125 0 L 5.03125 -47.453125 L 22.171875 -47.453125 C 25.773438 -47.453125 28.796875 -46.789062 31.234375 -45.46875 C 33.679688 -44.15625 35.523438 -42.347656 36.765625 -40.046875 C 38.003906 -37.742188 38.625 -35.128906 38.625 -32.203125 C 38.625 -29.242188 38 -26.613281 36.75 -24.3125 C 35.5 -22.007812 33.644531 -20.191406 31.1875 -18.859375 C 28.738281 -17.535156 25.695312 -16.875 22.0625 -16.875 L 10 -16.875 L 10 -23.0625 L 21.5 -23.0625 C 23.769531 -23.0625 25.628906 -23.445312 27.078125 -24.21875 C 28.535156 -24.988281 29.613281 -26.0625 30.3125 -27.4375 C 31.019531 -28.820312 31.375 -30.410156 31.375 -32.203125 C 31.375 -33.984375 31.019531 -35.550781 30.3125 -36.90625 C 29.613281 -38.269531 28.53125 -39.332031 27.0625 -40.09375 C 25.601562 -40.851562 23.738281 -41.234375 21.46875 -41.234375 L 12.296875 -41.234375 L 12.296875 0 Z M 5.03125 0 "/></g></g></g><g fill="#d4b78a" fill-opacity="1"><g transform="translate(610.532055, 358.407281)"><g><path d="M 5.03125 0 L 5.03125 -47.453125 L 35.375 -47.453125 L 35.375 -41.203125 L 12.296875 -41.203125 L 12.296875 -27.09375 L 33.71875 -27.09375 L 33.71875 -20.921875 L 12.296875 -20.921875 L 12.296875 -6.234375 L 35.546875 -6.234375 L 35.546875 0 Z M 5.03125 0 "/></g></g></g><g fill="#d4b78a" fill-opacity="1"><g transform="translate(650.384797, 358.407281)"><g/></g></g><g fill="#d4b78a" fill-opacity="1"><g transform="translate(668.074684, 358.407281)"><g><path d="M 16.96875 -8.59375 C 15.101562 -8.59375 13.394531 -9.050781 11.84375 -9.96875 C 10.289062 -10.882812 9.054688 -12.113281 8.140625 -13.65625 C 7.234375 -15.207031 6.78125 -16.914062 6.78125 -18.78125 C 6.78125 -20.675781 7.234375 -22.390625 8.140625 -23.921875 C 9.054688 -25.460938 10.289062 -26.691406 11.84375 -27.609375 C 13.394531 -28.523438 15.101562 -28.984375 16.96875 -28.984375 C 18.863281 -28.984375 20.578125 -28.523438 22.109375 -27.609375 C 23.648438 -26.691406 24.875 -25.460938 25.78125 -23.921875 C 26.695312 -22.390625 27.15625 -20.675781 27.15625 -18.78125 C 27.15625 -16.914062 26.695312 -15.207031 25.78125 -13.65625 C 24.875 -12.113281 23.648438 -10.882812 22.109375 -9.96875 C 20.578125 -9.050781 18.863281 -8.59375 16.96875 -8.59375 Z M 16.96875 -8.59375 "/></g></g></g><g fill="#d4b78a" fill-opacity="1"><g transform="translate(702.737005, 358.407281)"><g/></g></g><g fill="#d4b78a" fill-opacity="1"><g transform="translate(720.426915, 358.407281)"><g><path d="M 5.03125 0 L 5.03125 -47.453125 L 22.578125 -47.453125 C 25.929688 -47.453125 28.722656 -46.90625 30.953125 -45.8125 C 33.179688 -44.71875 34.859375 -43.234375 35.984375 -41.359375 C 37.109375 -39.492188 37.671875 -37.375 37.671875 -35 C 37.671875 -33.039062 37.316406 -31.390625 36.609375 -30.046875 C 35.898438 -28.703125 34.9375 -27.609375 33.71875 -26.765625 C 32.507812 -25.929688 31.148438 -25.3125 29.640625 -24.90625 L 29.640625 -24.515625 C 31.273438 -24.390625 32.847656 -23.863281 34.359375 -22.9375 C 35.867188 -22.019531 37.101562 -20.71875 38.0625 -19.03125 C 39.03125 -17.34375 39.515625 -15.296875 39.515625 -12.890625 C 39.515625 -10.429688 38.929688 -8.222656 37.765625 -6.265625 C 36.597656 -4.316406 34.820312 -2.785156 32.4375 -1.671875 C 30.050781 -0.554688 27.007812 0 23.3125 0 Z M 12.265625 -6.171875 L 22.609375 -6.171875 C 25.984375 -6.171875 28.441406 -6.820312 29.984375 -8.125 C 31.523438 -9.4375 32.296875 -11.125 32.296875 -13.1875 C 32.296875 -14.71875 31.914062 -16.09375 31.15625 -17.3125 C 30.40625 -18.53125 29.328125 -19.492188 27.921875 -20.203125 C 26.523438 -20.910156 24.847656 -21.265625 22.890625 -21.265625 L 12.265625 -21.265625 Z M 12.265625 -26.9375 L 22.03125 -26.9375 C 23.664062 -26.9375 25.125 -27.238281 26.40625 -27.84375 C 27.695312 -28.445312 28.707031 -29.304688 29.4375 -30.421875 C 30.175781 -31.535156 30.546875 -32.847656 30.546875 -34.359375 C 30.546875 -36.378906 29.847656 -38.039062 28.453125 -39.34375 C 27.066406 -40.644531 24.984375 -41.296875 22.203125 -41.296875 L 12.265625 -41.296875 Z M 12.265625 -26.9375 "/></g></g></g><g fill="#d4b78a" fill-opacity="1"><g transform="translate(763.750558, 358.407281)"><g><path d="M 5.03125 0 L 5.03125 -47.453125 L 22.296875 -47.453125 C 25.878906 -47.453125 28.894531 -46.820312 31.34375 -45.5625 C 33.800781 -44.3125 35.648438 -42.566406 36.890625 -40.328125 C 38.128906 -38.085938 38.75 -35.503906 38.75 -32.578125 C 38.75 -29.628906 38.113281 -27.054688 36.84375 -24.859375 C 35.570312 -22.660156 33.703125 -20.953125 31.234375 -19.734375 C 28.773438 -18.523438 25.738281 -17.921875 22.125 -17.921875 L 9.203125 -17.921875 L 9.203125 -24.109375 L 21.625 -24.109375 C 23.894531 -24.109375 25.75 -24.441406 27.1875 -25.109375 C 28.632812 -25.773438 29.707031 -26.742188 30.40625 -28.015625 C 31.113281 -29.296875 31.46875 -30.816406 31.46875 -32.578125 C 31.46875 -34.359375 31.113281 -35.894531 30.40625 -37.1875 C 29.707031 -38.488281 28.628906 -39.488281 27.171875 -40.1875 C 25.722656 -40.882812 23.851562 -41.234375 21.5625 -41.234375 L 12.296875 -41.234375 L 12.296875 0 Z M 32.09375 0 L 20.671875 -21.4375 L 28.65625 -21.4375 L 40.3125 0 Z M 32.09375 0 "/></g></g></g><g fill="#d4b78a" fill-opacity="1"><g transform="translate(806.596571, 358.407281)"><g><path d="M 5.03125 0 L 5.03125 -47.453125 L 35.375 -47.453125 L 35.375 -41.203125 L 12.296875 -41.203125 L 12.296875 -27.09375 L 33.71875 -27.09375 L 33.71875 -20.921875 L 12.296875 -20.921875 L 12.296875 -6.234375 L 35.546875 -6.234375 L 35.546875 0 Z M 5.03125 0 "/></g></g></g><g fill="#d4b78a" fill-opacity="1"><g transform="translate(846.449337, 358.407281)"><g><path d="M 1.375 0 L 18.34375 -47.453125 L 27.15625 -47.453125 L 44.328125 0 L 36.53125 0 L 27.296875 -26.46875 C 26.566406 -28.65625 25.769531 -31.175781 24.90625 -34.03125 C 24.050781 -36.882812 23.050781 -40.335938 21.90625 -44.390625 L 23.5 -44.390625 C 22.375 -40.316406 21.382812 -36.832031 20.53125 -33.9375 C 19.6875 -31.050781 18.914062 -28.5625 18.21875 -26.46875 L 9.171875 0 Z M 10.640625 -12.453125 L 10.640625 -18.5 L 35.09375 -18.5 L 35.09375 -12.453125 Z M 10.640625 -12.453125 "/></g></g></g><g fill="#d4b78a" fill-opacity="1"><g transform="translate(887.097695, 358.407281)"><g><path d="M 2.578125 -41.203125 L 2.578125 -47.453125 L 39.484375 -47.453125 L 39.484375 -41.203125 L 24.6875 -41.203125 L 24.6875 0 L 17.453125 0 L 17.453125 -41.203125 Z M 2.578125 -41.203125 "/></g></g></g><g fill="#d4b78a" fill-opacity="1"><g transform="translate(929.911871, 358.407281)"><g><path d="M 5.03125 0 L 5.03125 -47.453125 L 12.296875 -47.453125 L 12.296875 -27.390625 L 35.796875 -27.390625 L 35.796875 -47.453125 L 43.015625 -47.453125 L 43.015625 0 L 35.796875 0 L 35.796875 -21.140625 L 12.296875 -21.140625 L 12.296875 0 Z M 5.03125 0 "/></g></g></g><g fill="#d4b78a" fill-opacity="1"><g transform="translate(978.680727, 358.407281)"><g><path d="M 5.03125 0 L 5.03125 -47.453125 L 35.375 -47.453125 L 35.375 -41.203125 L 12.296875 -41.203125 L 12.296875 -27.09375 L 33.71875 -27.09375 L 33.71875 -20.921875 L 12.296875 -20.921875 L 12.296875 -6.234375 L 35.546875 -6.234375 L 35.546875 0 Z M 5.03125 0 "/></g></g></g><g fill="#d4b78a" fill-opacity="1"><g transform="translate(1018.533446, 358.407281)"><g/></g></g><g fill="#d4b78a" fill-opacity="1"><g transform="translate(1036.223356, 358.407281)"><g><path d="M 16.96875 -8.59375 C 15.101562 -8.59375 13.394531 -9.050781 11.84375 -9.96875 C 10.289062 -10.882812 9.054688 -12.113281 8.140625 -13.65625 C 7.234375 -15.207031 6.78125 -16.914062 6.78125 -18.78125 C 6.78125 -20.675781 7.234375 -22.390625 8.140625 -23.921875 C 9.054688 -25.460938 10.289062 -26.691406 11.84375 -27.609375 C 13.394531 -28.523438 15.101562 -28.984375 16.96875 -28.984375 C 18.863281 -28.984375 20.578125 -28.523438 22.109375 -27.609375 C 23.648438 -26.691406 24.875 -25.460938 25.78125 -23.921875 C 26.695312 -22.390625 27.15625 -20.675781 27.15625 -18.78125 C 27.15625 -16.914062 26.695312 -15.207031 25.78125 -13.65625 C 24.875 -12.113281 23.648438 -10.882812 22.109375 -9.96875 C 20.578125 -9.050781 18.863281 -8.59375 16.96875 -8.59375 Z M 16.96875 -8.59375 "/></g></g></g><g fill="#d4b78a" fill-opacity="1"><g transform="translate(1070.885677, 358.407281)"><g/></g></g><g fill="#d4b78a" fill-opacity="1"><g transform="translate(1088.575587, 358.407281)"><g><path d="M 5.03125 0 L 5.03125 -47.453125 L 22.296875 -47.453125 C 25.878906 -47.453125 28.894531 -46.820312 31.34375 -45.5625 C 33.800781 -44.3125 35.648438 -42.566406 36.890625 -40.328125 C 38.128906 -38.085938 38.75 -35.503906 38.75 -32.578125 C 38.75 -29.628906 38.113281 -27.054688 36.84375 -24.859375 C 35.570312 -22.660156 33.703125 -20.953125 31.234375 -19.734375 C 28.773438 -18.523438 25.738281 -17.921875 22.125 -17.921875 L 9.203125 -17.921875 L 9.203125 -24.109375 L 21.625 -24.109375 C 23.894531 -24.109375 25.75 -24.441406 27.1875 -25.109375 C 28.632812 -25.773438 29.707031 -26.742188 30.40625 -28.015625 C 31.113281 -29.296875 31.46875 -30.816406 31.46875 -32.578125 C 31.46875 -34.359375 31.113281 -35.894531 30.40625 -37.1875 C 29.707031 -38.488281 28.628906 -39.488281 27.171875 -40.1875 C 25.722656 -40.882812 23.851562 -41.234375 21.5625 -41.234375 L 12.296875 -41.234375 L 12.296875 0 Z M 32.09375 0 L 20.671875 -21.4375 L 28.65625 -21.4375 L 40.3125 0 Z M 32.09375 0 "/></g></g></g><g fill="#d4b78a" fill-opacity="1"><g transform="translate(1131.421577, 358.407281)"><g><path d="M 5.03125 0 L 5.03125 -47.453125 L 35.375 -47.453125 L 35.375 -41.203125 L 12.296875 -41.203125 L 12.296875 -27.09375 L 33.71875 -27.09375 L 33.71875 -20.921875 L 12.296875 -20.921875 L 12.296875 -6.234375 L 35.546875 -6.234375 L 35.546875 0 Z M 5.03125 0 "/></g></g></g><g fill="#d4b78a" fill-opacity="1"><g transform="translate(1171.274343, 358.407281)"><g><path d="M 24.90625 0.671875 C 20.738281 0.671875 17.03125 -0.3125 13.78125 -2.28125 C 10.539062 -4.257812 7.992188 -7.066406 6.140625 -10.703125 C 4.296875 -14.347656 3.375 -18.675781 3.375 -23.6875 C 3.375 -28.71875 4.300781 -33.054688 6.15625 -36.703125 C 8.019531 -40.359375 10.570312 -43.175781 13.8125 -45.15625 C 17.0625 -47.132812 20.757812 -48.125 24.90625 -48.125 C 27.425781 -48.125 29.789062 -47.753906 32 -47.015625 C 34.207031 -46.285156 36.179688 -45.222656 37.921875 -43.828125 C 39.660156 -42.441406 41.101562 -40.75 42.25 -38.75 C 43.40625 -36.757812 44.179688 -34.5 44.578125 -31.96875 L 37.296875 -31.96875 C 36.972656 -33.519531 36.4375 -34.882812 35.6875 -36.0625 C 34.945312 -37.238281 34.03125 -38.234375 32.9375 -39.046875 C 31.84375 -39.867188 30.625 -40.488281 29.28125 -40.90625 C 27.9375 -41.320312 26.5 -41.53125 24.96875 -41.53125 C 22.164062 -41.53125 19.675781 -40.828125 17.5 -39.421875 C 15.320312 -38.023438 13.617188 -36 12.390625 -33.34375 C 11.160156 -30.6875 10.546875 -27.46875 10.546875 -23.6875 C 10.546875 -19.914062 11.164062 -16.703125 12.40625 -14.046875 C 13.644531 -11.390625 15.351562 -9.367188 17.53125 -7.984375 C 19.707031 -6.609375 22.1875 -5.921875 24.96875 -5.921875 C 26.476562 -5.921875 27.90625 -6.128906 29.25 -6.546875 C 30.59375 -6.960938 31.8125 -7.570312 32.90625 -8.375 C 34 -9.175781 34.921875 -10.171875 35.671875 -11.359375 C 36.429688 -12.554688 36.972656 -13.914062 37.296875 -15.4375 L 44.578125 -15.4375 C 44.222656 -13.0625 43.484375 -10.890625 42.359375 -8.921875 C 41.234375 -6.960938 39.804688 -5.257812 38.078125 -3.8125 C 36.359375 -2.375 34.382812 -1.265625 32.15625 -0.484375 C 29.925781 0.285156 27.507812 0.671875 24.90625 0.671875 Z M 24.90625 0.671875 "/></g></g></g><g fill="#d4b78a" fill-opacity="1"><g transform="translate(1219.692918, 358.407281)"><g><path d="M 24.90625 0.671875 C 20.757812 0.671875 17.066406 -0.3125 13.828125 -2.28125 C 10.597656 -4.257812 8.046875 -7.066406 6.171875 -10.703125 C 4.304688 -14.347656 3.375 -18.675781 3.375 -23.6875 C 3.375 -28.71875 4.304688 -33.054688 6.171875 -36.703125 C 8.046875 -40.359375 10.597656 -43.175781 13.828125 -45.15625 C 17.066406 -47.132812 20.757812 -48.125 24.90625 -48.125 C 29.019531 -48.125 32.695312 -47.132812 35.9375 -45.15625 C 39.175781 -43.175781 41.722656 -40.359375 43.578125 -36.703125 C 45.429688 -33.054688 46.359375 -28.71875 46.359375 -23.6875 C 46.359375 -18.675781 45.429688 -14.347656 43.578125 -10.703125 C 41.722656 -7.066406 39.175781 -4.257812 35.9375 -2.28125 C 32.695312 -0.3125 29.019531 0.671875 24.90625 0.671875 Z M 24.90625 -5.921875 C 27.601562 -5.921875 30.023438 -6.597656 32.171875 -7.953125 C 34.328125 -9.316406 36.03125 -11.320312 37.28125 -13.96875 C 38.539062 -16.625 39.171875 -19.863281 39.171875 -23.6875 C 39.171875 -27.550781 38.539062 -30.8125 37.28125 -33.46875 C 36.03125 -36.125 34.328125 -38.128906 32.171875 -39.484375 C 30.023438 -40.847656 27.601562 -41.53125 24.90625 -41.53125 C 22.1875 -41.53125 19.742188 -40.84375 17.578125 -39.46875 C 15.410156 -38.101562 13.695312 -36.09375 12.4375 -33.4375 C 11.175781 -30.78125 10.546875 -27.53125 10.546875 -23.6875 C 10.546875 -19.863281 11.175781 -16.628906 12.4375 -13.984375 C 13.695312 -11.347656 15.410156 -9.34375 17.578125 -7.96875 C 19.742188 -6.601562 22.1875 -5.921875 24.90625 -5.921875 Z M 24.90625 -5.921875 "/></g></g></g><g fill="#d4b78a" fill-opacity="1"><g transform="translate(1270.149458, 358.407281)"><g><path d="M 5.03125 0 L 5.03125 -47.453125 L 13.3125 -47.453125 L 31.203125 -19.109375 C 31.773438 -18.234375 32.421875 -17.164062 33.140625 -15.90625 C 33.867188 -14.644531 34.640625 -13.234375 35.453125 -11.671875 C 36.273438 -10.109375 37.078125 -8.445312 37.859375 -6.6875 L 37 -6.34375 C 36.851562 -8.019531 36.734375 -9.726562 36.640625 -11.46875 C 36.546875 -13.207031 36.484375 -14.835938 36.453125 -16.359375 C 36.421875 -17.890625 36.40625 -19.15625 36.40625 -20.15625 L 36.40625 -47.453125 L 43.6875 -47.453125 L 43.6875 0 L 35.375 0 L 19.328125 -25.34375 C 18.566406 -26.601562 17.773438 -27.921875 16.953125 -29.296875 C 16.140625 -30.679688 15.226562 -32.285156 14.21875 -34.109375 C 13.207031 -35.929688 12.015625 -38.109375 10.640625 -40.640625 L 11.75 -40.953125 C 11.875 -38.597656 11.976562 -36.410156 12.0625 -34.390625 C 12.15625 -32.378906 12.226562 -30.601562 12.28125 -29.0625 C 12.332031 -27.519531 12.359375 -26.289062 12.359375 -25.375 L 12.359375 0 Z M 5.03125 0 "/></g></g></g><g fill="#d4b78a" fill-opacity="1"><g transform="translate(1319.586924, 358.407281)"><g><path d="M 5.03125 0 L 5.03125 -47.453125 L 13.3125 -47.453125 L 31.203125 -19.109375 C 31.773438 -18.234375 32.421875 -17.164062 33.140625 -15.90625 C 33.867188 -14.644531 34.640625 -13.234375 35.453125 -11.671875 C 36.273438 -10.109375 37.078125 -8.445312 37.859375 -6.6875 L 37 -6.34375 C 36.851562 -8.019531 36.734375 -9.726562 36.640625 -11.46875 C 36.546875 -13.207031 36.484375 -14.835938 36.453125 -16.359375 C 36.421875 -17.890625 36.40625 -19.15625 36.40625 -20.15625 L 36.40625 -47.453125 L 43.6875 -47.453125 L 43.6875 0 L 35.375 0 L 19.328125 -25.34375 C 18.566406 -26.601562 17.773438 -27.921875 16.953125 -29.296875 C 16.140625 -30.679688 15.226562 -32.285156 14.21875 -34.109375 C 13.207031 -35.929688 12.015625 -38.109375 10.640625 -40.640625 L 11.75 -40.953125 C 11.875 -38.597656 11.976562 -36.410156 12.0625 -34.390625 C 12.15625 -32.378906 12.226562 -30.601562 12.28125 -29.0625 C 12.332031 -27.519531 12.359375 -26.289062 12.359375 -25.375 L 12.359375 0 Z M 5.03125 0 "/></g></g></g><g fill="#d4b78a" fill-opacity="1"><g transform="translate(1369.024482, 358.407281)"><g><path d="M 5.03125 0 L 5.03125 -47.453125 L 35.375 -47.453125 L 35.375 -41.203125 L 12.296875 -41.203125 L 12.296875 -27.09375 L 33.71875 -27.09375 L 33.71875 -20.921875 L 12.296875 -20.921875 L 12.296875 -6.234375 L 35.546875 -6.234375 L 35.546875 0 Z M 5.03125 0 "/></g></g></g><g fill="#d4b78a" fill-opacity="1"><g transform="translate(1408.877293, 358.407281)"><g><path d="M 24.90625 0.671875 C 20.738281 0.671875 17.03125 -0.3125 13.78125 -2.28125 C 10.539062 -4.257812 7.992188 -7.066406 6.140625 -10.703125 C 4.296875 -14.347656 3.375 -18.675781 3.375 -23.6875 C 3.375 -28.71875 4.300781 -33.054688 6.15625 -36.703125 C 8.019531 -40.359375 10.570312 -43.175781 13.8125 -45.15625 C 17.0625 -47.132812 20.757812 -48.125 24.90625 -48.125 C 27.425781 -48.125 29.789062 -47.753906 32 -47.015625 C 34.207031 -46.285156 36.179688 -45.222656 37.921875 -43.828125 C 39.660156 -42.441406 41.101562 -40.75 42.25 -38.75 C 43.40625 -36.757812 44.179688 -34.5 44.578125 -31.96875 L 37.296875 -31.96875 C 36.972656 -33.519531 36.4375 -34.882812 35.6875 -36.0625 C 34.945312 -37.238281 34.03125 -38.234375 32.9375 -39.046875 C 31.84375 -39.867188 30.625 -40.488281 29.28125 -40.90625 C 27.9375 -41.320312 26.5 -41.53125 24.96875 -41.53125 C 22.164062 -41.53125 19.675781 -40.828125 17.5 -39.421875 C 15.320312 -38.023438 13.617188 -36 12.390625 -33.34375 C 11.160156 -30.6875 10.546875 -27.46875 10.546875 -23.6875 C 10.546875 -19.914062 11.164062 -16.703125 12.40625 -14.046875 C 13.644531 -11.390625 15.351562 -9.367188 17.53125 -7.984375 C 19.707031 -6.609375 22.1875 -5.921875 24.96875 -5.921875 C 26.476562 -5.921875 27.90625 -6.128906 29.25 -6.546875 C 30.59375 -6.960938 31.8125 -7.570312 32.90625 -8.375 C 34 -9.175781 34.921875 -10.171875 35.671875 -11.359375 C 36.429688 -12.554688 36.972656 -13.914062 37.296875 -15.4375 L 44.578125 -15.4375 C 44.222656 -13.0625 43.484375 -10.890625 42.359375 -8.921875 C 41.234375 -6.960938 39.804688 -5.257812 38.078125 -3.8125 C 36.359375 -2.375 34.382812 -1.265625 32.15625 -0.484375 C 29.925781 0.285156 27.507812 0.671875 24.90625 0.671875 Z M 24.90625 0.671875 "/></g></g></g><g fill="#d4b78a" fill-opacity="1"><g transform="translate(1457.295869, 358.407281)"><g><path d="M 2.578125 -41.203125 L 2.578125 -47.453125 L 39.484375 -47.453125 L 39.484375 -41.203125 L 24.6875 -41.203125 L 24.6875 0 L 17.453125 0 L 17.453125 -41.203125 Z M 2.578125 -41.203125 "/></g></g></g></svg>