<svg xmlns="http://www.w3.org/2000/svg" xmlns:xlink="http://www.w3.org/1999/xlink" width="2000" zoomAndPan="magnify" viewBox="0 0 1500 412.49999" height="540" preserveAspectRatio="xMidYMid meet" version="1.0"><defs><g/><clipPath id="6df3443cae"><path d="M 377 31 L 1499.089844 31 L 1499.089844 297 L 377 297 Z M 377 31 " clip-rule="nonzero"/></clipPath><clipPath id="a99193e14f"><rect x="0" width="1123" y="0" height="266"/></clipPath></defs><path fill="#d4b78a" d="M 168.785156 7.019531 C 212.359375 6.933594 253.226562 26 282.160156 57.222656 C 297.382812 73.652344 309.195312 92.925781 317.605469 115.046875 C 327.671875 141.519531 332.953125 168.621094 333.445312 196.347656 C 333.703125 211.164062 333.640625 227.496094 331.4375 242.683594 C 329.171875 258.300781 325.996094 272.320312 321.914062 284.742188 C 317.390625 298.488281 310.714844 312.480469 301.890625 326.71875 C 272.699219 373.816406 225.046875 398.4375 169.523438 398.546875 C 113.988281 398.644531 66.238281 374.210938 36.875 327.222656 C 28 313.011719 21.269531 299.042969 16.6875 285.324219 C 12.566406 272.90625 9.34375 258.894531 7.019531 243.285156 C 4.753906 228.113281 4.632812 211.78125 4.839844 196.964844 C 5.226562 169.234375 10.402344 142.113281 20.371094 115.601562 C 28.699219 93.449219 40.4375 74.132812 55.597656 57.652344 C 84.40625 26.320312 125.210938 7.09375 168.785156 7.019531 Z M 105.515625 65.089844 C 105.507812 64.941406 105.566406 64.828125 105.695312 64.753906 C 105.828125 64.675781 105.953125 64.679688 106.082031 64.757812 C 107.878906 65.933594 109.15625 66.921875 109.914062 67.726562 C 121.03125 79.558594 126.066406 93.710938 125.023438 110.183594 C 124.917969 111.855469 124.683594 114.207031 124.324219 117.226562 C 124.253906 117.835938 124.363281 118.410156 124.65625 118.953125 C 125.433594 120.378906 126.371094 121.621094 127.464844 122.671875 C 132.300781 127.320312 142.992188 137.925781 159.535156 154.496094 C 159.816406 154.777344 160.109375 154.933594 160.421875 154.964844 C 160.679688 154.992188 160.929688 154.96875 161.175781 154.886719 C 161.421875 154.808594 161.640625 154.683594 161.832031 154.507812 C 162.023438 154.335938 162.171875 154.128906 162.273438 153.894531 C 162.375 153.65625 162.421875 153.410156 162.417969 153.15625 C 161.882812 109.421875 161.847656 66.015625 162.304688 22.933594 C 162.308594 22.644531 162.253906 22.375 162.136719 22.113281 C 162.019531 21.851562 161.851562 21.628906 161.636719 21.441406 C 161.421875 21.253906 161.175781 21.121094 160.902344 21.039062 C 160.625 20.960938 160.347656 20.941406 160.066406 20.984375 C 149.851562 22.539062 143.730469 23.515625 141.699219 23.917969 C 134.8125 25.28125 126.292969 27.972656 116.144531 31.996094 C 98.148438 39.164062 84.367188 49.929688 70.277344 62.53125 C 70.109375 62.679688 69.976562 62.855469 69.878906 63.058594 C 69.78125 63.261719 69.726562 63.476562 69.710938 63.703125 C 69.699219 63.929688 69.726562 64.148438 69.800781 64.363281 C 69.871094 64.578125 69.980469 64.773438 70.128906 64.945312 C 71.648438 66.691406 73.339844 68.511719 75.203125 70.398438 C 95.230469 90.433594 108.367188 103.605469 114.617188 109.910156 C 115.808594 111.109375 116.847656 111.765625 117.734375 111.882812 C 117.839844 111.894531 117.941406 111.882812 118.042969 111.84375 C 118.144531 111.808594 118.230469 111.75 118.300781 111.671875 C 118.371094 111.59375 118.421875 111.503906 118.445312 111.398438 C 118.472656 111.296875 118.472656 111.195312 118.449219 111.09375 C 118.414062 110.960938 116.558594 107.867188 112.878906 101.808594 C 111.320312 99.230469 109.9375 95.351562 108.730469 90.179688 C 106.972656 82.617188 105.902344 74.253906 105.515625 65.089844 Z M 232.730469 65.078125 C 232.363281 74.234375 231.308594 82.589844 229.566406 90.144531 C 228.367188 95.308594 226.988281 99.179688 225.429688 101.757812 C 221.765625 107.808594 219.917969 110.902344 219.886719 111.03125 C 219.859375 111.132812 219.859375 111.234375 219.886719 111.339844 C 219.914062 111.441406 219.960938 111.53125 220.03125 111.609375 C 220.105469 111.6875 220.191406 111.746094 220.289062 111.785156 C 220.390625 111.820312 220.492188 111.832031 220.601562 111.820312 C 221.488281 111.707031 222.523438 111.046875 223.703125 109.847656 C 229.9375 103.542969 243.035156 90.375 263.007812 70.339844 C 264.871094 68.457031 266.558594 66.644531 268.066406 64.894531 C 268.214844 64.722656 268.328125 64.53125 268.398438 64.316406 C 268.472656 64.101562 268.503906 63.882812 268.488281 63.65625 C 268.476562 63.429688 268.417969 63.214844 268.320312 63.011719 C 268.222656 62.808594 268.089844 62.632812 267.921875 62.480469 C 253.832031 49.917969 240.058594 39.191406 222.078125 32.058594 C 211.9375 28.050781 203.425781 25.371094 196.546875 24.015625 C 194.527344 23.621094 188.414062 22.65625 178.207031 21.121094 C 177.925781 21.082031 177.648438 21.101562 177.375 21.179688 C 177.101562 21.261719 176.859375 21.394531 176.644531 21.582031 C 176.429688 21.769531 176.265625 21.992188 176.148438 22.25 C 176.03125 22.511719 175.976562 22.78125 175.976562 23.066406 C 176.496094 66.085938 176.515625 109.425781 176.039062 153.09375 C 176.035156 153.351562 176.085938 153.597656 176.1875 153.832031 C 176.292969 154.066406 176.4375 154.273438 176.628906 154.445312 C 176.820312 154.617188 177.039062 154.742188 177.285156 154.820312 C 177.527344 154.898438 177.78125 154.921875 178.035156 154.890625 C 178.347656 154.859375 178.640625 154.703125 178.921875 154.421875 C 195.417969 137.863281 206.074219 127.257812 210.894531 122.609375 C 211.988281 121.558594 212.921875 120.320312 213.703125 118.890625 C 213.992188 118.347656 214.097656 117.773438 214.023438 117.164062 C 213.664062 114.152344 213.429688 111.808594 213.320312 110.132812 C 212.253906 93.6875 217.261719 79.550781 228.347656 67.726562 C 229.101562 66.921875 230.375 65.933594 232.164062 64.757812 C 232.289062 64.679688 232.417969 64.675781 232.542969 64.75 C 232.671875 64.820312 232.734375 64.933594 232.730469 65.078125 Z M 114.050781 215.550781 C 114.175781 215.476562 114.28125 215.382812 114.367188 215.265625 C 114.449219 215.148438 114.507812 215.019531 114.535156 214.878906 C 114.566406 214.738281 114.566406 214.597656 114.535156 214.457031 C 114.503906 214.316406 114.445312 214.1875 114.359375 214.070312 C 108.972656 206.691406 105.644531 198.707031 104.371094 190.128906 C 103.410156 183.707031 102.507812 177.003906 101.660156 170.015625 C 101.648438 169.914062 101.648438 169.808594 101.664062 169.707031 C 101.675781 169.605469 101.703125 169.503906 101.742188 169.410156 C 101.785156 169.3125 101.835938 169.226562 101.898438 169.144531 C 101.960938 169.0625 102.035156 168.988281 102.117188 168.925781 C 102.199219 168.859375 102.285156 168.808594 102.382812 168.769531 C 102.476562 168.730469 102.578125 168.703125 102.679688 168.6875 C 102.78125 168.671875 102.882812 168.671875 102.988281 168.683594 C 103.089844 168.695312 103.191406 168.722656 103.285156 168.757812 C 103.859375 168.996094 104.585938 169.566406 105.464844 170.472656 C 115.925781 181.269531 121.1875 194.132812 121.242188 209.058594 C 121.261719 212.621094 121.109375 216.488281 120.789062 220.660156 C 120.734375 221.375 120.824219 222.066406 121.066406 222.738281 C 121.308594 223.410156 121.671875 224.003906 122.167969 224.515625 C 131.625 234.328125 142.035156 244.695312 153.390625 255.613281 C 155.457031 257.597656 157.28125 260.136719 159.140625 261.847656 C 159.316406 262.007812 159.507812 262.136719 159.714844 262.238281 C 159.921875 262.335938 160.136719 262.398438 160.351562 262.425781 C 160.570312 262.453125 160.78125 262.441406 160.984375 262.394531 C 161.183594 262.34375 161.367188 262.261719 161.53125 262.144531 C 161.898438 261.878906 162.085938 261.394531 162.085938 260.691406 C 162.078125 222.84375 162.023438 202.644531 161.925781 200.09375 C 161.5625 190.46875 158.957031 181.109375 154.105469 172.011719 C 150.789062 165.804688 144.707031 159.324219 139.535156 153.953125 C 137.449219 151.796875 135.644531 150.785156 134.125 150.925781 C 131.597656 151.164062 128.105469 151.203125 123.644531 151.046875 C 107.871094 150.515625 94.691406 144.613281 84.109375 133.347656 C 83.996094 133.230469 83.925781 133.089844 83.898438 132.929688 C 83.875 132.765625 83.898438 132.609375 83.96875 132.460938 C 84.039062 132.3125 84.148438 132.199219 84.289062 132.117188 C 84.433594 132.039062 84.585938 132.003906 84.75 132.019531 C 92.910156 132.699219 101.316406 133.789062 109.960938 135.28125 C 114.234375 136.035156 116.871094 137.265625 121.390625 139.039062 C 121.714844 139.167969 122 139.109375 122.246094 138.867188 C 122.496094 138.625 122.558594 138.34375 122.4375 138.015625 C 122.183594 137.335938 121.582031 136.515625 120.628906 135.554688 C 108.589844 123.410156 98.421875 113.21875 90.121094 104.984375 C 79.046875 94 70.390625 84.527344 60.523438 75.84375 C 60.394531 75.730469 60.246094 75.648438 60.082031 75.59375 C 59.917969 75.539062 59.753906 75.519531 59.582031 75.535156 C 59.410156 75.550781 59.246094 75.59375 59.09375 75.675781 C 58.941406 75.753906 58.808594 75.859375 58.699219 75.992188 C 49.289062 87.410156 41.605469 102.089844 41 116.734375 C 40.335938 132.820312 45.628906 146.992188 56.878906 159.25 C 61.535156 164.316406 75.644531 178.425781 99.210938 201.582031 C 101.78125 204.101562 104.585938 206.957031 107.632812 210.144531 C 110.292969 212.917969 112.132812 214.765625 113.152344 215.683594 C 113.324219 215.839844 113.507812 215.859375 113.707031 215.746094 Z M 224.160156 215.539062 L 224.503906 215.734375 C 224.699219 215.847656 224.886719 215.828125 225.058594 215.671875 C 226.070312 214.753906 227.902344 212.910156 230.566406 210.144531 C 233.601562 206.957031 236.40625 204.101562 238.976562 201.582031 C 262.5 178.4375 276.589844 164.328125 281.246094 159.261719 C 292.472656 147.011719 297.746094 132.851562 297.074219 116.785156 C 296.46875 102.152344 288.785156 87.484375 279.375 76.089844 C 279.265625 75.957031 279.132812 75.851562 278.976562 75.769531 C 278.824219 75.691406 278.664062 75.644531 278.492188 75.628906 C 278.320312 75.617188 278.152344 75.636719 277.988281 75.691406 C 277.824219 75.746094 277.679688 75.828125 277.550781 75.941406 C 267.699219 84.625 259.050781 94.085938 248.003906 105.070312 C 239.710938 113.304688 229.554688 123.492188 217.535156 135.628906 C 216.589844 136.589844 215.988281 137.410156 215.734375 138.089844 C 215.613281 138.417969 215.679688 138.699219 215.925781 138.941406 C 216.175781 139.183594 216.460938 139.242188 216.78125 139.113281 C 221.289062 137.339844 223.925781 136.109375 228.199219 135.355469 C 236.828125 133.855469 245.222656 132.761719 253.375 132.082031 C 253.734375 132.046875 253.992188 132.191406 254.152344 132.515625 C 254.3125 132.839844 254.269531 133.132812 254.027344 133.398438 C 243.460938 144.664062 230.292969 150.566406 214.527344 151.109375 C 210.078125 151.265625 206.589844 151.226562 204.058594 150.988281 C 202.539062 150.855469 200.742188 151.863281 198.664062 154.015625 C 193.492188 159.386719 187.417969 165.863281 184.117188 172.074219 C 179.273438 181.160156 176.675781 190.515625 176.324219 200.128906 C 176.222656 202.683594 176.179688 222.863281 176.1875 260.664062 C 176.1875 261.371094 176.371094 261.855469 176.742188 262.117188 C 176.90625 262.238281 177.085938 262.320312 177.289062 262.367188 C 177.492188 262.417969 177.703125 262.429688 177.917969 262.402344 C 178.136719 262.375 178.351562 262.3125 178.558594 262.210938 C 178.765625 262.113281 178.957031 261.984375 179.132812 261.824219 C 180.992188 260.109375 182.8125 257.574219 184.871094 255.589844 C 196.210938 244.679688 206.605469 234.316406 216.054688 224.503906 C 216.546875 223.988281 216.914062 223.394531 217.152344 222.722656 C 217.390625 222.050781 217.480469 221.359375 217.421875 220.648438 C 217.101562 216.484375 216.949219 212.621094 216.96875 209.058594 C 217.015625 194.148438 222.261719 181.296875 232.707031 170.507812 C 233.585938 169.605469 234.3125 169.035156 234.886719 168.796875 C 234.984375 168.757812 235.082031 168.734375 235.183594 168.722656 C 235.285156 168.710938 235.390625 168.710938 235.492188 168.722656 C 235.59375 168.738281 235.691406 168.765625 235.785156 168.804688 C 235.882812 168.84375 235.96875 168.894531 236.050781 168.957031 C 236.132812 169.019531 236.207031 169.09375 236.269531 169.175781 C 236.332031 169.257812 236.382812 169.34375 236.425781 169.4375 C 236.464844 169.535156 236.492188 169.632812 236.507812 169.734375 C 236.523438 169.835938 236.523438 169.9375 236.511719 170.039062 C 235.667969 177.027344 234.769531 183.726562 233.816406 190.140625 C 232.542969 198.714844 229.222656 206.691406 223.851562 214.070312 C 223.769531 214.1875 223.710938 214.316406 223.679688 214.453125 C 223.652344 214.59375 223.652344 214.734375 223.679688 214.871094 C 223.710938 215.011719 223.765625 215.140625 223.851562 215.253906 C 223.933594 215.371094 224.035156 215.464844 224.160156 215.539062 Z M 219.875 327.828125 C 221.097656 327.21875 222.582031 326.003906 224.332031 324.179688 C 228.339844 320 233.261719 315.066406 239.101562 309.375 C 257.351562 291.578125 274.695312 273.90625 302.457031 245.921875 C 313.269531 235.019531 318.789062 221.769531 319.007812 206.175781 C 319.09375 199.367188 319.328125 193.910156 318.613281 188.28125 C 317.691406 181.027344 317.320312 169.597656 315.597656 160.164062 C 314.464844 153.980469 313.839844 150.613281 313.726562 150.0625 C 313.703125 149.960938 313.667969 149.863281 313.621094 149.773438 C 313.570312 149.679688 313.515625 149.59375 313.445312 149.515625 C 313.375 149.441406 313.296875 149.371094 313.210938 149.316406 C 313.125 149.257812 313.03125 149.210938 312.933594 149.179688 C 312.835938 149.144531 312.734375 149.125 312.632812 149.117188 C 312.53125 149.109375 312.429688 149.117188 312.328125 149.136719 C 312.226562 149.15625 312.128906 149.1875 312.035156 149.230469 C 311.941406 149.273438 311.859375 149.332031 311.78125 149.398438 C 310.523438 150.457031 309.210938 151.671875 307.839844 153.042969 C 305.085938 155.8125 288.339844 172.488281 257.597656 203.074219 C 255.023438 205.636719 253.191406 207.988281 250.355469 211.101562 C 250.246094 211.226562 250.191406 211.367188 250.183594 211.53125 C 250.175781 211.695312 250.222656 211.839844 250.324219 211.972656 C 250.421875 212.105469 250.554688 212.1875 250.714844 212.230469 C 250.875 212.269531 251.03125 212.253906 251.183594 212.1875 C 263.78125 206.089844 277.636719 204.019531 292.148438 202.691406 C 292.277344 202.679688 292.402344 202.699219 292.523438 202.75 C 292.644531 202.804688 292.742188 202.882812 292.824219 202.984375 C 292.902344 203.089844 292.953125 203.207031 292.972656 203.335938 C 292.992188 203.464844 292.980469 203.589844 292.933594 203.714844 C 292.789062 204.148438 292.554688 204.53125 292.234375 204.859375 C 278.15625 219.390625 261.195312 223.605469 241.058594 221.398438 C 240.480469 221.335938 239.921875 221.402344 239.375 221.59375 C 238.828125 221.785156 238.351562 222.085938 237.941406 222.496094 C 224.886719 235.648438 212.484375 248.460938 199.722656 260.972656 C 195.003906 265.605469 191.925781 268.816406 190.5 270.617188 C 181.515625 281.914062 176.863281 294.832031 176.542969 309.363281 C 176.101562 330.105469 175.988281 349.949219 176.210938 368.902344 C 176.214844 369.113281 176.257812 369.3125 176.34375 369.503906 C 176.433594 369.691406 176.554688 369.859375 176.710938 369.996094 C 176.867188 370.136719 177.042969 370.234375 177.242188 370.296875 C 177.441406 370.359375 177.644531 370.378906 177.851562 370.355469 C 178.390625 370.28125 178.800781 370.074219 179.082031 369.738281 C 181.9375 366.316406 184.953125 363.179688 188.121094 360.328125 C 194.601562 354.527344 200.648438 347.507812 207.839844 340.929688 C 209.28125 339.625 210.796875 337.507812 210.722656 335.832031 C 210.335938 327.128906 210.394531 320.902344 210.894531 317.148438 C 212.742188 303.492188 218.835938 292.203125 229.171875 283.277344 C 229.40625 283.082031 229.660156 283.050781 229.933594 283.191406 C 230.203125 283.328125 230.328125 283.550781 230.304688 283.855469 C 229.609375 291.589844 228.484375 299.757812 226.929688 308.355469 C 225.738281 314.957031 222.335938 322.011719 219.34375 327.261719 C 219.246094 327.433594 219.265625 327.59375 219.402344 327.738281 C 219.535156 327.882812 219.695312 327.914062 219.875 327.828125 Z M 109.320312 283.746094 C 110.832031 284.738281 112.234375 285.976562 113.535156 287.453125 C 125.308594 300.792969 129.421875 316.457031 127.699219 333.996094 C 127.191406 339.121094 130.605469 340.648438 133.609375 343.691406 C 147.363281 357.582031 155.839844 366.199219 159.042969 369.542969 C 159.234375 369.742188 159.457031 369.890625 159.710938 369.996094 C 159.964844 370.097656 160.230469 370.144531 160.503906 370.132812 C 160.78125 370.121094 161.039062 370.050781 161.285156 369.925781 C 161.53125 369.804688 161.742188 369.632812 161.914062 369.417969 C 162.050781 369.253906 162.125 368.964844 162.132812 368.542969 C 162.289062 360.6875 162.296875 344.472656 162.160156 319.90625 C 162.09375 308.667969 161.546875 300.992188 160.519531 296.886719 C 158.648438 289.367188 155.675781 282.246094 151.605469 275.53125 C 149.878906 272.691406 142.648438 264.867188 129.914062 252.066406 C 120.652344 242.757812 110.648438 232.75 99.898438 222.050781 C 99.582031 221.734375 99.210938 221.503906 98.785156 221.363281 C 98.359375 221.21875 97.925781 221.179688 97.484375 221.238281 C 79.871094 223.640625 62.566406 219.601562 49.230469 207.789062 C 47.644531 206.386719 46.554688 205.046875 45.964844 203.773438 C 45.921875 203.6875 45.90625 203.597656 45.914062 203.503906 C 45.917969 203.40625 45.949219 203.320312 46.003906 203.238281 C 46.054688 203.160156 46.125 203.097656 46.210938 203.054688 C 46.296875 203.011719 46.386719 202.992188 46.484375 203 C 56.261719 203.558594 65.921875 205.0625 75.464844 207.519531 C 79.789062 208.636719 83.914062 210.480469 87.828125 213.050781 C 87.972656 213.140625 88.128906 213.179688 88.300781 213.160156 C 88.46875 213.144531 88.617188 213.078125 88.738281 212.957031 C 88.863281 212.839844 88.9375 212.695312 88.957031 212.527344 C 88.980469 212.355469 88.949219 212.199219 88.863281 212.050781 C 87.789062 210.238281 86.398438 208.523438 84.699219 206.914062 C 81.0625 203.476562 69.625 191.992188 50.386719 172.464844 C 44.070312 166.050781 36.949219 159.695312 30.519531 153.328125 C 29.15625 151.972656 27.804688 150.894531 26.46875 150.101562 C 26.324219 150.011719 26.171875 149.964844 26.003906 149.949219 C 25.835938 149.9375 25.675781 149.960938 25.519531 150.023438 C 25.363281 150.089844 25.230469 150.183594 25.117188 150.308594 C 25.003906 150.433594 24.925781 150.578125 24.878906 150.742188 C 22.28125 160.027344 21.601562 166.765625 20.324219 178.808594 C 19.691406 184.664062 19.308594 191.792969 19.175781 200.191406 C 19.019531 209.558594 19.71875 216.640625 21.269531 221.4375 C 24.5625 231.601562 29.265625 239.765625 35.371094 245.921875 C 65.277344 276.058594 86.671875 296.664062 115.527344 325.734375 C 115.949219 326.152344 116.445312 326.554688 117.019531 326.941406 C 117.277344 327.109375 117.527344 327.097656 117.769531 326.902344 C 118.011719 326.707031 118.078125 326.464844 117.96875 326.175781 C 116.957031 323.65625 115.550781 320.410156 113.742188 316.445312 C 112.386719 313.464844 111.179688 308.21875 110.121094 300.707031 C 108.921875 292.3125 108.230469 286.910156 108.039062 284.496094 C 108.011719 284.152344 108.148438 283.894531 108.445312 283.71875 C 108.742188 283.546875 109.035156 283.554688 109.320312 283.746094 Z M 50.523438 314.660156 C 59.988281 315.71875 66.796875 316.507812 70.941406 317.023438 C 77.132812 317.78125 83.167969 319.566406 89.046875 322.382812 C 89.398438 322.542969 89.730469 322.507812 90.042969 322.285156 C 90.355469 322.058594 90.492188 321.753906 90.453125 321.371094 C 90.378906 320.722656 89.980469 320.042969 89.257812 319.328125 C 68.847656 299.140625 49.402344 279.078125 26.726562 257.226562 C 26.128906 256.652344 25.617188 256.371094 25.199219 256.378906 C 25.050781 256.382812 24.910156 256.421875 24.777344 256.496094 C 24.644531 256.566406 24.53125 256.667969 24.441406 256.792969 C 24.347656 256.917969 24.285156 257.058594 24.253906 257.214844 C 24.222656 257.371094 24.21875 257.527344 24.25 257.683594 C 30.582031 290.25 47.28125 324.488281 71.4375 347.199219 C 91.75 366.316406 116.582031 378.191406 145.9375 382.832031 C 147.785156 383.121094 149.179688 383.097656 150.125 382.769531 C 150.234375 382.734375 150.339844 382.683594 150.433594 382.617188 C 150.53125 382.554688 150.617188 382.480469 150.695312 382.394531 C 150.773438 382.304688 150.839844 382.210938 150.890625 382.109375 C 150.945312 382.003906 150.984375 381.898438 151.007812 381.785156 C 151.035156 381.671875 151.042969 381.558594 151.039062 381.441406 C 151.035156 381.324219 151.019531 381.210938 150.984375 381.101562 C 150.953125 380.988281 150.90625 380.886719 150.84375 380.785156 C 150.785156 380.6875 150.714844 380.597656 150.628906 380.515625 C 136.566406 366.828125 122.109375 352.339844 107.265625 337.050781 C 104.285156 333.972656 102.953125 333.320312 98.691406 333.703125 C 80.464844 335.316406 62.554688 329.242188 50.066406 315.535156 C 49.910156 315.351562 49.886719 315.15625 49.996094 314.941406 C 50.109375 314.730469 50.28125 314.632812 50.523438 314.660156 Z M 287.785156 314.609375 C 288.027344 314.585938 288.203125 314.679688 288.3125 314.894531 C 288.425781 315.105469 288.402344 315.304688 288.242188 315.484375 C 275.765625 329.207031 257.859375 335.289062 239.617188 333.6875 C 235.355469 333.320312 234.027344 333.972656 231.042969 337.050781 C 216.207031 352.355469 201.757812 366.863281 187.691406 380.566406 C 187.609375 380.644531 187.535156 380.734375 187.476562 380.835938 C 187.414062 380.933594 187.371094 381.039062 187.335938 381.152344 C 187.304688 381.261719 187.285156 381.375 187.28125 381.492188 C 187.277344 381.605469 187.289062 381.722656 187.3125 381.832031 C 187.335938 381.945312 187.378906 382.054688 187.429688 382.15625 C 187.484375 382.261719 187.546875 382.355469 187.625 382.441406 C 187.703125 382.527344 187.789062 382.601562 187.886719 382.667969 C 187.984375 382.730469 188.085938 382.78125 188.195312 382.820312 C 189.140625 383.148438 190.535156 383.167969 192.382812 382.882812 C 221.746094 378.21875 246.585938 366.316406 266.898438 347.175781 C 291.039062 324.441406 307.714844 290.175781 314.035156 257.597656 C 314.066406 257.441406 314.0625 257.28125 314.03125 257.125 C 313.996094 256.96875 313.933594 256.828125 313.839844 256.703125 C 313.746094 256.574219 313.632812 256.476562 313.5 256.40625 C 313.367188 256.332031 313.222656 256.296875 313.074219 256.292969 C 312.652344 256.285156 312.144531 256.566406 311.546875 257.140625 C 288.882812 279.015625 269.449219 299.105469 249.039062 319.304688 C 248.316406 320.027344 247.917969 320.710938 247.84375 321.359375 C 247.808594 321.746094 247.949219 322.046875 248.261719 322.269531 C 248.578125 322.492188 248.910156 322.523438 249.261719 322.359375 C 255.140625 319.542969 261.175781 317.75 267.367188 316.988281 C 271.511719 316.472656 278.320312 315.679688 287.785156 314.609375 Z M 287.785156 314.609375 " fill-opacity="1" fill-rule="nonzero"/><path fill="#d4b78a" d="M 207.285156 46.5625 C 207.792969 46.90625 208.25 47.3125 208.664062 47.777344 C 209.074219 48.242188 209.429688 48.761719 209.726562 49.332031 C 210.027344 49.902344 210.261719 50.515625 210.4375 51.167969 C 210.609375 51.820312 210.71875 52.503906 210.761719 53.214844 C 210.804688 53.921875 210.785156 54.648438 210.695312 55.390625 C 210.605469 56.128906 210.449219 56.871094 210.234375 57.613281 C 210.015625 58.351562 209.734375 59.082031 209.394531 59.796875 C 209.054688 60.511719 208.664062 61.199219 208.214844 61.859375 C 207.769531 62.519531 207.277344 63.140625 206.738281 63.71875 C 206.203125 64.300781 205.628906 64.828125 205.023438 65.308594 C 204.414062 65.785156 203.78125 66.203125 203.128906 66.5625 C 202.476562 66.921875 201.808594 67.210938 201.132812 67.433594 C 200.460938 67.65625 199.785156 67.808594 199.113281 67.890625 C 198.445312 67.972656 197.789062 67.980469 197.148438 67.914062 C 196.507812 67.847656 195.894531 67.710938 195.308594 67.503906 C 194.722656 67.292969 194.175781 67.019531 193.667969 66.671875 C 193.160156 66.328125 192.699219 65.925781 192.289062 65.457031 C 191.875 64.992188 191.519531 64.472656 191.222656 63.902344 C 190.925781 63.332031 190.6875 62.71875 190.515625 62.066406 C 190.339844 61.414062 190.230469 60.734375 190.1875 60.023438 C 190.144531 59.3125 190.167969 58.585938 190.257812 57.847656 C 190.347656 57.105469 190.5 56.367188 190.71875 55.625 C 190.9375 54.882812 191.214844 54.152344 191.554688 53.4375 C 191.894531 52.726562 192.289062 52.039062 192.734375 51.375 C 193.179688 50.714844 193.675781 50.097656 194.210938 49.515625 C 194.75 48.933594 195.320312 48.40625 195.929688 47.925781 C 196.535156 47.449219 197.167969 47.03125 197.820312 46.671875 C 198.476562 46.316406 199.140625 46.023438 199.816406 45.800781 C 200.492188 45.578125 201.164062 45.425781 201.835938 45.34375 C 202.507812 45.265625 203.164062 45.257812 203.804688 45.320312 C 204.445312 45.386719 205.058594 45.523438 205.644531 45.734375 C 206.226562 45.941406 206.777344 46.21875 207.285156 46.5625 Z M 207.285156 46.5625 " fill-opacity="1" fill-rule="nonzero"/><path fill="#d4b78a" d="M 130.671875 47.09375 C 131.160156 46.730469 131.691406 46.433594 132.261719 46.199219 C 132.832031 45.964844 133.433594 45.796875 134.066406 45.703125 C 134.699219 45.609375 135.347656 45.585938 136.015625 45.632812 C 136.683594 45.679688 137.355469 45.796875 138.035156 45.984375 C 138.710938 46.175781 139.382812 46.429688 140.046875 46.75 C 140.707031 47.074219 141.351562 47.457031 141.972656 47.898438 C 142.59375 48.34375 143.183594 48.839844 143.738281 49.386719 C 144.296875 49.933594 144.808594 50.523438 145.28125 51.152344 C 145.75 51.785156 146.167969 52.445312 146.535156 53.136719 C 146.898438 53.824219 147.207031 54.53125 147.453125 55.253906 C 147.699219 55.976562 147.882812 56.699219 148.003906 57.425781 C 148.121094 58.15625 148.175781 58.871094 148.164062 59.574219 C 148.148438 60.277344 148.070312 60.957031 147.925781 61.609375 C 147.78125 62.261719 147.570312 62.878906 147.300781 63.457031 C 147.027344 64.035156 146.699219 64.566406 146.3125 65.046875 C 145.921875 65.527344 145.484375 65.949219 144.996094 66.3125 C 144.507812 66.675781 143.976562 66.976562 143.40625 67.210938 C 142.835938 67.445312 142.234375 67.609375 141.601562 67.703125 C 140.96875 67.800781 140.320312 67.824219 139.652344 67.777344 C 138.984375 67.730469 138.3125 67.609375 137.632812 67.421875 C 136.953125 67.234375 136.285156 66.980469 135.621094 66.65625 C 134.960938 66.335938 134.316406 65.953125 133.695312 65.507812 C 133.074219 65.066406 132.484375 64.570312 131.929688 64.023438 C 131.371094 63.472656 130.859375 62.886719 130.386719 62.253906 C 129.917969 61.621094 129.5 60.960938 129.132812 60.273438 C 128.769531 59.582031 128.460938 58.875 128.214844 58.15625 C 127.964844 57.433594 127.785156 56.707031 127.664062 55.980469 C 127.542969 55.253906 127.492188 54.539062 127.503906 53.835938 C 127.519531 53.128906 127.597656 52.453125 127.742188 51.796875 C 127.886719 51.144531 128.097656 50.527344 128.367188 49.949219 C 128.640625 49.371094 128.96875 48.84375 129.355469 48.363281 C 129.746094 47.882812 130.183594 47.460938 130.671875 47.09375 Z M 130.671875 47.09375 " fill-opacity="1" fill-rule="nonzero"/><path fill="#d4b78a" d="M 55 107.460938 C 55.480469 107.09375 56.003906 106.796875 56.570312 106.5625 C 57.136719 106.328125 57.730469 106.164062 58.359375 106.070312 C 58.988281 105.972656 59.632812 105.949219 60.300781 106 C 60.96875 106.046875 61.640625 106.167969 62.320312 106.355469 C 63 106.546875 63.671875 106.804688 64.339844 107.128906 C 65.007812 107.453125 65.652344 107.835938 66.28125 108.28125 C 66.910156 108.726562 67.507812 109.222656 68.070312 109.773438 C 68.636719 110.324219 69.160156 110.914062 69.640625 111.550781 C 70.121094 112.183594 70.550781 112.84375 70.925781 113.535156 C 71.304688 114.230469 71.625 114.9375 71.882812 115.664062 C 72.144531 116.386719 72.339844 117.113281 72.472656 117.84375 C 72.605469 118.570312 72.671875 119.289062 72.671875 119.996094 C 72.671875 120.699219 72.605469 121.382812 72.472656 122.035156 C 72.339844 122.691406 72.144531 123.308594 71.886719 123.886719 C 71.625 124.46875 71.304688 124.996094 70.929688 125.480469 C 70.550781 125.960938 70.121094 126.382812 69.640625 126.746094 C 69.160156 127.113281 68.636719 127.410156 68.074219 127.644531 C 67.507812 127.878906 66.910156 128.042969 66.285156 128.140625 C 65.65625 128.234375 65.007812 128.257812 64.339844 128.207031 C 63.675781 128.160156 63.003906 128.039062 62.324219 127.851562 C 61.644531 127.660156 60.96875 127.40625 60.304688 127.082031 C 59.636719 126.757812 58.988281 126.371094 58.359375 125.925781 C 57.734375 125.480469 57.136719 124.984375 56.570312 124.433594 C 56.007812 123.882812 55.484375 123.292969 55.003906 122.660156 C 54.523438 122.027344 54.09375 121.363281 53.714844 120.671875 C 53.335938 119.980469 53.019531 119.269531 52.757812 118.546875 C 52.5 117.820312 52.300781 117.09375 52.167969 116.363281 C 52.035156 115.636719 51.96875 114.917969 51.96875 114.214844 C 51.96875 113.507812 52.035156 112.828125 52.167969 112.171875 C 52.300781 111.515625 52.496094 110.898438 52.757812 110.320312 C 53.019531 109.742188 53.335938 109.210938 53.714844 108.730469 C 54.09375 108.25 54.519531 107.824219 55 107.460938 Z M 55 107.460938 " fill-opacity="1" fill-rule="nonzero"/><path fill="#d4b78a" d="M 283.304688 107.359375 C 283.800781 107.726562 284.242188 108.152344 284.628906 108.640625 C 285.019531 109.128906 285.351562 109.664062 285.621094 110.25 C 285.894531 110.835938 286.101562 111.460938 286.242188 112.125 C 286.386719 112.789062 286.460938 113.476562 286.46875 114.191406 C 286.476562 114.90625 286.417969 115.636719 286.292969 116.375 C 286.167969 117.113281 285.976562 117.851562 285.722656 118.585938 C 285.46875 119.320312 285.152344 120.035156 284.777344 120.738281 C 284.402344 121.441406 283.972656 122.113281 283.492188 122.753906 C 283.011719 123.398438 282.488281 124 281.921875 124.554688 C 281.351562 125.113281 280.753906 125.621094 280.121094 126.070312 C 279.488281 126.523438 278.835938 126.914062 278.160156 127.246094 C 277.488281 127.574219 276.808594 127.835938 276.121094 128.027344 C 275.429688 128.222656 274.75 128.34375 274.070312 128.394531 C 273.394531 128.445312 272.738281 128.421875 272.097656 128.328125 C 271.457031 128.234375 270.851562 128.066406 270.273438 127.832031 C 269.695312 127.59375 269.160156 127.292969 268.667969 126.925781 C 268.175781 126.554688 267.734375 126.128906 267.34375 125.640625 C 266.957031 125.152344 266.625 124.617188 266.355469 124.03125 C 266.082031 123.445312 265.875 122.820312 265.734375 122.15625 C 265.589844 121.492188 265.515625 120.804688 265.503906 120.089844 C 265.496094 119.375 265.554688 118.648438 265.679688 117.90625 C 265.808594 117.167969 265.996094 116.433594 266.253906 115.699219 C 266.507812 114.964844 266.824219 114.246094 267.199219 113.542969 C 267.574219 112.839844 268 112.167969 268.484375 111.527344 C 268.964844 110.882812 269.488281 110.285156 270.054688 109.726562 C 270.621094 109.167969 271.222656 108.664062 271.855469 108.210938 C 272.488281 107.757812 273.140625 107.367188 273.8125 107.039062 C 274.488281 106.707031 275.167969 106.445312 275.855469 106.253906 C 276.542969 106.058594 277.226562 105.9375 277.902344 105.886719 C 278.582031 105.835938 279.238281 105.859375 279.878906 105.953125 C 280.515625 106.046875 281.125 106.214844 281.703125 106.449219 C 282.277344 106.6875 282.8125 106.988281 283.304688 107.359375 Z M 283.304688 107.359375 " fill-opacity="1" fill-rule="nonzero"/><path fill="#d4b78a" d="M 133.089844 190.726562 C 133.59375 190.375 134.140625 190.09375 134.726562 189.878906 C 135.3125 189.664062 135.925781 189.523438 136.566406 189.449219 C 137.210938 189.378906 137.867188 189.382812 138.542969 189.457031 C 139.21875 189.53125 139.894531 189.679688 140.578125 189.898438 C 141.257812 190.117188 141.929688 190.40625 142.589844 190.757812 C 143.25 191.113281 143.890625 191.527344 144.503906 192.003906 C 145.121094 192.480469 145.703125 193.007812 146.25 193.585938 C 146.796875 194.167969 147.300781 194.785156 147.757812 195.445312 C 148.214844 196.105469 148.617188 196.792969 148.96875 197.511719 C 149.316406 198.226562 149.605469 198.957031 149.835938 199.699219 C 150.0625 200.445312 150.226562 201.1875 150.324219 201.933594 C 150.425781 202.675781 150.457031 203.40625 150.421875 204.121094 C 150.386719 204.832031 150.289062 205.519531 150.121094 206.179688 C 149.953125 206.835938 149.722656 207.453125 149.433594 208.03125 C 149.140625 208.605469 148.789062 209.128906 148.382812 209.601562 C 147.976562 210.074219 147.519531 210.488281 147.011719 210.835938 C 146.507812 211.1875 145.960938 211.46875 145.375 211.683594 C 144.789062 211.898438 144.175781 212.042969 143.535156 212.113281 C 142.890625 212.183594 142.234375 212.183594 141.558594 212.105469 C 140.882812 212.03125 140.207031 211.882812 139.523438 211.664062 C 138.84375 211.445312 138.171875 211.160156 137.511719 210.804688 C 136.851562 210.449219 136.210938 210.035156 135.597656 209.558594 C 134.980469 209.082031 134.398438 208.554688 133.851562 207.976562 C 133.304688 207.398438 132.800781 206.777344 132.34375 206.117188 C 131.886719 205.457031 131.484375 204.769531 131.132812 204.054688 C 130.785156 203.335938 130.496094 202.609375 130.265625 201.863281 C 130.039062 201.121094 129.875 200.375 129.777344 199.632812 C 129.675781 198.890625 129.644531 198.160156 129.679688 197.445312 C 129.714844 196.730469 129.8125 196.042969 129.980469 195.386719 C 130.148438 194.726562 130.375 194.109375 130.667969 193.535156 C 130.960938 192.957031 131.3125 192.433594 131.71875 191.960938 C 132.125 191.488281 132.582031 191.078125 133.089844 190.726562 Z M 133.089844 190.726562 " fill-opacity="1" fill-rule="nonzero"/><path fill="#d4b78a" d="M 205.519531 191.25 C 206.007812 191.617188 206.445312 192.042969 206.832031 192.53125 C 207.21875 193.015625 207.542969 193.550781 207.8125 194.136719 C 208.078125 194.71875 208.285156 195.34375 208.421875 196.003906 C 208.5625 196.664062 208.632812 197.351562 208.640625 198.0625 C 208.644531 198.773438 208.585938 199.496094 208.457031 200.234375 C 208.328125 200.96875 208.136719 201.703125 207.878906 202.433594 C 207.621094 203.164062 207.304688 203.875 206.929688 204.574219 C 206.550781 205.273438 206.125 205.941406 205.644531 206.578125 C 205.160156 207.214844 204.636719 207.8125 204.070312 208.367188 C 203.503906 208.921875 202.90625 209.421875 202.273438 209.871094 C 201.640625 210.320312 200.992188 210.707031 200.320312 211.03125 C 199.648438 211.355469 198.96875 211.617188 198.285156 211.804688 C 197.597656 211.996094 196.917969 212.117188 196.246094 212.164062 C 195.570312 212.214844 194.917969 212.1875 194.28125 212.09375 C 193.644531 211.996094 193.039062 211.828125 192.46875 211.59375 C 191.894531 211.355469 191.363281 211.054688 190.875 210.683594 C 190.382812 210.316406 189.949219 209.890625 189.5625 209.402344 C 189.175781 208.917969 188.847656 208.382812 188.582031 207.796875 C 188.3125 207.214844 188.109375 206.589844 187.972656 205.929688 C 187.832031 205.269531 187.757812 204.582031 187.753906 203.871094 C 187.746094 203.160156 187.808594 202.4375 187.9375 201.699219 C 188.066406 200.964844 188.257812 200.234375 188.515625 199.503906 C 188.773438 198.769531 189.089844 198.058594 189.464844 197.359375 C 189.839844 196.660156 190.269531 195.992188 190.75 195.355469 C 191.230469 194.71875 191.753906 194.121094 192.324219 193.566406 C 192.890625 193.015625 193.488281 192.511719 194.121094 192.0625 C 194.75 191.617188 195.402344 191.226562 196.074219 190.902344 C 196.746094 190.578125 197.425781 190.316406 198.109375 190.128906 C 198.796875 189.9375 199.476562 189.816406 200.148438 189.769531 C 200.824219 189.722656 201.476562 189.746094 202.113281 189.839844 C 202.75 189.9375 203.351562 190.105469 203.925781 190.339844 C 204.5 190.578125 205.03125 190.878906 205.519531 191.25 Z M 205.519531 191.25 " fill-opacity="1" fill-rule="nonzero"/><path fill="#d4b78a" d="M 75.769531 244.777344 C 76.261719 244.402344 76.796875 244.089844 77.371094 243.847656 C 77.949219 243.601562 78.554688 243.425781 79.195312 243.320312 C 79.832031 243.214844 80.492188 243.179688 81.167969 243.21875 C 81.84375 243.257812 82.527344 243.367188 83.21875 243.546875 C 83.90625 243.730469 84.585938 243.976562 85.261719 244.292969 C 85.9375 244.609375 86.589844 244.988281 87.226562 245.429688 C 87.859375 245.867188 88.460938 246.359375 89.03125 246.90625 C 89.601562 247.453125 90.125 248.042969 90.609375 248.671875 C 91.09375 249.304688 91.523438 249.964844 91.898438 250.660156 C 92.277344 251.351562 92.59375 252.0625 92.851562 252.789062 C 93.113281 253.515625 93.304688 254.246094 93.433594 254.980469 C 93.5625 255.714844 93.621094 256.4375 93.617188 257.148438 C 93.609375 257.863281 93.539062 258.550781 93.398438 259.214844 C 93.257812 259.875 93.050781 260.503906 92.78125 261.089844 C 92.511719 261.679688 92.183594 262.222656 91.796875 262.710938 C 91.410156 263.203125 90.96875 263.636719 90.476562 264.015625 C 89.984375 264.390625 89.453125 264.699219 88.875 264.945312 C 88.300781 265.191406 87.691406 265.367188 87.054688 265.472656 C 86.414062 265.578125 85.757812 265.609375 85.078125 265.570312 C 84.402344 265.535156 83.71875 265.425781 83.03125 265.242188 C 82.34375 265.0625 81.660156 264.8125 80.984375 264.496094 C 80.3125 264.179688 79.65625 263.804688 79.023438 263.363281 C 78.386719 262.925781 77.785156 262.429688 77.21875 261.886719 C 76.648438 261.339844 76.121094 260.75 75.640625 260.117188 C 75.15625 259.488281 74.726562 258.824219 74.347656 258.132812 C 73.96875 257.4375 73.652344 256.730469 73.394531 256.003906 C 73.136719 255.273438 72.945312 254.542969 72.816406 253.808594 C 72.6875 253.078125 72.625 252.355469 72.632812 251.640625 C 72.636719 250.929688 72.710938 250.242188 72.851562 249.578125 C 72.992188 248.914062 73.195312 248.289062 73.464844 247.699219 C 73.734375 247.109375 74.0625 246.570312 74.453125 246.078125 C 74.839844 245.585938 75.277344 245.152344 75.769531 244.777344 Z M 75.769531 244.777344 " fill-opacity="1" fill-rule="nonzero"/><path fill="#d4b78a" d="M 262.234375 244.6875 C 262.742188 245.046875 263.199219 245.46875 263.609375 245.949219 C 264.015625 246.429688 264.367188 246.964844 264.660156 247.546875 C 264.953125 248.128906 265.179688 248.75 265.347656 249.414062 C 265.511719 250.074219 265.609375 250.765625 265.644531 251.480469 C 265.675781 252.195312 265.640625 252.925781 265.539062 253.667969 C 265.433594 254.410156 265.265625 255.152344 265.035156 255.890625 C 264.800781 256.632812 264.507812 257.355469 264.152344 258.066406 C 263.796875 258.773438 263.386719 259.453125 262.925781 260.105469 C 262.460938 260.757812 261.953125 261.367188 261.402344 261.933594 C 260.847656 262.503906 260.261719 263.019531 259.640625 263.484375 C 259.015625 263.945312 258.371094 264.347656 257.703125 264.691406 C 257.039062 265.03125 256.359375 265.304688 255.675781 265.507812 C 254.988281 265.714844 254.304688 265.847656 253.625 265.910156 C 252.945312 265.96875 252.28125 265.957031 251.632812 265.875 C 250.988281 265.789062 250.371094 265.632812 249.78125 265.40625 C 249.191406 265.179688 248.644531 264.886719 248.136719 264.523438 C 247.628906 264.164062 247.167969 263.742188 246.761719 263.261719 C 246.351562 262.777344 246.003906 262.246094 245.710938 261.664062 C 245.417969 261.082031 245.1875 260.457031 245.023438 259.796875 C 244.859375 259.132812 244.757812 258.445312 244.726562 257.730469 C 244.695312 257.011719 244.730469 256.285156 244.832031 255.542969 C 244.933594 254.800781 245.101562 254.058594 245.335938 253.320312 C 245.570312 252.578125 245.863281 251.855469 246.21875 251.144531 C 246.574219 250.4375 246.980469 249.753906 247.445312 249.105469 C 247.90625 248.453125 248.414062 247.84375 248.96875 247.273438 C 249.523438 246.707031 250.109375 246.191406 250.730469 245.726562 C 251.355469 245.261719 252 244.863281 252.664062 244.519531 C 253.332031 244.179688 254.007812 243.90625 254.695312 243.703125 C 255.382812 243.496094 256.066406 243.363281 256.746094 243.300781 C 257.425781 243.238281 258.089844 243.25 258.734375 243.335938 C 259.382812 243.421875 260 243.578125 260.589844 243.804688 C 261.175781 244.03125 261.726562 244.324219 262.234375 244.6875 Z M 262.234375 244.6875 " fill-opacity="1" fill-rule="nonzero"/><g clip-path="url(#6df3443cae)"><g transform="matrix(1, 0, 0, 1, 377, 31)"><g clip-path="url(#a99193e14f)"><g fill="#f5efe0" fill-opacity="1"><g transform="translate(0.351708, 212.407285)"><g><path d="M 19.65625 0.53125 C 20.375 -7.34375 20.875 -25.640625 21.15625 -54.359375 L 21.375 -81.53125 L 21.265625 -108.28125 C 21.265625 -119.445312 21.265625 -125.851562 21.265625 -127.5 C 20.265625 -142.46875 19.726562 -150.664062 19.65625 -152.09375 C 35.050781 -150.945312 48.90625 -150.375 61.21875 -150.375 C 69.75 -150.375 83.210938 -150.945312 101.609375 -152.09375 C 101.253906 -148.875 101.078125 -146.515625 101.078125 -145.015625 C 101.078125 -143.359375 101.253906 -140.921875 101.609375 -137.703125 C 85.566406 -138.773438 67.378906 -139.3125 47.046875 -139.3125 L 40.8125 -139.421875 C 40.382812 -121.953125 40.171875 -106.804688 40.171875 -93.984375 L 40.171875 -85.171875 C 47.191406 -84.960938 51.921875 -84.859375 54.359375 -84.859375 C 72.253906 -84.859375 86.285156 -85.429688 96.453125 -86.578125 C 96.097656 -83.421875 95.921875 -81.019531 95.921875 -79.375 C 95.921875 -77.800781 96.097656 -75.441406 96.453125 -72.296875 C 80.554688 -73.367188 65.84375 -73.90625 52.3125 -73.90625 C 48.726562 -73.90625 44.679688 -73.90625 40.171875 -73.90625 L 40.171875 -64.5625 C 40.316406 -32.625 40.851562 -10.925781 41.78125 0.53125 C 36.914062 0.175781 33.226562 0 30.71875 0 C 28.28125 0 24.59375 0.175781 19.65625 0.53125 Z M 19.65625 0.53125 "/></g></g></g><g fill="#f5efe0" fill-opacity="1"><g transform="translate(87.851271, 212.407285)"><g><path d="M 2.796875 0.53125 C 13.535156 -19.375 33.367188 -62.484375 62.296875 -128.796875 L 71.53125 -150.375 L 75.625 -150.375 C 79.5625 -140.851562 85.679688 -126.640625 93.984375 -107.734375 C 98.640625 -96.921875 105.875 -80.019531 115.6875 -57.03125 C 126.351562 -32.113281 135.195312 -12.925781 142.21875 0.53125 C 136.914062 0.175781 132.941406 0 130.296875 0 C 127.640625 0 123.628906 0.175781 118.265625 0.53125 C 116.328125 -4.257812 112.710938 -13.601562 107.421875 -27.5 C 105.128906 -33.375 101.046875 -43.003906 95.171875 -56.390625 C 85.429688 -57.535156 75.800781 -58.109375 66.28125 -58.109375 C 58.332031 -58.109375 49.953125 -57.535156 41.140625 -56.390625 C 32.691406 -36.265625 25.53125 -17.289062 19.65625 0.53125 C 15.9375 0.175781 13.144531 0 11.28125 0 C 9.414062 0 6.585938 0.175781 2.796875 0.53125 Z M 47.375 -70.671875 C 57.75 -69.597656 65.484375 -69.0625 70.578125 -69.0625 C 75.796875 -69.0625 81.878906 -69.566406 88.828125 -70.578125 C 86.328125 -77.378906 79.632812 -93.128906 68.75 -117.828125 L 63.703125 -106.765625 C 54.960938 -87.648438 49.519531 -75.617188 47.375 -70.671875 Z M 47.375 -70.671875 "/></g></g></g><g fill="#f5efe0" fill-opacity="1"><g transform="translate(227.55395, 212.407285)"><g><path d="M 19.015625 0.53125 C 19.515625 -8.988281 19.90625 -25.382812 20.1875 -48.65625 L 20.734375 -81.953125 L 20.625 -106.234375 C 20.625 -120.191406 20.410156 -130.144531 19.984375 -136.09375 C 19.835938 -139.03125 19.515625 -143.972656 19.015625 -150.921875 C 22.953125 -150.847656 25.566406 -150.773438 26.859375 -150.703125 C 31.578125 -150.484375 34.65625 -150.375 36.09375 -150.375 C 36.945312 -150.375 41.707031 -150.554688 50.375 -150.921875 C 53.664062 -151.054688 57.351562 -151.125 61.4375 -151.125 C 70.820312 -151.125 78.378906 -150.804688 84.109375 -150.171875 C 94.773438 -149.023438 102.972656 -144.726562 108.703125 -137.28125 C 113.140625 -131.476562 115.359375 -124.53125 115.359375 -116.4375 C 115.359375 -102.46875 109.304688 -91.65625 97.203125 -84 C 90.472656 -79.769531 81.597656 -76.867188 70.578125 -75.296875 C 81.742188 -60.328125 94.453125 -44.109375 108.703125 -26.640625 C 117.222656 -16.328125 124.957031 -7.269531 131.90625 0.53125 C 125.675781 0.175781 120.984375 0 117.828125 0 C 114.679688 0 109.992188 0.175781 103.765625 0.53125 C 96.460938 -9.5625 90.195312 -18.117188 84.96875 -25.140625 C 76.519531 -36.378906 65.992188 -49.734375 53.390625 -65.203125 L 47.046875 -73.046875 L 39.53125 -73.046875 C 39.601562 -66.671875 39.707031 -51.664062 39.84375 -28.03125 C 39.84375 -23.59375 40.273438 -14.070312 41.140625 0.53125 C 36.265625 0.175781 32.578125 0 30.078125 0 C 27.640625 0 23.953125 0.175781 19.015625 0.53125 Z M 39.53125 -81.953125 L 46.296875 -81.953125 C 57.609375 -82.597656 65.769531 -83.78125 70.78125 -85.5 C 79.019531 -88.363281 85 -92.984375 88.71875 -99.359375 C 91.445312 -104.015625 92.8125 -109.023438 92.8125 -114.390625 C 92.8125 -123.421875 89.585938 -130.367188 83.140625 -135.234375 C 77.554688 -139.390625 68.925781 -141.46875 57.25 -141.46875 C 53.382812 -141.46875 47.691406 -141.25 40.171875 -140.8125 L 40.0625 -133.625 L 39.84375 -111.390625 L 39.640625 -91.625 Z M 39.53125 -81.953125 "/></g></g></g><g fill="#f5efe0" fill-opacity="1"><g transform="translate(355.011484, 212.407285)"><g><path d="M 8.15625 0.53125 C 11.09375 -11.207031 15.25 -38.238281 20.625 -80.5625 C 22.269531 -93.164062 24.632812 -110.816406 27.71875 -133.515625 L 29.96875 -150.375 L 34.046875 -150.375 L 38.890625 -140.921875 C 58.929688 -102.109375 71.710938 -77.65625 77.234375 -67.5625 C 82.171875 -58.46875 89.113281 -46.296875 98.0625 -31.046875 L 102.265625 -38.671875 L 112.25 -57.359375 C 134.09375 -97.097656 150.882812 -128.101562 162.625 -150.375 L 166.703125 -150.375 C 170.566406 -112 173.828125 -82.210938 176.484375 -61.015625 C 180.847656 -26.347656 183.675781 -5.832031 184.96875 0.53125 C 180.164062 0.175781 176.582031 0 174.21875 0 C 171.789062 0 168.175781 0.175781 163.375 0.53125 C 162.726562 -4.6875 161.796875 -13.921875 160.578125 -27.171875 C 156.859375 -67.421875 154.03125 -95.0625 152.09375 -110.09375 C 142.925781 -93.050781 135.835938 -79.945312 130.828125 -70.78125 C 125.390625 -60.539062 115.9375 -41.851562 102.46875 -14.71875 L 95.0625 0 L 90.984375 0 C 86.328125 -10.09375 76.691406 -29.285156 62.078125 -57.578125 L 43.5 -93.34375 L 35.546875 -108.28125 C 28.742188 -57.863281 25.203125 -21.59375 24.921875 0.53125 C 21.191406 0.175781 18.398438 0 16.546875 0 C 14.679688 0 11.882812 0.175781 8.15625 0.53125 Z M 8.15625 0.53125 "/></g></g></g><g fill="#f5efe0" fill-opacity="1"><g transform="translate(543.372463, 212.407285)"><g/></g></g><g fill="#f5efe0" fill-opacity="1"><g transform="translate(597.788873, 212.407285)"><g><path d="M 18.046875 1.71875 C 19.191406 -15.394531 19.765625 -40.097656 19.765625 -72.390625 L 19.765625 -79.375 L 19.546875 -107.734375 C 19.472656 -125.492188 19.367188 -136.128906 19.234375 -139.640625 C 19.160156 -143.078125 18.765625 -147.226562 18.046875 -152.09375 C 27.710938 -150.945312 41.066406 -150.375 58.109375 -150.375 C 70.210938 -150.375 83.390625 -150.945312 97.640625 -152.09375 C 97.285156 -148.875 97.109375 -146.476562 97.109375 -144.90625 C 97.109375 -143.320312 97.285156 -140.921875 97.640625 -137.703125 C 85.828125 -138.847656 71.539062 -139.421875 54.78125 -139.421875 C 49.195312 -139.421875 44.003906 -139.207031 39.203125 -138.78125 C 38.847656 -125.3125 38.632812 -109.160156 38.5625 -90.328125 L 38.5625 -84 C 44.644531 -83.925781 49.550781 -83.890625 53.28125 -83.890625 C 68.75 -83.890625 81.640625 -84.425781 91.953125 -85.5 C 91.515625 -82.351562 91.296875 -79.957031 91.296875 -78.3125 C 91.296875 -76.726562 91.515625 -74.363281 91.953125 -71.21875 C 82.421875 -72.289062 64.625 -72.898438 38.5625 -73.046875 L 38.5625 -64.984375 C 38.5625 -44.359375 38.773438 -26.382812 39.203125 -11.0625 C 44.359375 -10.988281 48.15625 -10.953125 50.59375 -10.953125 C 65.195312 -10.953125 80.914062 -11.523438 97.75 -12.671875 C 97.382812 -9.453125 97.203125 -7.019531 97.203125 -5.375 C 97.203125 -3.863281 97.382812 -1.5 97.75 1.71875 C 77.125 0.570312 62.265625 0 53.171875 0 C 43.078125 0 31.367188 0.570312 18.046875 1.71875 Z M 18.046875 1.71875 "/></g></g></g><g fill="#f5efe0" fill-opacity="1"><g transform="translate(700.971007, 212.407285)"><g><path d="M 21.484375 -150.921875 C 28.785156 -150.554688 35.445312 -150.375 41.46875 -150.375 C 46.976562 -150.375 54.421875 -150.445312 63.796875 -150.59375 C 74.328125 -150.8125 81.421875 -150.921875 85.078125 -150.921875 C 99.460938 -150.921875 110.988281 -149.304688 119.65625 -146.078125 C 132.113281 -141.359375 141.960938 -133.160156 149.203125 -121.484375 C 156.359375 -109.816406 159.9375 -96.316406 159.9375 -80.984375 C 159.9375 -63.234375 155.566406 -47.410156 146.828125 -33.515625 C 140.171875 -22.984375 131.398438 -14.75 120.515625 -8.8125 C 112.992188 -4.65625 103.503906 -1.929688 92.046875 -0.640625 C 84.816406 0.210938 76.441406 0.640625 66.921875 0.640625 C 63.835938 0.640625 58.070312 0.5 49.625 0.21875 C 44.820312 0.0703125 40.988281 0 38.125 0 C 34.332031 0 28.785156 0.175781 21.484375 0.53125 C 22.628906 -17.363281 23.203125 -40.492188 23.203125 -68.859375 C 23.203125 -110.171875 22.628906 -137.523438 21.484375 -150.921875 Z M 42.640625 -138.78125 L 42.421875 -128.46875 C 42.140625 -100.613281 42 -82.53125 42 -74.21875 L 42 -54.140625 C 42.070312 -33.867188 42.285156 -19.6875 42.640625 -11.59375 C 53.378906 -11.164062 61.832031 -10.953125 68 -10.953125 C 84.394531 -10.953125 96.742188 -12.816406 105.046875 -16.546875 C 116.503906 -21.628906 125.023438 -30.398438 130.609375 -42.859375 C 135.128906 -52.804688 137.390625 -64.765625 137.390625 -78.734375 C 137.390625 -103.648438 130.007812 -120.800781 115.25 -130.1875 C 108.8125 -134.34375 100.613281 -137.023438 90.65625 -138.234375 C 85.070312 -138.953125 77.234375 -139.3125 67.140625 -139.3125 C 58.546875 -139.3125 50.378906 -139.132812 42.640625 -138.78125 Z M 42.640625 -138.78125 "/></g></g></g><g fill="#f5efe0" fill-opacity="1"><g transform="translate(864.949136, 212.407285)"><g><path d="M 18.046875 1.71875 C 19.191406 -15.394531 19.765625 -40.097656 19.765625 -72.390625 L 19.765625 -79.375 L 19.546875 -107.734375 C 19.472656 -125.492188 19.367188 -136.128906 19.234375 -139.640625 C 19.160156 -143.078125 18.765625 -147.226562 18.046875 -152.09375 C 27.710938 -150.945312 41.066406 -150.375 58.109375 -150.375 C 70.210938 -150.375 83.390625 -150.945312 97.640625 -152.09375 C 97.285156 -148.875 97.109375 -146.476562 97.109375 -144.90625 C 97.109375 -143.320312 97.285156 -140.921875 97.640625 -137.703125 C 85.828125 -138.847656 71.539062 -139.421875 54.78125 -139.421875 C 49.195312 -139.421875 44.003906 -139.207031 39.203125 -138.78125 C 38.847656 -125.3125 38.632812 -109.160156 38.5625 -90.328125 L 38.5625 -84 C 44.644531 -83.925781 49.550781 -83.890625 53.28125 -83.890625 C 68.75 -83.890625 81.640625 -84.425781 91.953125 -85.5 C 91.515625 -82.351562 91.296875 -79.957031 91.296875 -78.3125 C 91.296875 -76.726562 91.515625 -74.363281 91.953125 -71.21875 C 82.421875 -72.289062 64.625 -72.898438 38.5625 -73.046875 L 38.5625 -64.984375 C 38.5625 -44.359375 38.773438 -26.382812 39.203125 -11.0625 C 44.359375 -10.988281 48.15625 -10.953125 50.59375 -10.953125 C 65.195312 -10.953125 80.914062 -11.523438 97.75 -12.671875 C 97.382812 -9.453125 97.203125 -7.019531 97.203125 -5.375 C 97.203125 -3.863281 97.382812 -1.5 97.75 1.71875 C 77.125 0.570312 62.265625 0 53.171875 0 C 43.078125 0 31.367188 0.570312 18.046875 1.71875 Z M 18.046875 1.71875 "/></g></g></g><g fill="#f5efe0" fill-opacity="1"><g transform="translate(968.131204, 212.407285)"><g><path d="M 21.375 0.53125 C 22.519531 -20.519531 23.09375 -47.441406 23.09375 -80.234375 C 23.09375 -92.691406 22.769531 -108.085938 22.125 -126.421875 L 21.59375 -145.546875 L 21.375 -150.375 L 27.171875 -150.375 L 34.796875 -142.109375 L 59.609375 -115.796875 C 91.984375 -81.347656 117.367188 -54.597656 135.765625 -35.546875 L 135.765625 -79.171875 C 135.765625 -105.585938 135.191406 -129.503906 134.046875 -150.921875 C 137.347656 -150.554688 139.820312 -150.375 141.46875 -150.375 C 143.039062 -150.375 145.472656 -150.554688 148.765625 -150.921875 C 147.691406 -130.222656 147.15625 -101.898438 147.15625 -65.953125 C 147.15625 -50.703125 147.691406 -27.679688 148.765625 3.109375 L 142.96875 3.109375 C 117.757812 -26.035156 85.390625 -60.65625 45.859375 -100.75 L 34.15625 -112.671875 C 34.300781 -93.191406 34.410156 -72.285156 34.484375 -49.953125 C 35.128906 -25.097656 35.664062 -8.269531 36.09375 0.53125 C 32.863281 0.175781 30.425781 0 28.78125 0 C 27.132812 0 24.664062 0.175781 21.375 0.53125 Z M 21.375 0.53125 "/></g></g></g></g></g></g><g fill="#d4b78a" fill-opacity="1"><g transform="translate(392.850156, 357.973374)"><g><path d="M 5.03125 0 L 5.03125 -47.390625 L 35.34375 -47.390625 L 35.34375 -41.15625 L 12.28125 -41.15625 L 12.28125 -27.0625 L 33.6875 -27.0625 L 33.6875 -20.890625 L 12.28125 -20.890625 L 12.28125 -6.234375 L 35.5 -6.234375 L 35.5 0 Z M 5.03125 0 "/></g></g></g><g fill="#d4b78a" fill-opacity="1"><g transform="translate(432.654663, 357.973374)"><g><path d="M 21.0625 0.765625 C 17.476562 0.765625 14.363281 0.1875 11.71875 -0.96875 C 9.082031 -2.125 7.023438 -3.78125 5.546875 -5.9375 C 4.078125 -8.101562 3.28125 -10.671875 3.15625 -13.640625 L 10.375 -13.640625 C 10.5 -11.859375 11.035156 -10.363281 11.984375 -9.15625 C 12.941406 -7.945312 14.203125 -7.035156 15.765625 -6.421875 C 17.335938 -5.804688 19.09375 -5.5 21.03125 -5.5 C 23.0625 -5.5 24.863281 -5.816406 26.4375 -6.453125 C 28.019531 -7.085938 29.257812 -7.976562 30.15625 -9.125 C 31.0625 -10.269531 31.515625 -11.609375 31.515625 -13.140625 C 31.515625 -14.492188 31.140625 -15.609375 30.390625 -16.484375 C 29.640625 -17.367188 28.585938 -18.113281 27.234375 -18.71875 C 25.890625 -19.320312 24.316406 -19.859375 22.515625 -20.328125 L 17.015625 -21.75 C 12.941406 -22.832031 9.816406 -24.390625 7.640625 -26.421875 C 5.472656 -28.460938 4.390625 -31.117188 4.390625 -34.390625 C 4.390625 -37.117188 5.113281 -39.507812 6.5625 -41.5625 C 8.019531 -43.625 10.015625 -45.222656 12.546875 -46.359375 C 15.078125 -47.492188 17.957031 -48.0625 21.1875 -48.0625 C 24.46875 -48.0625 27.347656 -47.484375 29.828125 -46.328125 C 32.316406 -45.171875 34.257812 -43.578125 35.65625 -41.546875 C 37.050781 -39.523438 37.789062 -37.191406 37.875 -34.546875 L 30.859375 -34.546875 C 30.640625 -36.835938 29.640625 -38.617188 27.859375 -39.890625 C 26.078125 -41.160156 23.8125 -41.796875 21.0625 -41.796875 C 19.144531 -41.796875 17.476562 -41.492188 16.0625 -40.890625 C 14.644531 -40.285156 13.539062 -39.453125 12.75 -38.390625 C 11.96875 -37.328125 11.578125 -36.117188 11.578125 -34.765625 C 11.578125 -33.347656 12 -32.179688 12.84375 -31.265625 C 13.695312 -30.359375 14.785156 -29.628906 16.109375 -29.078125 C 17.429688 -28.523438 18.804688 -28.054688 20.234375 -27.671875 L 24.9375 -26.46875 C 26.632812 -26.039062 28.296875 -25.488281 29.921875 -24.8125 C 31.554688 -24.132812 33.03125 -23.273438 34.34375 -22.234375 C 35.664062 -21.191406 36.710938 -19.925781 37.484375 -18.4375 C 38.253906 -16.957031 38.640625 -15.203125 38.640625 -13.171875 C 38.640625 -10.453125 37.945312 -8.039062 36.5625 -5.9375 C 35.175781 -3.84375 33.164062 -2.203125 30.53125 -1.015625 C 27.90625 0.171875 24.75 0.765625 21.0625 0.765625 Z M 21.0625 0.765625 "/></g></g></g><g fill="#d4b78a" fill-opacity="1"><g transform="translate(475.162556, 357.973374)"><g><path d="M 24.875 0.671875 C 20.71875 0.671875 17.015625 -0.3125 13.765625 -2.28125 C 10.523438 -4.257812 7.984375 -7.066406 6.140625 -10.703125 C 4.296875 -14.335938 3.375 -18.660156 3.375 -23.671875 C 3.375 -28.691406 4.300781 -33.023438 6.15625 -36.671875 C 8.007812 -40.316406 10.554688 -43.125 13.796875 -45.09375 C 17.046875 -47.070312 20.738281 -48.0625 24.875 -48.0625 C 27.394531 -48.0625 29.757812 -47.691406 31.96875 -46.953125 C 34.175781 -46.222656 36.144531 -45.164062 37.875 -43.78125 C 39.613281 -42.394531 41.054688 -40.703125 42.203125 -38.703125 C 43.347656 -36.710938 44.125 -34.457031 44.53125 -31.9375 L 37.25 -31.9375 C 36.925781 -33.476562 36.394531 -34.835938 35.65625 -36.015625 C 34.914062 -37.191406 34 -38.1875 32.90625 -39 C 31.8125 -39.820312 30.59375 -40.4375 29.25 -40.84375 C 27.90625 -41.257812 26.46875 -41.46875 24.9375 -41.46875 C 22.132812 -41.46875 19.644531 -40.769531 17.46875 -39.375 C 15.300781 -37.976562 13.601562 -35.953125 12.375 -33.296875 C 11.144531 -30.648438 10.53125 -27.441406 10.53125 -23.671875 C 10.53125 -19.890625 11.148438 -16.671875 12.390625 -14.015625 C 13.628906 -11.367188 15.332031 -9.359375 17.5 -7.984375 C 19.675781 -6.609375 22.15625 -5.921875 24.9375 -5.921875 C 26.4375 -5.921875 27.859375 -6.125 29.203125 -6.53125 C 30.554688 -6.945312 31.78125 -7.554688 32.875 -8.359375 C 33.96875 -9.171875 34.890625 -10.171875 35.640625 -11.359375 C 36.390625 -12.546875 36.925781 -13.898438 37.25 -15.421875 L 44.53125 -15.421875 C 44.164062 -13.046875 43.421875 -10.878906 42.296875 -8.921875 C 41.179688 -6.960938 39.765625 -5.257812 38.046875 -3.8125 C 36.328125 -2.375 34.351562 -1.265625 32.125 -0.484375 C 29.894531 0.285156 27.476562 0.671875 24.875 0.671875 Z M 24.875 0.671875 "/></g></g></g><g fill="#d4b78a" fill-opacity="1"><g transform="translate(522.122984, 357.973374)"><g><path d="M 1.375 0 L 18.328125 -47.390625 L 27.125 -47.390625 L 44.28125 0 L 36.484375 0 L 27.265625 -26.4375 C 26.535156 -28.613281 25.738281 -31.128906 24.875 -33.984375 C 24.019531 -36.835938 23.023438 -40.289062 21.890625 -44.34375 L 23.46875 -44.34375 C 22.34375 -40.269531 21.359375 -36.789062 20.515625 -33.90625 C 19.671875 -31.019531 18.894531 -28.53125 18.1875 -26.4375 L 9.15625 0 Z M 10.625 -12.4375 L 10.625 -18.484375 L 35.046875 -18.484375 L 35.046875 -12.4375 Z M 10.625 -12.4375 "/></g></g></g><g fill="#d4b78a" fill-opacity="1"><g transform="translate(568.511043, 357.973374)"><g><path d="M 5.03125 0 L 5.03125 -47.390625 L 22.140625 -47.390625 C 25.742188 -47.390625 28.765625 -46.734375 31.203125 -45.421875 C 33.640625 -44.109375 35.476562 -42.300781 36.71875 -40 C 37.957031 -37.695312 38.578125 -35.082031 38.578125 -32.15625 C 38.578125 -29.207031 37.953125 -26.582031 36.703125 -24.28125 C 35.453125 -21.976562 33.601562 -20.164062 31.15625 -18.84375 C 28.707031 -17.519531 25.671875 -16.859375 22.046875 -16.859375 L 9.984375 -16.859375 L 9.984375 -23.03125 L 21.46875 -23.03125 C 23.738281 -23.03125 25.597656 -23.414062 27.046875 -24.1875 C 28.503906 -24.957031 29.582031 -26.03125 30.28125 -27.40625 C 30.976562 -28.789062 31.328125 -30.375 31.328125 -32.15625 C 31.328125 -33.9375 30.976562 -35.503906 30.28125 -36.859375 C 29.582031 -38.222656 28.5 -39.285156 27.03125 -40.046875 C 25.570312 -40.804688 23.707031 -41.1875 21.4375 -41.1875 L 12.28125 -41.1875 L 12.28125 0 Z M 5.03125 0 "/></g></g></g><g fill="#d4b78a" fill-opacity="1"><g transform="translate(610.700903, 357.973374)"><g><path d="M 5.03125 0 L 5.03125 -47.390625 L 35.34375 -47.390625 L 35.34375 -41.15625 L 12.28125 -41.15625 L 12.28125 -27.0625 L 33.6875 -27.0625 L 33.6875 -20.890625 L 12.28125 -20.890625 L 12.28125 -6.234375 L 35.5 -6.234375 L 35.5 0 Z M 5.03125 0 "/></g></g></g><g fill="#d4b78a" fill-opacity="1"><g transform="translate(650.505397, 357.973374)"><g/></g></g><g fill="#d4b78a" fill-opacity="1"><g transform="translate(668.173867, 357.973374)"><g><path d="M 16.953125 -8.59375 C 15.085938 -8.59375 13.378906 -9.046875 11.828125 -9.953125 C 10.285156 -10.867188 9.054688 -12.097656 8.140625 -13.640625 C 7.234375 -15.191406 6.78125 -16.898438 6.78125 -18.765625 C 6.78125 -20.648438 7.234375 -22.359375 8.140625 -23.890625 C 9.054688 -25.429688 10.285156 -26.65625 11.828125 -27.5625 C 13.378906 -28.476562 15.085938 -28.9375 16.953125 -28.9375 C 18.835938 -28.9375 20.546875 -28.476562 22.078125 -27.5625 C 23.617188 -26.65625 24.84375 -25.429688 25.75 -23.890625 C 26.664062 -22.359375 27.125 -20.648438 27.125 -18.765625 C 27.125 -16.898438 26.664062 -15.191406 25.75 -13.640625 C 24.84375 -12.097656 23.617188 -10.867188 22.078125 -9.953125 C 20.546875 -9.046875 18.835938 -8.59375 16.953125 -8.59375 Z M 16.953125 -8.59375 "/></g></g></g><g fill="#d4b78a" fill-opacity="1"><g transform="translate(702.794224, 357.973374)"><g/></g></g><g fill="#d4b78a" fill-opacity="1"><g transform="translate(720.462717, 357.973374)"><g><path d="M 5.03125 0 L 5.03125 -47.390625 L 22.546875 -47.390625 C 25.898438 -47.390625 28.6875 -46.84375 30.90625 -45.75 C 33.132812 -44.65625 34.8125 -43.175781 35.9375 -41.3125 C 37.0625 -39.445312 37.625 -37.328125 37.625 -34.953125 C 37.625 -33.003906 37.269531 -31.351562 36.5625 -30 C 35.851562 -28.65625 34.894531 -27.566406 33.6875 -26.734375 C 32.476562 -25.898438 31.117188 -25.28125 29.609375 -24.875 L 29.609375 -24.484375 C 31.242188 -24.359375 32.8125 -23.832031 34.3125 -22.90625 C 35.820312 -21.988281 37.054688 -20.6875 38.015625 -19 C 38.984375 -17.3125 39.46875 -15.269531 39.46875 -12.875 C 39.46875 -10.414062 38.882812 -8.210938 37.71875 -6.265625 C 36.550781 -4.316406 34.773438 -2.785156 32.390625 -1.671875 C 30.003906 -0.554688 26.96875 0 23.28125 0 Z M 12.25 -6.171875 L 22.578125 -6.171875 C 25.953125 -6.171875 28.40625 -6.820312 29.9375 -8.125 C 31.476562 -9.425781 32.25 -11.109375 32.25 -13.171875 C 32.25 -14.691406 31.875 -16.0625 31.125 -17.28125 C 30.375 -18.5 29.296875 -19.460938 27.890625 -20.171875 C 26.492188 -20.890625 24.820312 -21.25 22.875 -21.25 L 12.25 -21.25 Z M 12.25 -26.90625 L 22.015625 -26.90625 C 23.640625 -26.90625 25.09375 -27.207031 26.375 -27.8125 C 27.664062 -28.414062 28.675781 -29.273438 29.40625 -30.390625 C 30.132812 -31.503906 30.5 -32.8125 30.5 -34.3125 C 30.5 -36.332031 29.804688 -37.992188 28.421875 -39.296875 C 27.035156 -40.597656 24.953125 -41.25 22.171875 -41.25 L 12.25 -41.25 Z M 12.25 -26.90625 "/></g></g></g><g fill="#d4b78a" fill-opacity="1"><g transform="translate(763.733911, 357.973374)"><g><path d="M 5.03125 0 L 5.03125 -47.390625 L 22.265625 -47.390625 C 25.847656 -47.390625 28.863281 -46.765625 31.3125 -45.515625 C 33.757812 -44.265625 35.601562 -42.519531 36.84375 -40.28125 C 38.082031 -38.039062 38.703125 -35.457031 38.703125 -32.53125 C 38.703125 -29.59375 38.066406 -27.023438 36.796875 -24.828125 C 35.523438 -22.628906 33.660156 -20.925781 31.203125 -19.71875 C 28.742188 -18.507812 25.710938 -17.90625 22.109375 -17.90625 L 9.1875 -17.90625 L 9.1875 -24.078125 L 21.59375 -24.078125 C 23.863281 -24.078125 25.71875 -24.410156 27.15625 -25.078125 C 28.601562 -25.742188 29.675781 -26.710938 30.375 -27.984375 C 31.070312 -29.265625 31.421875 -30.78125 31.421875 -32.53125 C 31.421875 -34.3125 31.070312 -35.847656 30.375 -37.140625 C 29.675781 -38.441406 28.597656 -39.441406 27.140625 -40.140625 C 25.691406 -40.835938 23.820312 -41.1875 21.53125 -41.1875 L 12.28125 -41.1875 L 12.28125 0 Z M 32.0625 0 L 20.640625 -21.40625 L 28.625 -21.40625 L 40.265625 0 Z M 32.0625 0 "/></g></g></g><g fill="#d4b78a" fill-opacity="1"><g transform="translate(806.528052, 357.973374)"><g><path d="M 5.03125 0 L 5.03125 -47.390625 L 35.34375 -47.390625 L 35.34375 -41.15625 L 12.28125 -41.15625 L 12.28125 -27.0625 L 33.6875 -27.0625 L 33.6875 -20.890625 L 12.28125 -20.890625 L 12.28125 -6.234375 L 35.5 -6.234375 L 35.5 0 Z M 5.03125 0 "/></g></g></g><g fill="#d4b78a" fill-opacity="1"><g transform="translate(846.33257, 357.973374)"><g><path d="M 1.375 0 L 18.328125 -47.390625 L 27.125 -47.390625 L 44.28125 0 L 36.484375 0 L 27.265625 -26.4375 C 26.535156 -28.613281 25.738281 -31.128906 24.875 -33.984375 C 24.019531 -36.835938 23.023438 -40.289062 21.890625 -44.34375 L 23.46875 -44.34375 C 22.34375 -40.269531 21.359375 -36.789062 20.515625 -33.90625 C 19.671875 -31.019531 18.894531 -28.53125 18.1875 -26.4375 L 9.15625 0 Z M 10.625 -12.4375 L 10.625 -18.484375 L 35.046875 -18.484375 L 35.046875 -12.4375 Z M 10.625 -12.4375 "/></g></g></g><g fill="#d4b78a" fill-opacity="1"><g transform="translate(886.931717, 357.973374)"><g><path d="M 2.578125 -41.15625 L 2.578125 -47.390625 L 39.4375 -47.390625 L 39.4375 -41.15625 L 24.65625 -41.15625 L 24.65625 0 L 17.4375 0 L 17.4375 -41.15625 Z M 2.578125 -41.15625 "/></g></g></g><g fill="#d4b78a" fill-opacity="1"><g transform="translate(929.694059, 357.973374)"><g><path d="M 5.03125 0 L 5.03125 -47.390625 L 12.28125 -47.390625 L 12.28125 -27.359375 L 35.75 -27.359375 L 35.75 -47.390625 L 42.96875 -47.390625 L 42.96875 0 L 35.75 0 L 35.75 -21.125 L 12.28125 -21.125 L 12.28125 0 Z M 5.03125 0 "/></g></g></g><g fill="#d4b78a" fill-opacity="1"><g transform="translate(978.403874, 357.973374)"><g><path d="M 5.03125 0 L 5.03125 -47.390625 L 35.34375 -47.390625 L 35.34375 -41.15625 L 12.28125 -41.15625 L 12.28125 -27.0625 L 33.6875 -27.0625 L 33.6875 -20.890625 L 12.28125 -20.890625 L 12.28125 -6.234375 L 35.5 -6.234375 L 35.5 0 Z M 5.03125 0 "/></g></g></g><g fill="#d4b78a" fill-opacity="1"><g transform="translate(1018.208345, 357.973374)"><g/></g></g><g fill="#d4b78a" fill-opacity="1"><g transform="translate(1035.876839, 357.973374)"><g><path d="M 16.953125 -8.59375 C 15.085938 -8.59375 13.378906 -9.046875 11.828125 -9.953125 C 10.285156 -10.867188 9.054688 -12.097656 8.140625 -13.640625 C 7.234375 -15.191406 6.78125 -16.898438 6.78125 -18.765625 C 6.78125 -20.648438 7.234375 -22.359375 8.140625 -23.890625 C 9.054688 -25.429688 10.285156 -26.65625 11.828125 -27.5625 C 13.378906 -28.476562 15.085938 -28.9375 16.953125 -28.9375 C 18.835938 -28.9375 20.546875 -28.476562 22.078125 -27.5625 C 23.617188 -26.65625 24.84375 -25.429688 25.75 -23.890625 C 26.664062 -22.359375 27.125 -20.648438 27.125 -18.765625 C 27.125 -16.898438 26.664062 -15.191406 25.75 -13.640625 C 24.84375 -12.097656 23.617188 -10.867188 22.078125 -9.953125 C 20.546875 -9.046875 18.835938 -8.59375 16.953125 -8.59375 Z M 16.953125 -8.59375 "/></g></g></g><g fill="#d4b78a" fill-opacity="1"><g transform="translate(1070.497196, 357.973374)"><g/></g></g><g fill="#d4b78a" fill-opacity="1"><g transform="translate(1088.165689, 357.973374)"><g><path d="M 5.03125 0 L 5.03125 -47.390625 L 22.265625 -47.390625 C 25.847656 -47.390625 28.863281 -46.765625 31.3125 -45.515625 C 33.757812 -44.265625 35.601562 -42.519531 36.84375 -40.28125 C 38.082031 -38.039062 38.703125 -35.457031 38.703125 -32.53125 C 38.703125 -29.59375 38.066406 -27.023438 36.796875 -24.828125 C 35.523438 -22.628906 33.660156 -20.925781 31.203125 -19.71875 C 28.742188 -18.507812 25.710938 -17.90625 22.109375 -17.90625 L 9.1875 -17.90625 L 9.1875 -24.078125 L 21.59375 -24.078125 C 23.863281 -24.078125 25.71875 -24.410156 27.15625 -25.078125 C 28.601562 -25.742188 29.675781 -26.710938 30.375 -27.984375 C 31.070312 -29.265625 31.421875 -30.78125 31.421875 -32.53125 C 31.421875 -34.3125 31.070312 -35.847656 30.375 -37.140625 C 29.675781 -38.441406 28.597656 -39.441406 27.140625 -40.140625 C 25.691406 -40.835938 23.820312 -41.1875 21.53125 -41.1875 L 12.28125 -41.1875 L 12.28125 0 Z M 32.0625 0 L 20.640625 -21.40625 L 28.625 -21.40625 L 40.265625 0 Z M 32.0625 0 "/></g></g></g><g fill="#d4b78a" fill-opacity="1"><g transform="translate(1130.959808, 357.973374)"><g><path d="M 5.03125 0 L 5.03125 -47.390625 L 35.34375 -47.390625 L 35.34375 -41.15625 L 12.28125 -41.15625 L 12.28125 -27.0625 L 33.6875 -27.0625 L 33.6875 -20.890625 L 12.28125 -20.890625 L 12.28125 -6.234375 L 35.5 -6.234375 L 35.5 0 Z M 5.03125 0 "/></g></g></g><g fill="#d4b78a" fill-opacity="1"><g transform="translate(1170.764325, 357.973374)"><g><path d="M 24.875 0.671875 C 20.71875 0.671875 17.015625 -0.3125 13.765625 -2.28125 C 10.523438 -4.257812 7.984375 -7.066406 6.140625 -10.703125 C 4.296875 -14.335938 3.375 -18.660156 3.375 -23.671875 C 3.375 -28.691406 4.300781 -33.023438 6.15625 -36.671875 C 8.007812 -40.316406 10.554688 -43.125 13.796875 -45.09375 C 17.046875 -47.070312 20.738281 -48.0625 24.875 -48.0625 C 27.394531 -48.0625 29.757812 -47.691406 31.96875 -46.953125 C 34.175781 -46.222656 36.144531 -45.164062 37.875 -43.78125 C 39.613281 -42.394531 41.054688 -40.703125 42.203125 -38.703125 C 43.347656 -36.710938 44.125 -34.457031 44.53125 -31.9375 L 37.25 -31.9375 C 36.925781 -33.476562 36.394531 -34.835938 35.65625 -36.015625 C 34.914062 -37.191406 34 -38.1875 32.90625 -39 C 31.8125 -39.820312 30.59375 -40.4375 29.25 -40.84375 C 27.90625 -41.257812 26.46875 -41.46875 24.9375 -41.46875 C 22.132812 -41.46875 19.644531 -40.769531 17.46875 -39.375 C 15.300781 -37.976562 13.601562 -35.953125 12.375 -33.296875 C 11.144531 -30.648438 10.53125 -27.441406 10.53125 -23.671875 C 10.53125 -19.890625 11.148438 -16.671875 12.390625 -14.015625 C 13.628906 -11.367188 15.332031 -9.359375 17.5 -7.984375 C 19.675781 -6.609375 22.15625 -5.921875 24.9375 -5.921875 C 26.4375 -5.921875 27.859375 -6.125 29.203125 -6.53125 C 30.554688 -6.945312 31.78125 -7.554688 32.875 -8.359375 C 33.96875 -9.171875 34.890625 -10.171875 35.640625 -11.359375 C 36.390625 -12.546875 36.925781 -13.898438 37.25 -15.421875 L 44.53125 -15.421875 C 44.164062 -13.046875 43.421875 -10.878906 42.296875 -8.921875 C 41.179688 -6.960938 39.765625 -5.257812 38.046875 -3.8125 C 36.328125 -2.375 34.351562 -1.265625 32.125 -0.484375 C 29.894531 0.285156 27.476562 0.671875 24.875 0.671875 Z M 24.875 0.671875 "/></g></g></g><g fill="#d4b78a" fill-opacity="1"><g transform="translate(1219.124283, 357.973374)"><g><path d="M 24.875 0.671875 C 20.738281 0.671875 17.050781 -0.3125 13.8125 -2.28125 C 10.582031 -4.257812 8.035156 -7.066406 6.171875 -10.703125 C 4.304688 -14.335938 3.375 -18.660156 3.375 -23.671875 C 3.375 -28.691406 4.304688 -33.023438 6.171875 -36.671875 C 8.035156 -40.316406 10.582031 -43.125 13.8125 -45.09375 C 17.050781 -47.070312 20.738281 -48.0625 24.875 -48.0625 C 28.988281 -48.0625 32.660156 -47.070312 35.890625 -45.09375 C 39.128906 -43.125 41.675781 -40.316406 43.53125 -36.671875 C 45.382812 -33.023438 46.3125 -28.691406 46.3125 -23.671875 C 46.3125 -18.660156 45.382812 -14.335938 43.53125 -10.703125 C 41.675781 -7.066406 39.128906 -4.257812 35.890625 -2.28125 C 32.660156 -0.3125 28.988281 0.671875 24.875 0.671875 Z M 24.875 -5.921875 C 27.5625 -5.921875 29.984375 -6.597656 32.140625 -7.953125 C 34.296875 -9.304688 36 -11.304688 37.25 -13.953125 C 38.5 -16.609375 39.125 -19.847656 39.125 -23.671875 C 39.125 -27.523438 38.5 -30.773438 37.25 -33.421875 C 36 -36.078125 34.296875 -38.082031 32.140625 -39.4375 C 29.984375 -40.789062 27.5625 -41.46875 24.875 -41.46875 C 22.15625 -41.46875 19.710938 -40.785156 17.546875 -39.421875 C 15.390625 -38.054688 13.679688 -36.046875 12.421875 -33.390625 C 11.160156 -30.742188 10.53125 -27.503906 10.53125 -23.671875 C 10.53125 -19.847656 11.160156 -16.613281 12.421875 -13.96875 C 13.679688 -11.332031 15.390625 -9.332031 17.546875 -7.96875 C 19.710938 -6.601562 22.15625 -5.921875 24.875 -5.921875 Z M 24.875 -5.921875 "/></g></g></g><g fill="#d4b78a" fill-opacity="1"><g transform="translate(1269.519737, 357.973374)"><g><path d="M 5.03125 0 L 5.03125 -47.390625 L 13.296875 -47.390625 L 31.171875 -19.078125 C 31.742188 -18.210938 32.390625 -17.148438 33.109375 -15.890625 C 33.828125 -14.628906 34.59375 -13.21875 35.40625 -11.65625 C 36.226562 -10.09375 37.03125 -8.429688 37.8125 -6.671875 L 36.953125 -6.328125 C 36.804688 -8.003906 36.6875 -9.710938 36.59375 -11.453125 C 36.5 -13.191406 36.4375 -14.820312 36.40625 -16.34375 C 36.375 -17.875 36.359375 -19.140625 36.359375 -20.140625 L 36.359375 -47.390625 L 43.640625 -47.390625 L 43.640625 0 L 35.34375 0 L 19.3125 -25.3125 C 18.539062 -26.5625 17.75 -27.875 16.9375 -29.25 C 16.125 -30.632812 15.210938 -32.238281 14.203125 -34.0625 C 13.191406 -35.882812 12 -38.054688 10.625 -40.578125 L 11.734375 -40.90625 C 11.859375 -38.550781 11.960938 -36.363281 12.046875 -34.34375 C 12.140625 -32.332031 12.210938 -30.554688 12.265625 -29.015625 C 12.316406 -27.484375 12.34375 -26.257812 12.34375 -25.34375 L 12.34375 0 Z M 5.03125 0 "/></g></g></g><g fill="#d4b78a" fill-opacity="1"><g transform="translate(1318.897352, 357.973374)"><g><path d="M 5.03125 0 L 5.03125 -47.390625 L 13.296875 -47.390625 L 31.171875 -19.078125 C 31.742188 -18.210938 32.390625 -17.148438 33.109375 -15.890625 C 33.828125 -14.628906 34.59375 -13.21875 35.40625 -11.65625 C 36.226562 -10.09375 37.03125 -8.429688 37.8125 -6.671875 L 36.953125 -6.328125 C 36.804688 -8.003906 36.6875 -9.710938 36.59375 -11.453125 C 36.5 -13.191406 36.4375 -14.820312 36.40625 -16.34375 C 36.375 -17.875 36.359375 -19.140625 36.359375 -20.140625 L 36.359375 -47.390625 L 43.640625 -47.390625 L 43.640625 0 L 35.34375 0 L 19.3125 -25.3125 C 18.539062 -26.5625 17.75 -27.875 16.9375 -29.25 C 16.125 -30.632812 15.210938 -32.238281 14.203125 -34.0625 C 13.191406 -35.882812 12 -38.054688 10.625 -40.578125 L 11.734375 -40.90625 C 11.859375 -38.550781 11.960938 -36.363281 12.046875 -34.34375 C 12.140625 -32.332031 12.210938 -30.554688 12.265625 -29.015625 C 12.316406 -27.484375 12.34375 -26.257812 12.34375 -25.34375 L 12.34375 0 Z M 5.03125 0 "/></g></g></g><g fill="#d4b78a" fill-opacity="1"><g transform="translate(1368.275058, 357.973374)"><g><path d="M 5.03125 0 L 5.03125 -47.390625 L 35.34375 -47.390625 L 35.34375 -41.15625 L 12.28125 -41.15625 L 12.28125 -27.0625 L 33.6875 -27.0625 L 33.6875 -20.890625 L 12.28125 -20.890625 L 12.28125 -6.234375 L 35.5 -6.234375 L 35.5 0 Z M 5.03125 0 "/></g></g></g><g fill="#d4b78a" fill-opacity="1"><g transform="translate(1408.079621, 357.973374)"><g><path d="M 24.875 0.671875 C 20.71875 0.671875 17.015625 -0.3125 13.765625 -2.28125 C 10.523438 -4.257812 7.984375 -7.066406 6.140625 -10.703125 C 4.296875 -14.335938 3.375 -18.660156 3.375 -23.671875 C 3.375 -28.691406 4.300781 -33.023438 6.15625 -36.671875 C 8.007812 -40.316406 10.554688 -43.125 13.796875 -45.09375 C 17.046875 -47.070312 20.738281 -48.0625 24.875 -48.0625 C 27.394531 -48.0625 29.757812 -47.691406 31.96875 -46.953125 C 34.175781 -46.222656 36.144531 -45.164062 37.875 -43.78125 C 39.613281 -42.394531 41.054688 -40.703125 42.203125 -38.703125 C 43.347656 -36.710938 44.125 -34.457031 44.53125 -31.9375 L 37.25 -31.9375 C 36.925781 -33.476562 36.394531 -34.835938 35.65625 -36.015625 C 34.914062 -37.191406 34 -38.1875 32.90625 -39 C 31.8125 -39.820312 30.59375 -40.4375 29.25 -40.84375 C 27.90625 -41.257812 26.46875 -41.46875 24.9375 -41.46875 C 22.132812 -41.46875 19.644531 -40.769531 17.46875 -39.375 C 15.300781 -37.976562 13.601562 -35.953125 12.375 -33.296875 C 11.144531 -30.648438 10.53125 -27.441406 10.53125 -23.671875 C 10.53125 -19.890625 11.148438 -16.671875 12.390625 -14.015625 C 13.628906 -11.367188 15.332031 -9.359375 17.5 -7.984375 C 19.675781 -6.609375 22.15625 -5.921875 24.9375 -5.921875 C 26.4375 -5.921875 27.859375 -6.125 29.203125 -6.53125 C 30.554688 -6.945312 31.78125 -7.554688 32.875 -8.359375 C 33.96875 -9.171875 34.890625 -10.171875 35.640625 -11.359375 C 36.390625 -12.546875 36.925781 -13.898438 37.25 -15.421875 L 44.53125 -15.421875 C 44.164062 -13.046875 43.421875 -10.878906 42.296875 -8.921875 C 41.179688 -6.960938 39.765625 -5.257812 38.046875 -3.8125 C 36.328125 -2.375 34.351562 -1.265625 32.125 -0.484375 C 29.894531 0.285156 27.476562 0.671875 24.875 0.671875 Z M 24.875 0.671875 "/></g></g></g><g fill="#d4b78a" fill-opacity="1"><g transform="translate(1456.439578, 357.973374)"><g><path d="M 2.578125 -41.15625 L 2.578125 -47.390625 L 39.4375 -47.390625 L 39.4375 -41.15625 L 24.65625 -41.15625 L 24.65625 0 L 17.4375 0 L 17.4375 -41.15625 Z M 2.578125 -41.15625 "/></g></g></g></svg>