<svg xmlns="http://www.w3.org/2000/svg" xmlns:xlink="http://www.w3.org/1999/xlink" width="2000" zoomAndPan="magnify" viewBox="0 0 1500 412.49999" height="540" preserveAspectRatio="xMidYMid meet" version="1.0"><defs><g/><clipPath id="f6ebd29b19"><rect x="0" width="1142" y="0" height="82"/></clipPath></defs><path fill="#52632e" d="M 157.816406 20.402344 C 198.351562 20.320312 236.363281 38.054688 263.277344 67.097656 C 277.4375 82.382812 288.425781 100.3125 296.25 120.890625 C 305.613281 145.511719 310.523438 170.722656 310.980469 196.515625 C 311.222656 210.296875 311.164062 225.488281 309.113281 239.617188 C 307.007812 254.144531 304.054688 267.183594 300.257812 278.742188 C 296.050781 291.527344 289.839844 304.542969 281.628906 317.785156 C 254.476562 361.597656 210.152344 384.5 158.503906 384.601562 C 106.84375 384.691406 62.425781 361.960938 35.113281 318.253906 C 26.855469 305.035156 20.597656 292.042969 16.335938 279.277344 C 12.5 267.730469 9.503906 254.695312 7.34375 240.175781 C 5.234375 226.0625 5.121094 210.871094 5.316406 197.089844 C 5.671875 171.296875 10.488281 146.066406 19.761719 121.40625 C 27.507812 100.796875 38.429688 82.828125 52.527344 67.5 C 79.324219 38.355469 117.28125 20.46875 157.816406 20.402344 Z M 98.960938 74.421875 C 98.953125 74.28125 99.011719 74.175781 99.132812 74.105469 C 99.253906 74.035156 99.371094 74.035156 99.488281 74.109375 C 101.160156 75.203125 102.351562 76.125 103.050781 76.871094 C 113.394531 87.878906 118.078125 101.042969 117.109375 116.363281 C 117.011719 117.921875 116.792969 120.105469 116.457031 122.917969 C 116.390625 123.484375 116.496094 124.019531 116.765625 124.519531 C 117.492188 125.851562 118.363281 127.003906 119.378906 127.980469 C 123.878906 132.304688 133.820312 142.171875 149.210938 157.585938 C 149.472656 157.84375 149.746094 157.988281 150.035156 158.019531 C 150.277344 158.046875 150.511719 158.023438 150.738281 157.949219 C 150.96875 157.875 151.171875 157.757812 151.347656 157.597656 C 151.527344 157.433594 151.664062 157.246094 151.757812 157.023438 C 151.851562 156.804688 151.898438 156.574219 151.894531 156.335938 C 151.394531 115.65625 151.363281 75.28125 151.789062 35.203125 C 151.792969 34.9375 151.738281 34.683594 151.628906 34.441406 C 151.523438 34.199219 151.367188 33.988281 151.167969 33.816406 C 150.964844 33.640625 150.738281 33.515625 150.480469 33.445312 C 150.226562 33.371094 149.96875 33.351562 149.703125 33.394531 C 140.203125 34.835938 134.507812 35.746094 132.621094 36.121094 C 126.214844 37.386719 118.289062 39.894531 108.847656 43.636719 C 92.109375 50.304688 79.292969 60.316406 66.183594 72.039062 C 66.027344 72.175781 65.90625 72.34375 65.8125 72.53125 C 65.722656 72.71875 65.671875 72.917969 65.660156 73.128906 C 65.644531 73.339844 65.671875 73.542969 65.738281 73.742188 C 65.808594 73.941406 65.910156 74.121094 66.046875 74.28125 C 67.460938 75.910156 69.035156 77.601562 70.765625 79.359375 C 89.394531 97.996094 101.617188 110.246094 107.429688 116.113281 C 108.535156 117.226562 109.503906 117.835938 110.328125 117.945312 C 110.425781 117.957031 110.523438 117.945312 110.617188 117.910156 C 110.710938 117.875 110.789062 117.820312 110.855469 117.75 C 110.921875 117.675781 110.96875 117.589844 110.992188 117.496094 C 111.015625 117.402344 111.015625 117.304688 110.992188 117.210938 C 110.960938 117.089844 109.234375 114.210938 105.8125 108.574219 C 104.363281 106.175781 103.074219 102.570312 101.953125 97.757812 C 100.316406 90.722656 99.320312 82.945312 98.960938 74.421875 Z M 217.300781 74.410156 C 216.957031 82.925781 215.972656 90.695312 214.355469 97.722656 C 213.238281 102.527344 211.957031 106.128906 210.503906 108.527344 C 207.097656 114.15625 205.378906 117.03125 205.351562 117.152344 C 205.328125 117.25 205.328125 117.34375 205.351562 117.4375 C 205.375 117.535156 205.421875 117.617188 205.488281 117.691406 C 205.554688 117.765625 205.632812 117.820312 205.726562 117.851562 C 205.820312 117.886719 205.914062 117.898438 206.015625 117.886719 C 206.839844 117.78125 207.800781 117.167969 208.902344 116.054688 C 214.699219 110.1875 226.886719 97.9375 245.460938 79.300781 C 247.195312 77.550781 248.761719 75.863281 250.167969 74.238281 C 250.308594 74.078125 250.410156 73.898438 250.476562 73.699219 C 250.546875 73.5 250.574219 73.296875 250.558594 73.085938 C 250.546875 72.875 250.496094 72.675781 250.402344 72.488281 C 250.3125 72.296875 250.1875 72.132812 250.03125 71.992188 C 236.925781 60.304688 224.117188 50.328125 207.390625 43.691406 C 197.957031 39.964844 190.039062 37.472656 183.640625 36.210938 C 181.761719 35.84375 176.074219 34.949219 166.582031 33.519531 C 166.320312 33.480469 166.058594 33.5 165.804688 33.574219 C 165.550781 33.648438 165.324219 33.773438 165.125 33.945312 C 164.925781 34.121094 164.773438 34.328125 164.664062 34.570312 C 164.554688 34.8125 164.503906 35.066406 164.507812 35.328125 C 164.988281 75.34375 165.007812 115.660156 164.5625 156.277344 C 164.5625 156.519531 164.605469 156.746094 164.703125 156.96875 C 164.796875 157.1875 164.933594 157.375 165.113281 157.535156 C 165.289062 157.695312 165.492188 157.8125 165.722656 157.886719 C 165.949219 157.957031 166.183594 157.980469 166.417969 157.953125 C 166.710938 157.921875 166.984375 157.777344 167.246094 157.515625 C 182.589844 142.109375 192.503906 132.246094 196.988281 127.921875 C 198.003906 126.945312 198.875 125.792969 199.597656 124.464844 C 199.867188 123.960938 199.964844 123.425781 199.898438 122.859375 C 199.558594 120.054688 199.34375 117.875 199.242188 116.316406 C 198.25 101.019531 202.910156 87.871094 213.222656 76.871094 C 213.921875 76.125 215.105469 75.203125 216.773438 74.109375 C 216.886719 74.039062 217.003906 74.035156 217.125 74.101562 C 217.246094 74.167969 217.300781 74.273438 217.300781 74.410156 Z M 106.902344 214.375 C 107.019531 214.308594 107.117188 214.222656 107.195312 214.113281 C 107.273438 214.003906 107.328125 213.882812 107.355469 213.753906 C 107.382812 213.621094 107.378906 213.492188 107.351562 213.359375 C 107.324219 213.230469 107.269531 213.109375 107.1875 213 C 102.179688 206.136719 99.082031 198.710938 97.898438 190.730469 C 97.003906 184.757812 96.164062 178.519531 95.375 172.019531 C 95.363281 171.925781 95.367188 171.828125 95.378906 171.734375 C 95.390625 171.636719 95.417969 171.546875 95.453125 171.457031 C 95.492188 171.367188 95.539062 171.285156 95.597656 171.210938 C 95.65625 171.132812 95.722656 171.066406 95.800781 171.007812 C 95.875 170.945312 95.957031 170.898438 96.046875 170.863281 C 96.136719 170.824219 96.226562 170.796875 96.324219 170.785156 C 96.417969 170.773438 96.515625 170.769531 96.609375 170.78125 C 96.707031 170.792969 96.800781 170.816406 96.890625 170.851562 C 97.421875 171.074219 98.097656 171.605469 98.917969 172.445312 C 108.648438 182.488281 113.539062 194.453125 113.59375 208.339844 C 113.609375 211.652344 113.464844 215.25 113.167969 219.132812 C 113.117188 219.792969 113.203125 220.4375 113.429688 221.0625 C 113.652344 221.6875 113.992188 222.238281 114.453125 222.71875 C 123.25 231.84375 132.933594 241.488281 143.496094 251.644531 C 145.417969 253.488281 147.113281 255.851562 148.84375 257.441406 C 149.179688 257.75 149.554688 257.929688 149.972656 257.980469 C 150.390625 258.03125 150.753906 257.945312 151.066406 257.71875 C 151.410156 257.472656 151.582031 257.023438 151.582031 256.367188 C 151.574219 221.164062 151.527344 202.375 151.433594 200 C 151.097656 191.046875 148.671875 182.339844 144.160156 173.875 C 141.078125 168.101562 135.417969 162.078125 130.605469 157.082031 C 128.664062 155.074219 126.988281 154.132812 125.578125 154.261719 C 123.222656 154.484375 119.972656 154.523438 115.828125 154.378906 C 101.15625 153.878906 88.894531 148.394531 79.050781 137.914062 C 78.816406 137.667969 78.773438 137.394531 78.917969 137.089844 C 79.066406 136.785156 79.308594 136.644531 79.644531 136.675781 C 87.238281 137.308594 95.054688 138.324219 103.097656 139.710938 C 107.074219 140.410156 109.527344 141.558594 113.730469 143.207031 C 114.03125 143.328125 114.296875 143.273438 114.527344 143.046875 C 114.757812 142.824219 114.816406 142.558594 114.703125 142.257812 C 114.46875 141.621094 113.90625 140.859375 113.019531 139.964844 C 101.824219 128.667969 92.363281 119.191406 84.640625 111.527344 C 74.339844 101.308594 66.289062 92.5 57.109375 84.421875 C 56.988281 84.316406 56.851562 84.238281 56.703125 84.191406 C 56.550781 84.140625 56.394531 84.121094 56.234375 84.136719 C 56.074219 84.148438 55.925781 84.191406 55.78125 84.265625 C 55.640625 84.339844 55.515625 84.4375 55.414062 84.558594 C 46.664062 95.179688 39.511719 108.835938 38.953125 122.457031 C 38.332031 137.421875 43.253906 150.605469 53.71875 162.007812 C 58.050781 166.71875 71.175781 179.847656 93.097656 201.382812 C 95.488281 203.730469 98.097656 206.382812 100.933594 209.347656 C 103.40625 211.929688 105.117188 213.648438 106.066406 214.503906 C 106.226562 214.648438 106.398438 214.664062 106.582031 214.558594 Z M 209.324219 214.363281 L 209.644531 214.546875 C 209.828125 214.65625 210 214.636719 210.160156 214.492188 C 211.101562 213.636719 212.808594 211.921875 215.28125 209.347656 C 218.109375 206.382812 220.71875 203.730469 223.109375 201.382812 C 244.992188 179.851562 258.097656 166.730469 262.425781 162.019531 C 272.867188 150.625 277.777344 137.453125 277.148438 122.503906 C 276.589844 108.894531 269.4375 95.25 260.6875 84.652344 C 260.582031 84.527344 260.460938 84.429688 260.316406 84.355469 C 260.175781 84.28125 260.023438 84.238281 259.863281 84.222656 C 259.703125 84.210938 259.546875 84.230469 259.398438 84.28125 C 259.246094 84.332031 259.109375 84.40625 258.992188 84.515625 C 249.824219 92.589844 241.78125 101.390625 231.503906 111.609375 C 223.792969 119.269531 214.34375 128.746094 203.160156 140.035156 C 202.285156 140.925781 201.726562 141.691406 201.488281 142.324219 C 201.375 142.628906 201.4375 142.890625 201.667969 143.117188 C 201.898438 143.34375 202.164062 143.394531 202.464844 143.277344 C 206.65625 141.625 209.109375 140.480469 213.082031 139.78125 C 221.109375 138.382812 228.917969 137.367188 236.5 136.734375 C 236.835938 136.703125 237.074219 136.839844 237.226562 137.136719 C 237.375 137.4375 237.335938 137.710938 237.109375 137.960938 C 227.277344 148.4375 215.03125 153.929688 200.367188 154.433594 C 196.226562 154.578125 192.980469 154.542969 190.628906 154.320312 C 189.214844 154.199219 187.542969 155.136719 185.609375 157.136719 C 180.796875 162.132812 175.148438 168.160156 172.078125 173.933594 C 167.574219 182.390625 165.15625 191.089844 164.828125 200.03125 C 164.734375 202.40625 164.695312 221.179688 164.703125 256.34375 C 164.703125 257 164.875 257.449219 165.21875 257.695312 C 165.527344 257.921875 165.894531 258.007812 166.3125 257.957031 C 166.730469 257.90625 167.105469 257.726562 167.441406 257.417969 C 169.167969 255.828125 170.863281 253.46875 172.777344 251.621094 C 183.328125 241.472656 192.996094 231.832031 201.785156 222.707031 C 202.246094 222.226562 202.582031 221.675781 202.804688 221.050781 C 203.027344 220.425781 203.113281 219.78125 203.058594 219.121094 C 202.761719 215.246094 202.621094 211.652344 202.632812 208.339844 C 202.679688 194.46875 207.5625 182.515625 217.277344 172.480469 C 218.09375 171.640625 218.769531 171.109375 219.304688 170.886719 C 219.394531 170.851562 219.484375 170.828125 219.582031 170.816406 C 219.675781 170.804688 219.769531 170.804688 219.867188 170.820312 C 219.960938 170.832031 220.050781 170.859375 220.140625 170.894531 C 220.230469 170.933594 220.3125 170.980469 220.386719 171.039062 C 220.464844 171.097656 220.53125 171.164062 220.589844 171.238281 C 220.648438 171.3125 220.695312 171.394531 220.734375 171.484375 C 220.773438 171.574219 220.796875 171.664062 220.8125 171.757812 C 220.824219 171.851562 220.828125 171.949219 220.816406 172.042969 C 220.03125 178.542969 219.195312 184.777344 218.308594 190.742188 C 217.125 198.714844 214.035156 206.136719 209.039062 213 C 208.960938 213.109375 208.910156 213.226562 208.878906 213.355469 C 208.851562 213.488281 208.851562 213.617188 208.878906 213.746094 C 208.90625 213.875 208.960938 213.996094 209.039062 214.101562 C 209.113281 214.210938 209.210938 214.296875 209.324219 214.363281 Z M 205.339844 318.816406 C 206.476562 318.25 207.859375 317.121094 209.484375 315.425781 C 213.214844 311.539062 217.792969 306.945312 223.222656 301.652344 C 240.203125 285.097656 256.332031 268.660156 282.15625 242.628906 C 292.214844 232.484375 297.347656 220.164062 297.554688 205.65625 C 297.632812 199.320312 297.851562 194.246094 297.1875 189.011719 C 296.328125 182.261719 295.984375 171.632812 294.378906 162.855469 C 293.328125 157.105469 292.746094 153.972656 292.640625 153.460938 C 292.617188 153.367188 292.585938 153.277344 292.539062 153.191406 C 292.496094 153.105469 292.441406 153.023438 292.378906 152.953125 C 292.3125 152.882812 292.242188 152.820312 292.160156 152.765625 C 292.082031 152.710938 291.996094 152.667969 291.902344 152.636719 C 291.8125 152.609375 291.71875 152.589844 291.625 152.582031 C 291.527344 152.574219 291.433594 152.582031 291.339844 152.597656 C 291.246094 152.617188 291.152344 152.644531 291.066406 152.6875 C 290.980469 152.726562 290.902344 152.78125 290.828125 152.84375 C 289.660156 153.828125 288.4375 154.957031 287.164062 156.234375 C 284.605469 158.808594 269.027344 174.320312 240.429688 202.769531 C 238.035156 205.152344 236.328125 207.34375 233.695312 210.242188 C 233.59375 210.355469 233.539062 210.488281 233.53125 210.640625 C 233.527344 210.789062 233.570312 210.925781 233.664062 211.050781 C 233.753906 211.171875 233.878906 211.25 234.027344 211.289062 C 234.175781 211.324219 234.320312 211.3125 234.460938 211.25 C 246.183594 205.578125 259.070312 203.652344 272.566406 202.414062 C 272.6875 202.402344 272.804688 202.421875 272.917969 202.472656 C 273.027344 202.519531 273.121094 202.59375 273.195312 202.6875 C 273.269531 202.785156 273.316406 202.894531 273.335938 203.015625 C 273.355469 203.132812 273.34375 203.253906 273.300781 203.367188 C 273.164062 203.769531 272.945312 204.125 272.648438 204.433594 C 259.550781 217.949219 243.777344 221.871094 225.042969 219.820312 C 224.507812 219.761719 223.984375 219.820312 223.476562 220 C 222.96875 220.179688 222.527344 220.457031 222.144531 220.839844 C 210 233.074219 198.464844 244.988281 186.59375 256.628906 C 182.203125 260.9375 179.34375 263.925781 178.015625 265.601562 C 169.660156 276.109375 165.332031 288.125 165.035156 301.644531 C 164.621094 320.9375 164.519531 339.398438 164.722656 357.023438 C 164.726562 357.21875 164.769531 357.40625 164.847656 357.582031 C 164.929688 357.761719 165.042969 357.914062 165.1875 358.042969 C 165.332031 358.171875 165.496094 358.265625 165.683594 358.324219 C 165.867188 358.382812 166.054688 358.398438 166.246094 358.375 C 166.753906 358.308594 167.132812 358.117188 167.394531 357.804688 C 170.050781 354.617188 172.855469 351.703125 175.804688 349.050781 C 181.828125 343.65625 187.453125 337.125 194.144531 331.007812 C 195.484375 329.792969 196.894531 327.820312 196.828125 326.261719 C 196.46875 318.167969 196.519531 312.375 196.988281 308.882812 C 198.707031 296.183594 204.371094 285.679688 213.988281 277.378906 C 214.207031 277.195312 214.441406 277.167969 214.695312 277.296875 C 214.949219 277.425781 215.0625 277.632812 215.042969 277.914062 C 214.394531 285.109375 213.347656 292.707031 211.902344 300.703125 C 210.792969 306.84375 207.628906 313.410156 204.847656 318.289062 C 204.753906 318.449219 204.773438 318.597656 204.898438 318.734375 C 205.023438 318.867188 205.171875 318.894531 205.339844 318.816406 Z M 102.503906 277.8125 C 103.90625 278.738281 105.214844 279.886719 106.421875 281.261719 C 117.375 293.667969 121.199219 308.242188 119.597656 324.554688 C 119.125 329.324219 122.300781 330.742188 125.09375 333.574219 C 137.890625 346.496094 145.773438 354.511719 148.753906 357.621094 C 148.929688 357.804688 149.136719 357.945312 149.375 358.042969 C 149.613281 358.136719 149.859375 358.179688 150.113281 358.167969 C 150.371094 358.15625 150.613281 358.09375 150.839844 357.980469 C 151.070312 357.863281 151.261719 357.707031 151.421875 357.507812 C 151.554688 357.351562 151.621094 357.082031 151.628906 356.691406 C 151.773438 349.382812 151.78125 334.300781 151.652344 311.449219 C 151.589844 300.992188 151.082031 293.855469 150.128906 290.035156 C 148.386719 283.039062 145.621094 276.417969 141.832031 270.171875 C 140.230469 267.527344 133.503906 260.253906 121.660156 248.347656 C 113.042969 239.683594 103.734375 230.378906 93.738281 220.425781 C 93.441406 220.128906 93.097656 219.914062 92.703125 219.78125 C 92.308594 219.648438 91.902344 219.613281 91.492188 219.667969 C 75.109375 221.902344 59.011719 218.144531 46.605469 207.160156 C 45.128906 205.851562 44.117188 204.609375 43.570312 203.421875 C 43.53125 203.34375 43.515625 203.257812 43.519531 203.171875 C 43.527344 203.082031 43.554688 203 43.605469 202.925781 C 43.652344 202.851562 43.71875 202.792969 43.796875 202.753906 C 43.875 202.714844 43.960938 202.695312 44.050781 202.703125 C 53.148438 203.222656 62.132812 204.621094 71.007812 206.90625 C 75.03125 207.945312 78.867188 209.660156 82.511719 212.050781 C 82.644531 212.136719 82.789062 212.171875 82.949219 212.15625 C 83.105469 212.140625 83.242188 212.078125 83.359375 211.964844 C 83.472656 211.855469 83.539062 211.722656 83.5625 211.5625 C 83.582031 211.40625 83.554688 211.257812 83.472656 211.121094 C 82.472656 209.433594 81.179688 207.84375 79.601562 206.34375 C 76.21875 203.144531 65.578125 192.464844 47.683594 174.300781 C 41.804688 168.332031 35.183594 162.421875 29.203125 156.496094 C 27.933594 155.238281 26.675781 154.234375 25.433594 153.496094 C 25.300781 153.414062 25.15625 153.367188 25 153.355469 C 24.84375 153.34375 24.695312 153.367188 24.550781 153.425781 C 24.40625 153.484375 24.28125 153.570312 24.175781 153.6875 C 24.070312 153.804688 23.996094 153.941406 23.953125 154.089844 C 21.539062 162.730469 20.90625 168.996094 19.714844 180.199219 C 19.128906 185.648438 18.773438 192.277344 18.648438 200.089844 C 18.503906 208.804688 19.15625 215.390625 20.597656 219.851562 C 23.660156 229.308594 28.035156 236.902344 33.714844 242.628906 C 61.53125 270.664062 81.433594 289.832031 108.277344 316.867188 C 108.667969 317.257812 109.128906 317.632812 109.664062 317.992188 C 109.90625 318.148438 110.136719 318.136719 110.363281 317.957031 C 110.585938 317.777344 110.648438 317.550781 110.546875 317.28125 C 109.605469 314.9375 108.296875 311.917969 106.617188 308.230469 C 105.355469 305.457031 104.234375 300.578125 103.246094 293.589844 C 102.132812 285.78125 101.488281 280.757812 101.3125 278.511719 C 101.285156 278.191406 101.410156 277.949219 101.6875 277.789062 C 101.964844 277.625 102.234375 277.632812 102.503906 277.8125 Z M 47.808594 306.570312 C 56.613281 307.554688 62.945312 308.289062 66.804688 308.769531 C 72.5625 309.472656 78.175781 311.132812 83.644531 313.753906 C 83.96875 313.898438 84.277344 313.871094 84.570312 313.660156 C 84.859375 313.453125 84.988281 313.167969 84.949219 312.8125 C 84.882812 312.210938 84.511719 311.574219 83.839844 310.910156 C 64.855469 292.132812 46.765625 273.46875 25.671875 253.144531 C 25.117188 252.613281 24.640625 252.347656 24.253906 252.355469 C 24.113281 252.359375 23.980469 252.398438 23.859375 252.464844 C 23.734375 252.53125 23.632812 252.625 23.546875 252.742188 C 23.460938 252.855469 23.402344 252.988281 23.371094 253.132812 C 23.34375 253.277344 23.339844 253.421875 23.371094 253.570312 C 29.257812 283.863281 44.792969 315.710938 67.261719 336.839844 C 86.15625 354.617188 109.257812 365.667969 136.5625 369.984375 C 138.28125 370.25 139.582031 370.230469 140.457031 369.925781 C 140.5625 369.890625 140.65625 369.84375 140.746094 369.785156 C 140.835938 369.722656 140.917969 369.652344 140.988281 369.574219 C 141.0625 369.492188 141.121094 369.40625 141.171875 369.308594 C 141.21875 369.214844 141.257812 369.113281 141.28125 369.007812 C 141.304688 368.902344 141.3125 368.796875 141.308594 368.6875 C 141.304688 368.582031 141.289062 368.476562 141.257812 368.371094 C 141.226562 368.269531 141.183594 368.171875 141.128906 368.078125 C 141.074219 367.988281 141.007812 367.902344 140.929688 367.828125 C 127.84375 355.097656 114.398438 341.621094 100.589844 327.398438 C 97.816406 324.535156 96.578125 323.925781 92.617188 324.28125 C 75.660156 325.78125 59 320.132812 47.382812 307.382812 C 47.238281 307.214844 47.214844 307.03125 47.320312 306.832031 C 47.421875 306.632812 47.585938 306.546875 47.808594 306.570312 Z M 268.511719 306.523438 C 268.734375 306.5 268.898438 306.585938 269 306.785156 C 269.105469 306.984375 269.082031 307.167969 268.933594 307.335938 C 257.328125 320.101562 240.671875 325.757812 223.703125 324.269531 C 219.738281 323.925781 218.503906 324.535156 215.730469 327.398438 C 201.929688 341.632812 188.484375 355.125 175.402344 367.875 C 175.324219 367.949219 175.257812 368.03125 175.203125 368.125 C 175.144531 368.21875 175.101562 368.316406 175.070312 368.417969 C 175.042969 368.523438 175.023438 368.628906 175.019531 368.734375 C 175.015625 368.84375 175.027344 368.949219 175.050781 369.054688 C 175.074219 369.160156 175.109375 369.261719 175.160156 369.355469 C 175.207031 369.453125 175.269531 369.539062 175.339844 369.621094 C 175.414062 369.699219 175.492188 369.769531 175.582031 369.828125 C 175.675781 369.890625 175.769531 369.9375 175.871094 369.972656 C 176.75 370.277344 178.046875 370.296875 179.765625 370.027344 C 207.078125 365.691406 230.183594 354.617188 249.082031 336.816406 C 271.535156 315.664062 287.046875 283.792969 292.925781 253.488281 C 292.953125 253.34375 292.953125 253.195312 292.921875 253.050781 C 292.890625 252.902344 292.832031 252.773438 292.746094 252.65625 C 292.660156 252.539062 292.554688 252.445312 292.429688 252.378906 C 292.304688 252.3125 292.171875 252.277344 292.03125 252.277344 C 291.640625 252.269531 291.167969 252.53125 290.613281 253.066406 C 269.53125 273.414062 251.453125 292.097656 232.46875 310.886719 C 231.796875 311.558594 231.425781 312.199219 231.355469 312.800781 C 231.324219 313.160156 231.453125 313.441406 231.746094 313.648438 C 232.039062 313.855469 232.347656 313.882812 232.675781 313.730469 C 238.144531 311.109375 243.757812 309.445312 249.515625 308.734375 C 253.371094 308.253906 259.703125 307.515625 268.511719 306.523438 Z M 268.511719 306.523438 " fill-opacity="1" fill-rule="nonzero"/><path fill="#52632e" d="M 193.628906 57.183594 C 194.101562 57.503906 194.527344 57.882812 194.910156 58.316406 C 195.292969 58.75 195.625 59.230469 195.902344 59.761719 C 196.179688 60.292969 196.398438 60.863281 196.558594 61.46875 C 196.722656 62.078125 196.824219 62.710938 196.863281 63.371094 C 196.902344 64.03125 196.882812 64.707031 196.800781 65.394531 C 196.714844 66.082031 196.574219 66.773438 196.371094 67.460938 C 196.167969 68.152344 195.90625 68.828125 195.59375 69.496094 C 195.277344 70.160156 194.910156 70.800781 194.496094 71.414062 C 194.078125 72.027344 193.621094 72.605469 193.121094 73.144531 C 192.621094 73.683594 192.089844 74.175781 191.523438 74.621094 C 190.957031 75.066406 190.371094 75.457031 189.761719 75.789062 C 189.152344 76.121094 188.535156 76.390625 187.90625 76.601562 C 187.277344 76.808594 186.652344 76.949219 186.027344 77.023438 C 185.40625 77.097656 184.792969 77.105469 184.199219 77.046875 C 183.601562 76.984375 183.03125 76.859375 182.488281 76.664062 C 181.941406 76.46875 181.433594 76.210938 180.960938 75.890625 C 180.488281 75.570312 180.058594 75.195312 179.679688 74.761719 C 179.296875 74.328125 178.964844 73.84375 178.6875 73.316406 C 178.410156 72.785156 178.191406 72.214844 178.027344 71.605469 C 177.867188 71 177.765625 70.367188 177.722656 69.707031 C 177.683594 69.042969 177.707031 68.371094 177.789062 67.679688 C 177.871094 66.992188 178.015625 66.304688 178.21875 65.613281 C 178.421875 64.921875 178.679688 64.246094 178.996094 63.582031 C 179.3125 62.917969 179.679688 62.277344 180.09375 61.664062 C 180.507812 61.046875 180.96875 60.472656 181.46875 59.933594 C 181.96875 59.390625 182.5 58.898438 183.066406 58.453125 C 183.628906 58.007812 184.21875 57.621094 184.824219 57.289062 C 185.433594 56.953125 186.050781 56.683594 186.679688 56.476562 C 187.308594 56.269531 187.933594 56.128906 188.558594 56.050781 C 189.183594 55.976562 189.792969 55.96875 190.390625 56.03125 C 190.984375 56.089844 191.554688 56.21875 192.101562 56.414062 C 192.644531 56.605469 193.15625 56.863281 193.628906 57.183594 Z M 193.628906 57.183594 " fill-opacity="1" fill-rule="nonzero"/><path fill="#52632e" d="M 122.363281 57.679688 C 122.816406 57.339844 123.3125 57.0625 123.84375 56.84375 C 124.375 56.628906 124.933594 56.472656 125.519531 56.386719 C 126.109375 56.296875 126.710938 56.273438 127.332031 56.320312 C 127.953125 56.363281 128.582031 56.472656 129.210938 56.648438 C 129.84375 56.824219 130.464844 57.0625 131.082031 57.359375 C 131.699219 57.660156 132.296875 58.015625 132.875 58.429688 C 133.453125 58.839844 134 59.300781 134.519531 59.8125 C 135.035156 60.320312 135.511719 60.867188 135.949219 61.457031 C 136.386719 62.042969 136.777344 62.65625 137.117188 63.296875 C 137.457031 63.941406 137.742188 64.597656 137.972656 65.269531 C 138.203125 65.941406 138.375 66.613281 138.484375 67.292969 C 138.597656 67.96875 138.644531 68.632812 138.632812 69.289062 C 138.621094 69.941406 138.546875 70.574219 138.410156 71.183594 C 138.277344 71.789062 138.082031 72.363281 137.832031 72.898438 C 137.578125 73.4375 137.269531 73.929688 136.910156 74.378906 C 136.550781 74.824219 136.140625 75.21875 135.6875 75.554688 C 135.230469 75.894531 134.738281 76.171875 134.207031 76.390625 C 133.675781 76.609375 133.117188 76.761719 132.53125 76.851562 C 131.941406 76.941406 131.335938 76.960938 130.714844 76.917969 C 130.09375 76.875 129.46875 76.765625 128.839844 76.589844 C 128.207031 76.414062 127.582031 76.175781 126.96875 75.875 C 126.351562 75.578125 125.753906 75.21875 125.175781 74.808594 C 124.597656 74.394531 124.050781 73.933594 123.53125 73.425781 C 123.015625 72.914062 122.535156 72.367188 122.097656 71.78125 C 121.660156 71.195312 121.273438 70.578125 120.933594 69.9375 C 120.59375 69.296875 120.308594 68.640625 120.078125 67.96875 C 119.847656 67.296875 119.675781 66.621094 119.566406 65.945312 C 119.453125 65.269531 119.40625 64.605469 119.417969 63.949219 C 119.429688 63.292969 119.503906 62.664062 119.636719 62.054688 C 119.773438 61.445312 119.96875 60.875 120.21875 60.335938 C 120.472656 59.796875 120.777344 59.304688 121.140625 58.859375 C 121.5 58.414062 121.90625 58.019531 122.363281 57.679688 Z M 122.363281 57.679688 " fill-opacity="1" fill-rule="nonzero"/><path fill="#52632e" d="M 51.972656 113.832031 C 52.421875 113.492188 52.90625 113.214844 53.433594 112.996094 C 53.960938 112.777344 54.515625 112.625 55.097656 112.539062 C 55.683594 112.449219 56.285156 112.429688 56.902344 112.472656 C 57.523438 112.519531 58.148438 112.628906 58.78125 112.804688 C 59.414062 112.980469 60.039062 113.222656 60.660156 113.523438 C 61.28125 113.824219 61.882812 114.179688 62.46875 114.59375 C 63.050781 115.011719 63.605469 115.472656 64.132812 115.984375 C 64.65625 116.496094 65.144531 117.046875 65.589844 117.636719 C 66.039062 118.222656 66.4375 118.839844 66.789062 119.484375 C 67.140625 120.128906 67.4375 120.789062 67.679688 121.460938 C 67.921875 122.136719 68.101562 122.8125 68.226562 123.488281 C 68.351562 124.167969 68.410156 124.835938 68.410156 125.492188 C 68.410156 126.148438 68.351562 126.78125 68.226562 127.390625 C 68.105469 128 67.921875 128.574219 67.679688 129.113281 C 67.4375 129.652344 67.140625 130.144531 66.789062 130.59375 C 66.4375 131.039062 66.039062 131.433594 65.59375 131.773438 C 65.144531 132.113281 64.660156 132.390625 64.132812 132.609375 C 63.609375 132.828125 63.054688 132.980469 62.46875 133.066406 C 61.886719 133.15625 61.28125 133.175781 60.664062 133.132812 C 60.042969 133.085938 59.417969 132.976562 58.785156 132.800781 C 58.152344 132.621094 57.527344 132.382812 56.90625 132.082031 C 56.285156 131.78125 55.683594 131.421875 55.097656 131.007812 C 54.515625 130.59375 53.960938 130.132812 53.433594 129.621094 C 52.910156 129.109375 52.421875 128.558594 51.976562 127.96875 C 51.527344 127.378906 51.128906 126.765625 50.777344 126.121094 C 50.425781 125.476562 50.128906 124.816406 49.886719 124.144531 C 49.644531 123.46875 49.464844 122.792969 49.339844 122.113281 C 49.214844 121.4375 49.15625 120.769531 49.15625 120.113281 C 49.15625 119.457031 49.214844 118.824219 49.339844 118.214844 C 49.464844 117.605469 49.644531 117.03125 49.886719 116.492188 C 50.128906 115.953125 50.425781 115.460938 50.777344 115.011719 C 51.128906 114.566406 51.527344 114.171875 51.972656 113.832031 Z M 51.972656 113.832031 " fill-opacity="1" fill-rule="nonzero"/><path fill="#52632e" d="M 264.34375 113.738281 C 264.800781 114.078125 265.210938 114.476562 265.574219 114.929688 C 265.9375 115.382812 266.246094 115.882812 266.496094 116.425781 C 266.75 116.972656 266.941406 117.554688 267.074219 118.171875 C 267.207031 118.789062 267.277344 119.429688 267.285156 120.09375 C 267.292969 120.761719 267.238281 121.4375 267.121094 122.125 C 267.003906 122.8125 266.828125 123.496094 266.589844 124.179688 C 266.351562 124.863281 266.058594 125.53125 265.710938 126.183594 C 265.363281 126.835938 264.964844 127.460938 264.515625 128.058594 C 264.070312 128.65625 263.582031 129.214844 263.054688 129.734375 C 262.527344 130.253906 261.96875 130.722656 261.378906 131.144531 C 260.792969 131.566406 260.183594 131.929688 259.558594 132.234375 C 258.933594 132.542969 258.296875 132.785156 257.660156 132.964844 C 257.019531 133.144531 256.382812 133.257812 255.753906 133.304688 C 255.125 133.351562 254.511719 133.332031 253.917969 133.242188 C 253.324219 133.15625 252.757812 133 252.21875 132.78125 C 251.683594 132.5625 251.1875 132.28125 250.726562 131.9375 C 250.269531 131.59375 249.859375 131.195312 249.496094 130.742188 C 249.132812 130.289062 248.828125 129.792969 248.574219 129.246094 C 248.320312 128.699219 248.128906 128.117188 247.996094 127.5 C 247.863281 126.886719 247.792969 126.242188 247.785156 125.578125 C 247.777344 124.914062 247.832031 124.238281 247.949219 123.550781 C 248.066406 122.863281 248.242188 122.175781 248.480469 121.496094 C 248.71875 120.8125 249.011719 120.144531 249.359375 119.488281 C 249.710938 118.835938 250.105469 118.210938 250.554688 117.613281 C 251 117.015625 251.488281 116.457031 252.015625 115.9375 C 252.542969 115.417969 253.101562 114.949219 253.691406 114.527344 C 254.28125 114.109375 254.886719 113.746094 255.511719 113.4375 C 256.140625 113.132812 256.773438 112.890625 257.414062 112.707031 C 258.054688 112.527344 258.6875 112.414062 259.316406 112.367188 C 259.945312 112.320312 260.558594 112.34375 261.152344 112.429688 C 261.75 112.519531 262.3125 112.671875 262.851562 112.890625 C 263.386719 113.113281 263.886719 113.394531 264.34375 113.738281 Z M 264.34375 113.738281 " fill-opacity="1" fill-rule="nonzero"/><path fill="#52632e" d="M 124.609375 191.285156 C 125.082031 190.960938 125.589844 190.699219 126.132812 190.496094 C 126.679688 190.296875 127.25 190.164062 127.847656 190.097656 C 128.445312 190.03125 129.058594 190.035156 129.683594 190.105469 C 130.3125 190.175781 130.941406 190.3125 131.574219 190.515625 C 132.210938 190.71875 132.832031 190.988281 133.449219 191.316406 C 134.0625 191.644531 134.65625 192.03125 135.230469 192.476562 C 135.804688 192.917969 136.34375 193.410156 136.855469 193.945312 C 137.363281 194.484375 137.828125 195.0625 138.253906 195.675781 C 138.679688 196.289062 139.054688 196.929688 139.382812 197.597656 C 139.707031 198.261719 139.976562 198.941406 140.1875 199.632812 C 140.402344 200.324219 140.554688 201.019531 140.644531 201.710938 C 140.738281 202.402344 140.765625 203.078125 140.734375 203.742188 C 140.703125 204.410156 140.609375 205.046875 140.453125 205.660156 C 140.300781 206.269531 140.085938 206.84375 139.8125 207.382812 C 139.542969 207.917969 139.214844 208.40625 138.835938 208.84375 C 138.457031 209.285156 138.035156 209.667969 137.5625 209.992188 C 137.09375 210.320312 136.585938 210.582031 136.039062 210.78125 C 135.496094 210.980469 134.925781 211.113281 134.328125 211.179688 C 133.730469 211.246094 133.117188 211.246094 132.488281 211.175781 C 131.863281 211.105469 131.230469 210.96875 130.597656 210.761719 C 129.964844 210.558594 129.339844 210.292969 128.726562 209.964844 C 128.109375 209.632812 127.515625 209.246094 126.941406 208.804688 C 126.371094 208.363281 125.828125 207.871094 125.320312 207.332031 C 124.8125 206.792969 124.34375 206.21875 123.917969 205.601562 C 123.492188 204.988281 123.117188 204.347656 122.792969 203.683594 C 122.46875 203.015625 122.199219 202.339844 121.988281 201.644531 C 121.773438 200.953125 121.621094 200.261719 121.527344 199.570312 C 121.4375 198.878906 121.40625 198.199219 121.4375 197.535156 C 121.472656 196.871094 121.566406 196.234375 121.71875 195.621094 C 121.875 195.007812 122.089844 194.433594 122.359375 193.898438 C 122.632812 193.363281 122.957031 192.875 123.335938 192.433594 C 123.714844 191.996094 124.140625 191.613281 124.609375 191.285156 Z M 124.609375 191.285156 " fill-opacity="1" fill-rule="nonzero"/><path fill="#52632e" d="M 191.988281 191.773438 C 192.441406 192.113281 192.847656 192.511719 193.207031 192.964844 C 193.566406 193.414062 193.871094 193.914062 194.117188 194.457031 C 194.367188 195 194.558594 195.582031 194.6875 196.195312 C 194.816406 196.808594 194.882812 197.449219 194.890625 198.109375 C 194.894531 198.773438 194.835938 199.445312 194.71875 200.128906 C 194.597656 200.8125 194.417969 201.496094 194.179688 202.175781 C 193.941406 202.855469 193.648438 203.519531 193.296875 204.167969 C 192.945312 204.816406 192.546875 205.4375 192.101562 206.03125 C 191.652344 206.625 191.167969 207.179688 190.640625 207.695312 C 190.113281 208.210938 189.554688 208.675781 188.96875 209.09375 C 188.378906 209.511719 187.773438 209.871094 187.148438 210.171875 C 186.523438 210.476562 185.894531 210.71875 185.253906 210.894531 C 184.617188 211.070312 183.984375 211.183594 183.359375 211.226562 C 182.730469 211.273438 182.121094 211.25 181.53125 211.160156 C 180.941406 211.070312 180.378906 210.917969 179.84375 210.695312 C 179.3125 210.476562 178.816406 210.195312 178.363281 209.851562 C 177.90625 209.507812 177.5 209.113281 177.140625 208.660156 C 176.785156 208.207031 176.480469 207.710938 176.230469 207.167969 C 175.980469 206.621094 175.792969 206.042969 175.664062 205.429688 C 175.53125 204.8125 175.464844 204.175781 175.460938 203.511719 C 175.453125 202.851562 175.511719 202.179688 175.632812 201.496094 C 175.75 200.808594 175.929688 200.128906 176.167969 199.449219 C 176.40625 198.769531 176.703125 198.105469 177.050781 197.457031 C 177.402344 196.808594 177.800781 196.1875 178.25 195.59375 C 178.695312 195 179.183594 194.445312 179.710938 193.929688 C 180.238281 193.414062 180.796875 192.949219 181.382812 192.53125 C 181.96875 192.113281 182.574219 191.753906 183.199219 191.449219 C 183.824219 191.144531 184.457031 190.90625 185.09375 190.730469 C 185.730469 190.550781 186.363281 190.441406 186.992188 190.394531 C 187.617188 190.351562 188.226562 190.371094 188.816406 190.460938 C 189.410156 190.550781 189.972656 190.707031 190.503906 190.925781 C 191.039062 191.148438 191.53125 191.429688 191.988281 191.773438 Z M 191.988281 191.773438 " fill-opacity="1" fill-rule="nonzero"/><path fill="#52632e" d="M 71.292969 241.5625 C 71.75 241.214844 72.246094 240.925781 72.785156 240.699219 C 73.320312 240.46875 73.882812 240.304688 74.480469 240.207031 C 75.074219 240.109375 75.683594 240.078125 76.316406 240.113281 C 76.945312 240.152344 77.578125 240.253906 78.21875 240.421875 C 78.859375 240.589844 79.496094 240.820312 80.121094 241.113281 C 80.75 241.410156 81.359375 241.761719 81.949219 242.167969 C 82.539062 242.578125 83.097656 243.035156 83.628906 243.542969 C 84.15625 244.050781 84.648438 244.601562 85.097656 245.1875 C 85.546875 245.773438 85.945312 246.390625 86.296875 247.035156 C 86.648438 247.679688 86.945312 248.339844 87.183594 249.015625 C 87.425781 249.691406 87.605469 250.371094 87.722656 251.054688 C 87.84375 251.738281 87.898438 252.410156 87.894531 253.074219 C 87.886719 253.734375 87.820312 254.375 87.691406 254.992188 C 87.558594 255.609375 87.367188 256.191406 87.117188 256.738281 C 86.867188 257.289062 86.5625 257.789062 86.199219 258.246094 C 85.839844 258.703125 85.429688 259.109375 84.972656 259.457031 C 84.515625 259.808594 84.019531 260.097656 83.484375 260.324219 C 82.949219 260.550781 82.382812 260.714844 81.789062 260.8125 C 81.195312 260.910156 80.582031 260.941406 79.953125 260.90625 C 79.324219 260.871094 78.6875 260.769531 78.046875 260.601562 C 77.40625 260.433594 76.773438 260.203125 76.144531 259.90625 C 75.515625 259.613281 74.910156 259.261719 74.320312 258.851562 C 73.730469 258.445312 73.167969 257.984375 72.640625 257.476562 C 72.109375 256.96875 71.621094 256.421875 71.171875 255.835938 C 70.722656 255.246094 70.320312 254.632812 69.96875 253.988281 C 69.621094 253.34375 69.324219 252.683594 69.082031 252.003906 C 68.84375 251.328125 68.664062 250.648438 68.542969 249.964844 C 68.425781 249.285156 68.367188 248.613281 68.375 247.949219 C 68.378906 247.285156 68.449219 246.648438 68.578125 246.03125 C 68.707031 245.414062 68.898438 244.832031 69.148438 244.28125 C 69.398438 243.734375 69.707031 243.230469 70.066406 242.773438 C 70.425781 242.316406 70.835938 241.914062 71.292969 241.5625 Z M 71.292969 241.5625 " fill-opacity="1" fill-rule="nonzero"/><path fill="#52632e" d="M 244.742188 241.480469 C 245.214844 241.816406 245.640625 242.207031 246.019531 242.65625 C 246.402344 243.101562 246.726562 243.597656 247 244.140625 C 247.269531 244.683594 247.484375 245.261719 247.636719 245.878906 C 247.792969 246.492188 247.882812 247.132812 247.914062 247.800781 C 247.941406 248.464844 247.910156 249.144531 247.816406 249.835938 C 247.71875 250.523438 247.5625 251.214844 247.347656 251.902344 C 247.128906 252.589844 246.855469 253.265625 246.527344 253.925781 C 246.195312 254.585938 245.816406 255.21875 245.386719 255.824219 C 244.953125 256.429688 244.480469 256.996094 243.96875 257.523438 C 243.453125 258.054688 242.90625 258.53125 242.328125 258.964844 C 241.75 259.394531 241.148438 259.769531 240.527344 260.085938 C 239.910156 260.402344 239.277344 260.65625 238.640625 260.847656 C 238 261.039062 237.367188 261.164062 236.734375 261.21875 C 236.101562 261.277344 235.484375 261.265625 234.882812 261.1875 C 234.28125 261.109375 233.707031 260.964844 233.160156 260.753906 C 232.609375 260.542969 232.101562 260.269531 231.628906 259.933594 C 231.15625 259.597656 230.730469 259.203125 230.347656 258.757812 C 229.96875 258.308594 229.644531 257.8125 229.371094 257.273438 C 229.101562 256.730469 228.886719 256.152344 228.734375 255.535156 C 228.578125 254.917969 228.488281 254.277344 228.457031 253.613281 C 228.425781 252.945312 228.460938 252.269531 228.554688 251.578125 C 228.652344 250.886719 228.808594 250.199219 229.023438 249.507812 C 229.242188 248.820312 229.515625 248.148438 229.84375 247.488281 C 230.175781 246.828125 230.554688 246.195312 230.984375 245.589844 C 231.414062 244.984375 231.886719 244.414062 232.402344 243.886719 C 232.917969 243.359375 233.464844 242.878906 234.042969 242.449219 C 234.621094 242.015625 235.21875 241.640625 235.839844 241.324219 C 236.460938 241.007812 237.089844 240.753906 237.730469 240.5625 C 238.371094 240.371094 239.003906 240.25 239.636719 240.191406 C 240.269531 240.132812 240.886719 240.144531 241.488281 240.222656 C 242.089844 240.300781 242.664062 240.445312 243.210938 240.660156 C 243.757812 240.871094 244.269531 241.144531 244.742188 241.480469 Z M 244.742188 241.480469 " fill-opacity="1" fill-rule="nonzero"/><g fill="#52632e" fill-opacity="1"><g transform="translate(342.477909, 249.252712)"><g><path d="M 20.265625 0.546875 C 21.003906 -7.566406 21.523438 -26.429688 21.828125 -56.046875 L 22.046875 -84.078125 L 21.9375 -111.65625 C 21.9375 -123.175781 21.9375 -129.785156 21.9375 -131.484375 C 20.894531 -146.921875 20.335938 -155.378906 20.265625 -156.859375 C 36.148438 -155.671875 50.441406 -155.078125 63.140625 -155.078125 C 71.929688 -155.078125 85.816406 -155.671875 104.796875 -156.859375 C 104.421875 -153.535156 104.234375 -151.097656 104.234375 -149.546875 C 104.234375 -147.847656 104.421875 -145.335938 104.796875 -142.015625 C 88.253906 -143.117188 69.492188 -143.671875 48.515625 -143.671875 L 42.09375 -143.78125 C 41.644531 -125.757812 41.421875 -110.140625 41.421875 -96.921875 L 41.421875 -87.84375 C 48.660156 -87.625 53.535156 -87.515625 56.046875 -87.515625 C 74.515625 -87.515625 88.988281 -88.101562 99.46875 -89.28125 C 99.101562 -86.03125 98.921875 -83.554688 98.921875 -81.859375 C 98.921875 -80.234375 99.101562 -77.796875 99.46875 -74.546875 C 83.070312 -75.648438 67.898438 -76.203125 53.953125 -76.203125 C 50.253906 -76.203125 46.078125 -76.203125 41.421875 -76.203125 L 41.421875 -66.578125 C 41.578125 -33.640625 42.132812 -11.265625 43.09375 0.546875 C 38.070312 0.179688 34.269531 0 31.6875 0 C 29.175781 0 25.367188 0.179688 20.265625 0.546875 Z M 20.265625 0.546875 "/></g></g></g><g fill="#52632e" fill-opacity="1"><g transform="translate(432.714251, 249.252712)"><g><path d="M 2.875 0.546875 C 13.957031 -19.972656 34.414062 -64.425781 64.25 -132.8125 L 73.78125 -155.078125 L 77.984375 -155.078125 C 82.046875 -145.253906 88.359375 -130.597656 96.921875 -111.109375 C 101.722656 -99.953125 109.179688 -82.519531 119.296875 -58.8125 C 130.304688 -33.113281 139.425781 -13.328125 146.65625 0.546875 C 141.195312 0.179688 137.097656 0 134.359375 0 C 131.628906 0 127.492188 0.179688 121.953125 0.546875 C 119.960938 -4.398438 116.234375 -14.035156 110.765625 -28.359375 C 108.398438 -34.410156 104.191406 -44.34375 98.140625 -58.15625 C 88.097656 -59.332031 78.164062 -59.921875 68.34375 -59.921875 C 60.144531 -59.921875 51.503906 -59.332031 42.421875 -58.15625 C 33.710938 -37.40625 26.328125 -17.835938 20.265625 0.546875 C 16.429688 0.179688 13.550781 0 11.625 0 C 9.707031 0 6.789062 0.179688 2.875 0.546875 Z M 48.84375 -72.890625 C 59.550781 -71.773438 67.53125 -71.21875 72.78125 -71.21875 C 78.164062 -71.21875 84.441406 -71.738281 91.609375 -72.78125 C 89.023438 -79.789062 82.117188 -96.035156 70.890625 -121.515625 L 65.6875 -110.109375 C 56.675781 -90.390625 51.0625 -77.984375 48.84375 -72.890625 Z M 48.84375 -72.890625 "/></g></g></g><g fill="#52632e" fill-opacity="1"><g transform="translate(576.786134, 249.252712)"><g><path d="M 19.609375 0.546875 C 20.117188 -9.265625 20.523438 -26.171875 20.828125 -50.171875 L 21.375 -84.515625 L 21.265625 -109.546875 C 21.265625 -123.953125 21.046875 -134.21875 20.609375 -140.34375 C 20.453125 -143.375 20.117188 -148.472656 19.609375 -155.640625 C 23.671875 -155.554688 26.363281 -155.476562 27.6875 -155.40625 C 32.5625 -155.1875 35.738281 -155.078125 37.21875 -155.078125 C 38.101562 -155.078125 43.015625 -155.265625 51.953125 -155.640625 C 55.347656 -155.785156 59.148438 -155.859375 63.359375 -155.859375 C 73.035156 -155.859375 80.828125 -155.523438 86.734375 -154.859375 C 97.734375 -153.671875 106.1875 -149.238281 112.09375 -141.5625 C 116.675781 -135.582031 118.96875 -128.421875 118.96875 -120.078125 C 118.96875 -105.671875 112.726562 -94.519531 100.25 -86.625 C 93.300781 -82.269531 84.144531 -79.28125 72.78125 -77.65625 C 84.300781 -62.21875 97.40625 -45.488281 112.09375 -27.46875 C 120.882812 -16.832031 128.863281 -7.492188 136.03125 0.546875 C 129.601562 0.179688 124.765625 0 121.515625 0 C 118.265625 0 113.425781 0.179688 107 0.546875 C 99.46875 -9.859375 93.007812 -18.679688 87.625 -25.921875 C 78.90625 -37.515625 68.046875 -51.285156 55.046875 -67.234375 L 48.515625 -75.328125 L 40.765625 -75.328125 C 40.835938 -68.753906 40.945312 -53.28125 41.09375 -28.90625 C 41.09375 -24.332031 41.535156 -14.515625 42.421875 0.546875 C 37.398438 0.179688 33.597656 0 31.015625 0 C 28.503906 0 24.703125 0.179688 19.609375 0.546875 Z M 40.765625 -84.515625 L 47.75 -84.515625 C 59.414062 -85.179688 67.832031 -86.398438 73 -88.171875 C 81.488281 -91.128906 87.65625 -95.894531 91.5 -102.46875 C 94.300781 -107.257812 95.703125 -112.425781 95.703125 -117.96875 C 95.703125 -127.269531 92.378906 -134.429688 85.734375 -139.453125 C 79.972656 -143.742188 71.078125 -145.890625 59.046875 -145.890625 C 55.054688 -145.890625 49.179688 -145.664062 41.421875 -145.21875 L 41.3125 -137.796875 L 41.09375 -114.875 L 40.875 -94.484375 Z M 40.765625 -84.515625 "/></g></g></g><g fill="#52632e" fill-opacity="1"><g transform="translate(708.229922, 249.252712)"><g><path d="M 8.421875 0.546875 C 11.441406 -11.554688 15.722656 -39.429688 21.265625 -83.078125 C 22.960938 -96.078125 25.398438 -114.28125 28.578125 -137.6875 L 30.90625 -155.078125 L 35.109375 -155.078125 L 40.09375 -145.328125 C 60.769531 -105.304688 73.953125 -80.085938 79.640625 -69.671875 C 84.734375 -60.296875 91.898438 -47.742188 101.140625 -32.015625 L 105.453125 -39.875 L 115.75 -59.15625 C 138.28125 -100.132812 155.597656 -132.109375 167.703125 -155.078125 L 171.921875 -155.078125 C 175.910156 -115.492188 179.269531 -84.773438 182 -62.921875 C 186.5 -27.179688 189.414062 -6.023438 190.75 0.546875 C 185.800781 0.179688 182.109375 0 179.671875 0 C 177.160156 0 173.429688 0.179688 168.484375 0.546875 C 167.816406 -4.835938 166.859375 -14.363281 165.609375 -28.03125 C 161.765625 -69.53125 158.847656 -98.035156 156.859375 -113.546875 C 147.398438 -95.960938 140.085938 -82.445312 134.921875 -73 C 129.304688 -62.4375 119.554688 -43.160156 105.671875 -15.171875 L 98.03125 0 L 93.828125 0 C 89.023438 -10.414062 79.09375 -30.207031 64.03125 -59.375 L 44.859375 -96.265625 L 36.671875 -111.65625 C 29.648438 -59.664062 25.992188 -22.265625 25.703125 0.546875 C 21.859375 0.179688 18.976562 0 17.0625 0 C 15.132812 0 12.253906 0.179688 8.421875 0.546875 Z M 8.421875 0.546875 "/></g></g></g><g fill="#52632e" fill-opacity="1"><g transform="translate(902.481849, 249.252712)"><g/></g></g><g fill="#52632e" fill-opacity="1"><g transform="translate(958.600194, 249.252712)"><g><path d="M 18.609375 1.765625 C 19.785156 -15.878906 20.375 -41.351562 20.375 -74.65625 L 20.375 -81.859375 L 20.15625 -111.109375 C 20.082031 -129.421875 19.972656 -140.382812 19.828125 -144 C 19.753906 -147.539062 19.347656 -151.828125 18.609375 -156.859375 C 28.578125 -155.671875 42.347656 -155.078125 59.921875 -155.078125 C 72.398438 -155.078125 85.988281 -155.671875 100.6875 -156.859375 C 100.320312 -153.535156 100.140625 -151.0625 100.140625 -149.4375 C 100.140625 -147.8125 100.320312 -145.335938 100.6875 -142.015625 C 88.5 -143.191406 73.769531 -143.78125 56.5 -143.78125 C 50.738281 -143.78125 45.382812 -143.554688 40.4375 -143.109375 C 40.0625 -129.234375 39.835938 -112.582031 39.765625 -93.15625 L 39.765625 -86.625 C 46.046875 -86.550781 51.101562 -86.515625 54.9375 -86.515625 C 70.894531 -86.515625 84.1875 -87.066406 94.8125 -88.171875 C 94.375 -84.921875 94.15625 -82.445312 94.15625 -80.75 C 94.15625 -79.125 94.375 -76.6875 94.8125 -73.4375 C 85 -74.550781 66.648438 -75.179688 39.765625 -75.328125 L 39.765625 -67.015625 C 39.765625 -45.742188 39.988281 -27.207031 40.4375 -11.40625 C 45.75 -11.332031 49.660156 -11.296875 52.171875 -11.296875 C 67.234375 -11.296875 83.441406 -11.890625 100.796875 -13.078125 C 100.429688 -9.753906 100.25 -7.238281 100.25 -5.53125 C 100.25 -3.988281 100.429688 -1.554688 100.796875 1.765625 C 79.535156 0.585938 64.210938 0 54.828125 0 C 44.421875 0 32.347656 0.585938 18.609375 1.765625 Z M 18.609375 1.765625 "/></g></g></g><g fill="#52632e" fill-opacity="1"><g transform="translate(1065.009338, 249.252712)"><g><path d="M 22.15625 -155.640625 C 29.6875 -155.265625 36.550781 -155.078125 42.75 -155.078125 C 48.4375 -155.078125 56.117188 -155.148438 65.796875 -155.296875 C 76.648438 -155.523438 83.960938 -155.640625 87.734375 -155.640625 C 102.578125 -155.640625 114.46875 -153.976562 123.40625 -150.65625 C 136.25 -145.78125 146.398438 -137.320312 153.859375 -125.28125 C 161.242188 -113.238281 164.9375 -99.316406 164.9375 -83.515625 C 164.9375 -65.203125 160.429688 -48.882812 151.421875 -34.5625 C 144.554688 -23.707031 135.507812 -15.210938 124.28125 -9.078125 C 116.53125 -4.796875 106.75 -1.992188 94.9375 -0.671875 C 87.476562 0.222656 78.835938 0.671875 69.015625 0.671875 C 65.835938 0.671875 59.890625 0.519531 51.171875 0.21875 C 46.222656 0.0703125 42.273438 0 39.328125 0 C 35.410156 0 29.6875 0.179688 22.15625 0.546875 C 23.332031 -17.910156 23.921875 -41.757812 23.921875 -71 C 23.921875 -113.613281 23.332031 -141.828125 22.15625 -155.640625 Z M 43.96875 -143.109375 L 43.75 -132.484375 C 43.457031 -103.753906 43.3125 -85.109375 43.3125 -76.546875 L 43.3125 -55.828125 C 43.382812 -34.929688 43.601562 -20.3125 43.96875 -11.96875 C 55.050781 -11.519531 63.769531 -11.296875 70.125 -11.296875 C 87.03125 -11.296875 99.765625 -13.21875 108.328125 -17.0625 C 120.148438 -22.300781 128.941406 -31.347656 134.703125 -44.203125 C 139.347656 -54.460938 141.671875 -66.789062 141.671875 -81.1875 C 141.671875 -106.894531 134.066406 -124.582031 118.859375 -134.25 C 112.210938 -138.53125 103.753906 -141.300781 93.484375 -142.5625 C 87.722656 -143.300781 79.640625 -143.671875 69.234375 -143.671875 C 60.367188 -143.671875 51.945312 -143.484375 43.96875 -143.109375 Z M 43.96875 -143.109375 "/></g></g></g><g fill="#52632e" fill-opacity="1"><g transform="translate(1234.115889, 249.252712)"><g><path d="M 18.609375 1.765625 C 19.785156 -15.878906 20.375 -41.351562 20.375 -74.65625 L 20.375 -81.859375 L 20.15625 -111.109375 C 20.082031 -129.421875 19.972656 -140.382812 19.828125 -144 C 19.753906 -147.539062 19.347656 -151.828125 18.609375 -156.859375 C 28.578125 -155.671875 42.347656 -155.078125 59.921875 -155.078125 C 72.398438 -155.078125 85.988281 -155.671875 100.6875 -156.859375 C 100.320312 -153.535156 100.140625 -151.0625 100.140625 -149.4375 C 100.140625 -147.8125 100.320312 -145.335938 100.6875 -142.015625 C 88.5 -143.191406 73.769531 -143.78125 56.5 -143.78125 C 50.738281 -143.78125 45.382812 -143.554688 40.4375 -143.109375 C 40.0625 -129.234375 39.835938 -112.582031 39.765625 -93.15625 L 39.765625 -86.625 C 46.046875 -86.550781 51.101562 -86.515625 54.9375 -86.515625 C 70.894531 -86.515625 84.1875 -87.066406 94.8125 -88.171875 C 94.375 -84.921875 94.15625 -82.445312 94.15625 -80.75 C 94.15625 -79.125 94.375 -76.6875 94.8125 -73.4375 C 85 -74.550781 66.648438 -75.179688 39.765625 -75.328125 L 39.765625 -67.015625 C 39.765625 -45.742188 39.988281 -27.207031 40.4375 -11.40625 C 45.75 -11.332031 49.660156 -11.296875 52.171875 -11.296875 C 67.234375 -11.296875 83.441406 -11.890625 100.796875 -13.078125 C 100.429688 -9.753906 100.25 -7.238281 100.25 -5.53125 C 100.25 -3.988281 100.429688 -1.554688 100.796875 1.765625 C 79.535156 0.585938 64.210938 0 54.828125 0 C 44.421875 0 32.347656 0.585938 18.609375 1.765625 Z M 18.609375 1.765625 "/></g></g></g><g fill="#52632e" fill-opacity="1"><g transform="translate(1340.524987, 249.252712)"><g><path d="M 22.046875 0.546875 C 23.222656 -21.160156 23.8125 -48.925781 23.8125 -82.75 C 23.8125 -95.59375 23.476562 -111.46875 22.8125 -130.375 L 22.265625 -150.09375 L 22.046875 -155.078125 L 28.03125 -155.078125 L 35.890625 -146.546875 L 61.484375 -119.40625 C 94.859375 -83.882812 121.035156 -56.304688 140.015625 -36.671875 L 140.015625 -81.640625 C 140.015625 -108.890625 139.425781 -133.554688 138.25 -155.640625 C 141.644531 -155.265625 144.191406 -155.078125 145.890625 -155.078125 C 147.515625 -155.078125 150.023438 -155.265625 153.421875 -155.640625 C 152.304688 -134.296875 151.75 -105.085938 151.75 -68.015625 C 151.75 -52.285156 152.304688 -28.539062 153.421875 3.21875 L 147.4375 3.21875 C 121.4375 -26.84375 88.054688 -62.550781 47.296875 -103.90625 L 35.21875 -116.203125 C 35.375 -96.109375 35.488281 -74.546875 35.5625 -51.515625 C 36.21875 -25.890625 36.769531 -8.535156 37.21875 0.546875 C 33.894531 0.179688 31.382812 0 29.6875 0 C 27.988281 0 25.441406 0.179688 22.046875 0.546875 Z M 22.046875 0.546875 "/></g></g></g><g transform="matrix(1, 0, 0, 1, 357, 286)"><g clip-path="url(#f6ebd29b19)"><g fill="#806c4d" fill-opacity="1"><g transform="translate(0.757618, 65.582971)"><g><path d="M 4.71875 0 L 4.71875 -48.875 L 36.96875 -48.875 L 36.96875 -41.453125 L 13.484375 -41.453125 L 13.484375 -28.375 L 35.21875 -28.375 L 35.21875 -21.0625 L 13.484375 -21.0625 L 13.484375 -7.40625 L 37.0625 -7.40625 L 37.0625 0 Z M 4.71875 0 "/></g></g></g><g fill="#806c4d" fill-opacity="1"><g transform="translate(42.068876, 65.582971)"><g><path d="M 22.015625 0.75 C 18.179688 0.75 14.851562 0.144531 12.03125 -1.0625 C 9.21875 -2.28125 7.023438 -4.039062 5.453125 -6.34375 C 3.890625 -8.65625 3.054688 -11.453125 2.953125 -14.734375 L 11.546875 -14.734375 C 11.671875 -12.953125 12.1875 -11.46875 13.09375 -10.28125 C 14.007812 -9.09375 15.238281 -8.195312 16.78125 -7.59375 C 18.320312 -6.988281 20.050781 -6.6875 21.96875 -6.6875 C 23.914062 -6.6875 25.628906 -6.972656 27.109375 -7.546875 C 28.585938 -8.128906 29.742188 -8.957031 30.578125 -10.03125 C 31.421875 -11.101562 31.84375 -12.34375 31.84375 -13.75 C 31.84375 -14.988281 31.488281 -16.023438 30.78125 -16.859375 C 30.070312 -17.691406 29.054688 -18.398438 27.734375 -18.984375 C 26.410156 -19.578125 24.816406 -20.101562 22.953125 -20.5625 L 17.484375 -21.9375 C 13.222656 -22.988281 9.941406 -24.582031 7.640625 -26.71875 C 5.347656 -28.863281 4.203125 -31.664062 4.203125 -35.125 C 4.203125 -38.007812 4.972656 -40.535156 6.515625 -42.703125 C 8.054688 -44.867188 10.175781 -46.550781 12.875 -47.75 C 15.570312 -48.957031 18.640625 -49.5625 22.078125 -49.5625 C 25.597656 -49.5625 28.664062 -48.953125 31.28125 -47.734375 C 33.90625 -46.523438 35.960938 -44.835938 37.453125 -42.671875 C 38.941406 -40.503906 39.71875 -38 39.78125 -35.15625 L 31.359375 -35.15625 C 31.140625 -37.363281 30.191406 -39.078125 28.515625 -40.296875 C 26.847656 -41.523438 24.664062 -42.140625 21.96875 -42.140625 C 20.15625 -42.140625 18.578125 -41.851562 17.234375 -41.28125 C 15.890625 -40.71875 14.847656 -39.945312 14.109375 -38.96875 C 13.378906 -38 13.015625 -36.882812 13.015625 -35.625 C 13.015625 -34.3125 13.40625 -33.226562 14.1875 -32.375 C 14.976562 -31.519531 16.019531 -30.816406 17.3125 -30.265625 C 18.601562 -29.722656 19.992188 -29.273438 21.484375 -28.921875 L 26.140625 -27.75 C 28.109375 -27.289062 29.960938 -26.6875 31.703125 -25.9375 C 33.441406 -25.195312 34.976562 -24.269531 36.3125 -23.15625 C 37.644531 -22.039062 38.6875 -20.71875 39.4375 -19.1875 C 40.195312 -17.65625 40.578125 -15.863281 40.578125 -13.8125 C 40.578125 -10.90625 39.835938 -8.359375 38.359375 -6.171875 C 36.878906 -3.984375 34.753906 -2.28125 31.984375 -1.0625 C 29.222656 0.144531 25.898438 0.75 22.015625 0.75 Z M 22.015625 0.75 "/></g></g></g><g fill="#806c4d" fill-opacity="1"><g transform="translate(86.332037, 65.582971)"><g><path d="M 25.65625 0.6875 C 21.34375 0.6875 17.484375 -0.316406 14.078125 -2.328125 C 10.679688 -4.335938 8.007812 -7.21875 6.0625 -10.96875 C 4.125 -14.71875 3.15625 -19.195312 3.15625 -24.40625 C 3.15625 -29.65625 4.128906 -34.15625 6.078125 -37.90625 C 8.035156 -41.65625 10.710938 -44.535156 14.109375 -46.546875 C 17.515625 -48.554688 21.363281 -49.5625 25.65625 -49.5625 C 28.363281 -49.5625 30.882812 -49.171875 33.21875 -48.390625 C 35.5625 -47.617188 37.644531 -46.5 39.46875 -45.03125 C 41.300781 -43.5625 42.804688 -41.769531 43.984375 -39.65625 C 45.160156 -37.550781 45.945312 -35.164062 46.34375 -32.5 L 37.515625 -32.5 C 37.234375 -33.96875 36.75 -35.269531 36.0625 -36.40625 C 35.375 -37.539062 34.507812 -38.503906 33.46875 -39.296875 C 32.425781 -40.097656 31.253906 -40.703125 29.953125 -41.109375 C 28.660156 -41.515625 27.269531 -41.71875 25.78125 -41.71875 C 23.050781 -41.71875 20.640625 -41.035156 18.546875 -39.671875 C 16.460938 -38.304688 14.835938 -36.332031 13.671875 -33.75 C 12.515625 -31.164062 11.9375 -28.050781 11.9375 -24.40625 C 11.9375 -20.726562 12.519531 -17.597656 13.6875 -15.015625 C 14.863281 -12.441406 16.488281 -10.488281 18.5625 -9.15625 C 20.644531 -7.820312 23.050781 -7.15625 25.78125 -7.15625 C 27.269531 -7.15625 28.65625 -7.351562 29.9375 -7.75 C 31.226562 -8.15625 32.394531 -8.75 33.4375 -9.53125 C 34.476562 -10.320312 35.351562 -11.289062 36.0625 -12.4375 C 36.769531 -13.59375 37.265625 -14.898438 37.546875 -16.359375 L 46.375 -16.359375 C 46.03125 -13.929688 45.289062 -11.691406 44.15625 -9.640625 C 43.03125 -7.585938 41.570312 -5.785156 39.78125 -4.234375 C 37.988281 -2.679688 35.898438 -1.472656 33.515625 -0.609375 C 31.128906 0.253906 28.507812 0.6875 25.65625 0.6875 Z M 25.65625 0.6875 "/></g></g></g><g fill="#806c4d" fill-opacity="1"><g transform="translate(134.760533, 65.582971)"><g><path d="M 1.375 0 L 18.5 -48.875 L 29.578125 -48.875 L 47 0 L 37.421875 0 L 28.765625 -25.453125 C 27.910156 -28.097656 27.019531 -31.039062 26.09375 -34.28125 C 25.164062 -37.53125 24.128906 -41.265625 22.984375 -45.484375 L 24.953125 -45.484375 C 23.835938 -41.242188 22.832031 -37.488281 21.9375 -34.21875 C 21.039062 -30.957031 20.191406 -28.035156 19.390625 -25.453125 L 10.890625 0 Z M 11.375 -12 L 11.375 -19.09375 L 36.96875 -19.09375 L 36.96875 -12 Z M 11.375 -12 "/></g></g></g><g fill="#806c4d" fill-opacity="1"><g transform="translate(183.87793, 65.582971)"><g><path d="M 4.71875 0 L 4.71875 -48.875 L 23.09375 -48.875 C 26.8125 -48.875 29.945312 -48.179688 32.5 -46.796875 C 35.0625 -45.421875 37.007812 -43.53125 38.34375 -41.125 C 39.675781 -38.71875 40.34375 -35.941406 40.34375 -32.796875 C 40.34375 -29.671875 39.671875 -26.898438 38.328125 -24.484375 C 36.984375 -22.066406 35.015625 -20.175781 32.421875 -18.8125 C 29.828125 -17.445312 26.671875 -16.765625 22.953125 -16.765625 L 10.46875 -16.765625 L 10.46875 -24.015625 L 21.96875 -24.015625 C 24.132812 -24.015625 25.914062 -24.390625 27.3125 -25.140625 C 28.71875 -25.890625 29.765625 -26.925781 30.453125 -28.25 C 31.140625 -29.570312 31.484375 -31.085938 31.484375 -32.796875 C 31.484375 -34.546875 31.140625 -36.070312 30.453125 -37.375 C 29.765625 -38.675781 28.710938 -39.691406 27.296875 -40.421875 C 25.890625 -41.148438 24.101562 -41.515625 21.9375 -41.515625 L 13.484375 -41.515625 L 13.484375 0 Z M 4.71875 0 "/></g></g></g><g fill="#806c4d" fill-opacity="1"><g transform="translate(227.649101, 65.582971)"><g><path d="M 4.71875 0 L 4.71875 -48.875 L 36.96875 -48.875 L 36.96875 -41.453125 L 13.484375 -41.453125 L 13.484375 -28.375 L 35.21875 -28.375 L 35.21875 -21.0625 L 13.484375 -21.0625 L 13.484375 -7.40625 L 37.0625 -7.40625 L 37.0625 0 Z M 4.71875 0 "/></g></g></g><g fill="#806c4d" fill-opacity="1"><g transform="translate(268.960348, 65.582971)"><g/></g></g><g fill="#806c4d" fill-opacity="1"><g transform="translate(286.230028, 65.582971)"><g><path d="M 16.53125 -8.890625 C 14.601562 -8.890625 12.84375 -9.359375 11.25 -10.296875 C 9.65625 -11.234375 8.382812 -12.5 7.4375 -14.09375 C 6.5 -15.695312 6.03125 -17.460938 6.03125 -19.390625 C 6.03125 -21.328125 6.5 -23.085938 7.4375 -24.671875 C 8.382812 -26.265625 9.65625 -27.53125 11.25 -28.46875 C 12.84375 -29.40625 14.601562 -29.875 16.53125 -29.875 C 18.476562 -29.875 20.242188 -29.40625 21.828125 -28.46875 C 23.410156 -27.53125 24.671875 -26.265625 25.609375 -24.671875 C 26.554688 -23.085938 27.03125 -21.328125 27.03125 -19.390625 C 27.03125 -17.460938 26.554688 -15.695312 25.609375 -14.09375 C 24.671875 -12.5 23.410156 -11.234375 21.828125 -10.296875 C 20.242188 -9.359375 18.476562 -8.890625 16.53125 -8.890625 Z M 16.53125 -8.890625 "/></g></g></g><g fill="#806c4d" fill-opacity="1"><g transform="translate(320.030308, 65.582971)"><g/></g></g><g fill="#806c4d" fill-opacity="1"><g transform="translate(337.299989, 65.582971)"><g><path d="M 4.71875 0 L 4.71875 -48.875 L 23.484375 -48.875 C 26.984375 -48.875 29.90625 -48.328125 32.25 -47.234375 C 34.601562 -46.140625 36.367188 -44.632812 37.546875 -42.71875 C 38.734375 -40.800781 39.328125 -38.617188 39.328125 -36.171875 C 39.328125 -34.203125 38.953125 -32.515625 38.203125 -31.109375 C 37.460938 -29.703125 36.453125 -28.546875 35.171875 -27.640625 C 33.898438 -26.742188 32.453125 -26.101562 30.828125 -25.71875 L 30.828125 -25.328125 C 32.597656 -25.210938 34.273438 -24.664062 35.859375 -23.6875 C 37.453125 -22.71875 38.742188 -21.367188 39.734375 -19.640625 C 40.734375 -17.921875 41.234375 -15.847656 41.234375 -13.421875 C 41.234375 -10.835938 40.613281 -8.535156 39.375 -6.515625 C 38.132812 -4.492188 36.273438 -2.898438 33.796875 -1.734375 C 31.316406 -0.578125 28.207031 0 24.46875 0 Z M 13.453125 -7.25 L 23.1875 -7.25 C 26.351562 -7.25 28.675781 -7.867188 30.15625 -9.109375 C 31.632812 -10.359375 32.375 -11.988281 32.375 -14 C 32.375 -15.46875 32.007812 -16.773438 31.28125 -17.921875 C 30.5625 -19.066406 29.535156 -19.972656 28.203125 -20.640625 C 26.867188 -21.304688 25.285156 -21.640625 23.453125 -21.640625 L 13.453125 -21.640625 Z M 13.453125 -28.078125 L 22.53125 -28.078125 C 24.082031 -28.078125 25.46875 -28.359375 26.6875 -28.921875 C 27.914062 -29.492188 28.878906 -30.296875 29.578125 -31.328125 C 30.285156 -32.367188 30.640625 -33.613281 30.640625 -35.0625 C 30.640625 -36.988281 29.957031 -38.566406 28.59375 -39.796875 C 27.238281 -41.035156 25.257812 -41.65625 22.65625 -41.65625 L 13.453125 -41.65625 Z M 13.453125 -28.078125 "/></g></g></g><g fill="#806c4d" fill-opacity="1"><g transform="translate(382.055115, 65.582971)"><g><path d="M 4.71875 0 L 4.71875 -48.875 L 23.1875 -48.875 C 26.882812 -48.875 30.015625 -48.222656 32.578125 -46.921875 C 35.148438 -45.617188 37.101562 -43.789062 38.4375 -41.4375 C 39.769531 -39.09375 40.4375 -36.351562 40.4375 -33.21875 C 40.4375 -30.09375 39.757812 -27.378906 38.40625 -25.078125 C 37.050781 -22.785156 35.070312 -21.015625 32.46875 -19.765625 C 29.863281 -18.523438 26.691406 -17.90625 22.953125 -17.90625 L 9.84375 -17.90625 L 9.84375 -25.15625 L 22.078125 -25.15625 C 24.242188 -25.15625 26.023438 -25.472656 27.421875 -26.109375 C 28.816406 -26.742188 29.859375 -27.660156 30.546875 -28.859375 C 31.234375 -30.066406 31.578125 -31.519531 31.578125 -33.21875 C 31.578125 -34.96875 31.234375 -36.460938 30.546875 -37.703125 C 29.859375 -38.941406 28.804688 -39.882812 27.390625 -40.53125 C 25.984375 -41.1875 24.203125 -41.515625 22.046875 -41.515625 L 13.484375 -41.515625 L 13.484375 0 Z M 32.3125 0 L 20.5625 -22.140625 L 30.078125 -22.140625 L 42.046875 0 Z M 32.3125 0 "/></g></g></g><g fill="#806c4d" fill-opacity="1"><g transform="translate(426.482263, 65.582971)"><g><path d="M 4.71875 0 L 4.71875 -48.875 L 36.96875 -48.875 L 36.96875 -41.453125 L 13.484375 -41.453125 L 13.484375 -28.375 L 35.21875 -28.375 L 35.21875 -21.0625 L 13.484375 -21.0625 L 13.484375 -7.40625 L 37.0625 -7.40625 L 37.0625 0 Z M 4.71875 0 "/></g></g></g><g fill="#806c4d" fill-opacity="1"><g transform="translate(467.793534, 65.582971)"><g><path d="M 1.375 0 L 18.5 -48.875 L 29.578125 -48.875 L 47 0 L 37.421875 0 L 28.765625 -25.453125 C 27.910156 -28.097656 27.019531 -31.039062 26.09375 -34.28125 C 25.164062 -37.53125 24.128906 -41.265625 22.984375 -45.484375 L 24.953125 -45.484375 C 23.835938 -41.242188 22.832031 -37.488281 21.9375 -34.21875 C 21.039062 -30.957031 20.191406 -28.035156 19.390625 -25.453125 L 10.890625 0 Z M 11.375 -12 L 11.375 -19.09375 L 36.96875 -19.09375 L 36.96875 -12 Z M 11.375 -12 "/></g></g></g><g fill="#806c4d" fill-opacity="1"><g transform="translate(510.875439, 65.582971)"><g><path d="M 2.453125 -41.453125 L 2.453125 -48.875 L 41.390625 -48.875 L 41.390625 -41.453125 L 26.296875 -41.453125 L 26.296875 0 L 17.578125 0 L 17.578125 -41.453125 Z M 2.453125 -41.453125 "/></g></g></g><g fill="#806c4d" fill-opacity="1"><g transform="translate(555.466623, 65.582971)"><g><path d="M 4.71875 0 L 4.71875 -48.875 L 13.484375 -48.875 L 13.484375 -28.671875 L 36.140625 -28.671875 L 36.140625 -48.875 L 44.90625 -48.875 L 44.90625 0 L 36.140625 0 L 36.140625 -21.28125 L 13.484375 -21.28125 L 13.484375 0 Z M 4.71875 0 "/></g></g></g><g fill="#806c4d" fill-opacity="1"><g transform="translate(605.830367, 65.582971)"><g><path d="M 4.71875 0 L 4.71875 -48.875 L 36.96875 -48.875 L 36.96875 -41.453125 L 13.484375 -41.453125 L 13.484375 -28.375 L 35.21875 -28.375 L 35.21875 -21.0625 L 13.484375 -21.0625 L 13.484375 -7.40625 L 37.0625 -7.40625 L 37.0625 0 Z M 4.71875 0 "/></g></g></g><g fill="#806c4d" fill-opacity="1"><g transform="translate(647.141637, 65.582971)"><g/></g></g><g fill="#806c4d" fill-opacity="1"><g transform="translate(664.411271, 65.582971)"><g><path d="M 16.53125 -8.890625 C 14.601562 -8.890625 12.84375 -9.359375 11.25 -10.296875 C 9.65625 -11.234375 8.382812 -12.5 7.4375 -14.09375 C 6.5 -15.695312 6.03125 -17.460938 6.03125 -19.390625 C 6.03125 -21.328125 6.5 -23.085938 7.4375 -24.671875 C 8.382812 -26.265625 9.65625 -27.53125 11.25 -28.46875 C 12.84375 -29.40625 14.601562 -29.875 16.53125 -29.875 C 18.476562 -29.875 20.242188 -29.40625 21.828125 -28.46875 C 23.410156 -27.53125 24.671875 -26.265625 25.609375 -24.671875 C 26.554688 -23.085938 27.03125 -21.328125 27.03125 -19.390625 C 27.03125 -17.460938 26.554688 -15.695312 25.609375 -14.09375 C 24.671875 -12.5 23.410156 -11.234375 21.828125 -10.296875 C 20.242188 -9.359375 18.476562 -8.890625 16.53125 -8.890625 Z M 16.53125 -8.890625 "/></g></g></g><g fill="#806c4d" fill-opacity="1"><g transform="translate(698.211598, 65.582971)"><g/></g></g><g fill="#806c4d" fill-opacity="1"><g transform="translate(715.481232, 65.582971)"><g><path d="M 4.71875 0 L 4.71875 -48.875 L 23.1875 -48.875 C 26.882812 -48.875 30.015625 -48.222656 32.578125 -46.921875 C 35.148438 -45.617188 37.101562 -43.789062 38.4375 -41.4375 C 39.769531 -39.09375 40.4375 -36.351562 40.4375 -33.21875 C 40.4375 -30.09375 39.757812 -27.378906 38.40625 -25.078125 C 37.050781 -22.785156 35.070312 -21.015625 32.46875 -19.765625 C 29.863281 -18.523438 26.691406 -17.90625 22.953125 -17.90625 L 9.84375 -17.90625 L 9.84375 -25.15625 L 22.078125 -25.15625 C 24.242188 -25.15625 26.023438 -25.472656 27.421875 -26.109375 C 28.816406 -26.742188 29.859375 -27.660156 30.546875 -28.859375 C 31.234375 -30.066406 31.578125 -31.519531 31.578125 -33.21875 C 31.578125 -34.96875 31.234375 -36.460938 30.546875 -37.703125 C 29.859375 -38.941406 28.804688 -39.882812 27.390625 -40.53125 C 25.984375 -41.1875 24.203125 -41.515625 22.046875 -41.515625 L 13.484375 -41.515625 L 13.484375 0 Z M 32.3125 0 L 20.5625 -22.140625 L 30.078125 -22.140625 L 42.046875 0 Z M 32.3125 0 "/></g></g></g><g fill="#806c4d" fill-opacity="1"><g transform="translate(759.90838, 65.582971)"><g><path d="M 4.71875 0 L 4.71875 -48.875 L 36.96875 -48.875 L 36.96875 -41.453125 L 13.484375 -41.453125 L 13.484375 -28.375 L 35.21875 -28.375 L 35.21875 -21.0625 L 13.484375 -21.0625 L 13.484375 -7.40625 L 37.0625 -7.40625 L 37.0625 0 Z M 4.71875 0 "/></g></g></g><g fill="#806c4d" fill-opacity="1"><g transform="translate(801.219651, 65.582971)"><g><path d="M 25.65625 0.6875 C 21.34375 0.6875 17.484375 -0.316406 14.078125 -2.328125 C 10.679688 -4.335938 8.007812 -7.21875 6.0625 -10.96875 C 4.125 -14.71875 3.15625 -19.195312 3.15625 -24.40625 C 3.15625 -29.65625 4.128906 -34.15625 6.078125 -37.90625 C 8.035156 -41.65625 10.710938 -44.535156 14.109375 -46.546875 C 17.515625 -48.554688 21.363281 -49.5625 25.65625 -49.5625 C 28.363281 -49.5625 30.882812 -49.171875 33.21875 -48.390625 C 35.5625 -47.617188 37.644531 -46.5 39.46875 -45.03125 C 41.300781 -43.5625 42.804688 -41.769531 43.984375 -39.65625 C 45.160156 -37.550781 45.945312 -35.164062 46.34375 -32.5 L 37.515625 -32.5 C 37.234375 -33.96875 36.75 -35.269531 36.0625 -36.40625 C 35.375 -37.539062 34.507812 -38.503906 33.46875 -39.296875 C 32.425781 -40.097656 31.253906 -40.703125 29.953125 -41.109375 C 28.660156 -41.515625 27.269531 -41.71875 25.78125 -41.71875 C 23.050781 -41.71875 20.640625 -41.035156 18.546875 -39.671875 C 16.460938 -38.304688 14.835938 -36.332031 13.671875 -33.75 C 12.515625 -31.164062 11.9375 -28.050781 11.9375 -24.40625 C 11.9375 -20.726562 12.519531 -17.597656 13.6875 -15.015625 C 14.863281 -12.441406 16.488281 -10.488281 18.5625 -9.15625 C 20.644531 -7.820312 23.050781 -7.15625 25.78125 -7.15625 C 27.269531 -7.15625 28.65625 -7.351562 29.9375 -7.75 C 31.226562 -8.15625 32.394531 -8.75 33.4375 -9.53125 C 34.476562 -10.320312 35.351562 -11.289062 36.0625 -12.4375 C 36.769531 -13.59375 37.265625 -14.898438 37.546875 -16.359375 L 46.375 -16.359375 C 46.03125 -13.929688 45.289062 -11.691406 44.15625 -9.640625 C 43.03125 -7.585938 41.570312 -5.785156 39.78125 -4.234375 C 37.988281 -2.679688 35.898438 -1.472656 33.515625 -0.609375 C 31.128906 0.253906 28.507812 0.6875 25.65625 0.6875 Z M 25.65625 0.6875 "/></g></g></g><g fill="#806c4d" fill-opacity="1"><g transform="translate(851.255418, 65.582971)"><g><path d="M 25.6875 0.6875 C 21.394531 0.6875 17.546875 -0.316406 14.140625 -2.328125 C 10.742188 -4.335938 8.0625 -7.21875 6.09375 -10.96875 C 4.132812 -14.71875 3.15625 -19.195312 3.15625 -24.40625 C 3.15625 -29.65625 4.132812 -34.15625 6.09375 -37.90625 C 8.0625 -41.65625 10.742188 -44.535156 14.140625 -46.546875 C 17.546875 -48.554688 21.394531 -49.5625 25.6875 -49.5625 C 29.96875 -49.5625 33.800781 -48.554688 37.1875 -46.546875 C 40.582031 -44.535156 43.257812 -41.65625 45.21875 -37.90625 C 47.175781 -34.15625 48.15625 -29.65625 48.15625 -24.40625 C 48.15625 -19.195312 47.175781 -14.71875 45.21875 -10.96875 C 43.257812 -7.21875 40.582031 -4.335938 37.1875 -2.328125 C 33.800781 -0.316406 29.96875 0.6875 25.6875 0.6875 Z M 25.6875 -7.15625 C 28.332031 -7.15625 30.6875 -7.816406 32.75 -9.140625 C 34.8125 -10.460938 36.425781 -12.40625 37.59375 -14.96875 C 38.769531 -17.539062 39.359375 -20.6875 39.359375 -24.40625 C 39.359375 -28.144531 38.769531 -31.300781 37.59375 -33.875 C 36.425781 -36.457031 34.8125 -38.410156 32.75 -39.734375 C 30.6875 -41.054688 28.332031 -41.71875 25.6875 -41.71875 C 23.019531 -41.71875 20.648438 -41.050781 18.578125 -39.71875 C 16.515625 -38.382812 14.890625 -36.429688 13.703125 -33.859375 C 12.523438 -31.296875 11.9375 -28.144531 11.9375 -24.40625 C 11.9375 -20.6875 12.523438 -17.546875 13.703125 -14.984375 C 14.890625 -12.429688 16.515625 -10.488281 18.578125 -9.15625 C 20.648438 -7.820312 23.019531 -7.15625 25.6875 -7.15625 Z M 25.6875 -7.15625 "/></g></g></g><g fill="#806c4d" fill-opacity="1"><g transform="translate(903.324682, 65.582971)"><g><path d="M 4.71875 0 L 4.71875 -48.875 L 14.5 -48.875 L 31.453125 -21.875 C 32.109375 -20.84375 32.820312 -19.644531 33.59375 -18.28125 C 34.375 -16.914062 35.1875 -15.394531 36.03125 -13.71875 C 36.875 -12.050781 37.695312 -10.242188 38.5 -8.296875 L 37.515625 -7.8125 C 37.367188 -9.5625 37.242188 -11.382812 37.140625 -13.28125 C 37.046875 -15.1875 36.96875 -17 36.90625 -18.71875 C 36.851562 -20.445312 36.828125 -21.882812 36.828125 -23.03125 L 36.828125 -48.875 L 45.6875 -48.875 L 45.6875 0 L 35.875 0 L 20.59375 -24.296875 C 19.71875 -25.703125 18.847656 -27.148438 17.984375 -28.640625 C 17.117188 -30.140625 16.179688 -31.84375 15.171875 -33.75 C 14.171875 -35.65625 12.992188 -37.894531 11.640625 -40.46875 L 12.890625 -40.734375 C 13.046875 -38.347656 13.171875 -36.09375 13.265625 -33.96875 C 13.367188 -31.851562 13.445312 -29.96875 13.5 -28.3125 C 13.550781 -26.664062 13.578125 -25.34375 13.578125 -24.34375 L 13.578125 0 Z M 4.71875 0 "/></g></g></g><g fill="#806c4d" fill-opacity="1"><g transform="translate(954.475647, 65.582971)"><g><path d="M 4.71875 0 L 4.71875 -48.875 L 14.5 -48.875 L 31.453125 -21.875 C 32.109375 -20.84375 32.820312 -19.644531 33.59375 -18.28125 C 34.375 -16.914062 35.1875 -15.394531 36.03125 -13.71875 C 36.875 -12.050781 37.695312 -10.242188 38.5 -8.296875 L 37.515625 -7.8125 C 37.367188 -9.5625 37.242188 -11.382812 37.140625 -13.28125 C 37.046875 -15.1875 36.96875 -17 36.90625 -18.71875 C 36.851562 -20.445312 36.828125 -21.882812 36.828125 -23.03125 L 36.828125 -48.875 L 45.6875 -48.875 L 45.6875 0 L 35.875 0 L 20.59375 -24.296875 C 19.71875 -25.703125 18.847656 -27.148438 17.984375 -28.640625 C 17.117188 -30.140625 16.179688 -31.84375 15.171875 -33.75 C 14.171875 -35.65625 12.992188 -37.894531 11.640625 -40.46875 L 12.890625 -40.734375 C 13.046875 -38.347656 13.171875 -36.09375 13.265625 -33.96875 C 13.367188 -31.851562 13.445312 -29.96875 13.5 -28.3125 C 13.550781 -26.664062 13.578125 -25.34375 13.578125 -24.34375 L 13.578125 0 Z M 4.71875 0 "/></g></g></g><g fill="#806c4d" fill-opacity="1"><g transform="translate(1005.626517, 65.582971)"><g><path d="M 4.71875 0 L 4.71875 -48.875 L 36.96875 -48.875 L 36.96875 -41.453125 L 13.484375 -41.453125 L 13.484375 -28.375 L 35.21875 -28.375 L 35.21875 -21.0625 L 13.484375 -21.0625 L 13.484375 -7.40625 L 37.0625 -7.40625 L 37.0625 0 Z M 4.71875 0 "/></g></g></g><g fill="#806c4d" fill-opacity="1"><g transform="translate(1046.937788, 65.582971)"><g><path d="M 25.65625 0.6875 C 21.34375 0.6875 17.484375 -0.316406 14.078125 -2.328125 C 10.679688 -4.335938 8.007812 -7.21875 6.0625 -10.96875 C 4.125 -14.71875 3.15625 -19.195312 3.15625 -24.40625 C 3.15625 -29.65625 4.128906 -34.15625 6.078125 -37.90625 C 8.035156 -41.65625 10.710938 -44.535156 14.109375 -46.546875 C 17.515625 -48.554688 21.363281 -49.5625 25.65625 -49.5625 C 28.363281 -49.5625 30.882812 -49.171875 33.21875 -48.390625 C 35.5625 -47.617188 37.644531 -46.5 39.46875 -45.03125 C 41.300781 -43.5625 42.804688 -41.769531 43.984375 -39.65625 C 45.160156 -37.550781 45.945312 -35.164062 46.34375 -32.5 L 37.515625 -32.5 C 37.234375 -33.96875 36.75 -35.269531 36.0625 -36.40625 C 35.375 -37.539062 34.507812 -38.503906 33.46875 -39.296875 C 32.425781 -40.097656 31.253906 -40.703125 29.953125 -41.109375 C 28.660156 -41.515625 27.269531 -41.71875 25.78125 -41.71875 C 23.050781 -41.71875 20.640625 -41.035156 18.546875 -39.671875 C 16.460938 -38.304688 14.835938 -36.332031 13.671875 -33.75 C 12.515625 -31.164062 11.9375 -28.050781 11.9375 -24.40625 C 11.9375 -20.726562 12.519531 -17.597656 13.6875 -15.015625 C 14.863281 -12.441406 16.488281 -10.488281 18.5625 -9.15625 C 20.644531 -7.820312 23.050781 -7.15625 25.78125 -7.15625 C 27.269531 -7.15625 28.65625 -7.351562 29.9375 -7.75 C 31.226562 -8.15625 32.394531 -8.75 33.4375 -9.53125 C 34.476562 -10.320312 35.351562 -11.289062 36.0625 -12.4375 C 36.769531 -13.59375 37.265625 -14.898438 37.546875 -16.359375 L 46.375 -16.359375 C 46.03125 -13.929688 45.289062 -11.691406 44.15625 -9.640625 C 43.03125 -7.585938 41.570312 -5.785156 39.78125 -4.234375 C 37.988281 -2.679688 35.898438 -1.472656 33.515625 -0.609375 C 31.128906 0.253906 28.507812 0.6875 25.65625 0.6875 Z M 25.65625 0.6875 "/></g></g></g><g fill="#806c4d" fill-opacity="1"><g transform="translate(1096.973555, 65.582971)"><g><path d="M 2.453125 -41.453125 L 2.453125 -48.875 L 41.390625 -48.875 L 41.390625 -41.453125 L 26.296875 -41.453125 L 26.296875 0 L 17.578125 0 L 17.578125 -41.453125 Z M 2.453125 -41.453125 "/></g></g></g></g></g></svg>