<svg xmlns="http://www.w3.org/2000/svg" xmlns:xlink="http://www.w3.org/1999/xlink" width="2000" zoomAndPan="magnify" viewBox="0 0 1500 404.99999" height="540" preserveAspectRatio="xMidYMid meet" version="1.0"><defs><g/><clipPath id="0bea5b63b4"><rect x="0" width="1143" y="0" height="83"/></clipPath></defs><path fill="#a84a26" d="M 157.097656 20.425781 C 197.679688 20.347656 235.742188 38.101562 262.683594 67.179688 C 276.863281 82.484375 287.867188 100.433594 295.699219 121.035156 C 305.074219 145.691406 309.992188 170.929688 310.449219 196.753906 C 310.691406 210.554688 310.632812 225.761719 308.578125 239.90625 C 306.46875 254.449219 303.511719 267.507812 299.710938 279.078125 C 295.5 291.878906 289.28125 304.910156 281.0625 318.171875 C 253.875 362.035156 209.496094 384.964844 157.785156 385.066406 C 106.066406 385.160156 61.59375 362.402344 34.246094 318.640625 C 25.980469 305.402344 19.714844 292.394531 15.445312 279.617188 C 11.609375 268.054688 8.605469 255.003906 6.441406 240.46875 C 4.332031 226.335938 4.21875 211.125 4.410156 197.328125 C 4.769531 171.503906 9.59375 146.246094 18.875 121.550781 C 26.628906 100.917969 37.566406 82.929688 51.683594 67.582031 C 78.511719 38.402344 116.515625 20.496094 157.097656 20.425781 Z M 98.171875 74.511719 C 98.164062 74.371094 98.222656 74.265625 98.34375 74.195312 C 98.464844 74.125 98.582031 74.125 98.699219 74.199219 C 100.375 75.292969 101.566406 76.214844 102.269531 76.964844 C 112.621094 87.984375 117.3125 101.164062 116.34375 116.503906 C 116.242188 118.066406 116.027344 120.25 115.6875 123.066406 C 115.625 123.632812 115.726562 124.167969 116 124.671875 C 116.726562 126.003906 117.597656 127.15625 118.613281 128.136719 C 123.117188 132.464844 133.074219 142.34375 148.484375 157.777344 C 148.742188 158.035156 149.019531 158.179688 149.308594 158.210938 C 149.550781 158.238281 149.785156 158.214844 150.011719 158.140625 C 150.242188 158.066406 150.445312 157.949219 150.625 157.789062 C 150.800781 157.625 150.9375 157.433594 151.03125 157.214844 C 151.128906 156.996094 151.171875 156.765625 151.167969 156.527344 C 150.671875 115.796875 150.636719 75.371094 151.066406 35.246094 C 151.066406 34.980469 151.015625 34.726562 150.90625 34.484375 C 150.796875 34.238281 150.640625 34.03125 150.441406 33.855469 C 150.238281 33.683594 150.011719 33.558594 149.753906 33.484375 C 149.5 33.410156 149.238281 33.394531 148.976562 33.433594 C 139.464844 34.878906 133.761719 35.789062 131.875 36.164062 C 125.457031 37.433594 117.523438 39.941406 108.074219 43.6875 C 91.3125 50.363281 78.476562 60.390625 65.355469 72.125 C 65.199219 72.265625 65.074219 72.429688 64.984375 72.617188 C 64.894531 72.808594 64.84375 73.007812 64.828125 73.21875 C 64.816406 73.425781 64.84375 73.632812 64.910156 73.832031 C 64.976562 74.03125 65.082031 74.210938 65.21875 74.371094 C 66.632812 76 68.207031 77.695312 69.945312 79.453125 C 88.59375 98.113281 100.832031 110.378906 106.648438 116.253906 C 107.757812 117.367188 108.726562 117.980469 109.550781 118.085938 C 109.652344 118.097656 109.746094 118.089844 109.839844 118.054688 C 109.933594 118.019531 110.015625 117.964844 110.082031 117.890625 C 110.148438 117.816406 110.191406 117.734375 110.214844 117.640625 C 110.242188 117.542969 110.242188 117.449219 110.21875 117.355469 C 110.1875 117.230469 108.457031 114.347656 105.03125 108.703125 C 103.578125 106.304688 102.292969 102.695312 101.167969 97.875 C 99.53125 90.832031 98.53125 83.042969 98.171875 74.511719 Z M 216.652344 74.5 C 216.308594 83.027344 215.328125 90.804688 213.707031 97.84375 C 212.589844 102.652344 211.304688 106.257812 209.851562 108.660156 C 206.441406 114.292969 204.71875 117.175781 204.691406 117.296875 C 204.667969 117.390625 204.667969 117.488281 204.691406 117.582031 C 204.714844 117.675781 204.761719 117.761719 204.828125 117.835938 C 204.894531 117.90625 204.972656 117.960938 205.066406 117.996094 C 205.160156 118.03125 205.257812 118.042969 205.355469 118.03125 C 206.179688 117.921875 207.144531 117.3125 208.246094 116.195312 C 214.050781 110.320312 226.25 98.054688 244.847656 79.398438 C 246.585938 77.644531 248.15625 75.957031 249.5625 74.328125 C 249.703125 74.167969 249.804688 73.988281 249.871094 73.789062 C 249.941406 73.589844 249.96875 73.386719 249.953125 73.175781 C 249.941406 72.964844 249.890625 72.765625 249.796875 72.574219 C 249.707031 72.386719 249.582031 72.21875 249.425781 72.078125 C 236.304688 60.378906 223.480469 50.386719 206.730469 43.746094 C 197.289062 40.015625 189.359375 37.519531 182.953125 36.257812 C 181.070312 35.890625 175.378906 34.992188 165.875 33.558594 C 165.609375 33.523438 165.351562 33.539062 165.097656 33.613281 C 164.84375 33.6875 164.617188 33.8125 164.417969 33.988281 C 164.21875 34.164062 164.0625 34.371094 163.957031 34.613281 C 163.847656 34.855469 163.792969 35.109375 163.796875 35.371094 C 164.277344 75.4375 164.296875 115.800781 163.855469 156.46875 C 163.851562 156.707031 163.898438 156.9375 163.992188 157.15625 C 164.089844 157.375 164.226562 157.566406 164.402344 157.726562 C 164.582031 157.886719 164.785156 158.003906 165.011719 158.078125 C 165.242188 158.148438 165.472656 158.171875 165.710938 158.144531 C 166.003906 158.113281 166.277344 157.96875 166.539062 157.707031 C 181.902344 142.28125 191.828125 132.40625 196.316406 128.078125 C 197.332031 127.101562 198.207031 125.945312 198.929688 124.613281 C 199.199219 124.109375 199.296875 123.574219 199.230469 123.007812 C 198.894531 120.203125 198.675781 118.019531 198.574219 116.457031 C 197.582031 101.140625 202.246094 87.976562 212.570312 76.964844 C 213.273438 76.214844 214.460938 75.292969 216.125 74.199219 C 216.242188 74.128906 216.359375 74.125 216.480469 74.191406 C 216.597656 74.261719 216.65625 74.363281 216.652344 74.5 Z M 106.121094 214.636719 C 106.238281 214.570312 106.335938 214.480469 106.414062 214.371094 C 106.496094 214.265625 106.546875 214.144531 106.574219 214.011719 C 106.601562 213.882812 106.601562 213.75 106.574219 213.617188 C 106.542969 213.488281 106.488281 213.367188 106.410156 213.261719 C 101.394531 206.386719 98.292969 198.953125 97.105469 190.960938 C 96.210938 184.980469 95.371094 178.738281 94.582031 172.230469 C 94.570312 172.132812 94.570312 172.039062 94.585938 171.941406 C 94.597656 171.847656 94.625 171.753906 94.660156 171.664062 C 94.699219 171.574219 94.746094 171.492188 94.804688 171.417969 C 94.863281 171.339844 94.929688 171.273438 95.007812 171.214844 C 95.082031 171.152344 95.164062 171.105469 95.253906 171.070312 C 95.34375 171.03125 95.4375 171.003906 95.53125 170.992188 C 95.628906 170.976562 95.722656 170.976562 95.820312 170.988281 C 95.914062 171 96.007812 171.023438 96.097656 171.058594 C 96.632812 171.28125 97.308594 171.8125 98.128906 172.652344 C 107.871094 182.710938 112.769531 194.6875 112.820312 208.589844 C 112.835938 211.910156 112.695312 215.511719 112.398438 219.398438 C 112.347656 220.0625 112.433594 220.707031 112.65625 221.332031 C 112.878906 221.957031 113.222656 222.507812 113.679688 222.988281 C 122.492188 232.125 132.183594 241.78125 142.757812 251.949219 C 144.6875 253.796875 146.382812 256.160156 148.117188 257.753906 C 148.449219 258.0625 148.828125 258.242188 149.246094 258.292969 C 149.664062 258.34375 150.027344 258.257812 150.34375 258.03125 C 150.6875 257.785156 150.859375 257.332031 150.859375 256.675781 C 150.851562 221.429688 150.800781 202.617188 150.707031 200.242188 C 150.371094 191.277344 147.945312 182.558594 143.425781 174.085938 C 140.339844 168.304688 134.671875 162.273438 129.855469 157.273438 C 127.914062 155.261719 126.234375 154.320312 124.820312 154.449219 C 122.464844 154.671875 119.210938 154.710938 115.058594 154.5625 C 100.367188 154.066406 88.09375 148.574219 78.238281 138.082031 C 78.003906 137.835938 77.957031 137.5625 78.105469 137.253906 C 78.253906 136.949219 78.496094 136.8125 78.832031 136.84375 C 86.433594 137.476562 94.261719 138.488281 102.3125 139.882812 C 106.292969 140.582031 108.75 141.730469 112.957031 143.378906 C 113.257812 143.5 113.523438 143.445312 113.753906 143.222656 C 113.988281 142.996094 114.046875 142.730469 113.933594 142.429688 C 113.695312 141.792969 113.136719 141.027344 112.246094 140.132812 C 101.035156 128.824219 91.566406 119.335938 83.835938 111.664062 C 73.523438 101.433594 65.457031 92.613281 56.269531 84.523438 C 56.148438 84.417969 56.011719 84.34375 55.859375 84.292969 C 55.707031 84.242188 55.554688 84.222656 55.394531 84.238281 C 55.234375 84.25 55.082031 84.292969 54.941406 84.367188 C 54.796875 84.441406 54.675781 84.539062 54.574219 84.664062 C 45.808594 95.296875 38.652344 108.96875 38.089844 122.605469 C 37.46875 137.585938 42.398438 150.785156 52.875 162.203125 C 57.210938 166.921875 70.351562 180.0625 92.300781 201.628906 C 94.695312 203.976562 97.308594 206.632812 100.144531 209.601562 C 102.625 212.183594 104.335938 213.90625 105.285156 214.761719 C 105.445312 214.90625 105.617188 214.925781 105.800781 214.820312 Z M 208.671875 214.625 L 208.992188 214.808594 C 209.175781 214.914062 209.347656 214.894531 209.507812 214.75 C 210.449219 213.894531 212.15625 212.179688 214.636719 209.601562 C 217.464844 206.632812 220.074219 203.976562 222.46875 201.628906 C 244.378906 180.070312 257.5 166.933594 261.835938 162.214844 C 272.289062 150.804688 277.203125 137.617188 276.578125 122.652344 C 276.015625 109.027344 268.855469 95.363281 260.09375 84.753906 C 259.988281 84.628906 259.867188 84.53125 259.722656 84.457031 C 259.582031 84.382812 259.429688 84.339844 259.269531 84.324219 C 259.109375 84.3125 258.953125 84.332031 258.800781 84.382812 C 258.652344 84.433594 258.515625 84.511719 258.394531 84.617188 C 249.21875 92.703125 241.167969 101.511719 230.878906 111.746094 C 223.152344 119.414062 213.695312 128.902344 202.5 140.203125 C 201.621094 141.097656 201.0625 141.863281 200.824219 142.496094 C 200.710938 142.800781 200.769531 143.066406 201.003906 143.289062 C 201.234375 143.515625 201.5 143.570312 201.800781 143.449219 C 205.996094 141.796875 208.453125 140.652344 212.433594 139.949219 C 220.46875 138.550781 228.285156 137.535156 235.878906 136.898438 C 236.210938 136.867188 236.453125 137.003906 236.601562 137.304688 C 236.753906 137.605469 236.714844 137.878906 236.488281 138.125 C 226.644531 148.617188 214.382812 154.117188 199.699219 154.621094 C 195.554688 154.765625 192.304688 154.730469 189.949219 154.507812 C 188.535156 154.382812 186.859375 155.324219 184.925781 157.328125 C 180.109375 162.328125 174.453125 168.363281 171.378906 174.144531 C 166.867188 182.609375 164.445312 191.320312 164.117188 200.273438 C 164.027344 202.652344 163.984375 221.445312 163.992188 256.652344 C 163.992188 257.3125 164.164062 257.761719 164.507812 258.007812 C 164.820312 258.234375 165.1875 258.324219 165.605469 258.269531 C 166.023438 258.21875 166.398438 258.039062 166.734375 257.730469 C 168.464844 256.136719 170.164062 253.773438 172.078125 251.925781 C 182.640625 241.765625 192.320312 232.113281 201.121094 222.976562 C 201.582031 222.496094 201.921875 221.945312 202.140625 221.316406 C 202.363281 220.691406 202.449219 220.046875 202.394531 219.386719 C 202.097656 215.507812 201.957031 211.910156 201.972656 208.589844 C 202.015625 194.703125 206.902344 182.738281 216.628906 172.6875 C 217.449219 171.847656 218.125 171.316406 218.660156 171.09375 C 218.75 171.058594 218.84375 171.035156 218.9375 171.023438 C 219.03125 171.011719 219.128906 171.011719 219.222656 171.027344 C 219.316406 171.039062 219.410156 171.066406 219.5 171.101562 C 219.585938 171.140625 219.667969 171.1875 219.746094 171.246094 C 219.820312 171.304688 219.890625 171.371094 219.949219 171.445312 C 220.007812 171.523438 220.054688 171.605469 220.09375 171.691406 C 220.128906 171.78125 220.15625 171.871094 220.171875 171.964844 C 220.183594 172.0625 220.1875 172.15625 220.175781 172.253906 C 219.386719 178.761719 218.550781 185 217.664062 190.972656 C 216.476562 198.957031 213.382812 206.386719 208.382812 213.261719 C 208.304688 213.367188 208.253906 213.484375 208.222656 213.617188 C 208.195312 213.746094 208.195312 213.875 208.222656 214.007812 C 208.25 214.136719 208.304688 214.253906 208.382812 214.363281 C 208.460938 214.46875 208.554688 214.558594 208.671875 214.625 Z M 204.679688 319.203125 C 205.816406 318.636719 207.203125 317.503906 208.832031 315.808594 C 212.5625 311.914062 217.148438 307.320312 222.585938 302.019531 C 239.582031 285.445312 255.734375 268.984375 281.589844 242.921875 C 291.660156 232.769531 296.800781 220.429688 297.003906 205.90625 C 297.085938 199.5625 297.304688 194.480469 296.640625 189.242188 C 295.777344 182.484375 295.433594 171.839844 293.828125 163.050781 C 292.773438 157.292969 292.191406 154.160156 292.085938 153.648438 C 292.0625 153.550781 292.03125 153.460938 291.988281 153.375 C 291.941406 153.289062 291.886719 153.210938 291.824219 153.136719 C 291.757812 153.066406 291.6875 153.003906 291.605469 152.949219 C 291.523438 152.898438 291.4375 152.855469 291.347656 152.824219 C 291.257812 152.792969 291.164062 152.773438 291.066406 152.765625 C 290.972656 152.757812 290.875 152.765625 290.78125 152.78125 C 290.6875 152.800781 290.597656 152.832031 290.511719 152.871094 C 290.425781 152.914062 290.34375 152.964844 290.273438 153.027344 C 289.101562 154.015625 287.878906 155.144531 286.601562 156.421875 C 284.039062 159 268.445312 174.53125 239.8125 203.015625 C 237.414062 205.402344 235.707031 207.59375 233.066406 210.496094 C 232.964844 210.609375 232.914062 210.742188 232.90625 210.894531 C 232.902344 211.046875 232.945312 211.183594 233.035156 211.304688 C 233.128906 211.425781 233.25 211.507812 233.402344 211.542969 C 233.550781 211.582031 233.695312 211.570312 233.835938 211.503906 C 245.570312 205.828125 258.476562 203.898438 271.988281 202.660156 C 272.109375 202.648438 272.226562 202.667969 272.339844 202.71875 C 272.449219 202.765625 272.542969 202.839844 272.617188 202.933594 C 272.691406 203.03125 272.738281 203.140625 272.757812 203.261719 C 272.777344 203.382812 272.765625 203.5 272.722656 203.613281 C 272.585938 204.019531 272.367188 204.375 272.070312 204.679688 C 258.957031 218.214844 243.164062 222.136719 224.40625 220.085938 C 223.871094 220.027344 223.347656 220.085938 222.839844 220.265625 C 222.332031 220.445312 221.886719 220.726562 221.503906 221.105469 C 209.347656 233.355469 197.796875 245.285156 185.914062 256.941406 C 181.515625 261.253906 178.652344 264.246094 177.320312 265.921875 C 168.953125 276.445312 164.621094 288.472656 164.324219 302.007812 C 163.910156 321.324219 163.808594 339.808594 164.015625 357.457031 C 164.015625 357.652344 164.058594 357.839844 164.140625 358.015625 C 164.21875 358.195312 164.332031 358.347656 164.480469 358.476562 C 164.625 358.605469 164.789062 358.699219 164.972656 358.757812 C 165.160156 358.816406 165.347656 358.832031 165.539062 358.8125 C 166.046875 358.742188 166.425781 358.550781 166.6875 358.238281 C 169.347656 355.046875 172.15625 352.128906 175.105469 349.472656 C 181.140625 344.070312 186.773438 337.53125 193.472656 331.40625 C 194.8125 330.191406 196.222656 328.21875 196.15625 326.660156 C 195.796875 318.554688 195.851562 312.753906 196.316406 309.257812 C 198.035156 296.539062 203.710938 286.027344 213.339844 277.714844 C 213.554688 277.53125 213.792969 277.503906 214.046875 277.632812 C 214.300781 277.761719 214.414062 277.96875 214.394531 278.253906 C 213.742188 285.457031 212.695312 293.0625 211.25 301.066406 C 210.136719 307.214844 206.972656 313.789062 204.183594 318.675781 C 204.09375 318.835938 204.113281 318.984375 204.238281 319.121094 C 204.363281 319.253906 204.511719 319.28125 204.679688 319.203125 Z M 101.71875 278.148438 C 103.125 279.074219 104.433594 280.226562 105.640625 281.601562 C 116.605469 294.023438 120.4375 308.617188 118.832031 324.949219 C 118.363281 329.722656 121.539062 331.144531 124.335938 333.976562 C 137.148438 346.917969 145.042969 354.941406 148.023438 358.054688 C 148.203125 358.238281 148.410156 358.378906 148.648438 358.476562 C 148.882812 358.570312 149.132812 358.613281 149.386719 358.601562 C 149.644531 358.589844 149.886719 358.527344 150.113281 358.414062 C 150.34375 358.296875 150.535156 358.140625 150.699219 357.9375 C 150.828125 357.785156 150.894531 357.515625 150.902344 357.125 C 151.050781 349.804688 151.058594 334.707031 150.925781 311.828125 C 150.867188 301.359375 150.355469 294.210938 149.402344 290.386719 C 147.65625 283.382812 144.890625 276.753906 141.097656 270.5 C 139.492188 267.851562 132.757812 260.570312 120.898438 248.648438 C 112.269531 239.976562 102.953125 230.65625 92.941406 220.691406 C 92.644531 220.398438 92.300781 220.183594 91.90625 220.050781 C 91.511719 219.914062 91.105469 219.878906 90.695312 219.9375 C 74.292969 222.171875 58.175781 218.410156 45.753906 207.410156 C 44.277344 206.101562 43.261719 204.855469 42.710938 203.671875 C 42.675781 203.589844 42.65625 203.503906 42.664062 203.417969 C 42.671875 203.328125 42.699219 203.246094 42.746094 203.171875 C 42.796875 203.097656 42.863281 203.039062 42.941406 203 C 43.019531 202.960938 43.105469 202.941406 43.195312 202.949219 C 52.300781 203.46875 61.300781 204.871094 70.183594 207.15625 C 74.214844 208.199219 78.054688 209.914062 81.703125 212.308594 C 81.835938 212.394531 81.980469 212.429688 82.140625 212.414062 C 82.296875 212.398438 82.433594 212.332031 82.550781 212.222656 C 82.664062 212.113281 82.730469 211.980469 82.753906 211.820312 C 82.773438 211.664062 82.746094 211.515625 82.664062 211.378906 C 81.664062 209.6875 80.371094 208.09375 78.789062 206.59375 C 75.398438 203.390625 64.746094 192.695312 46.832031 174.511719 C 40.945312 168.535156 34.316406 162.617188 28.328125 156.6875 C 27.058594 155.425781 25.800781 154.421875 24.554688 153.679688 C 24.421875 153.601562 24.277344 153.554688 24.121094 153.542969 C 23.964844 153.53125 23.816406 153.554688 23.671875 153.613281 C 23.527344 153.671875 23.402344 153.757812 23.296875 153.875 C 23.191406 153.992188 23.117188 154.125 23.074219 154.277344 C 20.65625 162.925781 20.023438 169.199219 18.832031 180.417969 C 18.242188 185.871094 17.886719 192.507812 17.765625 200.332031 C 17.617188 209.058594 18.269531 215.652344 19.714844 220.121094 C 22.78125 229.585938 27.160156 237.1875 32.847656 242.921875 C 60.699219 270.992188 80.625 290.183594 107.5 317.253906 C 107.890625 317.644531 108.351562 318.019531 108.886719 318.378906 C 109.128906 318.535156 109.363281 318.523438 109.585938 318.339844 C 109.8125 318.160156 109.871094 317.9375 109.769531 317.664062 C 108.828125 315.316406 107.519531 312.296875 105.835938 308.605469 C 104.574219 305.828125 103.449219 300.941406 102.464844 293.945312 C 101.347656 286.128906 100.699219 281.097656 100.523438 278.847656 C 100.5 278.527344 100.625 278.289062 100.902344 278.125 C 101.179688 277.964844 101.449219 277.972656 101.71875 278.148438 Z M 46.957031 306.941406 C 55.773438 307.925781 62.113281 308.660156 65.976562 309.144531 C 71.742188 309.847656 77.363281 311.511719 82.835938 314.132812 C 83.164062 314.28125 83.472656 314.25 83.761719 314.039062 C 84.054688 313.832031 84.179688 313.546875 84.144531 313.191406 C 84.074219 312.589844 83.703125 311.953125 83.03125 311.289062 C 64.023438 292.488281 45.914062 273.800781 24.796875 253.453125 C 24.238281 252.917969 23.761719 252.652344 23.371094 252.660156 C 23.234375 252.667969 23.101562 252.703125 22.980469 252.769531 C 22.855469 252.835938 22.75 252.929688 22.664062 253.046875 C 22.582031 253.164062 22.523438 253.292969 22.492188 253.441406 C 22.460938 253.585938 22.460938 253.730469 22.488281 253.878906 C 28.386719 284.207031 43.941406 316.09375 66.433594 337.246094 C 85.351562 355.046875 108.480469 366.109375 135.820312 370.429688 C 137.539062 370.699219 138.839844 370.679688 139.71875 370.375 C 139.820312 370.339844 139.917969 370.292969 140.007812 370.230469 C 140.097656 370.171875 140.179688 370.101562 140.25 370.023438 C 140.324219 369.941406 140.382812 369.851562 140.433594 369.757812 C 140.484375 369.660156 140.519531 369.5625 140.542969 369.457031 C 140.566406 369.351562 140.574219 369.242188 140.574219 369.136719 C 140.570312 369.027344 140.550781 368.921875 140.519531 368.820312 C 140.488281 368.714844 140.445312 368.617188 140.390625 368.527344 C 140.335938 368.433594 140.269531 368.347656 140.191406 368.273438 C 127.089844 355.527344 113.628906 342.035156 99.800781 327.792969 C 97.027344 324.925781 95.789062 324.320312 91.820312 324.675781 C 74.84375 326.175781 58.164062 320.523438 46.53125 307.753906 C 46.386719 307.585938 46.363281 307.402344 46.46875 307.203125 C 46.570312 307.003906 46.734375 306.917969 46.957031 306.941406 Z M 267.925781 306.894531 C 268.152344 306.871094 268.3125 306.957031 268.417969 307.15625 C 268.519531 307.355469 268.5 307.539062 268.351562 307.710938 C 256.730469 320.488281 240.054688 326.152344 223.066406 324.664062 C 219.097656 324.320312 217.859375 324.925781 215.082031 327.792969 C 201.265625 342.046875 187.804688 355.558594 174.707031 368.320312 C 174.628906 368.394531 174.5625 368.480469 174.503906 368.570312 C 174.449219 368.664062 174.40625 368.761719 174.375 368.863281 C 174.34375 368.96875 174.328125 369.074219 174.324219 369.183594 C 174.320312 369.289062 174.328125 369.394531 174.351562 369.5 C 174.375 369.605469 174.414062 369.707031 174.460938 369.804688 C 174.511719 369.898438 174.574219 369.988281 174.644531 370.066406 C 174.714844 370.148438 174.796875 370.21875 174.886719 370.277344 C 174.976562 370.335938 175.074219 370.382812 175.175781 370.417969 C 176.054688 370.726562 177.355469 370.746094 179.074219 370.476562 C 206.421875 366.132812 229.554688 355.046875 248.472656 337.222656 C 270.957031 316.046875 286.488281 284.136719 292.371094 253.796875 C 292.402344 253.648438 292.398438 253.503906 292.367188 253.355469 C 292.335938 253.210938 292.277344 253.078125 292.191406 252.960938 C 292.105469 252.84375 292 252.753906 291.875 252.6875 C 291.75 252.621094 291.617188 252.585938 291.476562 252.582031 C 291.085938 252.574219 290.613281 252.835938 290.054688 253.371094 C 268.949219 273.746094 250.847656 292.453125 231.839844 311.265625 C 231.167969 311.9375 230.796875 312.578125 230.726562 313.179688 C 230.695312 313.539062 230.824219 313.820312 231.117188 314.027344 C 231.414062 314.234375 231.722656 314.261719 232.046875 314.109375 C 237.523438 311.488281 243.144531 309.820312 248.910156 309.109375 C 252.769531 308.625 259.109375 307.890625 267.925781 306.894531 Z M 267.925781 306.894531 " fill-opacity="1" fill-rule="nonzero"/><path fill="#a84a26" d="M 192.953125 57.253906 C 193.425781 57.574219 193.855469 57.953125 194.238281 58.386719 C 194.621094 58.820312 194.949219 59.304688 195.230469 59.835938 C 195.507812 60.367188 195.726562 60.933594 195.890625 61.542969 C 196.050781 62.152344 196.152344 62.785156 196.195312 63.449219 C 196.234375 64.109375 196.210938 64.785156 196.128906 65.472656 C 196.046875 66.164062 195.902344 66.855469 195.699219 67.542969 C 195.496094 68.234375 195.234375 68.914062 194.917969 69.578125 C 194.605469 70.246094 194.238281 70.886719 193.820312 71.5 C 193.40625 72.113281 192.945312 72.691406 192.445312 73.234375 C 191.945312 73.773438 191.410156 74.265625 190.847656 74.710938 C 190.28125 75.15625 189.691406 75.546875 189.082031 75.878906 C 188.472656 76.214844 187.855469 76.484375 187.226562 76.691406 C 186.597656 76.902344 185.96875 77.042969 185.34375 77.117188 C 184.71875 77.191406 184.109375 77.199219 183.511719 77.140625 C 182.917969 77.078125 182.34375 76.949219 181.800781 76.757812 C 181.253906 76.5625 180.746094 76.304688 180.269531 75.984375 C 179.796875 75.664062 179.371094 75.285156 178.988281 74.851562 C 178.605469 74.417969 178.273438 73.933594 177.996094 73.402344 C 177.71875 72.871094 177.496094 72.300781 177.335938 71.695312 C 177.171875 71.085938 177.070312 70.453125 177.03125 69.789062 C 176.992188 69.128906 177.011719 68.453125 177.09375 67.761719 C 177.179688 67.074219 177.320312 66.382812 177.523438 65.691406 C 177.730469 65.003906 177.988281 64.324219 178.304688 63.660156 C 178.621094 62.992188 178.988281 62.351562 179.402344 61.738281 C 179.820312 61.121094 180.277344 60.546875 180.777344 60.003906 C 181.277344 59.464844 181.8125 58.972656 182.378906 58.523438 C 182.945312 58.078125 183.53125 57.691406 184.140625 57.355469 C 184.75 57.023438 185.367188 56.753906 185.996094 56.546875 C 186.628906 56.335938 187.253906 56.195312 187.878906 56.121094 C 188.503906 56.042969 189.113281 56.039062 189.710938 56.097656 C 190.308594 56.160156 190.878906 56.285156 191.425781 56.480469 C 191.96875 56.675781 192.480469 56.933594 192.953125 57.253906 Z M 192.953125 57.253906 " fill-opacity="1" fill-rule="nonzero"/><path fill="#a84a26" d="M 121.601562 57.75 C 122.058594 57.410156 122.550781 57.132812 123.082031 56.914062 C 123.613281 56.695312 124.175781 56.542969 124.761719 56.453125 C 125.351562 56.363281 125.957031 56.34375 126.578125 56.386719 C 127.199219 56.429688 127.828125 56.542969 128.460938 56.714844 C 129.089844 56.890625 129.714844 57.128906 130.332031 57.429688 C 130.949219 57.730469 131.546875 58.085938 132.125 58.5 C 132.707031 58.914062 133.253906 59.375 133.773438 59.882812 C 134.289062 60.394531 134.769531 60.941406 135.207031 61.53125 C 135.644531 62.117188 136.035156 62.734375 136.375 63.375 C 136.714844 64.019531 137 64.675781 137.230469 65.347656 C 137.460938 66.019531 137.632812 66.695312 137.742188 67.371094 C 137.855469 68.050781 137.90625 68.714844 137.890625 69.371094 C 137.878906 70.027344 137.804688 70.660156 137.671875 71.269531 C 137.535156 71.875 137.339844 72.449219 137.089844 72.988281 C 136.835938 73.527344 136.527344 74.019531 136.167969 74.46875 C 135.804688 74.914062 135.398438 75.308594 134.941406 75.648438 C 134.488281 75.988281 133.992188 76.265625 133.460938 76.484375 C 132.929688 76.703125 132.371094 76.855469 131.78125 76.945312 C 131.191406 77.035156 130.585938 77.054688 129.964844 77.011719 C 129.34375 76.96875 128.71875 76.855469 128.085938 76.679688 C 127.453125 76.507812 126.828125 76.269531 126.210938 75.96875 C 125.59375 75.667969 124.996094 75.3125 124.417969 74.898438 C 123.839844 74.484375 123.289062 74.023438 122.773438 73.515625 C 122.253906 73.003906 121.777344 72.457031 121.335938 71.867188 C 120.898438 71.28125 120.511719 70.664062 120.167969 70.023438 C 119.828125 69.378906 119.542969 68.722656 119.3125 68.050781 C 119.082031 67.378906 118.910156 66.703125 118.800781 66.023438 C 118.691406 65.347656 118.640625 64.683594 118.652344 64.027344 C 118.664062 63.371094 118.738281 62.738281 118.875 62.128906 C 119.007812 61.523438 119.203125 60.949219 119.457031 60.410156 C 119.710938 59.871094 120.015625 59.378906 120.378906 58.929688 C 120.738281 58.484375 121.148438 58.089844 121.601562 57.75 Z M 121.601562 57.75 " fill-opacity="1" fill-rule="nonzero"/><path fill="#a84a26" d="M 51.128906 113.96875 C 51.574219 113.628906 52.0625 113.351562 52.589844 113.132812 C 53.117188 112.914062 53.671875 112.761719 54.253906 112.671875 C 54.839844 112.585938 55.441406 112.5625 56.0625 112.609375 C 56.683594 112.65625 57.3125 112.765625 57.945312 112.941406 C 58.578125 113.117188 59.203125 113.359375 59.824219 113.660156 C 60.445312 113.960938 61.050781 114.320312 61.632812 114.734375 C 62.21875 115.148438 62.773438 115.613281 63.300781 116.125 C 63.828125 116.636719 64.3125 117.1875 64.761719 117.777344 C 65.210938 118.367188 65.609375 118.984375 65.960938 119.628906 C 66.3125 120.273438 66.609375 120.933594 66.851562 121.609375 C 67.09375 122.285156 67.277344 122.960938 67.398438 123.640625 C 67.523438 124.320312 67.585938 124.988281 67.585938 125.644531 C 67.585938 126.300781 67.523438 126.933594 67.402344 127.542969 C 67.277344 128.15625 67.09375 128.730469 66.851562 129.269531 C 66.609375 129.808594 66.3125 130.300781 65.960938 130.75 C 65.609375 131.199219 65.210938 131.59375 64.761719 131.933594 C 64.316406 132.273438 63.828125 132.550781 63.300781 132.769531 C 62.777344 132.988281 62.21875 133.140625 61.636719 133.230469 C 61.050781 133.316406 60.449219 133.339844 59.828125 133.292969 C 59.207031 133.25 58.578125 133.136719 57.945312 132.960938 C 57.3125 132.785156 56.6875 132.542969 56.066406 132.242188 C 55.445312 131.941406 54.84375 131.582031 54.257812 131.167969 C 53.671875 130.753906 53.117188 130.289062 52.589844 129.777344 C 52.0625 129.265625 51.578125 128.714844 51.128906 128.125 C 50.683594 127.535156 50.28125 126.917969 49.929688 126.273438 C 49.578125 125.628906 49.28125 124.96875 49.039062 124.292969 C 48.796875 123.621094 48.613281 122.941406 48.492188 122.261719 C 48.367188 121.585938 48.304688 120.914062 48.304688 120.257812 C 48.304688 119.601562 48.367188 118.96875 48.492188 118.359375 C 48.613281 117.746094 48.796875 117.171875 49.039062 116.632812 C 49.28125 116.09375 49.578125 115.601562 49.929688 115.152344 C 50.28125 114.703125 50.679688 114.308594 51.128906 113.96875 Z M 51.128906 113.96875 " fill-opacity="1" fill-rule="nonzero"/><path fill="#a84a26" d="M 263.753906 113.875 C 264.214844 114.21875 264.625 114.617188 264.988281 115.070312 C 265.351562 115.523438 265.660156 116.023438 265.910156 116.570312 C 266.164062 117.113281 266.355469 117.695312 266.488281 118.316406 C 266.621094 118.933594 266.691406 119.574219 266.699219 120.242188 C 266.710938 120.90625 266.65625 121.582031 266.539062 122.269531 C 266.421875 122.960938 266.242188 123.644531 266.003906 124.328125 C 265.765625 125.015625 265.472656 125.683594 265.125 126.335938 C 264.773438 126.992188 264.375 127.617188 263.929688 128.214844 C 263.480469 128.8125 262.992188 129.371094 262.464844 129.890625 C 261.9375 130.410156 261.378906 130.882812 260.789062 131.304688 C 260.199219 131.726562 259.589844 132.089844 258.964844 132.394531 C 258.335938 132.703125 257.703125 132.945312 257.0625 133.125 C 256.421875 133.304688 255.785156 133.417969 255.15625 133.464844 C 254.523438 133.511719 253.910156 133.492188 253.316406 133.40625 C 252.722656 133.316406 252.15625 133.164062 251.617188 132.941406 C 251.078125 132.722656 250.582031 132.441406 250.121094 132.097656 C 249.664062 131.753906 249.253906 131.355469 248.890625 130.902344 C 248.527344 130.449219 248.21875 129.949219 247.964844 129.402344 C 247.714844 128.855469 247.519531 128.273438 247.386719 127.65625 C 247.253906 127.039062 247.183594 126.398438 247.175781 125.730469 C 247.167969 125.066406 247.222656 124.386719 247.339844 123.699219 C 247.457031 123.011719 247.636719 122.324219 247.871094 121.640625 C 248.109375 120.957031 248.402344 120.289062 248.753906 119.632812 C 249.101562 118.980469 249.5 118.355469 249.949219 117.757812 C 250.398438 117.160156 250.882812 116.597656 251.414062 116.078125 C 251.941406 115.558594 252.5 115.089844 253.089844 114.667969 C 253.679688 114.246094 254.285156 113.882812 254.914062 113.574219 C 255.539062 113.269531 256.175781 113.027344 256.816406 112.84375 C 257.457031 112.664062 258.09375 112.550781 258.722656 112.503906 C 259.351562 112.457031 259.964844 112.476562 260.5625 112.566406 C 261.15625 112.65625 261.722656 112.808594 262.261719 113.027344 C 262.796875 113.25 263.296875 113.53125 263.753906 113.875 Z M 263.753906 113.875 " fill-opacity="1" fill-rule="nonzero"/><path fill="#a84a26" d="M 123.851562 191.519531 C 124.324219 191.191406 124.832031 190.929688 125.378906 190.730469 C 125.921875 190.527344 126.496094 190.394531 127.09375 190.328125 C 127.691406 190.261719 128.304688 190.265625 128.933594 190.335938 C 129.5625 190.40625 130.191406 190.542969 130.828125 190.746094 C 131.460938 190.953125 132.085938 191.21875 132.703125 191.546875 C 133.316406 191.878906 133.914062 192.265625 134.484375 192.707031 C 135.058594 193.152344 135.601562 193.644531 136.109375 194.183594 C 136.621094 194.722656 137.085938 195.296875 137.511719 195.914062 C 137.9375 196.527344 138.316406 197.167969 138.640625 197.835938 C 138.964844 198.503906 139.234375 199.183594 139.449219 199.875 C 139.660156 200.570312 139.8125 201.261719 139.90625 201.953125 C 140 202.644531 140.027344 203.324219 139.996094 203.992188 C 139.964844 204.65625 139.871094 205.296875 139.714844 205.910156 C 139.558594 206.519531 139.347656 207.097656 139.074219 207.632812 C 138.800781 208.167969 138.476562 208.65625 138.097656 209.097656 C 137.71875 209.539062 137.292969 209.921875 136.820312 210.246094 C 136.351562 210.574219 135.84375 210.835938 135.296875 211.035156 C 134.75 211.238281 134.179688 211.371094 133.582031 211.4375 C 132.984375 211.503906 132.371094 211.5 131.742188 211.429688 C 131.113281 211.359375 130.480469 211.222656 129.847656 211.019531 C 129.214844 210.816406 128.589844 210.546875 127.972656 210.21875 C 127.355469 209.886719 126.761719 209.5 126.1875 209.058594 C 125.613281 208.613281 125.074219 208.125 124.5625 207.582031 C 124.054688 207.042969 123.585938 206.46875 123.160156 205.851562 C 122.734375 205.238281 122.359375 204.597656 122.03125 203.929688 C 121.707031 203.261719 121.4375 202.582031 121.226562 201.890625 C 121.011719 201.199219 120.859375 200.503906 120.765625 199.8125 C 120.675781 199.121094 120.644531 198.441406 120.675781 197.773438 C 120.710938 197.109375 120.804688 196.46875 120.957031 195.859375 C 121.113281 195.246094 121.328125 194.667969 121.601562 194.132812 C 121.871094 193.597656 122.199219 193.109375 122.578125 192.667969 C 122.957031 192.226562 123.382812 191.84375 123.851562 191.519531 Z M 123.851562 191.519531 " fill-opacity="1" fill-rule="nonzero"/><path fill="#a84a26" d="M 191.308594 192.003906 C 191.765625 192.347656 192.171875 192.746094 192.53125 193.199219 C 192.890625 193.648438 193.195312 194.148438 193.445312 194.691406 C 193.695312 195.238281 193.882812 195.816406 194.015625 196.433594 C 194.144531 197.046875 194.210938 197.6875 194.214844 198.351562 C 194.222656 199.011719 194.164062 199.6875 194.046875 200.371094 C 193.925781 201.054688 193.746094 201.738281 193.507812 202.417969 C 193.265625 203.101562 192.972656 203.765625 192.621094 204.414062 C 192.273438 205.0625 191.871094 205.6875 191.425781 206.28125 C 190.976562 206.875 190.488281 207.429688 189.960938 207.945312 C 189.433594 208.460938 188.875 208.929688 188.285156 209.347656 C 187.699219 209.765625 187.09375 210.125 186.46875 210.429688 C 185.839844 210.730469 185.210938 210.972656 184.570312 211.148438 C 183.933594 211.328125 183.300781 211.4375 182.671875 211.484375 C 182.042969 211.527344 181.433594 211.507812 180.84375 211.417969 C 180.25 211.328125 179.6875 211.171875 179.152344 210.953125 C 178.621094 210.730469 178.125 210.449219 177.667969 210.105469 C 177.214844 209.761719 176.808594 209.363281 176.449219 208.914062 C 176.089844 208.460938 175.785156 207.960938 175.535156 207.417969 C 175.285156 206.871094 175.097656 206.292969 174.964844 205.675781 C 174.835938 205.0625 174.769531 204.421875 174.761719 203.761719 C 174.757812 203.097656 174.816406 202.421875 174.933594 201.738281 C 175.054688 201.054688 175.234375 200.371094 175.472656 199.691406 C 175.710938 199.011719 176.007812 198.34375 176.359375 197.695312 C 176.707031 197.046875 177.105469 196.421875 177.554688 195.828125 C 178.003906 195.234375 178.492188 194.679688 179.019531 194.164062 C 179.546875 193.648438 180.105469 193.179688 180.691406 192.761719 C 181.28125 192.34375 181.886719 191.984375 182.511719 191.679688 C 183.136719 191.378906 183.769531 191.136719 184.410156 190.960938 C 185.046875 190.78125 185.679688 190.671875 186.308594 190.625 C 186.9375 190.582031 187.546875 190.605469 188.136719 190.691406 C 188.730469 190.78125 189.292969 190.9375 189.828125 191.160156 C 190.359375 191.378906 190.855469 191.660156 191.308594 192.003906 Z M 191.308594 192.003906 " fill-opacity="1" fill-rule="nonzero"/><path fill="#a84a26" d="M 70.472656 241.855469 C 70.929688 241.507812 71.425781 241.21875 71.960938 240.988281 C 72.5 240.761719 73.066406 240.597656 73.660156 240.5 C 74.253906 240.402344 74.867188 240.371094 75.5 240.40625 C 76.128906 240.441406 76.765625 240.542969 77.40625 240.710938 C 78.046875 240.878906 78.683594 241.113281 79.3125 241.40625 C 79.9375 241.703125 80.546875 242.054688 81.140625 242.460938 C 81.730469 242.871094 82.289062 243.332031 82.820312 243.839844 C 83.351562 244.347656 83.839844 244.898438 84.289062 245.484375 C 84.742188 246.074219 85.140625 246.691406 85.492188 247.335938 C 85.84375 247.980469 86.140625 248.640625 86.378906 249.320312 C 86.621094 249.996094 86.800781 250.675781 86.921875 251.359375 C 87.039062 252.042969 87.097656 252.714844 87.089844 253.378906 C 87.085938 254.042969 87.015625 254.683594 86.886719 255.300781 C 86.757812 255.917969 86.566406 256.503906 86.316406 257.050781 C 86.0625 257.597656 85.757812 258.101562 85.398438 258.558594 C 85.035156 259.019531 84.625 259.421875 84.167969 259.773438 C 83.710938 260.121094 83.214844 260.410156 82.675781 260.640625 C 82.140625 260.867188 81.574219 261.03125 80.980469 261.128906 C 80.382812 261.226562 79.769531 261.257812 79.140625 261.222656 C 78.511719 261.1875 77.875 261.085938 77.234375 260.917969 C 76.589844 260.75 75.957031 260.515625 75.328125 260.222656 C 74.699219 259.929688 74.089844 259.578125 73.5 259.167969 C 72.910156 258.757812 72.347656 258.296875 71.820312 257.789062 C 71.289062 257.28125 70.796875 256.734375 70.347656 256.144531 C 69.898438 255.554688 69.5 254.941406 69.144531 254.292969 C 68.792969 253.648438 68.5 252.988281 68.257812 252.3125 C 68.019531 251.632812 67.839844 250.953125 67.71875 250.269531 C 67.597656 249.585938 67.542969 248.914062 67.546875 248.25 C 67.554688 247.585938 67.621094 246.945312 67.753906 246.328125 C 67.882812 245.710938 68.074219 245.128906 68.324219 244.578125 C 68.574219 244.03125 68.882812 243.527344 69.242188 243.070312 C 69.605469 242.609375 70.011719 242.207031 70.472656 241.855469 Z M 70.472656 241.855469 " fill-opacity="1" fill-rule="nonzero"/><path fill="#a84a26" d="M 244.128906 241.773438 C 244.601562 242.109375 245.03125 242.5 245.410156 242.949219 C 245.789062 243.398438 246.117188 243.894531 246.390625 244.4375 C 246.660156 244.980469 246.875 245.558594 247.027344 246.175781 C 247.183594 246.792969 247.273438 247.433594 247.304688 248.101562 C 247.335938 248.765625 247.300781 249.445312 247.207031 250.136719 C 247.109375 250.828125 246.953125 251.519531 246.738281 252.207031 C 246.519531 252.898438 246.246094 253.570312 245.914062 254.230469 C 245.585938 254.894531 245.203125 255.527344 244.773438 256.132812 C 244.34375 256.738281 243.871094 257.308594 243.355469 257.835938 C 242.839844 258.367188 242.292969 258.847656 241.710938 259.277344 C 241.132812 259.710938 240.53125 260.085938 239.910156 260.402344 C 239.289062 260.71875 238.660156 260.972656 238.019531 261.164062 C 237.378906 261.355469 236.746094 261.480469 236.109375 261.535156 C 235.476562 261.59375 234.859375 261.582031 234.257812 261.503906 C 233.65625 261.425781 233.082031 261.28125 232.53125 261.070312 C 231.984375 260.859375 231.472656 260.585938 231 260.246094 C 230.527344 259.910156 230.101562 259.519531 229.71875 259.070312 C 229.339844 258.621094 229.011719 258.125 228.742188 257.582031 C 228.46875 257.042969 228.253906 256.460938 228.101562 255.84375 C 227.945312 255.226562 227.855469 254.585938 227.824219 253.917969 C 227.796875 253.253906 227.828125 252.574219 227.921875 251.882812 C 228.019531 251.191406 228.175781 250.5 228.390625 249.8125 C 228.609375 249.121094 228.882812 248.449219 229.214844 247.789062 C 229.542969 247.125 229.925781 246.492188 230.355469 245.886719 C 230.785156 245.28125 231.261719 244.710938 231.773438 244.183594 C 232.289062 243.652344 232.835938 243.171875 233.417969 242.742188 C 233.996094 242.308594 234.597656 241.933594 235.21875 241.617188 C 235.839844 241.300781 236.46875 241.046875 237.109375 240.855469 C 237.75 240.664062 238.386719 240.539062 239.019531 240.484375 C 239.652344 240.425781 240.269531 240.4375 240.871094 240.515625 C 241.472656 240.59375 242.050781 240.738281 242.597656 240.949219 C 243.144531 241.160156 243.65625 241.4375 244.128906 241.773438 Z M 244.128906 241.773438 " fill-opacity="1" fill-rule="nonzero"/><g fill="#f5efe0" fill-opacity="1"><g transform="translate(341.983942, 249.554825)"><g><path d="M 20.296875 0.546875 C 21.035156 -7.578125 21.550781 -26.46875 21.84375 -56.125 L 22.078125 -84.171875 L 21.953125 -111.796875 C 21.953125 -123.328125 21.953125 -129.941406 21.953125 -131.640625 C 20.921875 -147.097656 20.367188 -155.566406 20.296875 -157.046875 C 36.191406 -155.859375 50.5 -155.265625 63.21875 -155.265625 C 72.019531 -155.265625 85.921875 -155.859375 104.921875 -157.046875 C 104.546875 -153.722656 104.359375 -151.28125 104.359375 -149.71875 C 104.359375 -148.019531 104.546875 -145.507812 104.921875 -142.1875 C 88.359375 -143.289062 69.578125 -143.84375 48.578125 -143.84375 L 42.140625 -143.953125 C 41.703125 -125.910156 41.484375 -110.273438 41.484375 -97.046875 L 41.484375 -87.953125 C 48.722656 -87.734375 53.601562 -87.625 56.125 -87.625 C 74.601562 -87.625 89.09375 -88.210938 99.59375 -89.390625 C 99.226562 -86.140625 99.046875 -83.664062 99.046875 -81.96875 C 99.046875 -80.332031 99.226562 -77.890625 99.59375 -74.640625 C 83.175781 -75.753906 67.984375 -76.3125 54.015625 -76.3125 C 50.316406 -76.3125 46.140625 -76.3125 41.484375 -76.3125 L 41.484375 -66.65625 C 41.628906 -33.675781 42.179688 -11.273438 43.140625 0.546875 C 38.117188 0.179688 34.3125 0 31.71875 0 C 29.207031 0 25.398438 0.179688 20.296875 0.546875 Z M 20.296875 0.546875 "/></g></g></g><g fill="#f5efe0" fill-opacity="1"><g transform="translate(432.329662, 249.554825)"><g><path d="M 2.890625 0.546875 C 13.972656 -20.003906 34.453125 -64.515625 64.328125 -132.984375 L 73.859375 -155.265625 L 78.078125 -155.265625 C 82.140625 -145.429688 88.460938 -130.753906 97.046875 -111.234375 C 101.847656 -100.078125 109.316406 -82.628906 119.453125 -58.890625 C 130.460938 -33.160156 139.59375 -13.347656 146.84375 0.546875 C 141.375 0.179688 137.269531 0 134.53125 0 C 131.789062 0 127.648438 0.179688 122.109375 0.546875 C 120.109375 -4.398438 116.375 -14.046875 110.90625 -28.390625 C 108.539062 -34.453125 104.328125 -44.398438 98.265625 -58.234375 C 88.210938 -59.410156 78.269531 -60 68.4375 -60 C 60.226562 -60 51.578125 -59.410156 42.484375 -58.234375 C 33.753906 -37.453125 26.359375 -17.859375 20.296875 0.546875 C 16.453125 0.179688 13.566406 0 11.640625 0 C 9.722656 0 6.804688 0.179688 2.890625 0.546875 Z M 48.90625 -72.984375 C 59.632812 -71.867188 67.617188 -71.3125 72.859375 -71.3125 C 78.265625 -71.3125 84.550781 -71.828125 91.71875 -72.859375 C 89.132812 -79.890625 82.222656 -96.160156 70.984375 -121.671875 L 65.765625 -110.25 C 56.742188 -90.5 51.125 -78.078125 48.90625 -72.984375 Z M 48.90625 -72.984375 "/></g></g></g><g fill="#f5efe0" fill-opacity="1"><g transform="translate(576.576178, 249.554825)"><g><path d="M 19.625 0.546875 C 20.144531 -9.285156 20.550781 -26.210938 20.84375 -50.234375 L 21.40625 -84.625 L 21.296875 -109.6875 C 21.296875 -124.101562 21.070312 -134.378906 20.625 -140.515625 C 20.476562 -143.546875 20.144531 -148.648438 19.625 -155.828125 C 23.695312 -155.753906 26.398438 -155.679688 27.734375 -155.609375 C 32.609375 -155.378906 35.785156 -155.265625 37.265625 -155.265625 C 38.148438 -155.265625 43.066406 -155.453125 52.015625 -155.828125 C 55.421875 -155.972656 59.226562 -156.046875 63.4375 -156.046875 C 73.125 -156.046875 80.925781 -155.710938 86.84375 -155.046875 C 97.851562 -153.867188 106.316406 -149.429688 112.234375 -141.734375 C 116.816406 -135.742188 119.109375 -128.570312 119.109375 -120.21875 C 119.109375 -105.800781 112.863281 -94.640625 100.375 -86.734375 C 93.425781 -82.367188 84.253906 -79.375 72.859375 -77.75 C 84.398438 -62.289062 97.523438 -45.539062 112.234375 -27.5 C 121.035156 -16.851562 129.023438 -7.503906 136.203125 0.546875 C 129.765625 0.179688 124.921875 0 121.671875 0 C 118.410156 0 113.566406 0.179688 107.140625 0.546875 C 99.597656 -9.867188 93.128906 -18.703125 87.734375 -25.953125 C 79.003906 -37.554688 68.132812 -51.347656 55.125 -67.328125 L 48.578125 -75.421875 L 40.8125 -75.421875 C 40.882812 -68.835938 40.992188 -53.347656 41.140625 -28.953125 C 41.140625 -24.367188 41.585938 -14.535156 42.484375 0.546875 C 37.453125 0.179688 33.640625 0 31.046875 0 C 28.535156 0 24.726562 0.179688 19.625 0.546875 Z M 40.8125 -84.625 L 47.796875 -84.625 C 59.484375 -85.289062 67.914062 -86.507812 73.09375 -88.28125 C 81.59375 -91.238281 87.765625 -96.007812 91.609375 -102.59375 C 94.421875 -107.394531 95.828125 -112.570312 95.828125 -118.125 C 95.828125 -127.4375 92.5 -134.609375 85.84375 -139.640625 C 80.070312 -143.921875 71.160156 -146.0625 59.109375 -146.0625 C 55.117188 -146.0625 49.242188 -145.84375 41.484375 -145.40625 L 41.375 -137.96875 L 41.140625 -115.015625 L 40.921875 -94.609375 Z M 40.8125 -84.625 "/></g></g></g><g fill="#f5efe0" fill-opacity="1"><g transform="translate(708.179291, 249.554825)"><g><path d="M 8.421875 0.546875 C 11.453125 -11.578125 15.742188 -39.488281 21.296875 -83.1875 C 22.992188 -96.195312 25.429688 -114.421875 28.609375 -137.859375 L 30.9375 -155.265625 L 35.15625 -155.265625 L 40.15625 -145.515625 C 60.851562 -105.441406 74.050781 -80.191406 79.75 -69.765625 C 84.84375 -60.367188 92.015625 -47.796875 101.265625 -32.046875 L 105.578125 -39.921875 L 115.90625 -59.21875 C 138.445312 -100.257812 155.785156 -132.273438 167.921875 -155.265625 L 172.125 -155.265625 C 176.125 -115.640625 179.488281 -84.882812 182.21875 -63 C 186.726562 -27.207031 189.648438 -6.023438 190.984375 0.546875 C 186.023438 0.179688 182.328125 0 179.890625 0 C 177.378906 0 173.644531 0.179688 168.6875 0.546875 C 168.019531 -4.847656 167.0625 -14.382812 165.8125 -28.0625 C 161.96875 -69.613281 159.046875 -98.15625 157.046875 -113.6875 C 147.578125 -96.082031 140.257812 -82.550781 135.09375 -73.09375 C 129.46875 -62.519531 119.707031 -43.21875 105.8125 -15.1875 L 98.15625 0 L 93.9375 0 C 89.132812 -10.425781 79.191406 -30.242188 64.109375 -59.453125 L 44.921875 -96.375 L 36.703125 -111.796875 C 29.679688 -59.742188 26.023438 -22.296875 25.734375 0.546875 C 21.890625 0.179688 19.003906 0 17.078125 0 C 15.160156 0 12.273438 0.179688 8.421875 0.546875 Z M 8.421875 0.546875 "/></g></g></g><g fill="#f5efe0" fill-opacity="1"><g transform="translate(902.666676, 249.554825)"><g/></g></g><g fill="#f5efe0" fill-opacity="1"><g transform="translate(958.853043, 249.554825)"><g><path d="M 18.625 1.78125 C 19.8125 -15.894531 20.40625 -41.40625 20.40625 -74.75 L 20.40625 -81.96875 L 20.1875 -111.234375 C 20.113281 -129.578125 20.003906 -140.5625 19.859375 -144.1875 C 19.773438 -147.726562 19.363281 -152.015625 18.625 -157.046875 C 28.613281 -155.859375 42.40625 -155.265625 60 -155.265625 C 72.5 -155.265625 86.101562 -155.859375 100.8125 -157.046875 C 100.445312 -153.722656 100.265625 -151.242188 100.265625 -149.609375 C 100.265625 -147.984375 100.445312 -145.507812 100.8125 -142.1875 C 88.613281 -143.363281 73.863281 -143.953125 56.5625 -143.953125 C 50.789062 -143.953125 45.429688 -143.734375 40.484375 -143.296875 C 40.109375 -129.390625 39.882812 -112.71875 39.8125 -93.28125 L 39.8125 -86.734375 C 46.101562 -86.660156 51.171875 -86.625 55.015625 -86.625 C 70.984375 -86.625 84.289062 -87.175781 94.9375 -88.28125 C 94.488281 -85.03125 94.265625 -82.554688 94.265625 -80.859375 C 94.265625 -79.222656 94.488281 -76.78125 94.9375 -73.53125 C 85.101562 -74.644531 66.726562 -75.273438 39.8125 -75.421875 L 39.8125 -67.09375 C 39.8125 -45.800781 40.035156 -27.242188 40.484375 -11.421875 C 45.804688 -11.347656 49.722656 -11.3125 52.234375 -11.3125 C 67.316406 -11.3125 83.546875 -11.90625 100.921875 -13.09375 C 100.554688 -9.757812 100.375 -7.242188 100.375 -5.546875 C 100.375 -3.992188 100.554688 -1.550781 100.921875 1.78125 C 79.628906 0.59375 64.289062 0 54.90625 0 C 44.476562 0 32.382812 0.59375 18.625 1.78125 Z M 18.625 1.78125 "/></g></g></g><g fill="#f5efe0" fill-opacity="1"><g transform="translate(1065.391167, 249.554825)"><g><path d="M 22.1875 -155.828125 C 29.726562 -155.453125 36.601562 -155.265625 42.8125 -155.265625 C 48.5 -155.265625 56.1875 -155.34375 65.875 -155.5 C 76.75 -155.71875 84.070312 -155.828125 87.84375 -155.828125 C 102.695312 -155.828125 114.597656 -154.160156 123.546875 -150.828125 C 136.410156 -145.953125 146.578125 -137.488281 154.046875 -125.4375 C 161.441406 -113.382812 165.140625 -99.445312 165.140625 -83.625 C 165.140625 -65.289062 160.628906 -48.953125 151.609375 -34.609375 C 144.734375 -23.734375 135.675781 -15.226562 124.4375 -9.09375 C 116.675781 -4.800781 106.878906 -1.992188 95.046875 -0.671875 C 87.578125 0.222656 78.925781 0.671875 69.09375 0.671875 C 65.914062 0.671875 59.960938 0.519531 51.234375 0.21875 C 46.285156 0.0703125 42.332031 0 39.375 0 C 35.457031 0 29.726562 0.179688 22.1875 0.546875 C 23.363281 -17.929688 23.953125 -41.8125 23.953125 -71.09375 C 23.953125 -113.757812 23.363281 -142.003906 22.1875 -155.828125 Z M 44.03125 -143.296875 L 43.8125 -132.640625 C 43.507812 -103.878906 43.359375 -85.210938 43.359375 -76.640625 L 43.359375 -55.890625 C 43.429688 -34.972656 43.65625 -20.335938 44.03125 -11.984375 C 55.125 -11.535156 63.847656 -11.3125 70.203125 -11.3125 C 87.140625 -11.3125 99.894531 -13.234375 108.46875 -17.078125 C 120.300781 -22.328125 129.097656 -31.382812 134.859375 -44.25 C 139.523438 -54.53125 141.859375 -66.878906 141.859375 -81.296875 C 141.859375 -107.023438 134.238281 -124.734375 119 -134.421875 C 112.34375 -138.710938 103.878906 -141.484375 93.609375 -142.734375 C 87.835938 -143.472656 79.738281 -143.84375 69.3125 -143.84375 C 60.445312 -143.84375 52.019531 -143.660156 44.03125 -143.296875 Z M 44.03125 -143.296875 "/></g></g></g><g fill="#f5efe0" fill-opacity="1"><g transform="translate(1234.702696, 249.554825)"><g><path d="M 18.625 1.78125 C 19.8125 -15.894531 20.40625 -41.40625 20.40625 -74.75 L 20.40625 -81.96875 L 20.1875 -111.234375 C 20.113281 -129.578125 20.003906 -140.5625 19.859375 -144.1875 C 19.773438 -147.726562 19.363281 -152.015625 18.625 -157.046875 C 28.613281 -155.859375 42.40625 -155.265625 60 -155.265625 C 72.5 -155.265625 86.101562 -155.859375 100.8125 -157.046875 C 100.445312 -153.722656 100.265625 -151.242188 100.265625 -149.609375 C 100.265625 -147.984375 100.445312 -145.507812 100.8125 -142.1875 C 88.613281 -143.363281 73.863281 -143.953125 56.5625 -143.953125 C 50.789062 -143.953125 45.429688 -143.734375 40.484375 -143.296875 C 40.109375 -129.390625 39.882812 -112.71875 39.8125 -93.28125 L 39.8125 -86.734375 C 46.101562 -86.660156 51.171875 -86.625 55.015625 -86.625 C 70.984375 -86.625 84.289062 -87.175781 94.9375 -88.28125 C 94.488281 -85.03125 94.265625 -82.554688 94.265625 -80.859375 C 94.265625 -79.222656 94.488281 -76.78125 94.9375 -73.53125 C 85.101562 -74.644531 66.726562 -75.273438 39.8125 -75.421875 L 39.8125 -67.09375 C 39.8125 -45.800781 40.035156 -27.242188 40.484375 -11.421875 C 45.804688 -11.347656 49.722656 -11.3125 52.234375 -11.3125 C 67.316406 -11.3125 83.546875 -11.90625 100.921875 -13.09375 C 100.554688 -9.757812 100.375 -7.242188 100.375 -5.546875 C 100.375 -3.992188 100.554688 -1.550781 100.921875 1.78125 C 79.628906 0.59375 64.289062 0 54.90625 0 C 44.476562 0 32.382812 0.59375 18.625 1.78125 Z M 18.625 1.78125 "/></g></g></g><g fill="#f5efe0" fill-opacity="1"><g transform="translate(1341.240775, 249.554825)"><g><path d="M 22.078125 0.546875 C 23.253906 -21.179688 23.84375 -48.976562 23.84375 -82.84375 C 23.84375 -95.707031 23.507812 -111.609375 22.84375 -130.546875 L 22.296875 -150.28125 L 22.078125 -155.265625 L 28.0625 -155.265625 L 35.9375 -146.734375 L 61.546875 -119.5625 C 94.972656 -84 121.1875 -56.378906 140.1875 -36.703125 L 140.1875 -81.734375 C 140.1875 -109.023438 139.59375 -133.722656 138.40625 -155.828125 C 141.8125 -155.453125 144.363281 -155.265625 146.0625 -155.265625 C 147.6875 -155.265625 150.203125 -155.453125 153.609375 -155.828125 C 152.492188 -134.460938 151.9375 -105.21875 151.9375 -68.09375 C 151.9375 -52.34375 152.492188 -28.570312 153.609375 3.21875 L 147.625 3.21875 C 121.59375 -26.875 88.171875 -62.625 47.359375 -104.03125 L 35.265625 -116.34375 C 35.410156 -96.226562 35.523438 -74.640625 35.609375 -51.578125 C 36.265625 -25.921875 36.816406 -8.546875 37.265625 0.546875 C 33.941406 0.179688 31.425781 0 29.71875 0 C 28.019531 0 25.472656 0.179688 22.078125 0.546875 Z M 22.078125 0.546875 "/></g></g></g><g transform="matrix(1, 0, 0, 1, 357, 286)"><g clip-path="url(#0bea5b63b4)"><g fill="#d4b78a" fill-opacity="1"><g transform="translate(0.282172, 66.009132)"><g><path d="M 4.734375 0 L 4.734375 -48.9375 L 37.015625 -48.9375 L 37.015625 -41.515625 L 13.5 -41.515625 L 13.5 -28.40625 L 35.28125 -28.40625 L 35.28125 -21.09375 L 13.5 -21.09375 L 13.5 -7.421875 L 37.109375 -7.421875 L 37.109375 0 Z M 4.734375 0 "/></g></g></g><g fill="#d4b78a" fill-opacity="1"><g transform="translate(41.643505, 66.009132)"><g><path d="M 22.03125 0.75 C 18.207031 0.75 14.878906 0.144531 12.046875 -1.0625 C 9.222656 -2.28125 7.03125 -4.046875 5.46875 -6.359375 C 3.90625 -8.671875 3.066406 -11.46875 2.953125 -14.75 L 11.5625 -14.75 C 11.695312 -12.976562 12.21875 -11.492188 13.125 -10.296875 C 14.03125 -9.097656 15.253906 -8.195312 16.796875 -7.59375 C 18.335938 -7 20.070312 -6.703125 22 -6.703125 C 23.945312 -6.703125 25.660156 -6.988281 27.140625 -7.5625 C 28.617188 -8.144531 29.78125 -8.972656 30.625 -10.046875 C 31.46875 -11.117188 31.890625 -12.359375 31.890625 -13.765625 C 31.890625 -15.015625 31.53125 -16.050781 30.8125 -16.875 C 30.101562 -17.707031 29.085938 -18.421875 27.765625 -19.015625 C 26.441406 -19.609375 24.847656 -20.132812 22.984375 -20.59375 L 17.5 -21.96875 C 13.226562 -23.019531 9.941406 -24.617188 7.640625 -26.765625 C 5.347656 -28.910156 4.203125 -31.710938 4.203125 -35.171875 C 4.203125 -38.066406 4.972656 -40.597656 6.515625 -42.765625 C 8.054688 -44.929688 10.179688 -46.613281 12.890625 -47.8125 C 15.597656 -49.019531 18.671875 -49.625 22.109375 -49.625 C 25.628906 -49.625 28.703125 -49.015625 31.328125 -47.796875 C 33.960938 -46.585938 36.019531 -44.898438 37.5 -42.734375 C 38.988281 -40.566406 39.769531 -38.054688 39.84375 -35.203125 L 31.40625 -35.203125 C 31.1875 -37.421875 30.238281 -39.140625 28.5625 -40.359375 C 26.882812 -41.585938 24.695312 -42.203125 22 -42.203125 C 20.1875 -42.203125 18.601562 -41.914062 17.25 -41.34375 C 15.90625 -40.78125 14.867188 -40.007812 14.140625 -39.03125 C 13.410156 -38.0625 13.046875 -36.941406 13.046875 -35.671875 C 13.046875 -34.359375 13.4375 -33.273438 14.21875 -32.421875 C 15.007812 -31.566406 16.050781 -30.863281 17.34375 -30.3125 C 18.632812 -29.769531 20.023438 -29.320312 21.515625 -28.96875 L 26.171875 -27.78125 C 28.148438 -27.320312 30.007812 -26.71875 31.75 -25.96875 C 33.488281 -25.226562 35.023438 -24.300781 36.359375 -23.1875 C 37.691406 -22.070312 38.734375 -20.75 39.484375 -19.21875 C 40.242188 -17.6875 40.625 -15.890625 40.625 -13.828125 C 40.625 -10.910156 39.882812 -8.359375 38.40625 -6.171875 C 36.925781 -3.984375 34.800781 -2.28125 32.03125 -1.0625 C 29.269531 0.144531 25.9375 0.75 22.03125 0.75 Z M 22.03125 0.75 "/></g></g></g><g fill="#d4b78a" fill-opacity="1"><g transform="translate(85.960318, 66.009132)"><g><path d="M 25.6875 0.6875 C 21.375 0.6875 17.515625 -0.316406 14.109375 -2.328125 C 10.703125 -4.347656 8.023438 -7.234375 6.078125 -10.984375 C 4.128906 -14.742188 3.15625 -19.226562 3.15625 -24.4375 C 3.15625 -29.6875 4.132812 -34.1875 6.09375 -37.9375 C 8.050781 -41.695312 10.734375 -44.582031 14.140625 -46.59375 C 17.546875 -48.613281 21.394531 -49.625 25.6875 -49.625 C 28.394531 -49.625 30.921875 -49.234375 33.265625 -48.453125 C 35.609375 -47.679688 37.691406 -46.5625 39.515625 -45.09375 C 41.347656 -43.625 42.851562 -41.832031 44.03125 -39.71875 C 45.21875 -37.613281 46.007812 -35.222656 46.40625 -32.546875 L 37.578125 -32.546875 C 37.285156 -34.015625 36.796875 -35.316406 36.109375 -36.453125 C 35.421875 -37.597656 34.554688 -38.566406 33.515625 -39.359375 C 32.472656 -40.160156 31.300781 -40.765625 30 -41.171875 C 28.695312 -41.578125 27.300781 -41.78125 25.8125 -41.78125 C 23.070312 -41.78125 20.65625 -41.09375 18.5625 -39.71875 C 16.476562 -38.351562 14.851562 -36.378906 13.6875 -33.796875 C 12.53125 -31.210938 11.953125 -28.09375 11.953125 -24.4375 C 11.953125 -20.757812 12.535156 -17.628906 13.703125 -15.046875 C 14.878906 -12.460938 16.503906 -10.5 18.578125 -9.15625 C 20.660156 -7.820312 23.070312 -7.15625 25.8125 -7.15625 C 27.300781 -7.15625 28.691406 -7.359375 29.984375 -7.765625 C 31.273438 -8.171875 32.441406 -8.765625 33.484375 -9.546875 C 34.523438 -10.335938 35.398438 -11.304688 36.109375 -12.453125 C 36.828125 -13.609375 37.328125 -14.921875 37.609375 -16.390625 L 46.4375 -16.390625 C 46.09375 -13.960938 45.351562 -11.71875 44.21875 -9.65625 C 43.09375 -7.59375 41.628906 -5.785156 39.828125 -4.234375 C 38.035156 -2.679688 35.945312 -1.472656 33.5625 -0.609375 C 31.175781 0.253906 28.550781 0.6875 25.6875 0.6875 Z M 25.6875 0.6875 "/></g></g></g><g fill="#d4b78a" fill-opacity="1"><g transform="translate(134.447516, 66.009132)"><g><path d="M 1.375 0 L 18.53125 -48.9375 L 29.625 -48.9375 L 47.0625 0 L 37.46875 0 L 28.796875 -25.484375 C 27.953125 -28.140625 27.0625 -31.09375 26.125 -34.34375 C 25.195312 -37.59375 24.164062 -41.332031 23.03125 -45.5625 L 25 -45.5625 C 23.875 -41.3125 22.863281 -37.546875 21.96875 -34.265625 C 21.070312 -30.992188 20.21875 -28.066406 19.40625 -25.484375 L 10.90625 0 Z M 11.390625 -12.015625 L 11.390625 -19.109375 L 37.015625 -19.109375 L 37.015625 -12.015625 Z M 11.390625 -12.015625 "/></g></g></g><g fill="#d4b78a" fill-opacity="1"><g transform="translate(183.624449, 66.009132)"><g><path d="M 4.734375 0 L 4.734375 -48.9375 L 23.125 -48.9375 C 26.84375 -48.9375 29.984375 -48.242188 32.546875 -46.859375 C 35.109375 -45.484375 37.054688 -43.59375 38.390625 -41.1875 C 39.734375 -38.78125 40.40625 -36 40.40625 -32.84375 C 40.40625 -29.707031 39.726562 -26.929688 38.375 -24.515625 C 37.03125 -22.097656 35.0625 -20.203125 32.46875 -18.828125 C 29.875 -17.460938 26.710938 -16.78125 22.984375 -16.78125 L 10.484375 -16.78125 L 10.484375 -24.046875 L 22 -24.046875 C 24.164062 -24.046875 25.953125 -24.421875 27.359375 -25.171875 C 28.765625 -25.929688 29.8125 -26.972656 30.5 -28.296875 C 31.1875 -29.617188 31.53125 -31.132812 31.53125 -32.84375 C 31.53125 -34.59375 31.1875 -36.117188 30.5 -37.421875 C 29.8125 -38.722656 28.757812 -39.738281 27.34375 -40.46875 C 25.925781 -41.207031 24.132812 -41.578125 21.96875 -41.578125 L 13.5 -41.578125 L 13.5 0 Z M 4.734375 0 "/></g></g></g><g fill="#d4b78a" fill-opacity="1"><g transform="translate(227.448675, 66.009132)"><g><path d="M 4.734375 0 L 4.734375 -48.9375 L 37.015625 -48.9375 L 37.015625 -41.515625 L 13.5 -41.515625 L 13.5 -28.40625 L 35.28125 -28.40625 L 35.28125 -21.09375 L 13.5 -21.09375 L 13.5 -7.421875 L 37.109375 -7.421875 L 37.109375 0 Z M 4.734375 0 "/></g></g></g><g fill="#d4b78a" fill-opacity="1"><g transform="translate(268.809996, 66.009132)"><g/></g></g><g fill="#d4b78a" fill-opacity="1"><g transform="translate(286.10061, 66.009132)"><g><path d="M 16.546875 -8.90625 C 14.617188 -8.90625 12.859375 -9.375 11.265625 -10.3125 C 9.671875 -11.25 8.398438 -12.515625 7.453125 -14.109375 C 6.515625 -15.710938 6.046875 -17.476562 6.046875 -19.40625 C 6.046875 -21.351562 6.515625 -23.117188 7.453125 -24.703125 C 8.398438 -26.296875 9.671875 -27.5625 11.265625 -28.5 C 12.859375 -29.445312 14.617188 -29.921875 16.546875 -29.921875 C 18.503906 -29.921875 20.273438 -29.445312 21.859375 -28.5 C 23.441406 -27.5625 24.703125 -26.296875 25.640625 -24.703125 C 26.585938 -23.117188 27.0625 -21.351562 27.0625 -19.40625 C 27.0625 -17.476562 26.585938 -15.710938 25.640625 -14.109375 C 24.703125 -12.515625 23.441406 -11.25 21.859375 -10.3125 C 20.273438 -9.375 18.503906 -8.90625 16.546875 -8.90625 Z M 16.546875 -8.90625 "/></g></g></g><g fill="#d4b78a" fill-opacity="1"><g transform="translate(319.94186, 66.009132)"><g/></g></g><g fill="#d4b78a" fill-opacity="1"><g transform="translate(337.232474, 66.009132)"><g><path d="M 4.734375 0 L 4.734375 -48.9375 L 23.515625 -48.9375 C 27.015625 -48.9375 29.941406 -48.390625 32.296875 -47.296875 C 34.648438 -46.203125 36.414062 -44.695312 37.59375 -42.78125 C 38.78125 -40.863281 39.375 -38.679688 39.375 -36.234375 C 39.375 -34.253906 39 -32.554688 38.25 -31.140625 C 37.507812 -29.734375 36.5 -28.582031 35.21875 -27.6875 C 33.9375 -26.789062 32.488281 -26.144531 30.875 -25.75 L 30.875 -25.359375 C 32.644531 -25.242188 34.320312 -24.695312 35.90625 -23.71875 C 37.5 -22.75 38.789062 -21.398438 39.78125 -19.671875 C 40.78125 -17.941406 41.28125 -15.863281 41.28125 -13.4375 C 41.28125 -10.851562 40.660156 -8.546875 39.421875 -6.515625 C 38.191406 -4.492188 36.332031 -2.898438 33.84375 -1.734375 C 31.363281 -0.578125 28.25 0 24.5 0 Z M 13.46875 -7.265625 L 23.21875 -7.265625 C 26.394531 -7.265625 28.722656 -7.882812 30.203125 -9.125 C 31.679688 -10.375 32.421875 -12.007812 32.421875 -14.03125 C 32.421875 -15.488281 32.054688 -16.789062 31.328125 -17.9375 C 30.609375 -19.09375 29.582031 -20.003906 28.25 -20.671875 C 26.914062 -21.335938 25.328125 -21.671875 23.484375 -21.671875 L 13.46875 -21.671875 Z M 13.46875 -28.109375 L 22.5625 -28.109375 C 24.113281 -28.109375 25.503906 -28.394531 26.734375 -28.96875 C 27.960938 -29.539062 28.925781 -30.34375 29.625 -31.375 C 30.320312 -32.414062 30.671875 -33.660156 30.671875 -35.109375 C 30.671875 -37.035156 29.992188 -38.617188 28.640625 -39.859375 C 27.285156 -41.097656 25.304688 -41.71875 22.703125 -41.71875 L 13.46875 -41.71875 Z M 13.46875 -28.109375 "/></g></g></g><g fill="#d4b78a" fill-opacity="1"><g transform="translate(382.041848, 66.009132)"><g><path d="M 4.734375 0 L 4.734375 -48.9375 L 23.21875 -48.9375 C 26.914062 -48.9375 30.050781 -48.285156 32.625 -46.984375 C 35.195312 -45.679688 37.148438 -43.851562 38.484375 -41.5 C 39.828125 -39.144531 40.5 -36.398438 40.5 -33.265625 C 40.5 -30.140625 39.816406 -27.425781 38.453125 -25.125 C 37.097656 -22.820312 35.117188 -21.046875 32.515625 -19.796875 C 29.910156 -18.554688 26.734375 -17.9375 22.984375 -17.9375 L 9.859375 -17.9375 L 9.859375 -25.1875 L 22.109375 -25.1875 C 24.273438 -25.1875 26.054688 -25.503906 27.453125 -26.140625 C 28.859375 -26.773438 29.90625 -27.691406 30.59375 -28.890625 C 31.28125 -30.097656 31.625 -31.554688 31.625 -33.265625 C 31.625 -35.023438 31.28125 -36.519531 30.59375 -37.75 C 29.90625 -38.988281 28.851562 -39.9375 27.4375 -40.59375 C 26.03125 -41.25 24.242188 -41.578125 22.078125 -41.578125 L 13.5 -41.578125 L 13.5 0 Z M 32.359375 0 L 20.59375 -22.171875 L 30.125 -22.171875 L 42.109375 0 Z M 32.359375 0 "/></g></g></g><g fill="#d4b78a" fill-opacity="1"><g transform="translate(426.522848, 66.009132)"><g><path d="M 4.734375 0 L 4.734375 -48.9375 L 37.015625 -48.9375 L 37.015625 -41.515625 L 13.5 -41.515625 L 13.5 -28.40625 L 35.28125 -28.40625 L 35.28125 -21.09375 L 13.5 -21.09375 L 13.5 -7.421875 L 37.109375 -7.421875 L 37.109375 0 Z M 4.734375 0 "/></g></g></g><g fill="#d4b78a" fill-opacity="1"><g transform="translate(467.884193, 66.009132)"><g><path d="M 1.375 0 L 18.53125 -48.9375 L 29.625 -48.9375 L 47.0625 0 L 37.46875 0 L 28.796875 -25.484375 C 27.953125 -28.140625 27.0625 -31.09375 26.125 -34.34375 C 25.195312 -37.59375 24.164062 -41.332031 23.03125 -45.5625 L 25 -45.5625 C 23.875 -41.3125 22.863281 -37.546875 21.96875 -34.265625 C 21.070312 -30.992188 20.21875 -28.066406 19.40625 -25.484375 L 10.90625 0 Z M 11.390625 -12.015625 L 11.390625 -19.109375 L 37.015625 -19.109375 L 37.015625 -12.015625 Z M 11.390625 -12.015625 "/></g></g></g><g fill="#d4b78a" fill-opacity="1"><g transform="translate(511.018318, 66.009132)"><g><path d="M 2.46875 -41.515625 L 2.46875 -48.9375 L 41.453125 -48.9375 L 41.453125 -41.515625 L 26.34375 -41.515625 L 26.34375 0 L 17.609375 0 L 17.609375 -41.515625 Z M 2.46875 -41.515625 "/></g></g></g><g fill="#d4b78a" fill-opacity="1"><g transform="translate(555.663552, 66.009132)"><g><path d="M 4.734375 0 L 4.734375 -48.9375 L 13.5 -48.9375 L 13.5 -28.703125 L 36.1875 -28.703125 L 36.1875 -48.9375 L 44.96875 -48.9375 L 44.96875 0 L 36.1875 0 L 36.1875 -21.3125 L 13.5 -21.3125 L 13.5 0 Z M 4.734375 0 "/></g></g></g><g fill="#d4b78a" fill-opacity="1"><g transform="translate(606.088343, 66.009132)"><g><path d="M 4.734375 0 L 4.734375 -48.9375 L 37.015625 -48.9375 L 37.015625 -41.515625 L 13.5 -41.515625 L 13.5 -28.40625 L 35.28125 -28.40625 L 35.28125 -21.09375 L 13.5 -21.09375 L 13.5 -7.421875 L 37.109375 -7.421875 L 37.109375 0 Z M 4.734375 0 "/></g></g></g><g fill="#d4b78a" fill-opacity="1"><g transform="translate(647.449688, 66.009132)"><g/></g></g><g fill="#d4b78a" fill-opacity="1"><g transform="translate(664.740254, 66.009132)"><g><path d="M 16.546875 -8.90625 C 14.617188 -8.90625 12.859375 -9.375 11.265625 -10.3125 C 9.671875 -11.25 8.398438 -12.515625 7.453125 -14.109375 C 6.515625 -15.710938 6.046875 -17.476562 6.046875 -19.40625 C 6.046875 -21.351562 6.515625 -23.117188 7.453125 -24.703125 C 8.398438 -26.296875 9.671875 -27.5625 11.265625 -28.5 C 12.859375 -29.445312 14.617188 -29.921875 16.546875 -29.921875 C 18.503906 -29.921875 20.273438 -29.445312 21.859375 -28.5 C 23.441406 -27.5625 24.703125 -26.296875 25.640625 -24.703125 C 26.585938 -23.117188 27.0625 -21.351562 27.0625 -19.40625 C 27.0625 -17.476562 26.585938 -15.710938 25.640625 -14.109375 C 24.703125 -12.515625 23.441406 -11.25 21.859375 -10.3125 C 20.273438 -9.375 18.503906 -8.90625 16.546875 -8.90625 Z M 16.546875 -8.90625 "/></g></g></g><g fill="#d4b78a" fill-opacity="1"><g transform="translate(698.581552, 66.009132)"><g/></g></g><g fill="#d4b78a" fill-opacity="1"><g transform="translate(715.872118, 66.009132)"><g><path d="M 4.734375 0 L 4.734375 -48.9375 L 23.21875 -48.9375 C 26.914062 -48.9375 30.050781 -48.285156 32.625 -46.984375 C 35.195312 -45.679688 37.148438 -43.851562 38.484375 -41.5 C 39.828125 -39.144531 40.5 -36.398438 40.5 -33.265625 C 40.5 -30.140625 39.816406 -27.425781 38.453125 -25.125 C 37.097656 -22.820312 35.117188 -21.046875 32.515625 -19.796875 C 29.910156 -18.554688 26.734375 -17.9375 22.984375 -17.9375 L 9.859375 -17.9375 L 9.859375 -25.1875 L 22.109375 -25.1875 C 24.273438 -25.1875 26.054688 -25.503906 27.453125 -26.140625 C 28.859375 -26.773438 29.90625 -27.691406 30.59375 -28.890625 C 31.28125 -30.097656 31.625 -31.554688 31.625 -33.265625 C 31.625 -35.023438 31.28125 -36.519531 30.59375 -37.75 C 29.90625 -38.988281 28.851562 -39.9375 27.4375 -40.59375 C 26.03125 -41.25 24.242188 -41.578125 22.078125 -41.578125 L 13.5 -41.578125 L 13.5 0 Z M 32.359375 0 L 20.59375 -22.171875 L 30.125 -22.171875 L 42.109375 0 Z M 32.359375 0 "/></g></g></g><g fill="#d4b78a" fill-opacity="1"><g transform="translate(760.353118, 66.009132)"><g><path d="M 4.734375 0 L 4.734375 -48.9375 L 37.015625 -48.9375 L 37.015625 -41.515625 L 13.5 -41.515625 L 13.5 -28.40625 L 35.28125 -28.40625 L 35.28125 -21.09375 L 13.5 -21.09375 L 13.5 -7.421875 L 37.109375 -7.421875 L 37.109375 0 Z M 4.734375 0 "/></g></g></g><g fill="#d4b78a" fill-opacity="1"><g transform="translate(801.714463, 66.009132)"><g><path d="M 25.6875 0.6875 C 21.375 0.6875 17.515625 -0.316406 14.109375 -2.328125 C 10.703125 -4.347656 8.023438 -7.234375 6.078125 -10.984375 C 4.128906 -14.742188 3.15625 -19.226562 3.15625 -24.4375 C 3.15625 -29.6875 4.132812 -34.1875 6.09375 -37.9375 C 8.050781 -41.695312 10.734375 -44.582031 14.140625 -46.59375 C 17.546875 -48.613281 21.394531 -49.625 25.6875 -49.625 C 28.394531 -49.625 30.921875 -49.234375 33.265625 -48.453125 C 35.609375 -47.679688 37.691406 -46.5625 39.515625 -45.09375 C 41.347656 -43.625 42.851562 -41.832031 44.03125 -39.71875 C 45.21875 -37.613281 46.007812 -35.222656 46.40625 -32.546875 L 37.578125 -32.546875 C 37.285156 -34.015625 36.796875 -35.316406 36.109375 -36.453125 C 35.421875 -37.597656 34.554688 -38.566406 33.515625 -39.359375 C 32.472656 -40.160156 31.300781 -40.765625 30 -41.171875 C 28.695312 -41.578125 27.300781 -41.78125 25.8125 -41.78125 C 23.070312 -41.78125 20.65625 -41.09375 18.5625 -39.71875 C 16.476562 -38.351562 14.851562 -36.378906 13.6875 -33.796875 C 12.53125 -31.210938 11.953125 -28.09375 11.953125 -24.4375 C 11.953125 -20.757812 12.535156 -17.628906 13.703125 -15.046875 C 14.878906 -12.460938 16.503906 -10.5 18.578125 -9.15625 C 20.660156 -7.820312 23.070312 -7.15625 25.8125 -7.15625 C 27.300781 -7.15625 28.691406 -7.359375 29.984375 -7.765625 C 31.273438 -8.171875 32.441406 -8.765625 33.484375 -9.546875 C 34.523438 -10.335938 35.398438 -11.304688 36.109375 -12.453125 C 36.828125 -13.609375 37.328125 -14.921875 37.609375 -16.390625 L 46.4375 -16.390625 C 46.09375 -13.960938 45.351562 -11.71875 44.21875 -9.65625 C 43.09375 -7.59375 41.628906 -5.785156 39.828125 -4.234375 C 38.035156 -2.679688 35.945312 -1.472656 33.5625 -0.609375 C 31.175781 0.253906 28.550781 0.6875 25.6875 0.6875 Z M 25.6875 0.6875 "/></g></g></g><g fill="#d4b78a" fill-opacity="1"><g transform="translate(851.81088, 66.009132)"><g><path d="M 25.71875 0.6875 C 21.425781 0.6875 17.578125 -0.316406 14.171875 -2.328125 C 10.765625 -4.347656 8.078125 -7.234375 6.109375 -10.984375 C 4.140625 -14.742188 3.15625 -19.226562 3.15625 -24.4375 C 3.15625 -29.6875 4.140625 -34.1875 6.109375 -37.9375 C 8.078125 -41.695312 10.765625 -44.582031 14.171875 -46.59375 C 17.578125 -48.613281 21.425781 -49.625 25.71875 -49.625 C 30.007812 -49.625 33.851562 -48.613281 37.25 -46.59375 C 40.644531 -44.582031 43.320312 -41.695312 45.28125 -37.9375 C 47.238281 -34.1875 48.21875 -29.6875 48.21875 -24.4375 C 48.21875 -19.226562 47.238281 -14.742188 45.28125 -10.984375 C 43.320312 -7.234375 40.644531 -4.347656 37.25 -2.328125 C 33.851562 -0.316406 30.007812 0.6875 25.71875 0.6875 Z M 25.71875 -7.15625 C 28.363281 -7.15625 30.722656 -7.816406 32.796875 -9.140625 C 34.867188 -10.472656 36.488281 -12.425781 37.65625 -15 C 38.820312 -17.570312 39.40625 -20.71875 39.40625 -24.4375 C 39.40625 -28.175781 38.820312 -31.335938 37.65625 -33.921875 C 36.488281 -36.503906 34.867188 -38.457031 32.796875 -39.78125 C 30.722656 -41.113281 28.363281 -41.78125 25.71875 -41.78125 C 23.039062 -41.78125 20.664062 -41.109375 18.59375 -39.765625 C 16.53125 -38.429688 14.90625 -36.476562 13.71875 -33.90625 C 12.539062 -31.332031 11.953125 -28.175781 11.953125 -24.4375 C 11.953125 -20.71875 12.539062 -17.578125 13.71875 -15.015625 C 14.90625 -12.453125 16.53125 -10.5 18.59375 -9.15625 C 20.664062 -7.820312 23.039062 -7.15625 25.71875 -7.15625 Z M 25.71875 -7.15625 "/></g></g></g><g fill="#d4b78a" fill-opacity="1"><g transform="translate(903.943257, 66.009132)"><g><path d="M 4.734375 0 L 4.734375 -48.9375 L 14.515625 -48.9375 L 31.5 -21.90625 C 32.15625 -20.875 32.867188 -19.675781 33.640625 -18.3125 C 34.421875 -16.945312 35.234375 -15.425781 36.078125 -13.75 C 36.921875 -12.070312 37.75 -10.257812 38.5625 -8.3125 L 37.578125 -7.8125 C 37.421875 -9.5625 37.289062 -11.390625 37.1875 -13.296875 C 37.09375 -15.203125 37.019531 -17.019531 36.96875 -18.75 C 36.914062 -20.476562 36.890625 -21.914062 36.890625 -23.0625 L 36.890625 -48.9375 L 45.75 -48.9375 L 45.75 0 L 35.9375 0 L 20.625 -24.34375 C 19.75 -25.738281 18.878906 -27.1875 18.015625 -28.6875 C 17.148438 -30.1875 16.210938 -31.890625 15.203125 -33.796875 C 14.203125 -35.703125 13.019531 -37.945312 11.65625 -40.53125 L 12.90625 -40.796875 C 13.0625 -38.410156 13.1875 -36.15625 13.28125 -34.03125 C 13.382812 -31.90625 13.460938 -30.015625 13.515625 -28.359375 C 13.566406 -26.703125 13.59375 -25.375 13.59375 -24.375 L 13.59375 0 Z M 4.734375 0 "/></g></g></g><g fill="#d4b78a" fill-opacity="1"><g transform="translate(955.156223, 66.009132)"><g><path d="M 4.734375 0 L 4.734375 -48.9375 L 14.515625 -48.9375 L 31.5 -21.90625 C 32.15625 -20.875 32.867188 -19.675781 33.640625 -18.3125 C 34.421875 -16.945312 35.234375 -15.425781 36.078125 -13.75 C 36.921875 -12.070312 37.75 -10.257812 38.5625 -8.3125 L 37.578125 -7.8125 C 37.421875 -9.5625 37.289062 -11.390625 37.1875 -13.296875 C 37.09375 -15.203125 37.019531 -17.019531 36.96875 -18.75 C 36.914062 -20.476562 36.890625 -21.914062 36.890625 -23.0625 L 36.890625 -48.9375 L 45.75 -48.9375 L 45.75 0 L 35.9375 0 L 20.625 -24.34375 C 19.75 -25.738281 18.878906 -27.1875 18.015625 -28.6875 C 17.148438 -30.1875 16.210938 -31.890625 15.203125 -33.796875 C 14.203125 -35.703125 13.019531 -37.945312 11.65625 -40.53125 L 12.90625 -40.796875 C 13.0625 -38.410156 13.1875 -36.15625 13.28125 -34.03125 C 13.382812 -31.90625 13.460938 -30.015625 13.515625 -28.359375 C 13.566406 -26.703125 13.59375 -25.375 13.59375 -24.375 L 13.59375 0 Z M 4.734375 0 "/></g></g></g><g fill="#d4b78a" fill-opacity="1"><g transform="translate(1006.369095, 66.009132)"><g><path d="M 4.734375 0 L 4.734375 -48.9375 L 37.015625 -48.9375 L 37.015625 -41.515625 L 13.5 -41.515625 L 13.5 -28.40625 L 35.28125 -28.40625 L 35.28125 -21.09375 L 13.5 -21.09375 L 13.5 -7.421875 L 37.109375 -7.421875 L 37.109375 0 Z M 4.734375 0 "/></g></g></g><g fill="#d4b78a" fill-opacity="1"><g transform="translate(1047.73044, 66.009132)"><g><path d="M 25.6875 0.6875 C 21.375 0.6875 17.515625 -0.316406 14.109375 -2.328125 C 10.703125 -4.347656 8.023438 -7.234375 6.078125 -10.984375 C 4.128906 -14.742188 3.15625 -19.226562 3.15625 -24.4375 C 3.15625 -29.6875 4.132812 -34.1875 6.09375 -37.9375 C 8.050781 -41.695312 10.734375 -44.582031 14.140625 -46.59375 C 17.546875 -48.613281 21.394531 -49.625 25.6875 -49.625 C 28.394531 -49.625 30.921875 -49.234375 33.265625 -48.453125 C 35.609375 -47.679688 37.691406 -46.5625 39.515625 -45.09375 C 41.347656 -43.625 42.851562 -41.832031 44.03125 -39.71875 C 45.21875 -37.613281 46.007812 -35.222656 46.40625 -32.546875 L 37.578125 -32.546875 C 37.285156 -34.015625 36.796875 -35.316406 36.109375 -36.453125 C 35.421875 -37.597656 34.554688 -38.566406 33.515625 -39.359375 C 32.472656 -40.160156 31.300781 -40.765625 30 -41.171875 C 28.695312 -41.578125 27.300781 -41.78125 25.8125 -41.78125 C 23.070312 -41.78125 20.65625 -41.09375 18.5625 -39.71875 C 16.476562 -38.351562 14.851562 -36.378906 13.6875 -33.796875 C 12.53125 -31.210938 11.953125 -28.09375 11.953125 -24.4375 C 11.953125 -20.757812 12.535156 -17.628906 13.703125 -15.046875 C 14.878906 -12.460938 16.503906 -10.5 18.578125 -9.15625 C 20.660156 -7.820312 23.070312 -7.15625 25.8125 -7.15625 C 27.300781 -7.15625 28.691406 -7.359375 29.984375 -7.765625 C 31.273438 -8.171875 32.441406 -8.765625 33.484375 -9.546875 C 34.523438 -10.335938 35.398438 -11.304688 36.109375 -12.453125 C 36.828125 -13.609375 37.328125 -14.921875 37.609375 -16.390625 L 46.4375 -16.390625 C 46.09375 -13.960938 45.351562 -11.71875 44.21875 -9.65625 C 43.09375 -7.59375 41.628906 -5.785156 39.828125 -4.234375 C 38.035156 -2.679688 35.945312 -1.472656 33.5625 -0.609375 C 31.175781 0.253906 28.550781 0.6875 25.6875 0.6875 Z M 25.6875 0.6875 "/></g></g></g><g fill="#d4b78a" fill-opacity="1"><g transform="translate(1097.826856, 66.009132)"><g><path d="M 2.46875 -41.515625 L 2.46875 -48.9375 L 41.453125 -48.9375 L 41.453125 -41.515625 L 26.34375 -41.515625 L 26.34375 0 L 17.609375 0 L 17.609375 -41.515625 Z M 2.46875 -41.515625 "/></g></g></g></g></g></svg>