<svg xmlns="http://www.w3.org/2000/svg" viewBox="-32 12 380 380" width="512" height="512" role="img" aria-label="Farm Eden"><path fill="#52632e" d="M 157.816406 20.402344 C 198.351562 20.320312 236.363281 38.054688 263.277344 67.097656 C 277.4375 82.382812 288.425781 100.3125 296.25 120.890625 C 305.613281 145.511719 310.523438 170.722656 310.980469 196.515625 C 311.222656 210.296875 311.164062 225.488281 309.113281 239.617188 C 307.007812 254.144531 304.054688 267.183594 300.257812 278.742188 C 296.050781 291.527344 289.839844 304.542969 281.628906 317.785156 C 254.476562 361.597656 210.152344 384.5 158.503906 384.601562 C 106.84375 384.691406 62.425781 361.960938 35.113281 318.253906 C 26.855469 305.035156 20.597656 292.042969 16.335938 279.277344 C 12.5 267.730469 9.503906 254.695312 7.34375 240.175781 C 5.234375 226.0625 5.121094 210.871094 5.316406 197.089844 C 5.671875 171.296875 10.488281 146.066406 19.761719 121.40625 C 27.507812 100.796875 38.429688 82.828125 52.527344 67.5 C 79.324219 38.355469 117.28125 20.46875 157.816406 20.402344 Z M 98.960938 74.421875 C 98.953125 74.28125 99.011719 74.175781 99.132812 74.105469 C 99.253906 74.035156 99.371094 74.035156 99.488281 74.109375 C 101.160156 75.203125 102.351562 76.125 103.050781 76.871094 C 113.394531 87.878906 118.078125 101.042969 117.109375 116.363281 C 117.011719 117.921875 116.792969 120.105469 116.457031 122.917969 C 116.390625 123.484375 116.496094 124.019531 116.765625 124.519531 C 117.492188 125.851562 118.363281 127.003906 119.378906 127.980469 C 123.878906 132.304688 133.820312 142.171875 149.210938 157.585938 C 149.472656 157.84375 149.746094 157.988281 150.035156 158.019531 C 150.277344 158.046875 150.511719 158.023438 150.738281 157.949219 C 150.96875 157.875 151.171875 157.757812 151.347656 157.597656 C 151.527344 157.433594 151.664062 157.246094 151.757812 157.023438 C 151.851562 156.804688 151.898438 156.574219 151.894531 156.335938 C 151.394531 115.65625 151.363281 75.28125 151.789062 35.203125 C 151.792969 34.9375 151.738281 34.683594 151.628906 34.441406 C 151.523438 34.199219 151.367188 33.988281 151.167969 33.816406 C 150.964844 33.640625 150.738281 33.515625 150.480469 33.445312 C 150.226562 33.371094 149.96875 33.351562 149.703125 33.394531 C 140.203125 34.835938 134.507812 35.746094 132.621094 36.121094 C 126.214844 37.386719 118.289062 39.894531 108.847656 43.636719 C 92.109375 50.304688 79.292969 60.316406 66.183594 72.039062 C 66.027344 72.175781 65.90625 72.34375 65.8125 72.53125 C 65.722656 72.71875 65.671875 72.917969 65.660156 73.128906 C 65.644531 73.339844 65.671875 73.542969 65.738281 73.742188 C 65.808594 73.941406 65.910156 74.121094 66.046875 74.28125 C 67.460938 75.910156 69.035156 77.601562 70.765625 79.359375 C 89.394531 97.996094 101.617188 110.246094 107.429688 116.113281 C 108.535156 117.226562 109.503906 117.835938 110.328125 117.945312 C 110.425781 117.957031 110.523438 117.945312 110.617188 117.910156 C 110.710938 117.875 110.789062 117.820312 110.855469 117.75 C 110.921875 117.675781 110.96875 117.589844 110.992188 117.496094 C 111.015625 117.402344 111.015625 117.304688 110.992188 117.210938 C 110.960938 117.089844 109.234375 114.210938 105.8125 108.574219 C 104.363281 106.175781 103.074219 102.570312 101.953125 97.757812 C 100.316406 90.722656 99.320312 82.945312 98.960938 74.421875 Z M 217.300781 74.410156 C 216.957031 82.925781 215.972656 90.695312 214.355469 97.722656 C 213.238281 102.527344 211.957031 106.128906 210.503906 108.527344 C 207.097656 114.15625 205.378906 117.03125 205.351562 117.152344 C 205.328125 117.25 205.328125 117.34375 205.351562 117.4375 C 205.375 117.535156 205.421875 117.617188 205.488281 117.691406 C 205.554688 117.765625 205.632812 117.820312 205.726562 117.851562 C 205.820312 117.886719 205.914062 117.898438 206.015625 117.886719 C 206.839844 117.78125 207.800781 117.167969 208.902344 116.054688 C 214.699219 110.1875 226.886719 97.9375 245.460938 79.300781 C 247.195312 77.550781 248.761719 75.863281 250.167969 74.238281 C 250.308594 74.078125 250.410156 73.898438 250.476562 73.699219 C 250.546875 73.5 250.574219 73.296875 250.558594 73.085938 C 250.546875 72.875 250.496094 72.675781 250.402344 72.488281 C 250.3125 72.296875 250.1875 72.132812 250.03125 71.992188 C 236.925781 60.304688 224.117188 50.328125 207.390625 43.691406 C 197.957031 39.964844 190.039062 37.472656 183.640625 36.210938 C 181.761719 35.84375 176.074219 34.949219 166.582031 33.519531 C 166.320312 33.480469 166.058594 33.5 165.804688 33.574219 C 165.550781 33.648438 165.324219 33.773438 165.125 33.945312 C 164.925781 34.121094 164.773438 34.328125 164.664062 34.570312 C 164.554688 34.8125 164.503906 35.066406 164.507812 35.328125 C 164.988281 75.34375 165.007812 115.660156 164.5625 156.277344 C 164.5625 156.519531 164.605469 156.746094 164.703125 156.96875 C 164.796875 157.1875 164.933594 157.375 165.113281 157.535156 C 165.289062 157.695312 165.492188 157.8125 165.722656 157.886719 C 165.949219 157.957031 166.183594 157.980469 166.417969 157.953125 C 166.710938 157.921875 166.984375 157.777344 167.246094 157.515625 C 182.589844 142.109375 192.503906 132.246094 196.988281 127.921875 C 198.003906 126.945312 198.875 125.792969 199.597656 124.464844 C 199.867188 123.960938 199.964844 123.425781 199.898438 122.859375 C 199.558594 120.054688 199.34375 117.875 199.242188 116.316406 C 198.25 101.019531 202.910156 87.871094 213.222656 76.871094 C 213.921875 76.125 215.105469 75.203125 216.773438 74.109375 C 216.886719 74.039062 217.003906 74.035156 217.125 74.101562 C 217.246094 74.167969 217.300781 74.273438 217.300781 74.410156 Z M 106.902344 214.375 C 107.019531 214.308594 107.117188 214.222656 107.195312 214.113281 C 107.273438 214.003906 107.328125 213.882812 107.355469 213.753906 C 107.382812 213.621094 107.378906 213.492188 107.351562 213.359375 C 107.324219 213.230469 107.269531 213.109375 107.1875 213 C 102.179688 206.136719 99.082031 198.710938 97.898438 190.730469 C 97.003906 184.757812 96.164062 178.519531 95.375 172.019531 C 95.363281 171.925781 95.367188 171.828125 95.378906 171.734375 C 95.390625 171.636719 95.417969 171.546875 95.453125 171.457031 C 95.492188 171.367188 95.539062 171.285156 95.597656 171.210938 C 95.65625 171.132812 95.722656 171.066406 95.800781 171.007812 C 95.875 170.945312 95.957031 170.898438 96.046875 170.863281 C 96.136719 170.824219 96.226562 170.796875 96.324219 170.785156 C 96.417969 170.773438 96.515625 170.769531 96.609375 170.78125 C 96.707031 170.792969 96.800781 170.816406 96.890625 170.851562 C 97.421875 171.074219 98.097656 171.605469 98.917969 172.445312 C 108.648438 182.488281 113.539062 194.453125 113.59375 208.339844 C 113.609375 211.652344 113.464844 215.25 113.167969 219.132812 C 113.117188 219.792969 113.203125 220.4375 113.429688 221.0625 C 113.652344 221.6875 113.992188 222.238281 114.453125 222.71875 C 123.25 231.84375 132.933594 241.488281 143.496094 251.644531 C 145.417969 253.488281 147.113281 255.851562 148.84375 257.441406 C 149.179688 257.75 149.554688 257.929688 149.972656 257.980469 C 150.390625 258.03125 150.753906 257.945312 151.066406 257.71875 C 151.410156 257.472656 151.582031 257.023438 151.582031 256.367188 C 151.574219 221.164062 151.527344 202.375 151.433594 200 C 151.097656 191.046875 148.671875 182.339844 144.160156 173.875 C 141.078125 168.101562 135.417969 162.078125 130.605469 157.082031 C 128.664062 155.074219 126.988281 154.132812 125.578125 154.261719 C 123.222656 154.484375 119.972656 154.523438 115.828125 154.378906 C 101.15625 153.878906 88.894531 148.394531 79.050781 137.914062 C 78.816406 137.667969 78.773438 137.394531 78.917969 137.089844 C 79.066406 136.785156 79.308594 136.644531 79.644531 136.675781 C 87.238281 137.308594 95.054688 138.324219 103.097656 139.710938 C 107.074219 140.410156 109.527344 141.558594 113.730469 143.207031 C 114.03125 143.328125 114.296875 143.273438 114.527344 143.046875 C 114.757812 142.824219 114.816406 142.558594 114.703125 142.257812 C 114.46875 141.621094 113.90625 140.859375 113.019531 139.964844 C 101.824219 128.667969 92.363281 119.191406 84.640625 111.527344 C 74.339844 101.308594 66.289062 92.5 57.109375 84.421875 C 56.988281 84.316406 56.851562 84.238281 56.703125 84.191406 C 56.550781 84.140625 56.394531 84.121094 56.234375 84.136719 C 56.074219 84.148438 55.925781 84.191406 55.78125 84.265625 C 55.640625 84.339844 55.515625 84.4375 55.414062 84.558594 C 46.664062 95.179688 39.511719 108.835938 38.953125 122.457031 C 38.332031 137.421875 43.253906 150.605469 53.71875 162.007812 C 58.050781 166.71875 71.175781 179.847656 93.097656 201.382812 C 95.488281 203.730469 98.097656 206.382812 100.933594 209.347656 C 103.40625 211.929688 105.117188 213.648438 106.066406 214.503906 C 106.226562 214.648438 106.398438 214.664062 106.582031 214.558594 Z M 209.324219 214.363281 L 209.644531 214.546875 C 209.828125 214.65625 210 214.636719 210.160156 214.492188 C 211.101562 213.636719 212.808594 211.921875 215.28125 209.347656 C 218.109375 206.382812 220.71875 203.730469 223.109375 201.382812 C 244.992188 179.851562 258.097656 166.730469 262.425781 162.019531 C 272.867188 150.625 277.777344 137.453125 277.148438 122.503906 C 276.589844 108.894531 269.4375 95.25 260.6875 84.652344 C 260.582031 84.527344 260.460938 84.429688 260.316406 84.355469 C 260.175781 84.28125 260.023438 84.238281 259.863281 84.222656 C 259.703125 84.210938 259.546875 84.230469 259.398438 84.28125 C 259.246094 84.332031 259.109375 84.40625 258.992188 84.515625 C 249.824219 92.589844 241.78125 101.390625 231.503906 111.609375 C 223.792969 119.269531 214.34375 128.746094 203.160156 140.035156 C 202.285156 140.925781 201.726562 141.691406 201.488281 142.324219 C 201.375 142.628906 201.4375 142.890625 201.667969 143.117188 C 201.898438 143.34375 202.164062 143.394531 202.464844 143.277344 C 206.65625 141.625 209.109375 140.480469 213.082031 139.78125 C 221.109375 138.382812 228.917969 137.367188 236.5 136.734375 C 236.835938 136.703125 237.074219 136.839844 237.226562 137.136719 C 237.375 137.4375 237.335938 137.710938 237.109375 137.960938 C 227.277344 148.4375 215.03125 153.929688 200.367188 154.433594 C 196.226562 154.578125 192.980469 154.542969 190.628906 154.320312 C 189.214844 154.199219 187.542969 155.136719 185.609375 157.136719 C 180.796875 162.132812 175.148438 168.160156 172.078125 173.933594 C 167.574219 182.390625 165.15625 191.089844 164.828125 200.03125 C 164.734375 202.40625 164.695312 221.179688 164.703125 256.34375 C 164.703125 257 164.875 257.449219 165.21875 257.695312 C 165.527344 257.921875 165.894531 258.007812 166.3125 257.957031 C 166.730469 257.90625 167.105469 257.726562 167.441406 257.417969 C 169.167969 255.828125 170.863281 253.46875 172.777344 251.621094 C 183.328125 241.472656 192.996094 231.832031 201.785156 222.707031 C 202.246094 222.226562 202.582031 221.675781 202.804688 221.050781 C 203.027344 220.425781 203.113281 219.78125 203.058594 219.121094 C 202.761719 215.246094 202.621094 211.652344 202.632812 208.339844 C 202.679688 194.46875 207.5625 182.515625 217.277344 172.480469 C 218.09375 171.640625 218.769531 171.109375 219.304688 170.886719 C 219.394531 170.851562 219.484375 170.828125 219.582031 170.816406 C 219.675781 170.804688 219.769531 170.804688 219.867188 170.820312 C 219.960938 170.832031 220.050781 170.859375 220.140625 170.894531 C 220.230469 170.933594 220.3125 170.980469 220.386719 171.039062 C 220.464844 171.097656 220.53125 171.164062 220.589844 171.238281 C 220.648438 171.3125 220.695312 171.394531 220.734375 171.484375 C 220.773438 171.574219 220.796875 171.664062 220.8125 171.757812 C 220.824219 171.851562 220.828125 171.949219 220.816406 172.042969 C 220.03125 178.542969 219.195312 184.777344 218.308594 190.742188 C 217.125 198.714844 214.035156 206.136719 209.039062 213 C 208.960938 213.109375 208.910156 213.226562 208.878906 213.355469 C 208.851562 213.488281 208.851562 213.617188 208.878906 213.746094 C 208.90625 213.875 208.960938 213.996094 209.039062 214.101562 C 209.113281 214.210938 209.210938 214.296875 209.324219 214.363281 Z M 205.339844 318.816406 C 206.476562 318.25 207.859375 317.121094 209.484375 315.425781 C 213.214844 311.539062 217.792969 306.945312 223.222656 301.652344 C 240.203125 285.097656 256.332031 268.660156 282.15625 242.628906 C 292.214844 232.484375 297.347656 220.164062 297.554688 205.65625 C 297.632812 199.320312 297.851562 194.246094 297.1875 189.011719 C 296.328125 182.261719 295.984375 171.632812 294.378906 162.855469 C 293.328125 157.105469 292.746094 153.972656 292.640625 153.460938 C 292.617188 153.367188 292.585938 153.277344 292.539062 153.191406 C 292.496094 153.105469 292.441406 153.023438 292.378906 152.953125 C 292.3125 152.882812 292.242188 152.820312 292.160156 152.765625 C 292.082031 152.710938 291.996094 152.667969 291.902344 152.636719 C 291.8125 152.609375 291.71875 152.589844 291.625 152.582031 C 291.527344 152.574219 291.433594 152.582031 291.339844 152.597656 C 291.246094 152.617188 291.152344 152.644531 291.066406 152.6875 C 290.980469 152.726562 290.902344 152.78125 290.828125 152.84375 C 289.660156 153.828125 288.4375 154.957031 287.164062 156.234375 C 284.605469 158.808594 269.027344 174.320312 240.429688 202.769531 C 238.035156 205.152344 236.328125 207.34375 233.695312 210.242188 C 233.59375 210.355469 233.539062 210.488281 233.53125 210.640625 C 233.527344 210.789062 233.570312 210.925781 233.664062 211.050781 C 233.753906 211.171875 233.878906 211.25 234.027344 211.289062 C 234.175781 211.324219 234.320312 211.3125 234.460938 211.25 C 246.183594 205.578125 259.070312 203.652344 272.566406 202.414062 C 272.6875 202.402344 272.804688 202.421875 272.917969 202.472656 C 273.027344 202.519531 273.121094 202.59375 273.195312 202.6875 C 273.269531 202.785156 273.316406 202.894531 273.335938 203.015625 C 273.355469 203.132812 273.34375 203.253906 273.300781 203.367188 C 273.164062 203.769531 272.945312 204.125 272.648438 204.433594 C 259.550781 217.949219 243.777344 221.871094 225.042969 219.820312 C 224.507812 219.761719 223.984375 219.820312 223.476562 220 C 222.96875 220.179688 222.527344 220.457031 222.144531 220.839844 C 210 233.074219 198.464844 244.988281 186.59375 256.628906 C 182.203125 260.9375 179.34375 263.925781 178.015625 265.601562 C 169.660156 276.109375 165.332031 288.125 165.035156 301.644531 C 164.621094 320.9375 164.519531 339.398438 164.722656 357.023438 C 164.726562 357.21875 164.769531 357.40625 164.847656 357.582031 C 164.929688 357.761719 165.042969 357.914062 165.1875 358.042969 C 165.332031 358.171875 165.496094 358.265625 165.683594 358.324219 C 165.867188 358.382812 166.054688 358.398438 166.246094 358.375 C 166.753906 358.308594 167.132812 358.117188 167.394531 357.804688 C 170.050781 354.617188 172.855469 351.703125 175.804688 349.050781 C 181.828125 343.65625 187.453125 337.125 194.144531 331.007812 C 195.484375 329.792969 196.894531 327.820312 196.828125 326.261719 C 196.46875 318.167969 196.519531 312.375 196.988281 308.882812 C 198.707031 296.183594 204.371094 285.679688 213.988281 277.378906 C 214.207031 277.195312 214.441406 277.167969 214.695312 277.296875 C 214.949219 277.425781 215.0625 277.632812 215.042969 277.914062 C 214.394531 285.109375 213.347656 292.707031 211.902344 300.703125 C 210.792969 306.84375 207.628906 313.410156 204.847656 318.289062 C 204.753906 318.449219 204.773438 318.597656 204.898438 318.734375 C 205.023438 318.867188 205.171875 318.894531 205.339844 318.816406 Z M 102.503906 277.8125 C 103.90625 278.738281 105.214844 279.886719 106.421875 281.261719 C 117.375 293.667969 121.199219 308.242188 119.597656 324.554688 C 119.125 329.324219 122.300781 330.742188 125.09375 333.574219 C 137.890625 346.496094 145.773438 354.511719 148.753906 357.621094 C 148.929688 357.804688 149.136719 357.945312 149.375 358.042969 C 149.613281 358.136719 149.859375 358.179688 150.113281 358.167969 C 150.371094 358.15625 150.613281 358.09375 150.839844 357.980469 C 151.070312 357.863281 151.261719 357.707031 151.421875 357.507812 C 151.554688 357.351562 151.621094 357.082031 151.628906 356.691406 C 151.773438 349.382812 151.78125 334.300781 151.652344 311.449219 C 151.589844 300.992188 151.082031 293.855469 150.128906 290.035156 C 148.386719 283.039062 145.621094 276.417969 141.832031 270.171875 C 140.230469 267.527344 133.503906 260.253906 121.660156 248.347656 C 113.042969 239.683594 103.734375 230.378906 93.738281 220.425781 C 93.441406 220.128906 93.097656 219.914062 92.703125 219.78125 C 92.308594 219.648438 91.902344 219.613281 91.492188 219.667969 C 75.109375 221.902344 59.011719 218.144531 46.605469 207.160156 C 45.128906 205.851562 44.117188 204.609375 43.570312 203.421875 C 43.53125 203.34375 43.515625 203.257812 43.519531 203.171875 C 43.527344 203.082031 43.554688 203 43.605469 202.925781 C 43.652344 202.851562 43.71875 202.792969 43.796875 202.753906 C 43.875 202.714844 43.960938 202.695312 44.050781 202.703125 C 53.148438 203.222656 62.132812 204.621094 71.007812 206.90625 C 75.03125 207.945312 78.867188 209.660156 82.511719 212.050781 C 82.644531 212.136719 82.789062 212.171875 82.949219 212.15625 C 83.105469 212.140625 83.242188 212.078125 83.359375 211.964844 C 83.472656 211.855469 83.539062 211.722656 83.5625 211.5625 C 83.582031 211.40625 83.554688 211.257812 83.472656 211.121094 C 82.472656 209.433594 81.179688 207.84375 79.601562 206.34375 C 76.21875 203.144531 65.578125 192.464844 47.683594 174.300781 C 41.804688 168.332031 35.183594 162.421875 29.203125 156.496094 C 27.933594 155.238281 26.675781 154.234375 25.433594 153.496094 C 25.300781 153.414062 25.15625 153.367188 25 153.355469 C 24.84375 153.34375 24.695312 153.367188 24.550781 153.425781 C 24.40625 153.484375 24.28125 153.570312 24.175781 153.6875 C 24.070312 153.804688 23.996094 153.941406 23.953125 154.089844 C 21.539062 162.730469 20.90625 168.996094 19.714844 180.199219 C 19.128906 185.648438 18.773438 192.277344 18.648438 200.089844 C 18.503906 208.804688 19.15625 215.390625 20.597656 219.851562 C 23.660156 229.308594 28.035156 236.902344 33.714844 242.628906 C 61.53125 270.664062 81.433594 289.832031 108.277344 316.867188 C 108.667969 317.257812 109.128906 317.632812 109.664062 317.992188 C 109.90625 318.148438 110.136719 318.136719 110.363281 317.957031 C 110.585938 317.777344 110.648438 317.550781 110.546875 317.28125 C 109.605469 314.9375 108.296875 311.917969 106.617188 308.230469 C 105.355469 305.457031 104.234375 300.578125 103.246094 293.589844 C 102.132812 285.78125 101.488281 280.757812 101.3125 278.511719 C 101.285156 278.191406 101.410156 277.949219 101.6875 277.789062 C 101.964844 277.625 102.234375 277.632812 102.503906 277.8125 Z M 47.808594 306.570312 C 56.613281 307.554688 62.945312 308.289062 66.804688 308.769531 C 72.5625 309.472656 78.175781 311.132812 83.644531 313.753906 C 83.96875 313.898438 84.277344 313.871094 84.570312 313.660156 C 84.859375 313.453125 84.988281 313.167969 84.949219 312.8125 C 84.882812 312.210938 84.511719 311.574219 83.839844 310.910156 C 64.855469 292.132812 46.765625 273.46875 25.671875 253.144531 C 25.117188 252.613281 24.640625 252.347656 24.253906 252.355469 C 24.113281 252.359375 23.980469 252.398438 23.859375 252.464844 C 23.734375 252.53125 23.632812 252.625 23.546875 252.742188 C 23.460938 252.855469 23.402344 252.988281 23.371094 253.132812 C 23.34375 253.277344 23.339844 253.421875 23.371094 253.570312 C 29.257812 283.863281 44.792969 315.710938 67.261719 336.839844 C 86.15625 354.617188 109.257812 365.667969 136.5625 369.984375 C 138.28125 370.25 139.582031 370.230469 140.457031 369.925781 C 140.5625 369.890625 140.65625 369.84375 140.746094 369.785156 C 140.835938 369.722656 140.917969 369.652344 140.988281 369.574219 C 141.0625 369.492188 141.121094 369.40625 141.171875 369.308594 C 141.21875 369.214844 141.257812 369.113281 141.28125 369.007812 C 141.304688 368.902344 141.3125 368.796875 141.308594 368.6875 C 141.304688 368.582031 141.289062 368.476562 141.257812 368.371094 C 141.226562 368.269531 141.183594 368.171875 141.128906 368.078125 C 141.074219 367.988281 141.007812 367.902344 140.929688 367.828125 C 127.84375 355.097656 114.398438 341.621094 100.589844 327.398438 C 97.816406 324.535156 96.578125 323.925781 92.617188 324.28125 C 75.660156 325.78125 59 320.132812 47.382812 307.382812 C 47.238281 307.214844 47.214844 307.03125 47.320312 306.832031 C 47.421875 306.632812 47.585938 306.546875 47.808594 306.570312 Z M 268.511719 306.523438 C 268.734375 306.5 268.898438 306.585938 269 306.785156 C 269.105469 306.984375 269.082031 307.167969 268.933594 307.335938 C 257.328125 320.101562 240.671875 325.757812 223.703125 324.269531 C 219.738281 323.925781 218.503906 324.535156 215.730469 327.398438 C 201.929688 341.632812 188.484375 355.125 175.402344 367.875 C 175.324219 367.949219 175.257812 368.03125 175.203125 368.125 C 175.144531 368.21875 175.101562 368.316406 175.070312 368.417969 C 175.042969 368.523438 175.023438 368.628906 175.019531 368.734375 C 175.015625 368.84375 175.027344 368.949219 175.050781 369.054688 C 175.074219 369.160156 175.109375 369.261719 175.160156 369.355469 C 175.207031 369.453125 175.269531 369.539062 175.339844 369.621094 C 175.414062 369.699219 175.492188 369.769531 175.582031 369.828125 C 175.675781 369.890625 175.769531 369.9375 175.871094 369.972656 C 176.75 370.277344 178.046875 370.296875 179.765625 370.027344 C 207.078125 365.691406 230.183594 354.617188 249.082031 336.816406 C 271.535156 315.664062 287.046875 283.792969 292.925781 253.488281 C 292.953125 253.34375 292.953125 253.195312 292.921875 253.050781 C 292.890625 252.902344 292.832031 252.773438 292.746094 252.65625 C 292.660156 252.539062 292.554688 252.445312 292.429688 252.378906 C 292.304688 252.3125 292.171875 252.277344 292.03125 252.277344 C 291.640625 252.269531 291.167969 252.53125 290.613281 253.066406 C 269.53125 273.414062 251.453125 292.097656 232.46875 310.886719 C 231.796875 311.558594 231.425781 312.199219 231.355469 312.800781 C 231.324219 313.160156 231.453125 313.441406 231.746094 313.648438 C 232.039062 313.855469 232.347656 313.882812 232.675781 313.730469 C 238.144531 311.109375 243.757812 309.445312 249.515625 308.734375 C 253.371094 308.253906 259.703125 307.515625 268.511719 306.523438 Z M 268.511719 306.523438 " fill-opacity="1" fill-rule="nonzero"/><path fill="#52632e" d="M 193.628906 57.183594 C 194.101562 57.503906 194.527344 57.882812 194.910156 58.316406 C 195.292969 58.75 195.625 59.230469 195.902344 59.761719 C 196.179688 60.292969 196.398438 60.863281 196.558594 61.46875 C 196.722656 62.078125 196.824219 62.710938 196.863281 63.371094 C 196.902344 64.03125 196.882812 64.707031 196.800781 65.394531 C 196.714844 66.082031 196.574219 66.773438 196.371094 67.460938 C 196.167969 68.152344 195.90625 68.828125 195.59375 69.496094 C 195.277344 70.160156 194.910156 70.800781 194.496094 71.414062 C 194.078125 72.027344 193.621094 72.605469 193.121094 73.144531 C 192.621094 73.683594 192.089844 74.175781 191.523438 74.621094 C 190.957031 75.066406 190.371094 75.457031 189.761719 75.789062 C 189.152344 76.121094 188.535156 76.390625 187.90625 76.601562 C 187.277344 76.808594 186.652344 76.949219 186.027344 77.023438 C 185.40625 77.097656 184.792969 77.105469 184.199219 77.046875 C 183.601562 76.984375 183.03125 76.859375 182.488281 76.664062 C 181.941406 76.46875 181.433594 76.210938 180.960938 75.890625 C 180.488281 75.570312 180.058594 75.195312 179.679688 74.761719 C 179.296875 74.328125 178.964844 73.84375 178.6875 73.316406 C 178.410156 72.785156 178.191406 72.214844 178.027344 71.605469 C 177.867188 71 177.765625 70.367188 177.722656 69.707031 C 177.683594 69.042969 177.707031 68.371094 177.789062 67.679688 C 177.871094 66.992188 178.015625 66.304688 178.21875 65.613281 C 178.421875 64.921875 178.679688 64.246094 178.996094 63.582031 C 179.3125 62.917969 179.679688 62.277344 180.09375 61.664062 C 180.507812 61.046875 180.96875 60.472656 181.46875 59.933594 C 181.96875 59.390625 182.5 58.898438 183.066406 58.453125 C 183.628906 58.007812 184.21875 57.621094 184.824219 57.289062 C 185.433594 56.953125 186.050781 56.683594 186.679688 56.476562 C 187.308594 56.269531 187.933594 56.128906 188.558594 56.050781 C 189.183594 55.976562 189.792969 55.96875 190.390625 56.03125 C 190.984375 56.089844 191.554688 56.21875 192.101562 56.414062 C 192.644531 56.605469 193.15625 56.863281 193.628906 57.183594 Z M 193.628906 57.183594 " fill-opacity="1" fill-rule="nonzero"/><path fill="#52632e" d="M 122.363281 57.679688 C 122.816406 57.339844 123.3125 57.0625 123.84375 56.84375 C 124.375 56.628906 124.933594 56.472656 125.519531 56.386719 C 126.109375 56.296875 126.710938 56.273438 127.332031 56.320312 C 127.953125 56.363281 128.582031 56.472656 129.210938 56.648438 C 129.84375 56.824219 130.464844 57.0625 131.082031 57.359375 C 131.699219 57.660156 132.296875 58.015625 132.875 58.429688 C 133.453125 58.839844 134 59.300781 134.519531 59.8125 C 135.035156 60.320312 135.511719 60.867188 135.949219 61.457031 C 136.386719 62.042969 136.777344 62.65625 137.117188 63.296875 C 137.457031 63.941406 137.742188 64.597656 137.972656 65.269531 C 138.203125 65.941406 138.375 66.613281 138.484375 67.292969 C 138.597656 67.96875 138.644531 68.632812 138.632812 69.289062 C 138.621094 69.941406 138.546875 70.574219 138.410156 71.183594 C 138.277344 71.789062 138.082031 72.363281 137.832031 72.898438 C 137.578125 73.4375 137.269531 73.929688 136.910156 74.378906 C 136.550781 74.824219 136.140625 75.21875 135.6875 75.554688 C 135.230469 75.894531 134.738281 76.171875 134.207031 76.390625 C 133.675781 76.609375 133.117188 76.761719 132.53125 76.851562 C 131.941406 76.941406 131.335938 76.960938 130.714844 76.917969 C 130.09375 76.875 129.46875 76.765625 128.839844 76.589844 C 128.207031 76.414062 127.582031 76.175781 126.96875 75.875 C 126.351562 75.578125 125.753906 75.21875 125.175781 74.808594 C 124.597656 74.394531 124.050781 73.933594 123.53125 73.425781 C 123.015625 72.914062 122.535156 72.367188 122.097656 71.78125 C 121.660156 71.195312 121.273438 70.578125 120.933594 69.9375 C 120.59375 69.296875 120.308594 68.640625 120.078125 67.96875 C 119.847656 67.296875 119.675781 66.621094 119.566406 65.945312 C 119.453125 65.269531 119.40625 64.605469 119.417969 63.949219 C 119.429688 63.292969 119.503906 62.664062 119.636719 62.054688 C 119.773438 61.445312 119.96875 60.875 120.21875 60.335938 C 120.472656 59.796875 120.777344 59.304688 121.140625 58.859375 C 121.5 58.414062 121.90625 58.019531 122.363281 57.679688 Z M 122.363281 57.679688 " fill-opacity="1" fill-rule="nonzero"/><path fill="#52632e" d="M 51.972656 113.832031 C 52.421875 113.492188 52.90625 113.214844 53.433594 112.996094 C 53.960938 112.777344 54.515625 112.625 55.097656 112.539062 C 55.683594 112.449219 56.285156 112.429688 56.902344 112.472656 C 57.523438 112.519531 58.148438 112.628906 58.78125 112.804688 C 59.414062 112.980469 60.039062 113.222656 60.660156 113.523438 C 61.28125 113.824219 61.882812 114.179688 62.46875 114.59375 C 63.050781 115.011719 63.605469 115.472656 64.132812 115.984375 C 64.65625 116.496094 65.144531 117.046875 65.589844 117.636719 C 66.039062 118.222656 66.4375 118.839844 66.789062 119.484375 C 67.140625 120.128906 67.4375 120.789062 67.679688 121.460938 C 67.921875 122.136719 68.101562 122.8125 68.226562 123.488281 C 68.351562 124.167969 68.410156 124.835938 68.410156 125.492188 C 68.410156 126.148438 68.351562 126.78125 68.226562 127.390625 C 68.105469 128 67.921875 128.574219 67.679688 129.113281 C 67.4375 129.652344 67.140625 130.144531 66.789062 130.59375 C 66.4375 131.039062 66.039062 131.433594 65.59375 131.773438 C 65.144531 132.113281 64.660156 132.390625 64.132812 132.609375 C 63.609375 132.828125 63.054688 132.980469 62.46875 133.066406 C 61.886719 133.15625 61.28125 133.175781 60.664062 133.132812 C 60.042969 133.085938 59.417969 132.976562 58.785156 132.800781 C 58.152344 132.621094 57.527344 132.382812 56.90625 132.082031 C 56.285156 131.78125 55.683594 131.421875 55.097656 131.007812 C 54.515625 130.59375 53.960938 130.132812 53.433594 129.621094 C 52.910156 129.109375 52.421875 128.558594 51.976562 127.96875 C 51.527344 127.378906 51.128906 126.765625 50.777344 126.121094 C 50.425781 125.476562 50.128906 124.816406 49.886719 124.144531 C 49.644531 123.46875 49.464844 122.792969 49.339844 122.113281 C 49.214844 121.4375 49.15625 120.769531 49.15625 120.113281 C 49.15625 119.457031 49.214844 118.824219 49.339844 118.214844 C 49.464844 117.605469 49.644531 117.03125 49.886719 116.492188 C 50.128906 115.953125 50.425781 115.460938 50.777344 115.011719 C 51.128906 114.566406 51.527344 114.171875 51.972656 113.832031 Z M 51.972656 113.832031 " fill-opacity="1" fill-rule="nonzero"/><path fill="#52632e" d="M 264.34375 113.738281 C 264.800781 114.078125 265.210938 114.476562 265.574219 114.929688 C 265.9375 115.382812 266.246094 115.882812 266.496094 116.425781 C 266.75 116.972656 266.941406 117.554688 267.074219 118.171875 C 267.207031 118.789062 267.277344 119.429688 267.285156 120.09375 C 267.292969 120.761719 267.238281 121.4375 267.121094 122.125 C 267.003906 122.8125 266.828125 123.496094 266.589844 124.179688 C 266.351562 124.863281 266.058594 125.53125 265.710938 126.183594 C 265.363281 126.835938 264.964844 127.460938 264.515625 128.058594 C 264.070312 128.65625 263.582031 129.214844 263.054688 129.734375 C 262.527344 130.253906 261.96875 130.722656 261.378906 131.144531 C 260.792969 131.566406 260.183594 131.929688 259.558594 132.234375 C 258.933594 132.542969 258.296875 132.785156 257.660156 132.964844 C 257.019531 133.144531 256.382812 133.257812 255.753906 133.304688 C 255.125 133.351562 254.511719 133.332031 253.917969 133.242188 C 253.324219 133.15625 252.757812 133 252.21875 132.78125 C 251.683594 132.5625 251.1875 132.28125 250.726562 131.9375 C 250.269531 131.59375 249.859375 131.195312 249.496094 130.742188 C 249.132812 130.289062 248.828125 129.792969 248.574219 129.246094 C 248.320312 128.699219 248.128906 128.117188 247.996094 127.5 C 247.863281 126.886719 247.792969 126.242188 247.785156 125.578125 C 247.777344 124.914062 247.832031 124.238281 247.949219 123.550781 C 248.066406 122.863281 248.242188 122.175781 248.480469 121.496094 C 248.71875 120.8125 249.011719 120.144531 249.359375 119.488281 C 249.710938 118.835938 250.105469 118.210938 250.554688 117.613281 C 251 117.015625 251.488281 116.457031 252.015625 115.9375 C 252.542969 115.417969 253.101562 114.949219 253.691406 114.527344 C 254.28125 114.109375 254.886719 113.746094 255.511719 113.4375 C 256.140625 113.132812 256.773438 112.890625 257.414062 112.707031 C 258.054688 112.527344 258.6875 112.414062 259.316406 112.367188 C 259.945312 112.320312 260.558594 112.34375 261.152344 112.429688 C 261.75 112.519531 262.3125 112.671875 262.851562 112.890625 C 263.386719 113.113281 263.886719 113.394531 264.34375 113.738281 Z M 264.34375 113.738281 " fill-opacity="1" fill-rule="nonzero"/><path fill="#52632e" d="M 124.609375 191.285156 C 125.082031 190.960938 125.589844 190.699219 126.132812 190.496094 C 126.679688 190.296875 127.25 190.164062 127.847656 190.097656 C 128.445312 190.03125 129.058594 190.035156 129.683594 190.105469 C 130.3125 190.175781 130.941406 190.3125 131.574219 190.515625 C 132.210938 190.71875 132.832031 190.988281 133.449219 191.316406 C 134.0625 191.644531 134.65625 192.03125 135.230469 192.476562 C 135.804688 192.917969 136.34375 193.410156 136.855469 193.945312 C 137.363281 194.484375 137.828125 195.0625 138.253906 195.675781 C 138.679688 196.289062 139.054688 196.929688 139.382812 197.597656 C 139.707031 198.261719 139.976562 198.941406 140.1875 199.632812 C 140.402344 200.324219 140.554688 201.019531 140.644531 201.710938 C 140.738281 202.402344 140.765625 203.078125 140.734375 203.742188 C 140.703125 204.410156 140.609375 205.046875 140.453125 205.660156 C 140.300781 206.269531 140.085938 206.84375 139.8125 207.382812 C 139.542969 207.917969 139.214844 208.40625 138.835938 208.84375 C 138.457031 209.285156 138.035156 209.667969 137.5625 209.992188 C 137.09375 210.320312 136.585938 210.582031 136.039062 210.78125 C 135.496094 210.980469 134.925781 211.113281 134.328125 211.179688 C 133.730469 211.246094 133.117188 211.246094 132.488281 211.175781 C 131.863281 211.105469 131.230469 210.96875 130.597656 210.761719 C 129.964844 210.558594 129.339844 210.292969 128.726562 209.964844 C 128.109375 209.632812 127.515625 209.246094 126.941406 208.804688 C 126.371094 208.363281 125.828125 207.871094 125.320312 207.332031 C 124.8125 206.792969 124.34375 206.21875 123.917969 205.601562 C 123.492188 204.988281 123.117188 204.347656 122.792969 203.683594 C 122.46875 203.015625 122.199219 202.339844 121.988281 201.644531 C 121.773438 200.953125 121.621094 200.261719 121.527344 199.570312 C 121.4375 198.878906 121.40625 198.199219 121.4375 197.535156 C 121.472656 196.871094 121.566406 196.234375 121.71875 195.621094 C 121.875 195.007812 122.089844 194.433594 122.359375 193.898438 C 122.632812 193.363281 122.957031 192.875 123.335938 192.433594 C 123.714844 191.996094 124.140625 191.613281 124.609375 191.285156 Z M 124.609375 191.285156 " fill-opacity="1" fill-rule="nonzero"/><path fill="#52632e" d="M 191.988281 191.773438 C 192.441406 192.113281 192.847656 192.511719 193.207031 192.964844 C 193.566406 193.414062 193.871094 193.914062 194.117188 194.457031 C 194.367188 195 194.558594 195.582031 194.6875 196.195312 C 194.816406 196.808594 194.882812 197.449219 194.890625 198.109375 C 194.894531 198.773438 194.835938 199.445312 194.71875 200.128906 C 194.597656 200.8125 194.417969 201.496094 194.179688 202.175781 C 193.941406 202.855469 193.648438 203.519531 193.296875 204.167969 C 192.945312 204.816406 192.546875 205.4375 192.101562 206.03125 C 191.652344 206.625 191.167969 207.179688 190.640625 207.695312 C 190.113281 208.210938 189.554688 208.675781 188.96875 209.09375 C 188.378906 209.511719 187.773438 209.871094 187.148438 210.171875 C 186.523438 210.476562 185.894531 210.71875 185.253906 210.894531 C 184.617188 211.070312 183.984375 211.183594 183.359375 211.226562 C 182.730469 211.273438 182.121094 211.25 181.53125 211.160156 C 180.941406 211.070312 180.378906 210.917969 179.84375 210.695312 C 179.3125 210.476562 178.816406 210.195312 178.363281 209.851562 C 177.90625 209.507812 177.5 209.113281 177.140625 208.660156 C 176.785156 208.207031 176.480469 207.710938 176.230469 207.167969 C 175.980469 206.621094 175.792969 206.042969 175.664062 205.429688 C 175.53125 204.8125 175.464844 204.175781 175.460938 203.511719 C 175.453125 202.851562 175.511719 202.179688 175.632812 201.496094 C 175.75 200.808594 175.929688 200.128906 176.167969 199.449219 C 176.40625 198.769531 176.703125 198.105469 177.050781 197.457031 C 177.402344 196.808594 177.800781 196.1875 178.25 195.59375 C 178.695312 195 179.183594 194.445312 179.710938 193.929688 C 180.238281 193.414062 180.796875 192.949219 181.382812 192.53125 C 181.96875 192.113281 182.574219 191.753906 183.199219 191.449219 C 183.824219 191.144531 184.457031 190.90625 185.09375 190.730469 C 185.730469 190.550781 186.363281 190.441406 186.992188 190.394531 C 187.617188 190.351562 188.226562 190.371094 188.816406 190.460938 C 189.410156 190.550781 189.972656 190.707031 190.503906 190.925781 C 191.039062 191.148438 191.53125 191.429688 191.988281 191.773438 Z M 191.988281 191.773438 " fill-opacity="1" fill-rule="nonzero"/><path fill="#52632e" d="M 71.292969 241.5625 C 71.75 241.214844 72.246094 240.925781 72.785156 240.699219 C 73.320312 240.46875 73.882812 240.304688 74.480469 240.207031 C 75.074219 240.109375 75.683594 240.078125 76.316406 240.113281 C 76.945312 240.152344 77.578125 240.253906 78.21875 240.421875 C 78.859375 240.589844 79.496094 240.820312 80.121094 241.113281 C 80.75 241.410156 81.359375 241.761719 81.949219 242.167969 C 82.539062 242.578125 83.097656 243.035156 83.628906 243.542969 C 84.15625 244.050781 84.648438 244.601562 85.097656 245.1875 C 85.546875 245.773438 85.945312 246.390625 86.296875 247.035156 C 86.648438 247.679688 86.945312 248.339844 87.183594 249.015625 C 87.425781 249.691406 87.605469 250.371094 87.722656 251.054688 C 87.84375 251.738281 87.898438 252.410156 87.894531 253.074219 C 87.886719 253.734375 87.820312 254.375 87.691406 254.992188 C 87.558594 255.609375 87.367188 256.191406 87.117188 256.738281 C 86.867188 257.289062 86.5625 257.789062 86.199219 258.246094 C 85.839844 258.703125 85.429688 259.109375 84.972656 259.457031 C 84.515625 259.808594 84.019531 260.097656 83.484375 260.324219 C 82.949219 260.550781 82.382812 260.714844 81.789062 260.8125 C 81.195312 260.910156 80.582031 260.941406 79.953125 260.90625 C 79.324219 260.871094 78.6875 260.769531 78.046875 260.601562 C 77.40625 260.433594 76.773438 260.203125 76.144531 259.90625 C 75.515625 259.613281 74.910156 259.261719 74.320312 258.851562 C 73.730469 258.445312 73.167969 257.984375 72.640625 257.476562 C 72.109375 256.96875 71.621094 256.421875 71.171875 255.835938 C 70.722656 255.246094 70.320312 254.632812 69.96875 253.988281 C 69.621094 253.34375 69.324219 252.683594 69.082031 252.003906 C 68.84375 251.328125 68.664062 250.648438 68.542969 249.964844 C 68.425781 249.285156 68.367188 248.613281 68.375 247.949219 C 68.378906 247.285156 68.449219 246.648438 68.578125 246.03125 C 68.707031 245.414062 68.898438 244.832031 69.148438 244.28125 C 69.398438 243.734375 69.707031 243.230469 70.066406 242.773438 C 70.425781 242.316406 70.835938 241.914062 71.292969 241.5625 Z M 71.292969 241.5625 " fill-opacity="1" fill-rule="nonzero"/><path fill="#52632e" d="M 244.742188 241.480469 C 245.214844 241.816406 245.640625 242.207031 246.019531 242.65625 C 246.402344 243.101562 246.726562 243.597656 247 244.140625 C 247.269531 244.683594 247.484375 245.261719 247.636719 245.878906 C 247.792969 246.492188 247.882812 247.132812 247.914062 247.800781 C 247.941406 248.464844 247.910156 249.144531 247.816406 249.835938 C 247.71875 250.523438 247.5625 251.214844 247.347656 251.902344 C 247.128906 252.589844 246.855469 253.265625 246.527344 253.925781 C 246.195312 254.585938 245.816406 255.21875 245.386719 255.824219 C 244.953125 256.429688 244.480469 256.996094 243.96875 257.523438 C 243.453125 258.054688 242.90625 258.53125 242.328125 258.964844 C 241.75 259.394531 241.148438 259.769531 240.527344 260.085938 C 239.910156 260.402344 239.277344 260.65625 238.640625 260.847656 C 238 261.039062 237.367188 261.164062 236.734375 261.21875 C 236.101562 261.277344 235.484375 261.265625 234.882812 261.1875 C 234.28125 261.109375 233.707031 260.964844 233.160156 260.753906 C 232.609375 260.542969 232.101562 260.269531 231.628906 259.933594 C 231.15625 259.597656 230.730469 259.203125 230.347656 258.757812 C 229.96875 258.308594 229.644531 257.8125 229.371094 257.273438 C 229.101562 256.730469 228.886719 256.152344 228.734375 255.535156 C 228.578125 254.917969 228.488281 254.277344 228.457031 253.613281 C 228.425781 252.945312 228.460938 252.269531 228.554688 251.578125 C 228.652344 250.886719 228.808594 250.199219 229.023438 249.507812 C 229.242188 248.820312 229.515625 248.148438 229.84375 247.488281 C 230.175781 246.828125 230.554688 246.195312 230.984375 245.589844 C 231.414062 244.984375 231.886719 244.414062 232.402344 243.886719 C 232.917969 243.359375 233.464844 242.878906 234.042969 242.449219 C 234.621094 242.015625 235.21875 241.640625 235.839844 241.324219 C 236.460938 241.007812 237.089844 240.753906 237.730469 240.5625 C 238.371094 240.371094 239.003906 240.25 239.636719 240.191406 C 240.269531 240.132812 240.886719 240.144531 241.488281 240.222656 C 242.089844 240.300781 242.664062 240.445312 243.210938 240.660156 C 243.757812 240.871094 244.269531 241.144531 244.742188 241.480469 Z M 244.742188 241.480469 " fill-opacity="1" fill-rule="nonzero"/></svg>
